<svg viewBox="0 0 71 171.8" xmlns="http://www.w3.org/2000/svg" xmlns:xlink="http://www.w3.org/1999/xlink" id="Layer_1" overflow="hidden"><defs></defs><path d="M-670.2 957.1C-669.638 956.392-669.316 955.523-669.28 954.62-669.42 953.51-669.4 952.96-668.36 950.68-667.753 949.468-667.5 948.109-667.63 946.76-667.63 946.76-665.22 946.99-666.63 950.59-667.53 952.79-662.06 948.26-660.57 946.74-660.57 946.74-659.07 946.53-659.91 948.63-660.75 950.73-659.14 949.56-660.99 953.49-662.84 957.42-665.92 961.14-668.59 959.71-671.26 958.28-670.2 957.1-670.2 957.1Z" fill="#F5AE94" transform="translate(730.7 -896.94)"/><path d="M-690.44 954.56C-690.44 954.56-688.27 976.92-681.72 978.34-675.72 979.65-662.05 958.21-662.05 958.21L-671.85 957.47-678.95 966.21C-678.95 966.21-679.57 950-686.2 942.49Z" fill="#F4F4F4" transform="translate(730.7 -896.94)"/><path d="M-718.15 1065.51-706.79 1064.23C-707.33 1063.35-707.6 1060.64-707.79 1058.71-707.98 1056.05-707.91 1052.55-707.91 1052.55-707.91 1052.55-715.41 1050.72-715.41 1052.55-715.411 1054.64-715.731 1056.72-716.36 1058.71-717.12 1061.78-718.15 1065.51-718.15 1065.51Z" fill="#22272E" transform="translate(730.7 -896.94)"/><path d="M-718.36 1066.31-718.36 1066C-718.36 1066.62-718.17 1066.32-717.89 1067.24L-706 1067.24C-705.73 1066.32-705.56 1066.62-705.54 1066-705.54 1065.94-705.54 1066.14-705.54 1066.08-705.54 1063.24-708.42 1061.08-711.97 1061.08-715.52 1061.08-718.36 1063.47-718.36 1066.31Z" fill="#22272E" transform="translate(730.7 -896.94)"/><path d="M-707.74 1059.88C-707.93 1057.13-707.86 1052.55-707.86 1052.55-707.86 1052.55-715.36 1050.72-715.36 1052.55-715.42 1055.02-715.738 1057.48-716.31 1059.88Z" fill="#617085" transform="translate(730.7 -896.94)"/><path d="M-718.36 1065.84C-718.36 1065.84-718.17 1066.75-717.89 1066.75L-706 1066.75C-705.73 1066.75-705.56 1065.84-705.54 1065.84Z" stroke="#515D6E" stroke-miterlimit="10" fill="#515D6E" transform="translate(730.7 -896.94)"/><path d="M-714.09 1062C-713.2 1060.76-711.09 1061.19-710.09 1062-709.94 1062.12-710.09 1062.32-710.26 1062.29-710.84 1062.1-711.431 1061.95-712.03 1061.83-712.73 1061.83-713.26 1062.22-713.91 1062.27-714.02 1062.27-714.107 1062.17-714.103 1062.06-714.102 1062.04-714.098 1062.02-714.09 1062Z" fill="#515D6E" transform="translate(730.7 -896.94)"/><path d="M-713.72 1063.31C-712.72 1062.64-710.79 1062.39-709.92 1063.4-709.85 1063.48-709.857 1063.6-709.936 1063.67-709.983 1063.71-710.049 1063.73-710.11 1063.71-710.71 1063.55-711.329 1063.47-711.95 1063.48-712.56 1063.48-713.06 1063.91-713.66 1063.77-713.794 1063.74-713.874 1063.6-713.84 1063.47-713.823 1063.4-713.779 1063.34-713.72 1063.31Z" fill="#515D6E" transform="translate(730.7 -896.94)"/><path d="M-698.91 1066.18C-698.868 1066.74-698.757 1067.29-698.58 1067.82-698.58 1067.82-680.47 1068.59-679.2 1068.03-678.99 1067.94-679.05 1067.75-679.3 1067.5-679.364 1067.26-679.441 1067.03-679.53 1066.8-680.16 1065.26-681.93 1062.86-686.79 1063.16L-688.79 1062.16C-689.508 1061.62-690.005 1060.83-690.19 1059.95-690.765 1057.98-691.011 1055.92-690.92 1053.87L-698.6 1053.96C-698.6 1053.96-698.87 1056.79-699 1059.96-699.108 1062.03-699.078 1064.11-698.91 1066.18Z" fill="#22272E" transform="translate(730.7 -896.94)"/><path d="M-690.17 1060.8C-690.731 1058.67-690.977 1056.48-690.9 1054.28L-698.58 1054.6C-698.58 1054.6-698.85 1058.05-698.98 1060.8Z" fill="#617085" transform="translate(730.7 -896.94)"/><path d="M-698.91 1066.18C-698.868 1066.74-698.757 1067.29-698.58 1067.82-698.58 1067.82-680.47 1068.59-679.2 1068.03-678.99 1067.94-679.05 1067.75-679.3 1067.5-679.364 1067.26-679.441 1067.03-679.53 1066.8-682.69 1066.82-694 1066.84-698.91 1066.18Z" stroke="#515D6E" stroke-miterlimit="10" fill="#515D6E" transform="translate(730.7 -896.94)"/><path d="M-688.69 1063.58C-688.234 1062.72-687.163 1062.38-686.299 1062.84-686.269 1062.86-686.239 1062.87-686.21 1062.89-686.152 1062.92-686.131 1063-686.163 1063.05-686.174 1063.07-686.19 1063.09-686.21 1063.1-686.55 1063.29-686.94 1063.18-687.31 1063.25-687.68 1063.32-687.87 1063.64-688.16 1063.85-688.45 1064.06-688.79 1063.87-688.69 1063.58Z" fill="#515D6E" transform="translate(730.7 -896.94)"/><path d="M-691.34 1062.48C-691.03 1061.85-690.411 1061.43-689.71 1061.37-689.22 1061.37-688.18 1061.5-688.32 1062.12-688.344 1062.17-688.395 1062.2-688.45 1062.2-688.77 1062.2-689.04 1062.02-689.36 1062.03-689.738 1062.05-690.094 1062.21-690.36 1062.48-690.6 1062.69-690.68 1062.95-691.06 1062.99-691.44 1063.03-691.4 1062.63-691.34 1062.48Z" fill="#515D6E" transform="translate(730.7 -896.94)"/><path d="M-686.22 942.5C-686.22 942.5-703.36 939.29-719.65 942.07-719.65 942.07-716 973.15-714.72 979.79-714.72 979.79-701.86 983.01-690.72 979.58-690.72 979.58-686 948.5-686.22 942.5Z" fill="#F4F4F4" transform="translate(730.7 -896.94)"/><path d="M-697.35 940.53C-697.317 943.363-699.587 945.687-702.42 945.72-702.446 945.72-702.473 945.72-702.5 945.72L-702.5 945.72C-705.333 945.731-707.639 943.444-707.65 940.61-707.65 940.584-707.65 940.557-707.65 940.53L-707.65 934C-707.678 931.167-705.403 928.848-702.57 928.82-702.547 928.82-702.523 928.82-702.5 928.82L-702.5 928.82C-699.667 928.809-697.361 931.096-697.35 933.93-697.35 933.953-697.35 933.977-697.35 934Z" fill="#D8826C" transform="translate(730.7 -896.94)"/><path d="M-703.29 949.79C-703.29 950.199-702.959 950.53-702.55 950.53-702.141 950.53-701.81 950.199-701.81 949.79-701.81 949.381-702.141 949.05-702.55 949.05-702.959 949.05-703.29 949.381-703.29 949.79Z" fill="#E8E9EA" transform="translate(730.7 -896.94)"/><path d="M-703.29 957.47C-703.29 957.879-702.959 958.21-702.55 958.21-702.141 958.21-701.81 957.879-701.81 957.47-701.81 957.061-702.141 956.73-702.55 956.73-702.959 956.73-703.29 957.061-703.29 957.47Z" fill="#E8E9EA" transform="translate(730.7 -896.94)"/><path d="M-703.23 972.84C-703.23 973.249-702.899 973.58-702.49 973.58-702.081 973.58-701.75 973.249-701.75 972.84-701.75 972.431-702.081 972.1-702.49 972.1-702.899 972.1-703.23 972.431-703.23 972.84Z" fill="#E8E9EA" transform="translate(730.7 -896.94)"/><path d="M-703.29 965.12C-703.29 965.529-702.959 965.86-702.55 965.86-702.141 965.86-701.81 965.529-701.81 965.12-701.81 964.711-702.141 964.38-702.55 964.38-702.956 964.385-703.285 964.714-703.29 965.12Z" fill="#E8E9EA" transform="translate(730.7 -896.94)"/><path d="M-697.36 937.36-693.29 941.64-696.72 950.64-702.5 945.71C-702.5 945.71-698 941-697.36 937.36Z" fill="#E8E9EA" transform="translate(730.7 -896.94)"/><path d="M-707.65 937.36-711.72 941.64-708.29 950.64-702.5 945.71C-702.5 945.71-707 941-707.65 937.36Z" fill="#E8E9EA" transform="translate(730.7 -896.94)"/><path d="M-716.87 1058.05-706.95 1058.05-703.41 997.7C-703.079 997.762-702.745 997.805-702.41 997.83L-699.57 1058.97-689.63 1058.97C-689.47 1034.23-690.92 980.09-690.71 979.46L-711.95 979.26-714.71 979.26C-714.89 981.09-715.06 981.53-715.22 982.87-717.27 1000.55-716.93 1049.8-716.87 1058.05Z" fill="#22272E" transform="translate(730.7 -896.94)"/><path d="M-715.23 983.22-712.23 983.22C-712.23 982.05-712.09 980.89-711.98 979.72L-714.74 979.72C-714.9 980.72-715.07 981.88-715.23 983.22Z" fill="#8C4C09" transform="translate(730.7 -896.94)"/><path d="M-709.46 980-697.21 979.89C-697.21 981.19-697.3 982.49-697.32 983.79L-709.68 983.57C-709.465 982.393-709.391 981.195-709.46 980Z" fill="#8C4C09" transform="translate(730.7 -896.94)"/><path d="M-694.24 979.88-690.72 979.88-690.72 983.95-694.58 983.88C-694.27 982.571-694.155 981.223-694.24 979.88Z" fill="#8C4C09" transform="translate(730.7 -896.94)"/><rect x="23.54" y="81.41" width="6.41" height="5.5" fill="#C28C4B"/><path d="M-691.19 926.05C-691.19 930.12-695.51 933.43-698.4 934.98-700.051 935.882-701.946 936.232-703.81 935.98-715.28 933.37-714.47 927.91-715.12 923.38-715.618 919.548-715.493 915.662-714.75 911.87-714.626 911.208-714.415 910.566-714.12 909.96-712.35 906.25-708.12 904.82-708.12 904.82-705.548 903.944-702.794 903.737-700.12 904.22-696.36 904.91-693.4 906.86-692.45 910.71-692.161 911.959-691.948 913.225-691.81 914.5-691.49 917.11-691.32 919.74-691.22 922.37-691.22 923.63-691.2 924.84-691.19 926.05Z" fill="#F5AE94" transform="translate(730.7 -896.94)"/><path d="M-703.25 914.65C-703.25 914.65-704.13 913.88-704.09 916.87-704.05 919.86-703.68 922.99-703.68 922.99-703.68 922.99-705.75 921.99-704.97 923.57-704.518 924.38-703.702 924.92-702.78 925.02-702.098 925.161-701.395 924.901-700.97 924.35-700.75 924.1-699.61 922.77-699.97 922.41-700.17 922.24-701.21 922.75-701.48 922.84-701.53 922.84-701.8 913.89-703.25 914.65Z" fill="#DD876C" transform="translate(730.7 -896.94)"/><path d="M-699.81 912.55C-699.81 912.55-694.61 911.55-692.97 915.33-692.97 915.33-698.79 913.58-699.89 914.45Z" fill="#0D0D0C" transform="translate(730.7 -896.94)"/><path d="M-706.06 913C-706.06 913-711.19 911.63-713.06 915.35-713.06 915.35-707.15 913.97-706.11 914.9Z" fill="#0D0D0C" transform="translate(730.7 -896.94)"/><path d="M-687.43 902.65C-688.149 903.688-689.211 904.439-690.43 904.77-689.316 903.784-688.675 902.368-688.67 900.88-688.682 900.82-688.74 900.782-688.799 900.794-688.806 900.795-688.813 900.797-688.82 900.8-689.012 900.92-689.189 901.061-689.35 901.22-690.342 901.942-691.638 902.093-692.77 901.62-694.571 900.796-696.283 899.791-697.88 898.62-699.694 897.468-701.812 896.886-703.96 896.95-705.13 896.997-706.285 897.234-707.38 897.65-710.08 898.65-713.28 900.54-714 903.54-714.096 903.956-714.143 904.383-714.14 904.81-714.14 905.07-713.91 905.87-714.02 906.08-714.13 906.29-713.96 906.29-713.88 906.24-713.832 906.243-713.787 906.215-713.77 906.17-713.765 906.134-713.765 906.096-713.77 906.06-712.5 905.06-710.38 909.06-709.61 909.7-706.61 912.17-702.41 912.52-698.89 911.56-694.683 910.411-690.97 907.913-688.32 904.45-687.937 903.917-687.603 903.352-687.32 902.76-687.32 902.699-687.369 902.65-687.43 902.65Z" fill="#242422" transform="translate(730.7 -896.94)"/><path d="M-691.66 917.53C-691.66 917.53-689.16 911.85-687.09 916.32-685.44 919.88-688.18 923.32-690.4 923.12-692.62 922.92-691.66 917.53-691.66 917.53Z" fill="#F0A98F" transform="translate(730.7 -896.94)"/><path d="M-691.51 918.41C-691.51 918.41-689.65 914.77-688.68 916.08-688.072 917.001-687.742 918.077-687.73 919.18-687.73 919.18-688.42 917.28-689.73 918.53-689.73 918.53-687.92 921.53-690.93 920.88-691.742 920.337-691.995 919.258-691.51 918.41Z" fill="#D8826C" transform="translate(730.7 -896.94)"/><path d="M-711 905.53C-711 905.53-710.71 910.18-712.64 912.43-714.57 914.68-714.75 919.26-714.75 919.26-714.75 919.26-721.82 910.26-713.75 905-712.806 904.655-711.748 904.859-711 905.53Z" fill="#242422" transform="translate(730.7 -896.94)"/><path d="M-695.51 907.36C-693.338 910.517-691.965 914.155-691.51 917.96-691.51 917.96-686.91 911.11-691.3 905.32-691.33 905.32-696.15 903.29-695.51 907.36Z" fill="#242422" transform="translate(730.7 -896.94)"/><path d="M-714.65 918.39C-714.65 918.39-717.16 912.71-719.23 917.18-720.87 920.74-718.13 924.18-715.91 923.98-713.69 923.78-714.65 918.39-714.65 918.39Z" fill="#F0A98F" transform="translate(730.7 -896.94)"/><path d="M-714.8 919.26C-714.8 919.26-716.66 915.62-717.63 916.93-718.255 917.849-718.602 918.929-718.63 920.04-718.63 920.04-717.94 918.14-716.63 919.39-716.63 919.39-718.43 922.39-715.42 921.74-714.597 921.203-714.326 920.122-714.8 919.26Z" fill="#D8826C" transform="translate(730.7 -896.94)"/><path d="M-707 916C-708.013 915.849-709.037 915.795-710.06 915.84-710.701 916.88-711.262 917.966-711.74 919.09-712.1 919.917-712.378 920.778-712.57 921.66-711.592 922.477-710.343 922.898-709.07 922.84-708.6 920.48-708.28 917.91-707 916Z" fill="#EAECED" opacity="0.4" transform="translate(730.7 -896.94)"/><path d="M-693.94 915.72C-694.965 915.667-695.993 915.71-697.01 915.85-697.541 916.95-697.992 918.086-698.36 919.25-698.642 920.108-698.837 920.993-698.94 921.89-697.886 922.607-696.602 922.903-695.34 922.72-695.06 920.37-695 917.77-693.94 915.72Z" fill="#EAECED" opacity="0.4" transform="translate(730.7 -896.94)"/><path d="M-691.37 920.14C-690.37 917.14-690.65 915.86-690.68 915.72L-690.75 915.48-690.99 915.39C-694.002 914.325-697.307 914.451-700.23 915.74-700.731 915.967-701.213 916.234-701.67 916.54L-701.67 916.45-703.41 916.52-703.41 916.44-703.64 916.32C-704.146 916.04-704.67 915.796-705.21 915.59-708.227 914.497-711.546 914.586-714.5 915.84L-714.73 915.95-714.73 916.19C-714.73 916.33-714.97 917.63-713.73 920.55-713.286 921.626-712.395 922.454-711.29 922.82-710.329 923.163-709.307 923.299-708.29 923.22-704.88 922.84-704.29 921.22-703.88 920.12L-703.82 919.94C-703.582 919.314-703.414 918.663-703.32 918-702.828 917.808-702.282 917.808-701.79 918-701.66 918.735-701.438 919.451-701.13 920.13-701.13 920.18-701.13 920.24-701.05 920.3-700.58 921.36-699.88 922.96-696.46 923.12-695.449 923.125-694.448 922.921-693.52 922.52-692.503 922.061-691.723 921.199-691.37 920.14ZM-708.53 922.21C-709.381 922.267-710.235 922.152-711.04 921.87-711.873 921.593-712.55 920.975-712.9 920.17-713.422 919.06-713.734 917.863-713.82 916.64-711.179 915.629-708.265 915.594-705.6 916.54-705.193 916.692-704.795 916.869-704.41 917.07-704.423 917.93-704.592 918.781-704.91 919.58L-704.97 919.77C-705.34 920.77-705.76 921.91-708.53 922.21ZM-694.08 921.63C-694.865 921.96-695.708 922.129-696.56 922.13-699.35 922.01-699.83 920.9-700.26 919.92-700.291 919.862-700.318 919.802-700.34 919.74-700.708 918.964-700.932 918.127-701 917.27-700.63 917.043-700.245 916.84-699.85 916.66-697.251 915.549-694.341 915.396-691.64 916.23-691.642 917.456-691.876 918.671-692.33 919.81-692.617 920.645-693.257 921.31-694.08 921.63Z" fill="#5C311E" transform="translate(730.7 -896.94)"/><path d="M-707.45 926.43C-706.931 927.686-706.219 928.853-705.34 929.89-703.8 931.61-701.55 932.63-699.06 928.95-698.433 928.001-697.894 926.997-697.45 925.95-697.45 925.95-698.31 926.28-699.57 926.64-701.57 927.2-704.49 927.83-706.57 926.91L-706.57 926.91C-706.905 926.841-707.211 926.674-707.45 926.43Z" fill="#712311" transform="translate(730.7 -896.94)"/><path d="M-705.34 929.9C-703.8 931.62-701.55 932.63-699.06 928.95-700.4 928.59-703.54 928-705.34 929.9Z" fill="#D5503B" transform="translate(730.7 -896.94)"/><path d="M-706.53 927C-703.28 930.63-700.92 928.72-699.53 926.7-701.55 927.24-704.49 927.81-706.53 927Z" fill="#E8E9EA" transform="translate(730.7 -896.94)"/><path d="M-711.82 919.06C-711.632 920.624-710.215 921.742-708.65 921.56-707.074 921.533-705.818 920.236-705.84 918.66-706.023 917.092-707.442 915.968-709.01 916.15-710.587 916.183-711.842 917.483-711.82 919.06Z" fill="#E8E9EA" transform="translate(730.7 -896.94)"/><path d="M-706.91 918.63C-706.701 919.792-707.455 920.909-708.61 921.15-709.779 921.054-710.662 920.051-710.61 918.88-710.819 917.718-710.065 916.601-708.91 916.36-707.741 916.456-706.858 917.459-706.91 918.63Z" fill="#5C8696" transform="translate(730.7 -896.94)"/><path d="M-707.45 918.66C-707.297 919.489-707.834 920.289-708.66 920.46-709.498 920.396-710.135 919.68-710.1 918.84-710.247 918.014-709.711 917.221-708.89 917.05-708.051 917.104-707.41 917.82-707.45 918.66Z" fill="#0D0D0C" transform="translate(730.7 -896.94)"/><path d="M-707.47 917.05C-707.47 917.3-707.74 917.53-708.12 917.56-708.5 917.59-708.82 917.39-708.84 917.14-708.86 916.89-708.56 916.66-708.19 916.63-707.82 916.6-707.49 916.79-707.47 917.05Z" fill="#E8E9EA" transform="translate(730.7 -896.94)"/><path d="M-699.84 918.72C-699.662 920.295-698.246 921.43-696.67 921.26-695.086 921.216-693.832 919.905-693.86 918.32-694.038 916.741-695.461 915.604-697.04 915.78-698.623 915.824-699.874 917.137-699.84 918.72Z" fill="#E8E9EA" transform="translate(730.7 -896.94)"/><path d="M-695.36 918.32C-695.151 919.485-695.91 920.603-697.07 920.84-698.236 920.739-699.117 919.74-699.07 918.57-699.273 917.404-698.518 916.286-697.36 916.04-696.19 916.141-695.307 917.147-695.36 918.32Z" fill="#5C8696" transform="translate(730.7 -896.94)"/><path d="M-695.9 918.35C-695.758 919.177-696.29 919.97-697.11 920.15-697.948 920.086-698.585 919.37-698.55 918.53-698.698 917.704-698.161 916.911-697.34 916.74-696.504 916.799-695.865 917.512-695.9 918.35Z" fill="#0D0D0C" transform="translate(730.7 -896.94)"/><path d="M-695.92 916.73C-695.92 916.99-696.2 917.22-696.58 917.25-696.96 917.28-697.27 917.08-697.29 916.83-697.31 916.58-697.02 916.34-696.64 916.32-696.26 916.3-695.94 916.48-695.92 916.73Z" fill="#E8E9EA" transform="translate(730.7 -896.94)"/><path d="M-720.93 999.82C-721.85 998.29-721.77 996.67-722.13 994.96-722.238 994.371-722.52 993.828-722.94 993.4-723.13 993.22-723.43 993.08-723.53 992.84L-721.73 987.22C-721.25 985.41-722.05 983.6-724.15 983.43-725.236 983.327-726.317 983.665-727.15 984.37-727.46 989.18-727.42 992.62-727.42 992.7-727.631 993.352-727.905 993.982-728.24 994.58-728.85 995.97-729.39 997.37-729.91 998.78-730.43 1000.19-731.28 1002.37-730.25 1003.78-730.06 1004.03-729.5 1003.92-729.55 1003.59-729.787 1002.03-729.629 1000.43-729.09 998.94-728.99 998.64-728.89 998.32-728.78 998.01-729.34 1000.41-729.37 1002.91-727.86 1004.83-727.59 1005.17-726.86 1005.04-726.86 1004.57-726.86 1004.47-726.86 1004.37-726.86 1004.27-726.654 1004.65-726.413 1005.02-726.14 1005.36-725.66 1005.93-724.56 1005.54-724.8 1004.83-725.04 1004.12-725.37 1003.19-725.63 1002.38-725.31 1002.77-724.9 1004.38-724.43 1004.67-724.091 1004.84-723.675 1004.71-723.501 1004.37-723.464 1004.3-723.44 1004.22-723.43 1004.14-723.35 1002.86-724.87 997.84-723.83 997.63-722.79 997.42-724.17 1000.43-721.71 1001.56-720.57 1002.1-719.92 1001.51-720.93 999.82Z" fill="#F5AE94" transform="translate(730.7 -896.94)"/><path d="M-719.62 942.07C-719.62 942.07-730.77 952.57-728.84 994.38L-721.76 994.17-718.11 958.79C-718.11 958.79-717 947.43-719.62 942.07Z" fill="#F4F4F4" transform="translate(730.7 -896.94)"/><path d="M-693.53 951.25-693.53 953.83-693.53 953.83-695.45 952.55-695.45 952.55-694.97 952.23-694.5 951.92-694.03 951.61-693.53 951.27-691.44 951.27-690.8 951.7-690.09 952.17-689.59 952.5-689.5 952.56C-689.5 952.56-691.44 953.85-691.5 953.85L-691.5 951.31C-691.5 951.31-691.5 951.31-691.5 951.31L-693.5 951.31Z" fill="#777777" transform="translate(730.7 -896.94)"/><path d="M-693.53 951.25-691.53 951.25-691.62 951.48C-691.69 951.67-691.77 951.87-691.85 952.06-691.93 952.25-692 952.45-692.07 952.65L-692.4 953.49-692.55 953.87-692.55 953.87C-692.55 953.87-692.55 953.87-692.55 953.87L-692.76 953.32-693.12 952.39C-693.25 952.06-693.38 951.73-693.5 951.39Z" fill="#B30C37" transform="translate(730.7 -896.94)"/><path d="M-693.72 955.41-693.81 955.54-693.94 955.54-693.94 955.54-693.81 955.38-693.81 955.38C-693.81 955.38-693.81 955.38-693.81 955.38L-693.87 955.3-693.97 955.2-693.97 955.2-693.97 955.71-694.09 955.71-694.09 955-694.09 955C-694.09 955-694.09 955-694.09 955L-694.01 955C-694.01 955-694.01 955-694.01 955L-693.78 955.25-693.78 955.25-693.78 955.25-693.57 955.01-693.46 955.01C-693.46 955.01-693.46 955.01-693.46 955.01L-693.46 955.64-693.58 955.64-693.58 955.14-693.58 955.14-693.74 955.33C-693.74 955.33-693.74 955.33-693.74 955.33L-693.6 955.5-693.6 955.5-693.68 955.5C-693.699 955.511-693.721 955.511-693.74 955.5-693.735 955.47-693.728 955.44-693.72 955.41Z" fill="#B30C37" transform="translate(730.7 -896.94)"/><path d="M-694 954.33-694 954.81C-694 954.81-694 954.81-694 954.81L-694 954.81-694 954.81-694 954.81-694 954.2C-694 954.2-694 954.2-694 954.2L-693.91 954.2-693.56 954.66-693.56 954.66C-693.56 954.66-693.56 954.66-693.56 954.66L-693.56 954.21-693.56 954.21C-693.56 954.21-693.56 954.21-693.56 954.21L-693.5 954.21C-693.5 954.21-693.5 954.21-693.5 954.21L-693.5 954.21-693.5 954.82C-693.5 954.82-693.5 954.82-693.5 954.82L-693.56 954.82C-693.56 954.82-693.56 954.82-693.56 954.82L-693.75 954.58-693.93 954.34Z" fill="#B30C37" transform="translate(730.7 -896.94)"/><path d="M-692.2 955.37-691.98 955.66-692.11 955.66-692.3 955.4-692.41 955.4C-692.41 955.4-692.41 955.4-692.41 955.4L-692.41 955.64C-692.41 955.64-692.41 955.64-692.41 955.64L-692.48 955.64C-692.48 955.64-692.48 955.64-692.48 955.64L-692.48 955.64-692.48 955-692.26 955C-692.207 954.99-692.153 954.99-692.1 955-692.015 955.04-691.979 955.141-692.019 955.226-692.025 955.238-692.032 955.25-692.04 955.26L-692.14 955.33ZM-692.42 955.2-692.42 955.29C-692.42 955.29-692.42 955.29-692.42 955.29L-692.28 955.29-692.22 955.29C-692.181 955.248-692.181 955.182-692.22 955.14L-692.22 955.14-692.22 955.14C-692.272 955.125-692.328 955.125-692.38 955.14L-692.38 955.14Z" fill="#B30C37" transform="translate(730.7 -896.94)"/><path d="M-691.44 955-691.72 955.31-691.39 955.65-691.51 955.65-691.51 955.65-691.79 955.36-691.79 955.36-691.79 955.67-691.91 955.67-691.91 955-691.81 955C-691.81 955-691.81 955-691.81 955L-691.81 955.29-691.81 955.29-691.56 955.01-691.44 955.01Z" fill="#B30C37" transform="translate(730.7 -896.94)"/><path d="M-692.6 955.67-692.7 955.67-692.7 955.67-692.76 955.54-692.76 955.54C-692.76 955.54-692.76 955.54-692.76 955.54L-693.03 955.54C-693.03 955.54-693.03 955.54-693.03 955.54L-693.1 955.7C-693.1 955.7-693.1 955.7-693.1 955.7L-693.18 955.7-693.18 955.7-692.91 955.09C-692.91 955.09-692.91 955.09-692.91 955.09L-692.85 955.09C-692.85 955.09-692.85 955.09-692.85 955.09L-692.77 955.25-692.56 955.7C-692.56 955.7-692.6 955.65-692.6 955.67ZM-692.84 955.39C-692.84 955.39-692.96 955.1-692.97 955.09-693.001 955.192-693.037 955.292-693.08 955.39Z" fill="#B30C37" transform="translate(730.7 -896.94)"/><path d="M-691.32 955.52-691.32 955.52-691.21 955.52-691.14 955.52C-691.107 955.491-691.104 955.44-691.133 955.407-691.135 955.405-691.138 955.402-691.14 955.4-691.14 955.4-691.14 955.4-691.2 955.34L-691.29 955.34C-691.33 955.323-691.364 955.295-691.39 955.26-691.429 955.203-691.429 955.127-691.39 955.07-691.367 955.03-691.326 955.004-691.28 955-691.228 954.985-691.172 954.985-691.12 955L-691.03 955C-691.03 955-691.03 955-691.03 955L-691.03 955.09-691.03 955.09C-691.066 955.08-691.104 955.08-691.14 955.09L-691.21 955.09C-691.232 955.116-691.232 955.154-691.21 955.18-691.194 955.184-691.177 955.184-691.16 955.18L-691.09 955.18-690.98 955.24C-690.952 955.26-690.931 955.288-690.92 955.32-690.883 955.412-690.929 955.517-691.021 955.554-691.027 955.556-691.034 955.558-691.04 955.56-691.133 955.599-691.237 955.599-691.33 955.56-691.33 955.56-691.33 955.56-691.33 955.56Z" fill="#B30C37" transform="translate(730.7 -896.94)"/><path d="M-692.7 954.52-692.7 954.2-692.29 954.2C-692.29 954.2-692.29 954.2-692.29 954.2L-692.29 954.2C-692.29 954.2-692.29 954.2-692.29 954.2L-692.59 954.2C-692.59 954.2-692.59 954.2-692.59 954.2-692.595 954.25-692.595 954.3-692.59 954.35L-692.36 954.35-692.36 954.41-692.57 954.41C-692.57 954.41-692.57 954.41-692.57 954.41-692.575 954.47-692.575 954.53-692.57 954.59-692.57 954.59-692.57 954.59-692.57 954.59L-692.29 954.59C-692.29 954.59-692.29 954.59-692.29 954.59L-692.29 954.64-692.69 954.64C-692.69 954.64-692.69 954.64-692.69 954.64Z" fill="#B30C37" transform="translate(730.7 -896.94)"/><path d="M-691.28 954.18-691 954.18C-691 954.18-691 954.18-691 954.18L-691 954.24-691.23 954.24C-691.23 954.24-691.23 954.24-691.23 954.24L-691.23 954.78C-691.23 954.78-691.23 954.78-691.23 954.78L-691.3 954.78-691.3 954.78-691.3 954.78-691.3 954.25C-691.3 954.25-691.3 954.25-691.3 954.25L-691.51 954.25C-691.51 954.25-691.51 954.25-691.51 954.25L-691.51 954.25C-691.51 954.25-691.51 954.25-691.51 954.25L-691.22 954.25Z" fill="#B30C37" transform="translate(730.7 -896.94)"/></svg>