<svg width="901.6" height="1164.8" viewBox="0 0 901.6 1164.8" xmlns="http://www.w3.org/2000/svg" xmlns:xlink="http://www.w3.org/1999/xlink" overflow="visible"><defs></defs><g><path d="M900.8 452.9C904.4 470.5 896.2 486.9 882.5 489.7 868.8 492.5 854.8 480.5 851.2 463 847.6 445.4 855.8 429 869.5 426.2 883.2 423.4 897.2 435.3 900.8 452.9Z" fill="#CFA345"/><path d="M322.5 785.8 287.3 415.4C287.3 415.4 368.7 412.9 405.1 409.7L587.6 785.8 322.5 785.8Z" fill="#E2D2CA"/><path d="M587.6 785.8 538.8 417.7C538.8 417.7 383 400.8 287.2 415.4L587.6 785.8Z" fill="#E2D2CA"/><rect x="745.4" y="625.5" width="15.1" height="470.8" fill="#807066" transform="matrix(-1 -1.22465e-16 1.22465e-16 -1 1505.87 1721.88)"/><rect x="173.3" y="625.6" width="15.1" height="470.8" fill="#807066" transform="matrix(-1 6.63209e-05 -6.63209e-05 -1 361.778 1721.89)"/><g><path d="M291.6 1081.7 336.5 782.8 327.9 781.4 283 1080.3Z" fill="#5C5049"/></g><g><path d="M334.6 1081.7 379.5 782.8 370.9 781.4 325.9 1080.3Z" fill="#5C5049"/></g><g><path d="M628.9 1081.7 637.6 1080.3 592.6 781.4 584 782.8Z" fill="#5C5049"/></g><g><path d="M602.1 1081.7 610.8 1080.3 565.8 781.4 557.2 782.8Z" fill="#5C5049"/></g><rect x="322.5" y="754.8" width="265.1" height="31.1" fill="#C9BBB4" transform="matrix(-1 2.22561e-05 -2.22561e-05 -1 910.067 1540.57)"/><path d="M610.8 1075.5C610.8 1075.5 623.4 1086.5 634.6 1103.4 645.9 1120.3 675.8 1121.2 677.1 1144.3 678.4 1167.4 636.4 1168.1 614.4 1160.6 592.4 1153.1 589 1130.6 575.7 1124.9 562.4 1119.3 555.5 1114.7 556.5 1103.7 557.5 1092.7 564.9 1074.8 564.9 1074.8 564.9 1074.8 573.2 1077.4 578 1078 582.9 1078.5 599.2 1078.7 610.8 1075.5Z" fill="#505459"/><g><path d="M300.8 1061.8C300.8 1061.8 289.2 1074.6 282.4 1082.3 275.6 1090 249.4 1103.9 249.3 1126.9 249.1 1151.8 268.6 1149.7 285.9 1148.8 303.2 1147.9 317.3 1135.9 324.6 1121.8 331.9 1107.7 351.3 1104 352.7 1092.6 354.1 1081.2 343.7 1060.7 343.7 1060.7L300.8 1061.8Z" fill="#505459"/></g><path d="M331 662.7C331 662.7 267.1 721.2 266.7 752.9 266.3 784.6 278.4 872.6 279.3 890 280.2 907.4 296.6 1052.6 296.6 1052.6 296.6 1052.6 309.3 1064.4 347.2 1049.6 347.2 1049.6 355.6 911.9 356.5 897.1 357.4 882.4 357.4 814.4 365.9 804.6 374.4 794.8 425.8 763.9 432.5 758.1 439.2 752.3 556 780.2 568.2 783.3 599.9 791.5 585.4 846.6 578.4 871.3 566.7 912.6 556.4 1061.9 556.4 1061.9 556.4 1061.9 579 1071.5 616.8 1063.4 616.8 1063.4 691 793.8 693.4 767 695.8 740.2 697 696 514.1 662.4L331 662.7Z" fill="#35385C"/><path d="M475 533.7 475 533.7C477.8 547.1 480.3 557.8 481.8 561.1 489.2 525.1 482.5 478.9 482.5 478.9 481.6 501 475 533.7 475 533.7Z" fill="#2F5485"/><g><path d="M101.4 186C101.4 186 95.5 165 94.9 162.3 94.3 159.6 88.7 154.1 81.8 148.5 74.8 142.8 62.9 138.3 61.4 138.7 59.9 139.2 58.2 138.9 55.8 142.1 53.4 145.2 53 149.2 53 149.2 53 149.2 48.2 151.7 48.1 156.6 48.1 156.6 43.7 159.1 44.5 164.8 44.5 164.8 40.2 167.4 41.2 171.4 41.2 171.4 46.8 176.8 48.3 179.5 49.8 182.1 62.2 192.6 75.7 200.9 75.7 200.9 92.9 213.5 101.4 186Z" fill="#EEA886"/><path d="M75.6 169.4C75.6 169.4 73.1 178.2 73.6 181.1 74.1 183.9 53.5 184.4 53.5 184.4 53.5 184.4 64.8 166.6 75.6 169.4Z" fill="#CF8C6C"/><g><path d="M558.8 56.4C558.8 56.4 565.7 10.9 568.7 8.4 571.7 5.9 574.2 6.6 573.7 10.9 573.2 15.2 568.3 55.1 568.3 55.1 568.3 55.1 585.5 3.3 587.5 0.7 588.7-0.8 593.5 0.2 593.4 2.6 593.4 4.9 579.3 57.5 579.3 57.5 579.3 57.5 595.5 9.1 597.8 7.5 599.8 6.1 604.1 8.2 603.2 11.8 602.3 15.5 589.8 61.4 589.8 61.4 589.8 61.4 603.8 27.1 606.7 27 608.5 26.9 612.6 27.6 608.7 36.4 604.8 45.1 597.8 66.8 597.8 66.8L558.8 56.4Z" fill="#EEA886"/></g><g><g><path d="M559.1 110.4C559.1 110.4 560.4 95.2 552.9 90.3 546.5 86.1 540.9 76.3 539.2 73.2 536.9 69.1 525.4 59 530.2 56.4 535.1 53.8 549.9 72.2 553.8 75.5 557.6 78.8 556.9 56.8 560 52.9 563 49 599.2 52.4 598 67.4 596.8 82.4 585.5 96.9 585.8 99.7 586.1 102.4 585.3 110.7 585.3 110.7L559.1 110.4Z" fill="#EEA886"/></g></g><path d="M511 637.9 514 662.7C514 662.7 456.5 676.6 331 662.7L333.6 641.9 511 637.9Z" fill="#FF7E55"/><path d="M420.2 296.2C420.2 296.2 458.7 303.8 475.9 293.3 482.5 297.9 496.4 359.6 498.6 373.7 500.8 387.8 500.9 447.8 497.2 470.6 493.6 493.3 523.4 626.2 514 642.9 514 642.9 424.7 644.9 331.3 642.8 331.3 642.8 332.3 550.6 325.4 520.8 316.5 482.5 295.6 394.4 295.6 394.4 295.6 394.4 286.8 320.5 297.6 320.1 324.8 319.2 372.2 299.8 372.2 299.8L420.2 296.2Z" fill="#FF7E55"/><path d="M441.8 298.6C441.8 298.6 443.2 285.6 403 286.9 362.8 288.2 336.8 300.1 337.3 311.6 337.8 323.1 442.6 340.8 442.6 340.8L441.8 298.6Z" fill="#FF7E55"/><path d="M385.5 154.3C385.5 154.3 439.3 127.6 443.8 202.4 448.3 277.2 436 286.2 398 279.7 360 273.3 351.9 226.6 344.7 204.5 337.4 182.4 367.5 159.5 385.5 154.3Z" fill="#EEA987"/><path d="M430.7 307C430.7 307 417.9 314.4 372.1 299.8 372.1 299.8 370.1 269.7 358.5 242.6 346.9 215.5 421.1 273.6 421.1 273.6 420.4 274.2 420.6 277 421.4 280.8 422.1 284.1 423.3 288.1 424.8 292.1 428.4 301.3 427.6 299.7 430.7 307Z" fill="#EEA987"/><path d="M356.4 240.6C356.4 240.6 354.1 220.7 362.2 218 370.3 215.3 375.8 226.3 375.8 226.3L382.4 225.2C382.4 225.2 374.3 205.7 381.7 200.2 389.1 194.7 436.7 193.7 441.9 186.3 447.1 178.9 434.2 139.5 420.9 136.9 407.6 134.3 371.6 130.1 351.4 152.3 351.4 152.3 333.1 162.6 334 178.5 334.9 194.6 348.5 230.5 356.4 240.6Z" fill="#3A3F47"/><path d="M424.9 292.2C380.7 289.6 371.6 265.6 371.4 265.2 390.6 285.2 421.5 280.8 421.5 280.8 422.2 284.1 423.4 288.2 424.9 292.2Z" fill="#A77860"/><path d="M370.6 208.6C367.4 202.3 353.5 204.6 356.1 214.9 358.6 225.1 371.9 239.9 376.2 236.4 380.6 232.8 375 217.2 370.6 208.6Z" fill="#EEA987"/><g><path d="M599.2 235.3C608.2 212 594.5 92.4 594.5 92.4L554.4 100.4C554.4 100.4 553.7 127.6 556.7 177.1 557.6 192.2 549.3 219.1 548.2 221.5 547.1 223.9 505.9 275 489.4 284.3 481.7 288.6 465.1 299.8 454.3 313.3 443.6 326.8 451.2 342.9 451.2 342.9 480.2 373 522.7 325.3 522.7 325.3 522.7 325.3 586.6 267.9 599.2 235.3Z" fill="#FF7E55"/></g><path d="M542.2 301.7C542.2 301.7 496.2 362 500 394.1 501.9 410.2 475.4 345.3 475.4 345.3L542.2 301.7Z" fill="#FF7E55"/><g><path d="M155.1 306.1C138.8 287.2 58.8 207.1 58.8 207.1L102.7 184.1C102.7 184.1 123.3 206.9 162.1 245.8 172.8 256.6 196.6 273.9 198.4 275.8 200.2 277.7 256.7 310 274.9 315.1 282.1 317.1 299.3 322.5 318.3 320.2 335.4 318.1 330.6 357.3 330.6 357.3 313.4 395.4 257.3 364.9 257.3 364.9 257.3 364.9 177.9 332.5 155.1 306.1Z" fill="#FF7E55"/></g><path d="M231.1 349.4C231.1 349.4 294.8 390.6 302.1 422.1 305.8 437.9 308.8 367.9 308.8 367.9L231.1 349.4Z" fill="#FF7E55"/><path d="M68.7 131.4 68.7 101.2C68.7 101.2 72.3 106.8 75.6 106.4 78.9 106 85.1 108 85.1 108L85.1 121 101.4 128.3 119.4 146.5 79.8 165.1 53.5 173.9 68.7 131.4Z" fill="#F5EEEC"/><path d="M46.3 171.6 4.3 200.2 0 210.8 9.1 218.6 16.3 236.2 32.1 238.5C32.1 238.5 48.9 185.5 60.5 174.3 72.1 163.2 46.3 171.6 46.3 171.6Z" fill="#F5EEEC"/><path d="M16.3 236.2 59.9 162.8 66.6 166 32.1 238.5Z" fill="#E0DAD8"/><path d="M119.4 146.4 101.4 128.2 57 167.2 59.5 173.7C59.5 173.7 102.4 157.4 119.4 146.4Z" fill="#E0DAD8"/><path d="M63.2 140.1C63.2 140.1 80.5 154.9 78.5 158 76.5 161.1 73.8 161 73.8 161L78.2 170.3C78.2 170.3 77.6 178.1 69.3 175.2 69.3 175.2 69.5 182.5 61.8 178.8 61.8 178.8 59.8 183.7 55.9 182.6 52 181.5 41.3 171.5 41.3 171.5 41.3 171.5 39.2 168.4 43.8 164.9 43.8 164.9 43 159.2 47.7 156.4 47.7 156.4 47.3 152.1 52.4 149.1 52.4 149.1 53.2 139.3 61.4 138.7 61.3 138.7 62.5 139.5 63.2 140.1Z" fill="#DB9C7C"/><path d="M94.6 162.5C94.6 162.5 83 152 74.2 149.1 72.2 148.4 70.1 148.2 68.8 149.8 67.4 151.4 68 155.4 72.8 160.2 77.6 165 81.6 173.4 81.6 173.4 81.6 173.4 87.9 176.8 94.6 162.5Z" fill="#EEA886"/></g><rect x="356.7" y="608.3" width="35.6" height="13.5" fill="#F5EEEC" transform="matrix(-1 2.80878e-05 -2.80878e-05 -1 749.065 1230.04)"/><rect x="173.3" y="621.8" width="587.2" height="20.5" fill="#BC8551" transform="matrix(-1 2.16299e-05 -2.16299e-05 -1 933.797 1264.08)"/><g><rect x="637.4" y="479" width="111.3" height="142.8" fill="#FFF7F5" transform="matrix(-1 2.60519e-05 -2.60519e-05 -1 1386.09 1100.74)"/><path d="M664.8 576.6C664.8 576.6 643.2 576.7 633.3 583.2 633.3 583.2 632.6 579.9 637.4 576.6L664.8 576.6Z" fill="#DED7D5"/><path d="M742.2 537.2C742.2 537.2 641.3 544.2 625.5 554.3 625.5 554.3 628.9 542.4 635.5 537.2L742.2 537.2Z" fill="#DED7D5"/><rect x="635.4" y="504.7" width="117.1" height="32.5" fill="#FFF7F5" transform="matrix(-1 2.47634e-05 -2.47634e-05 -1 1387.96 1041.9)"/><path d="M687.3 608C687.3 608 646.4 609.3 630.7 619.4 630.7 619.4 633.1 612.8 637.3 608L687.3 608Z" fill="#DED7D5"/><rect x="633.2" y="587.3" width="94.3" height="20.6" fill="#FFF7F5" transform="matrix(-1 2.01581e-05 -2.01581e-05 -1 1360.76 1195.3)"/></g><path d="M389.9 471.2 373.7 621.8 586.9 621.8 603 471.2Z" fill="#F5EEEC"/><path d="M481.8 544.7C478 554.6 481.4 565.2 489.5 568.4 497.6 571.5 507.3 566 511.1 556.1 514.9 546.2 511.5 535.6 503.4 532.4 495.3 529.3 485.6 534.8 481.8 544.7Z" fill="#DED7D5"/></g></svg>