<svg width="1115.5" height="1115" viewBox="0 0 1115.5 1115" xmlns="http://www.w3.org/2000/svg" xmlns:xlink="http://www.w3.org/1999/xlink" overflow="visible"><defs></defs><g><g><g><path d="M600.3 900.2C605 920.7 604.2 968.5 604.2 968.5 605.5 1013.8 600.4 1060.3 599.2 1086.2 599.2 1087 599.1 1087.8 599.1 1088.6 598.8 1094.7 598.4 1101.2 597.9 1107.8L936.6 1107.8C936.5 1101.6 936.4 1095.1 936.3 1088.6 935.6 1050.3 935 1008.3 935 978.3 1012.4 957.9 1096 931.2 1094.4 911.7 1092.8 891.6 1032.5 596 1015.6 583.9 1004.1 575.6 931.9 546.7 894.5 532.5 877.2 525.9 864 521.3 861.3 521.1 852.7 520.6 752 528.3 752 528.3 752 528.3 732 535.9 716.6 543 690.2 555.1 649 574.1 619.5 588.1 610 592.6 598 598.8 588.1 604 589.3 639.9 591.4 678.3 594.5 719.5 594.3 719.7 599.8 809.5 600.3 900.2ZM935.9 934.4C940.1 878.1 957 781.4 958.9 774.6 959 774.6 966.9 782.1 966.9 782.1 966.9 782.1 969.5 782.5 969.5 782.4 969.5 782.3 971.9 783.3 971.9 783.3 971.9 783.3 1023.2 854.9 1023.7 893.4 1024.1 911.8 984 925 935.9 934.4Z" fill="#323657"/></g><g><path d="M585.3 1107.9 629.7 1107.9C630.7 1101.6 631.8 1095.2 633 1088.7 640.5 1046.3 650.4 998.5 655.7 951.5L655.7 951.5C665.4 864.4 678.9 779.1 686.1 728.4 705 596.4 730.1 537.4 730.1 537.4 718.1 541 585.5 603.6 585.5 603.6 586.7 640.1 588.5 679.2 591.6 721.1 591.6 721.1 594.5 823.4 600.4 920.5 602.4 934.4 603.4 948.6 602.3 963.1 600.8 982.1 598.8 1002.8 596.3 1024.4 596.3 1024.7 596.2 1025 596.2 1025.2 595.6 1030.3 595 1035.5 594.4 1040.7 594.4 1040.8 594.4 1040.8 594.4 1040.9 592.5 1056.6 590.4 1072.6 588.2 1088.6 587.1 1095.1 586.2 1101.5 585.3 1107.9Z" fill="#323657"/></g><g><path d="M712.2 961.9C722.3 985.7 757 1044.4 757 1044.4 757 1044.4 782.1 1038.2 819.1 1028.7 821.5 1049.7 824 1069.4 826.3 1088.7 827.1 1095.1 827.9 1101.5 828.6 1107.9L960.5 1107.9C958.9 1101.4 957.4 1095 956 1088.7 947.9 1053 942.3 1019.7 941.5 995.5 1030 970.2 1116.7 941.9 1115.4 928.4 1113.4 908.4 1046.9 598.4 1030.1 586.4 1020.4 579.4 948.3 553.9 912.9 539.9 906.4 537.3 884.4 529.1 878.6 526.8 871.1 535.2 819.4 592.3 801.1 808 798.8 834.8 803.5 883.8 808.8 932.9 755.2 947.1 710.5 957.8 712.2 961.9ZM953.5 884.9C958.8 841.9 964.9 798.7 969.2 783.6 969.2 783.6 984.1 813.7 983 857.9 982.7 866.7 971.4 875.9 953.5 884.9Z" fill="#323657"/></g><g><path d="M866.8 524.6C866.8 524.6 853.4 499.2 857.1 427.2 858.1 407.2 752.3 474.5 752.3 474.5 752.3 474.5 752.7 481.4 752.9 490.7 753 494.6 753.1 498.8 753.1 503.2 753.1 504.4 753.1 505.6 753.1 506.8 753.1 508.8 753.1 510.7 753 512.7 752.9 515.1 752.9 517.5 752.7 519.8 752.6 522.4 752.4 524.8 752.2 527.1 751.8 531.5 749.2 539.1 748.3 541.2 743.3 552.3 827.1 553 866.8 524.6Z" fill="#EEA987"/></g><g><path d="M362.1 998.3C362.1 998.3 426.4 935.9 468.6 925.5 488.1 920.7 513.8 893.8 538.2 862.1 546.2 851.7 554.1 840.7 561.7 829.9 561.7 829.9 561.7 829.9 561.7 829.9 591.7 786.6 615.1 745.2 615.1 745.2 615.1 745.2 703.6 641.4 632.6 595.2 632.6 595.2 602.1 594.5 585.4 603.6 568.2 612.9 531.6 689.4 525.4 702.9 519.2 716.4 451.9 842.2 447.4 845 442.9 847.8 435.4 858.2 408.5 872.7 375.5 890.4 323.8 942.4 323.8 942.4L362.1 998.3Z" fill="#323657"/></g><path d="M670.9 1070.5C670.9 1070.5 679.9 1070.1 683.7 1068.1 683.7 1068.1 690.4 1063.8 695.4 1061 697 1060.1 698.4 1059.4 699.3 1059 703.3 1057.4 712.4 1055.2 720.9 1048.7 729.4 1042.3 756.9 1016.4 756.9 1016.4L739.2 989 731 961.9C731 961.9 666.7 968.3 658.1 973.4 657.3 973.9 656.5 974.4 655.7 975 648.9 980 645.9 986.6 642.6 989.7 641.4 990.8 630.2 1002.8 630.8 1007.7 631.7 1014.5 635 1018.8 639.2 1020.8 639.2 1020.8 641.5 1033.9 648.3 1039.8 648.3 1039.8 650 1052 660.5 1056.9 660.5 1056.9 663.6 1069 670.9 1070.5Z" fill="#EFAA88"/><path d="M773.3 241.4C773.3 241.4 657.1 213.4 681.5 360.5 706 507.7 733.9 519.6 804.7 490.3 875.5 461 870.6 366.8 874.8 320.8 879 274.7 810.5 243.5 773.3 241.4Z" fill="#EEA886"/><path d="M868 396C868 396 865.7 349.7 848.8 348 831.9 346.3 829.1 364.9 829.1 364.9L812 367.9C812 367.9 818 327.4 801.2 320.1 784.4 312.8 691.6 340.8 678.2 328.7 664.8 316.6 672.4 234.5 697.1 223.6 721.7 212.7 789.7 188.5 838.8 222.7 838.8 222.7 877.5 218.9 882.8 250.1 888 281.4 878.9 372.9 868 396Z" fill="#3A3F47"/><path d="M709 961.9 757 1044.4C757 1044.4 884.1 1011.6 913.8 1003.3L846 922.6C846 922.6 746 945.4 709 961.9Z" fill="#323657"/><path d="M752.6 519.7 752.6 519.7C815 513.3 839.1 465.3 839.1 465.3 800 504.2 753 503.2 753 503.2 753 504.4 753 505.6 753 506.8 753 508.8 753 510.7 752.9 512.7 752.8 515.1 752.8 517.4 752.6 519.7Z" fill="#A77860"/><path d="M838.1 351.1C838.1 351.1 806.9 356.7 794 357.6 781.1 358.5 748.4 363.3 735.8 365.8 723.2 368.3 687.7 368.8 680.3 373.1L684.2 392.4C684.2 392.4 695.2 416 720.4 405.3 745.6 394.6 756.1 407.5 780.6 397.7 805.2 387.9 845.2 361.8 845.2 361.8L838.1 351.1Z" fill="#16202E"/><path d="M834.4 343.3C836.1 330.4 861.8 326 863.6 345.4 865.4 364.8 851.2 398.7 841.5 395.2 831.8 391.7 832 361.1 834.4 343.3Z" fill="#EEA886"/></g><rect x="126.6" y="1095.8" width="856" height="19.2" fill="#FFC055"/><g><path d="M92.8 1.5C92.8 1.5 594.2 811.8 674.5 1073L688.7 1061.6C688.8 1061.7 584.6 760.2 92.8 1.5Z" fill="#875835"/><path d="M589.3 934.5C571.6 948.6 545.8 945.8 531.6 928.1 517.5 910.4 520.3 884.6 538 870.4 555.7 856.3 581.5 859.1 595.7 876.8 609.9 894.5 607 920.4 589.3 934.5Z" fill="#5E8FDF"/><rect x="542.1" y="901.9" width="9.4" height="90.1" fill="#486EAB" transform="matrix(0.9473 0.3203 -0.3203 0.9473 332.156 -125.25)"/><path d="M541.7 1001.2C535.3 1006.3 525.9 1005.3 520.7 998.9 515.6 992.5 516.6 983.1 523 977.9 529.4 972.8 538.8 973.8 544 980.2 549.2 986.6 548.2 996 541.7 1001.2Z" fill="#5E8FDF"/><path d="M570 910.3C565.7 913.8 559.4 913 555.9 908.7 552.4 904.4 553.2 898.1 557.5 894.6 561.8 891.1 568.1 891.9 571.6 896.2 575 900.5 574.3 906.8 570 910.3Z" fill="#689FF7"/></g><path d="M661.7 781.2 695.6 1096.5 249.4 1096.5 215.4 781.2Z" fill="#E6DFDD"/><g><path d="M255.4 867.9 255.4 980.7 90.6 980.6 90.6 867.8 210.6 867.9Z" fill="#FFC655"/><path d="M255.4 980.7 173 917.6 90.6 980.6Z" fill="#FFBC55"/><path d="M255.4 867.9 185.7 927.3 173 938.1 160.3 927.3 90.6 867.8 210.6 867.9Z" fill="#FFA655"/></g><g><path d="M214.7 853.3 211.7 852.5C248.4 721.3 192.5 643.3 127.7 553 77.4 482.7 20.2 403 5.6 286.5-11.3 151.6 13.1 81 36.5 45.5 62 6.7 91.3 0.3 92.5 0L93.1 3C92.8 3.1 63.7 9.6 38.8 47.4 15.8 82.5-8.1 152.4 8.6 286.1 23.1 401.8 77.5 477.7 130.2 551.1 195.5 642.1 251.8 720.7 214.7 853.3Z" fill="#878787"/></g><path d="M210.6 921C209.2 924.4 207.4 926.8 204.9 927.4 193.5 930.2 191.2 918.3 192.6 912.6 192.6 912.6 193.6 925.6 202.2 925.2 205.1 925 207.2 923.4 208.7 920.5 209.3 920.8 209.9 920.9 210.6 921Z" fill="#878787"/></g></svg>