<svg width="522.1" height="708.6" viewBox="0 0 522.1 708.6" xmlns="http://www.w3.org/2000/svg" xmlns:xlink="http://www.w3.org/1999/xlink" overflow="visible"><defs></defs><g><linearGradient x1="0.2281" y1="367.945" x2="220.987" y2="367.945" gradientUnits="userSpaceOnUse" id="SVGID_5_" gradientTransform="translate(-0.2281 0.1809)"><stop offset="0" stop-color="#3076A1"/><stop offset="1" stop-color="#639C38"/></linearGradient><linearGradient x1="148.041" y1="868.118" x2="333.774" y2="145.822" gradientUnits="userSpaceOnUse" id="SVGID_6_" gradientTransform="translate(-0.2281 0.1809)"><stop offset="0" stop-color="#3076A1"/><stop offset="1" stop-color="#639C38"/></linearGradient><linearGradient x1="145.48" y1="640.841" x2="296.357" y2="640.841" gradientUnits="userSpaceOnUse" id="SVGID_8_" gradientTransform="translate(-0.2281 0.1809)"><stop offset="0" stop-color="#FF9340"/><stop offset="1" stop-color="#FFCE45"/></linearGradient><linearGradient x1="145.48" y1="640.841" x2="296.357" y2="640.841" gradientUnits="userSpaceOnUse" id="SVGID_9_" gradientTransform="translate(-0.2281 0.1809)"><stop offset="0" stop-color="#C97332"/><stop offset="1" stop-color="#FFCE45"/></linearGradient><g><linearGradient x1="195.909" y1="397.559" x2="463.697" y2="397.559" gradientUnits="userSpaceOnUse" id="SVGID_1_" gradientTransform="translate(-0.2281 0.1809)"><stop offset="0" stop-color="#3076A1"/><stop offset="1" stop-color="#639C38"/></linearGradient><path d="M199.2 605.4C185.1 540.8 215.6 524.6 245.2 509.1 269.3 496.4 292.2 484.3 290.9 446.2 289.3 395.7 323.7 377.3 354 361.1 376.6 349 397.9 337.7 401.1 314.7 408.8 259.4 459.7 190.7 460.3 190L463.5 192.4C463 193.1 412.6 261 405.1 315.2 401.6 340.2 379.5 352 356 364.6 325.2 381 293.4 398 295 446.1 296.3 486.7 271.3 499.8 247.2 512.6 217.7 528.2 189.8 542.9 203.3 604.6L199.2 605.4Z" fill="url(#SVGID_1_)"/></g><g><linearGradient x1="172.643" y1="358.518" x2="522.286" y2="358.518" gradientUnits="userSpaceOnUse" id="SVGID_2_" gradientTransform="translate(-0.2281 0.1809)"><stop offset="0" stop-color="#3076A1"/><stop offset="1" stop-color="#639C38"/></linearGradient><path d="M214.8 589C214.1 589 213.4 589 212.8 588.9 200 588 187.5 578.2 173.4 558.3L172.5 557.1 173.5 555.9C173.7 555.6 196.4 528.1 188 476.3 186.1 464.2 183.5 455 181.4 447.5 178.4 436.7 176.4 429.5 179.7 423.8 184 416.5 195.5 412.8 228 405 262.6 396.8 274.2 357.8 284.4 323.4 294 291 303.1 260.5 330 261.4 354.7 262.3 392.3 223.6 425.5 189.4 456.3 157.7 485.3 127.8 503.8 128.4 508.3 128.6 512 130.4 515 134 531.5 153.7 516.1 183.6 501.2 212.5 488.5 237.2 476.4 260.5 484.2 275.8 493.9 295.1 495.3 312.6 488.1 326.3 479.6 342.6 459.9 353 429.4 357.5 401.6 361.5 398.5 391.9 395.4 424.1 391.7 461.6 387.5 504.1 340.7 508.2 306 511.2 282.6 535.6 262 557.1 245.5 574.1 231.3 589 214.8 589ZM177.4 557.2C190.3 575 201.9 584.1 213 584.9 228.5 586.1 242.7 571.3 259.1 554.2 280.2 532.2 304.2 507.3 340.3 504.1 383.8 500.3 387.6 461.3 391.4 423.6 394.7 389.9 397.9 358 428.8 353.5 457.9 349.3 476.7 339.5 484.5 324.4 491 311.8 489.7 295.6 480.5 277.5 471.8 260.3 484.3 236.2 497.5 210.6 511.8 182.8 526.7 154.1 511.8 136.4 509.6 133.7 506.8 132.4 503.5 132.3 486.7 131.7 458.3 161 428.1 192.1 393.2 228.1 357.1 265.3 330.7 265.3 330.4 265.3 330 265.3 329.7 265.3 305.8 264.4 297.6 292.3 288 324.5 277.5 359.9 265.6 400.1 228.8 408.8 199.4 415.8 186.6 419.7 183 425.7 180.5 430 182.2 436.1 185.1 446.3 187.2 453.8 189.8 463.2 191.8 475.5 199.6 523.8 181.9 551.2 177.4 557.2Z" fill="url(#SVGID_2_)"/></g><g><linearGradient x1="92.307" y1="305.623" x2="317.838" y2="305.623" gradientUnits="userSpaceOnUse" id="SVGID_3_" gradientTransform="translate(-0.2281 0.1809)"><stop offset="0" stop-color="#3076A1"/><stop offset="1" stop-color="#639C38"/></linearGradient><path d="M216.2 575.4C215.7 575.4 215.3 575.4 214.8 575.3 193.8 573.4 177.7 527.5 162.1 483.1 154.7 462 147.7 442.1 140.9 429.4 135.6 419.5 128.9 409.2 122.4 399.2 105.1 372.6 87.3 345.1 93.1 320.9 96.2 308.2 105.3 297.6 121 288.6 155.3 268.8 150.1 257.6 138.5 233.1 130 215.1 118.4 190.5 117.9 151.8 117.7 135.2 117.3 120.8 117 108.1 115.9 67.3 115.4 46.8 124.1 39.4 127.7 36.3 132.8 35.5 140 36.9 152.4 39.3 157.7 49.2 163.4 59.8 170.6 73.3 178.8 88.6 203.5 93.7 226.7 98.6 249 105.2 255.1 120.6 259.4 131.4 255.3 145.7 242.6 164.1 239.5 168.6 238.4 172.4 239.4 175.7 241.4 183.1 253 188.5 266.3 194.8 285.3 203.7 309 214.7 315.7 237.6 321.1 256 314.9 279.1 296.6 307.9 253.4 376.2 255.1 422.6 256.6 463.5 257.7 493.8 258.8 522.4 240.5 554.4 232.5 568.5 224.5 575.4 216.2 575.4ZM133.8 40.1C130.7 40.1 128.4 40.8 126.7 42.3 119.4 48.5 120 69.6 121 107.9 121.3 120.6 121.7 135 121.9 151.7 122.3 189.6 133.8 213.7 142.1 231.4 153.6 255.7 160.5 270.4 123 292 108.3 300.5 99.8 310.2 97 321.8 91.6 344.3 109 371.1 125.8 397 132.3 407.1 139.1 417.5 144.4 427.5 151.3 440.5 158.4 460.6 165.8 481.8 180.3 523 196.7 569.7 215.1 571.4 222.1 572 229.5 565.7 237.1 552.4 254.8 521.4 253.8 494.6 252.6 463.6 251 422.1 249.3 375.1 293.2 305.8 310.8 277.9 316.9 256 311.9 238.7 305.7 217.5 283.9 207.3 264.6 198.4 250.3 191.7 238 186 235.5 176.8 234.3 172.3 235.5 167.4 239.3 161.9 251.2 144.6 255.2 131.6 251.4 122.1 245.9 108.4 223.7 102 202.6 97.6 176.1 92.1 167.1 75.2 159.8 61.7 154.4 51.6 149.7 42.8 139.2 40.8 137.2 40.3 135.4 40.1 133.8 40.1Z" fill="url(#SVGID_3_)"/></g><g><linearGradient x1="154.99" y1="354.394" x2="223.38" y2="354.394" gradientUnits="userSpaceOnUse" id="SVGID_4_" gradientTransform="translate(-0.2281 0.1809)"><stop offset="0" stop-color="#3076A1"/><stop offset="1" stop-color="#639C38"/></linearGradient><path d="M216.6 599.9 212.8 598.7C233.9 531.9 195.7 382.1 184.3 345.6 178.7 327.7 183.9 300.7 188.9 274.6 195.4 240.9 202.1 206 185 193 153 168.5 154.7 111.7 154.8 109.3L158.8 109.4C158.8 110 157.1 166.6 187.5 189.9 206.5 204.5 199.6 240.5 192.9 275.4 188 301 182.9 327.5 188.2 344.5 202.2 389.6 237.7 533.3 216.6 599.9Z" fill="url(#SVGID_4_)"/></g><path d="M56.8 166.1C48 143.8 13.6 147.2 16.8 178.7 20 210.3 42.1 244 8.4 297.7-25.3 351.4 51.6 361.9 78.9 395.6 106.3 429.3 115.7 475.6 138.9 505.1 162.1 534.6 177.8 605.1 196.8 578.8 215.7 552.5 197.9 518.3 200 470.9 202.1 423.5 244.3 393.6 202.1 363 159.9 332.4 117.5 323.1 131.5 254.3 137.6 223.9 84.2 235.6 56.8 166.1Z" fill="url(#SVGID_5_)"/><g><path d="M227.5 584.8C227.3 583.4 203.9 444.7 151.5 406.7 98.1 367.9 88.4 332.1 69.7 247.7L73.6 246.8C92 330.2 101.6 365.6 153.9 403.5 207.6 442.5 230.6 578.4 231.5 584.2L227.5 584.8Z" fill="#FFFFFF"/></g><path d="M180.2 579.8C180.2 579.8 195.8 541.3 167.4 486.6 139.1 431.9 116.1 440.3 184.4 398.2 252.7 356.1 184.8 223.5 243 206.6 301.2 189.7 351.7-24.9 395.9 2.4 440.1 29.7 381.2 135 412.7 166.6 444.2 198.2 448.5 238.4 383.2 270.9 317.9 303.4 429.5 427.6 341.1 465.5 252.8 503.4 278.1 652 180.2 579.8Z" fill="url(#SVGID_6_)"/><g><path d="M207.2 620.7C207.1 620.2 197.6 570.9 227.6 507.2 258.2 442.3 272.8 371.4 266.8 317.4 263.5 288.2 282.2 276.8 300.3 265.7 318.1 254.8 336.5 243.6 335.5 214.8 334.6 188.8 345.6 127.8 346.1 125.3L350 126C349.9 126.6 338.6 189.1 339.5 214.7 340.6 245.8 321.2 257.7 302.4 269.1 284.6 280 267.7 290.3 270.7 317 276.8 371.6 262.1 443.4 231.2 508.9 201.8 571.3 211 619.5 211.1 619.9L207.2 620.7Z" fill="#FFFFFF"/></g><path d="M278.6 348.6C298.5 330.2 324.7 327.5 319.2 354.9 313.7 382.3 295 390.1 304.3 407.3 313.7 424.5 329.3 441.7 302.7 462.8 276.1 483.9 261.3 486.3 253.5 526.1 245.7 566 247.2 593.2 212.9 594.9 178.5 596.6 191.8 546.4 202.7 523.8 202.7 523.8 219.1 497.9 208.2 464 197.3 430 176.2 411.7 220.7 400.1 265.3 388.5 265.2 361 278.6 348.6Z" fill="#FFFFFF"/><g><linearGradient x1="215.559" y1="493.698" x2="297.165" y2="493.698" gradientUnits="userSpaceOnUse" id="SVGID_7_" gradientTransform="translate(-0.2281 0.1809)"><stop offset="0" stop-color="#3076A1"/><stop offset="1" stop-color="#639C38"/></linearGradient><path d="M215.5 620.3C215.4 615.4 213 500.6 234.5 481.3 256.4 461.6 260.7 426.7 261.2 407.6 261.9 382.8 294 368.1 295.3 367.5L296.9 371.1C296.6 371.2 265.7 385.4 265.1 407.8 264.4 431.8 259 464.6 237.1 484.3 217 502.4 219.4 619.1 219.4 620.3L215.5 620.3Z" fill="url(#SVGID_7_)"/></g><path d="M296.1 573.4 260.5 708.6 180.9 708.6 145.3 573.4Z" fill="url(#SVGID_8_)"/><path d="M296.1 573.4C296.1 573.4 217.7 588.1 217.7 708.6L180.9 708.6 145.3 573.4 296.1 573.4Z" fill="url(#SVGID_9_)"/></g></svg>