<svg viewBox="0 0 238.41 37.87" xmlns="http://www.w3.org/2000/svg" xmlns:xlink="http://www.w3.org/1999/xlink" id="Isolation_Mode" overflow="hidden"><defs></defs><path d="M1178.12 69.08C1179.42 69.08 1180.48 70.1366 1180.48 71.44 1180.48 72.7434 1179.42 73.8 1178.12 73.8 1176.82 73.8 1175.76 72.7434 1175.76 71.44 1175.76 70.1366 1176.82 69.08 1178.12 69.08Z" fill="#FFFFFF" transform="translate(-1175.76 -35.93)"/><path d="M1192.2 69.08C1193.5 69.0745 1194.56 70.1266 1194.57 71.43 1194.58 72.7334 1193.52 73.7944 1192.22 73.8 1190.92 73.8055 1189.86 72.7534 1189.85 71.45 1189.85 71.4467 1189.85 71.4433 1189.85 71.44 1189.85 70.1405 1190.9 69.0855 1192.2 69.08Z" fill="#FFFFFF" transform="translate(-1175.76 -35.93)"/><path d="M1206.29 69.08C1207.59 69.08 1208.65 70.1366 1208.65 71.44 1208.65 72.7434 1207.59 73.8 1206.29 73.8 1204.99 73.8 1203.93 72.7434 1203.93 71.44 1203.93 70.1366 1204.99 69.08 1206.29 69.08Z" fill="#FFFFFF" transform="translate(-1175.76 -35.93)"/><path d="M1220.38 69.08C1221.68 69.08 1222.74 70.1366 1222.74 71.44 1222.74 72.7434 1221.68 73.8 1220.38 73.8 1219.08 73.8 1218.02 72.7434 1218.02 71.44 1218.02 70.1366 1219.08 69.08 1220.38 69.08Z" fill="#FFFFFF" transform="translate(-1175.76 -35.93)"/><path d="M1234.46 69.08C1235.76 69.0745 1236.82 70.1266 1236.83 71.43 1236.84 72.7334 1235.78 73.7944 1234.48 73.8 1233.18 73.8055 1232.12 72.7534 1232.11 71.45 1232.11 71.4467 1232.11 71.4433 1232.11 71.44 1232.11 70.1405 1233.16 69.0855 1234.46 69.08Z" fill="#FFFFFF" transform="translate(-1175.76 -35.93)"/><path d="M1248.55 69.08C1249.85 69.08 1250.91 70.1366 1250.91 71.44 1250.91 72.7434 1249.85 73.8 1248.55 73.8 1247.25 73.8 1246.19 72.7434 1246.19 71.44 1246.19 70.1366 1247.25 69.08 1248.55 69.08Z" fill="#FFFFFF" transform="translate(-1175.76 -35.93)"/><path d="M1262.64 69.08C1263.94 69.08 1265 70.1366 1265 71.44 1265 72.7434 1263.94 73.8 1262.64 73.8 1261.34 73.8 1260.28 72.7434 1260.28 71.44 1260.28 70.1366 1261.34 69.08 1262.64 69.08Z" fill="#FFFFFF" transform="translate(-1175.76 -35.93)"/><path d="M1276.72 69.08C1278.02 69.0745 1279.08 70.1266 1279.09 71.43 1279.1 72.7334 1278.04 73.7944 1276.74 73.8 1275.44 73.8055 1274.38 72.7534 1274.37 71.45 1274.37 71.4467 1274.37 71.4433 1274.37 71.44 1274.37 70.1405 1275.42 69.0855 1276.72 69.08Z" fill="#FFFFFF" transform="translate(-1175.76 -35.93)"/><path d="M1289.83 69.08C1291.13 69.08 1292.19 70.1366 1292.19 71.44 1292.19 72.7434 1291.13 73.8 1289.83 73.8 1288.53 73.8 1287.47 72.7434 1287.47 71.44 1287.47 70.1366 1288.53 69.08 1289.83 69.08Z" fill="#FFFFFF" transform="translate(-1175.76 -35.93)"/><path d="M1303.91 69.08C1305.21 69.0745 1306.27 70.1266 1306.28 71.43 1306.29 72.7334 1305.23 73.7944 1303.93 73.8 1302.63 73.8055 1301.57 72.7534 1301.56 71.45 1301.56 71.4467 1301.56 71.4433 1301.56 71.44 1301.56 70.1405 1302.61 69.0855 1303.91 69.08Z" fill="#FFFFFF" transform="translate(-1175.76 -35.93)"/><path d="M1318 69.08C1319.3 69.08 1320.36 70.1366 1320.36 71.44 1320.36 72.7434 1319.3 73.8 1318 73.8 1316.7 73.8 1315.64 72.7434 1315.64 71.44 1315.64 70.1366 1316.7 69.08 1318 69.08Z" fill="#FFFFFF" transform="translate(-1175.76 -35.93)"/><path d="M1332.09 69.08C1333.39 69.08 1334.45 70.1366 1334.45 71.44 1334.45 72.7434 1333.39 73.8 1332.09 73.8 1330.79 73.8 1329.73 72.7434 1329.73 71.44 1329.73 70.1366 1330.79 69.08 1332.09 69.08Z" fill="#FFFFFF" transform="translate(-1175.76 -35.93)"/><path d="M1346.17 69.08C1347.47 69.0745 1348.53 70.1266 1348.54 71.43 1348.55 72.7334 1347.49 73.7944 1346.19 73.8 1344.89 73.8055 1343.83 72.7534 1343.82 71.45 1343.82 71.4467 1343.82 71.4433 1343.82 71.44 1343.82 70.1405 1344.87 69.0855 1346.17 69.08Z" fill="#FFFFFF" transform="translate(-1175.76 -35.93)"/><path d="M1360.26 69.08C1361.56 69.08 1362.62 70.1366 1362.62 71.44 1362.62 72.7434 1361.56 73.8 1360.26 73.8 1358.96 73.8 1357.9 72.7434 1357.9 71.44 1357.9 70.1366 1358.96 69.08 1360.26 69.08Z" fill="#FFFFFF" transform="translate(-1175.76 -35.93)"/><path d="M1374.35 69.08C1375.65 69.08 1376.71 70.1366 1376.71 71.44 1376.71 72.7434 1375.65 73.8 1374.35 73.8 1373.05 73.8 1371.99 72.7434 1371.99 71.44 1371.99 70.1366 1373.05 69.08 1374.35 69.08Z" fill="#FFFFFF" transform="translate(-1175.76 -35.93)"/><path d="M1388.43 69.08C1389.73 69.0745 1390.79 70.1266 1390.8 71.43 1390.81 72.7334 1389.75 73.7944 1388.45 73.8 1387.15 73.8055 1386.09 72.7534 1386.08 71.45 1386.08 71.4467 1386.08 71.4433 1386.08 71.44 1386.08 70.1405 1387.13 69.0855 1388.43 69.08Z" fill="#FFFFFF" transform="translate(-1175.76 -35.93)"/><path d="M1178.12 35.93C1179.42 35.93 1180.48 36.9866 1180.48 38.29 1180.48 39.5934 1179.42 40.65 1178.12 40.65 1176.82 40.65 1175.76 39.5934 1175.76 38.29 1175.76 36.9866 1176.82 35.93 1178.12 35.93Z" fill="#FFFFFF" transform="translate(-1175.76 -35.93)"/><path d="M1192.2 35.93C1193.5 35.9245 1194.56 36.9766 1194.57 38.28 1194.58 39.5834 1193.52 40.6444 1192.22 40.65 1190.92 40.6555 1189.86 39.6034 1189.85 38.3 1189.85 38.2967 1189.85 38.2933 1189.85 38.29 1189.84 36.9921 1190.89 35.9355 1192.19 35.93 1192.19 35.93 1192.2 35.93 1192.2 35.93Z" fill="#FFFFFF" transform="translate(-1175.76 -35.93)"/><path d="M1206.29 35.93C1207.59 35.93 1208.65 36.9866 1208.65 38.29 1208.65 39.5934 1207.59 40.65 1206.29 40.65 1204.99 40.65 1203.93 39.5934 1203.93 38.29 1203.93 36.9866 1204.99 35.93 1206.29 35.93Z" fill="#FFFFFF" transform="translate(-1175.76 -35.93)"/><path d="M1220.38 35.93C1221.68 35.93 1222.74 36.9866 1222.74 38.29 1222.74 39.5934 1221.68 40.65 1220.38 40.65 1219.08 40.65 1218.02 39.5934 1218.02 38.29 1218.02 36.9866 1219.08 35.93 1220.38 35.93Z" fill="#FFFFFF" transform="translate(-1175.76 -35.93)"/><path d="M1234.46 35.93C1235.76 35.9245 1236.82 36.9766 1236.83 38.28 1236.84 39.5834 1235.78 40.6444 1234.48 40.65 1233.18 40.6555 1232.12 39.6034 1232.11 38.3 1232.11 38.2967 1232.11 38.2933 1232.11 38.29 1232.1 36.9921 1233.15 35.9355 1234.45 35.93 1234.45 35.93 1234.46 35.93 1234.46 35.93Z" fill="#FFFFFF" transform="translate(-1175.76 -35.93)"/><path d="M1248.55 35.93C1249.85 35.93 1250.91 36.9866 1250.91 38.29 1250.91 39.5934 1249.85 40.65 1248.55 40.65 1247.25 40.65 1246.19 39.5934 1246.19 38.29 1246.19 36.9866 1247.25 35.93 1248.55 35.93Z" fill="#FFFFFF" transform="translate(-1175.76 -35.93)"/><path d="M1262.64 35.93C1263.94 35.93 1265 36.9866 1265 38.29 1265 39.5934 1263.94 40.65 1262.64 40.65 1261.34 40.65 1260.28 39.5934 1260.28 38.29 1260.28 36.9866 1261.34 35.93 1262.64 35.93Z" fill="#FFFFFF" transform="translate(-1175.76 -35.93)"/><path d="M1276.72 35.93C1278.02 35.9245 1279.08 36.9766 1279.09 38.28 1279.1 39.5834 1278.04 40.6444 1276.74 40.65 1275.44 40.6555 1274.38 39.6034 1274.37 38.3 1274.37 38.2967 1274.37 38.2933 1274.37 38.29 1274.36 36.9921 1275.41 35.9355 1276.71 35.93 1276.71 35.93 1276.72 35.93 1276.72 35.93Z" fill="#FFFFFF" transform="translate(-1175.76 -35.93)"/><path d="M1289.83 35.93C1291.13 35.93 1292.19 36.9866 1292.19 38.29 1292.19 39.5934 1291.13 40.65 1289.83 40.65 1288.53 40.65 1287.47 39.5934 1287.47 38.29 1287.47 36.9866 1288.53 35.93 1289.83 35.93Z" fill="#FFFFFF" transform="translate(-1175.76 -35.93)"/><path d="M1303.91 35.93C1305.21 35.9245 1306.27 36.9766 1306.28 38.28 1306.29 39.5834 1305.23 40.6444 1303.93 40.65 1302.63 40.6555 1301.57 39.6034 1301.56 38.3 1301.56 38.2967 1301.56 38.2933 1301.56 38.29 1301.55 36.9921 1302.6 35.9355 1303.9 35.93 1303.9 35.93 1303.91 35.93 1303.91 35.93Z" fill="#FFFFFF" transform="translate(-1175.76 -35.93)"/><path d="M1318 35.93C1319.3 35.93 1320.36 36.9866 1320.36 38.29 1320.36 39.5934 1319.3 40.65 1318 40.65 1316.7 40.65 1315.64 39.5934 1315.64 38.29 1315.64 36.9866 1316.7 35.93 1318 35.93Z" fill="#FFFFFF" transform="translate(-1175.76 -35.93)"/><path d="M1332.09 35.93C1333.39 35.93 1334.45 36.9866 1334.45 38.29 1334.45 39.5934 1333.39 40.65 1332.09 40.65 1330.79 40.65 1329.73 39.5934 1329.73 38.29 1329.73 36.9866 1330.79 35.93 1332.09 35.93Z" fill="#FFFFFF" transform="translate(-1175.76 -35.93)"/><path d="M1346.17 35.93C1347.47 35.9245 1348.53 36.9766 1348.54 38.28 1348.55 39.5834 1347.49 40.6444 1346.19 40.65 1344.89 40.6555 1343.83 39.6034 1343.82 38.3 1343.82 38.2967 1343.82 38.2933 1343.82 38.29 1343.81 36.9921 1344.86 35.9355 1346.16 35.93 1346.16 35.93 1346.17 35.93 1346.17 35.93Z" fill="#FFFFFF" transform="translate(-1175.76 -35.93)"/><path d="M1360.26 35.93C1361.56 35.93 1362.62 36.9866 1362.62 38.29 1362.62 39.5934 1361.56 40.65 1360.26 40.65 1358.96 40.65 1357.9 39.5934 1357.9 38.29 1357.9 36.9866 1358.96 35.93 1360.26 35.93Z" fill="#FFFFFF" transform="translate(-1175.76 -35.93)"/><path d="M1374.35 35.93C1375.65 35.93 1376.71 36.9866 1376.71 38.29 1376.71 39.5934 1375.65 40.65 1374.35 40.65 1373.05 40.65 1371.99 39.5934 1371.99 38.29 1371.99 36.9866 1373.05 35.93 1374.35 35.93Z" fill="#FFFFFF" transform="translate(-1175.76 -35.93)"/><path d="M1388.43 35.93C1389.73 35.9245 1390.79 36.9766 1390.8 38.28 1390.81 39.5834 1389.75 40.6444 1388.45 40.65 1387.15 40.6555 1386.09 39.6034 1386.08 38.3 1386.08 38.2967 1386.08 38.2933 1386.08 38.29 1386.07 36.9921 1387.12 35.9355 1388.42 35.93 1388.42 35.93 1388.43 35.93 1388.43 35.93Z" fill="#FFFFFF" transform="translate(-1175.76 -35.93)"/><path d="M1201.49 53.4C1202.79 53.3945 1203.85 54.4466 1203.86 55.75 1203.87 57.0534 1202.81 58.1144 1201.51 58.12 1200.21 58.1255 1199.15 57.0733 1199.14 55.77 1199.14 55.7633 1199.14 55.7567 1199.14 55.75 1199.14 54.4521 1200.19 53.4 1201.49 53.4Z" fill="#FFFFFF" transform="translate(-1175.76 -35.93)"/><path d="M1215.58 53.4C1216.88 53.4 1217.94 54.4566 1217.94 55.76 1217.94 57.0634 1216.88 58.12 1215.58 58.12 1214.28 58.12 1213.22 57.0634 1213.22 55.76 1213.22 55.7567 1213.22 55.7533 1213.22 55.75 1213.23 54.4505 1214.28 53.4 1215.58 53.4Z" fill="#FFFFFF" transform="translate(-1175.76 -35.93)"/><path d="M1229.67 53.4C1230.97 53.4 1232.03 54.4566 1232.03 55.76 1232.03 57.0634 1230.97 58.12 1229.67 58.12 1228.37 58.12 1227.31 57.0634 1227.31 55.76 1227.31 55.7567 1227.31 55.7533 1227.31 55.75 1227.32 54.4505 1228.37 53.4 1229.67 53.4Z" fill="#FFFFFF" transform="translate(-1175.76 -35.93)"/><path d="M1243.75 53.4C1245.05 53.3945 1246.11 54.4466 1246.12 55.75 1246.13 57.0534 1245.07 58.1144 1243.77 58.12 1242.47 58.1255 1241.41 57.0733 1241.4 55.77 1241.4 55.7633 1241.4 55.7567 1241.4 55.75 1241.4 54.4521 1242.45 53.4 1243.75 53.4Z" fill="#FFFFFF" transform="translate(-1175.76 -35.93)"/><path d="M1257.84 53.4C1259.14 53.4 1260.2 54.4566 1260.2 55.76 1260.2 57.0634 1259.14 58.12 1257.84 58.12 1256.54 58.12 1255.48 57.0634 1255.48 55.76 1255.48 55.7567 1255.48 55.7533 1255.48 55.75 1255.49 54.4505 1256.54 53.4 1257.84 53.4Z" fill="#FFFFFF" transform="translate(-1175.76 -35.93)"/><path d="M1271.93 53.4C1273.23 53.4 1274.29 54.4566 1274.29 55.76 1274.29 57.0634 1273.23 58.12 1271.93 58.12 1270.63 58.12 1269.57 57.0634 1269.57 55.76 1269.57 55.7567 1269.57 55.7533 1269.57 55.75 1269.58 54.4505 1270.63 53.4 1271.93 53.4Z" fill="#FFFFFF" transform="translate(-1175.76 -35.93)"/><path d="M1286 53.4C1287.3 53.3945 1288.36 54.4466 1288.37 55.75 1288.38 57.0534 1287.32 58.1144 1286.02 58.12 1284.72 58.1255 1283.66 57.0733 1283.65 55.77 1283.65 55.7633 1283.65 55.7567 1283.65 55.75 1283.65 54.4521 1284.7 53.4 1286 53.4Z" fill="#FFFFFF" transform="translate(-1175.76 -35.93)"/><path d="M1300.1 53.4C1301.4 53.4 1302.46 54.4566 1302.46 55.76 1302.46 57.0634 1301.4 58.12 1300.1 58.12 1298.8 58.12 1297.74 57.0634 1297.74 55.76 1297.74 55.7567 1297.74 55.7533 1297.74 55.75 1297.75 54.4505 1298.8 53.4 1300.1 53.4Z" fill="#FFFFFF" transform="translate(-1175.76 -35.93)"/><path d="M1313.2 53.4C1314.5 53.4 1315.56 54.4566 1315.56 55.76 1315.56 57.0634 1314.5 58.12 1313.2 58.12 1311.9 58.12 1310.84 57.0634 1310.84 55.76 1310.84 55.7567 1310.84 55.7533 1310.84 55.75 1310.84 54.4521 1311.89 53.4 1313.19 53.4 1313.19 53.4 1313.2 53.4 1313.2 53.4Z" fill="#FFFFFF" transform="translate(-1175.76 -35.93)"/><path d="M1327.29 53.4C1328.59 53.4 1329.65 54.4566 1329.65 55.76 1329.65 57.0634 1328.59 58.12 1327.29 58.12 1325.99 58.12 1324.93 57.0634 1324.93 55.76 1324.93 55.7567 1324.93 55.7533 1324.93 55.75 1324.94 54.4505 1325.99 53.4 1327.29 53.4Z" fill="#FFFFFF" transform="translate(-1175.76 -35.93)"/><path d="M1341.38 53.4C1342.68 53.4 1343.74 54.4566 1343.74 55.76 1343.74 57.0634 1342.68 58.12 1341.38 58.12 1340.08 58.12 1339.02 57.0634 1339.02 55.76 1339.02 55.7567 1339.02 55.7533 1339.02 55.75 1339.03 54.4505 1340.08 53.4 1341.38 53.4Z" fill="#FFFFFF" transform="translate(-1175.76 -35.93)"/><path d="M1355.46 53.4C1356.76 53.3945 1357.82 54.4466 1357.83 55.75 1357.84 57.0534 1356.78 58.1144 1355.48 58.12 1354.18 58.1255 1353.12 57.0733 1353.11 55.77 1353.11 55.7633 1353.11 55.7567 1353.11 55.75 1353.11 54.4521 1354.16 53.4 1355.46 53.4Z" fill="#FFFFFF" transform="translate(-1175.76 -35.93)"/><path d="M1369.55 53.4C1370.85 53.4 1371.91 54.4566 1371.91 55.76 1371.91 57.0634 1370.85 58.12 1369.55 58.12 1368.25 58.12 1367.19 57.0634 1367.19 55.76 1367.19 55.7567 1367.19 55.7533 1367.19 55.75 1367.2 54.4505 1368.25 53.4 1369.55 53.4Z" fill="#FFFFFF" transform="translate(-1175.76 -35.93)"/><path d="M1383.64 53.4C1384.94 53.4 1386 54.4566 1386 55.76 1386 57.0634 1384.94 58.12 1383.64 58.12 1382.34 58.12 1381.28 57.0634 1381.28 55.76 1381.28 55.7567 1381.28 55.7533 1381.28 55.75 1381.29 54.4505 1382.34 53.4 1383.64 53.4Z" fill="#FFFFFF" transform="translate(-1175.76 -35.93)"/><path d="M1397.72 53.4C1399.02 53.3945 1400.08 54.4466 1400.09 55.75 1400.1 57.0534 1399.04 58.1144 1397.74 58.12 1396.44 58.1255 1395.38 57.0733 1395.37 55.77 1395.37 55.7633 1395.37 55.7567 1395.37 55.75 1395.37 54.4521 1396.42 53.4 1397.72 53.4Z" fill="#FFFFFF" transform="translate(-1175.76 -35.93)"/><path d="M1411.81 53.4C1413.11 53.4 1414.17 54.4566 1414.17 55.76 1414.17 57.0634 1413.11 58.12 1411.81 58.12 1410.51 58.12 1409.45 57.0634 1409.45 55.76 1409.45 55.7567 1409.45 55.7533 1409.45 55.75 1409.46 54.4505 1410.51 53.4 1411.81 53.4Z" fill="#FFFFFF" transform="translate(-1175.76 -35.93)"/></svg>