<svg viewBox="0 0 61.6 171.51" xmlns="http://www.w3.org/2000/svg" xmlns:xlink="http://www.w3.org/1999/xlink" overflow="hidden"><defs></defs><g><g id="Layer_1"><path d="M-586.7 993.9C-586.763 993.57-586.803 993.236-586.82 992.9L-590.67 992.29C-590.73 992.84-590.77 993.41-590.82 993.97-591.961 994.679-592.701 995.882-592.82 997.22-592.82 998.73-594.73 1000.13-594.82 1000.65-593.61 1001.52-592.71 1000.28-591.92 998.93-591.57 998.32-591.28 998.21-591.08 998.28-591.08 998.6-591.08 998.82-591.08 998.85-591.075 998.91-591.075 998.97-591.08 999.03-591.39 1000.17-591.61 1001.33-591.81 1002.49-591.977 1003.04-591.945 1003.63-591.72 1004.16-591.654 1004.25-591.531 1004.28-591.43 1004.23-590.775 1003.76-590.353 1003.03-590.27 1002.23-590.15 1001.76-590.03 1001.32-589.92 1000.88-589.961 1001.73-590.068 1002.58-590.24 1003.42-590.504 1004.21-590.525 1005.06-590.3 1005.86-589.97 1006.6-589.59 1006.27-589.3 1005.78-589.3 1005.87-589.3 1005.97-589.3 1006.06-589.277 1006.21-589.135 1006.32-588.982 1006.3-588.946 1006.29-588.911 1006.28-588.88 1006.26-586.54 1005.1-586.27 1001.34-586.64 998.93-584.92 1000.12-586.42 1002.14-585.81 1003.63-585.773 1003.73-585.659 1003.79-585.555 1003.75-585.539 1003.75-585.524 1003.74-585.51 1003.73-583.89 1002.58-584.65 999.43-585.14 997.86-585.741 996.573-586.262 995.251-586.7 993.9Z" fill="#F0A98F" transform="translate(646.17 -898.36)"/><path d="M-584.81 995.37C-583.81 961.98-592.73 947.97-596.39 943.65-596.935 942.99-597.912 942.896-598.572 943.441-598.784 943.615-598.945 943.843-599.04 944.1-600.76 948.96-600.47 958.96-600.47 958.96-596.2 964.78-593.66 987.1-592.85 995.37Z" fill="#F4F4F4" transform="translate(646.17 -898.36)"/><path d="M-630.21 943.64C-630.21 943.64-647.14 968.35-644.28 975.04-641.42 981.73-636.28 978.48-636.28 978.48L-626.15 954.98C-626.15 954.98-628.18 945.1-630.21 943.64Z" fill="#F4F4F4" transform="translate(646.17 -898.36)"/><path d="M-630.21 943.64C-630.21 943.64-613.28 940.46-597.08 943.16-596.91 943.18-596.789 943.335-596.809 943.505-596.81 943.507-596.81 943.508-596.81 943.51-597.19 946.71-600.49 974.66-601.71 980.92-601.71 980.92-614.56 984.14-625.71 980.71-625.71 980.71-630.42 949.64-630.21 943.64Z" fill="#F4F4F4" transform="translate(646.17 -898.36)"/><path d="M-608.81 941.66C-608.925 944.454-611.147 946.703-613.94 946.85L-613.94 946.85C-616.729 946.698-618.946 944.451-619.06 941.66L-619.06 935.11C-618.946 932.319-616.729 930.072-613.94 929.92L-613.94 929.92C-611.147 930.067-608.925 932.315-608.81 935.11Z" fill="#D8826C" transform="translate(646.17 -898.36)"/><path d="M-613.14 950.92C-613.14 951.329-613.471 951.66-613.88 951.66-614.289 951.66-614.62 951.329-614.62 950.92-614.62 950.511-614.289 950.18-613.88 950.18-613.471 950.18-613.14 950.511-613.14 950.92Z" fill="#E8E9EA" transform="translate(646.17 -898.36)"/><path d="M-613.14 958.6C-613.14 959.009-613.471 959.34-613.88 959.34-614.289 959.34-614.62 959.009-614.62 958.6-614.62 958.191-614.289 957.86-613.88 957.86-613.471 957.86-613.14 958.191-613.14 958.6Z" fill="#E8E9EA" transform="translate(646.17 -898.36)"/><path d="M-613.19 974C-613.19 974.409-613.521 974.74-613.93 974.74-614.339 974.74-614.67 974.409-614.67 974-614.67 973.591-614.339 973.26-613.93 973.26-613.521 973.26-613.19 973.591-613.19 974Z" fill="#E8E9EA" transform="translate(646.17 -898.36)"/><path d="M-613.14 966.26C-613.14 966.669-613.471 967-613.88 967-614.289 967-614.62 966.669-614.62 966.26-614.62 965.851-614.289 965.52-613.88 965.52-613.471 965.52-613.14 965.851-613.14 966.26Z" fill="#E8E9EA" transform="translate(646.17 -898.36)"/><path d="M-619.06 938.49-623.14 942.78-619.71 951.78-613.92 946.85C-613.92 946.85-618.42 942.13-619.06 938.49Z" fill="#E8E9EA" transform="translate(646.17 -898.36)"/><path d="M-608.78 938.49-604.71 942.78-608.13 951.78-613.92 946.85C-613.92 946.85-609.42 942.13-608.78 938.49Z" fill="#E8E9EA" transform="translate(646.17 -898.36)"/><path d="M-626 927.18C-626 931.26-621.68 934.57-618.8 936.11-617.149 937.011-615.254 937.361-613.39 937.11-601.91 934.5-602.72 929.04-602.07 924.52-601.572 920.685-601.697 916.795-602.44 913-602.57 912.34-602.781 911.698-603.07 911.09-604.85 907.38-609.07 905.95-609.07 905.95-611.642 905.072-614.397 904.869-617.07 905.36-620.84 906.05-623.79 907.99-624.75 911.85-625.03 913.097-625.241 914.359-625.38 915.63-625.71 918.24-625.88 920.88-625.97 923.51-626 924.76-626 926-626 927.18Z" fill="#F5AE94" transform="translate(646.17 -898.36)"/><path d="M-614 915.78C-614 915.78-613.12 915.01-613.15 918-613.18 920.99-613.56 924.12-613.56 924.12-613.56 924.12-611.5 923.12-612.27 924.7-612.726 925.506-613.54 926.045-614.46 926.15-615.143 926.302-615.851 926.039-616.27 925.48-616.49 925.23-617.64 923.91-617.22 923.54-617.03 923.37-615.98 923.89-615.71 923.98-615.67 924-615.4 915-614 915.78Z" fill="#DD876C" transform="translate(646.17 -898.36)"/><path d="M-605.22 914.49C-605.29 914.055-605.67 913.739-606.11 913.75-607.63 913.75-610.91 914.25-611.82 917.29-609.959 916.474-608.009 915.877-606.01 915.51-605.526 915.465-605.17 915.036-605.215 914.552-605.216 914.538-605.218 914.524-605.22 914.51Z" fill="#293842" transform="translate(646.17 -898.36)"/><path d="M-623.65 914.49C-623.584 914.053-623.202 913.735-622.76 913.75-621.25 913.75-617.97 914.25-617.06 917.29-618.921 916.474-620.871 915.877-622.87 915.51-623.353 915.46-623.704 915.027-623.654 914.544-623.653 914.532-623.652 914.521-623.65 914.51Z" fill="#293842" transform="translate(646.17 -898.36)"/><path d="M-626.94 906.28C-624.83 911-613.77 914.77-607.66 911.28-606.78 910.77-604.76 906.62-603.5 907.65-603.5 907.65-603.44 907.83-603.34 907.82-601.7 902.59-608.64 898.73-613.26 898.53-618.98 897.53-627.46 903.21-626.94 906.33" fill="#293842" transform="translate(646.17 -898.36)"/><path d="M-625.54 918.66C-625.54 918.66-628.05 912.98-630.12 917.45-631.76 921.01-629.02 924.45-626.8 924.25-624.58 924.05-625.54 918.66-625.54 918.66Z" fill="#F0A98F" transform="translate(646.17 -898.36)"/><path d="M-625.69 919.54C-625.69 919.54-627.55 915.9-628.52 917.21-629.142 918.127-629.489 919.203-629.52 920.31-629.52 920.31-628.82 918.42-627.52 919.66-627.52 919.66-629.32 922.66-626.31 922.01-625.488 921.476-625.218 920.399-625.69 919.54Z" fill="#D8826C" transform="translate(646.17 -898.36)"/><path d="M-606.15 906.67C-606.15 906.67-606.44 911.31-604.51 913.56-602.58 915.81-602.4 920.4-602.4 920.4-602.4 920.4-595.33 911.4-603.4 906.13-604.346 905.785-605.405 905.993-606.15 906.67Z" fill="#293842" transform="translate(646.17 -898.36)"/><path d="M-621.69 908.49C-623.864 911.65-625.236 915.291-625.69 919.1-625.69 919.1-630.29 912.24-625.9 906.45-625.87 906.45-621 904.42-621.69 908.49Z" fill="#293842" transform="translate(646.17 -898.36)"/><path d="M-602.55 919.52C-602.55 919.52-600.05 913.84-597.98 918.31-596.33 921.87-599.07 925.31-601.3 925.11-603.53 924.91-602.55 919.52-602.55 919.52Z" fill="#F0A98F" transform="translate(646.17 -898.36)"/><path d="M-602.4 920.4C-602.4 920.4-600.54 916.75-599.58 918.06-598.958 918.98-598.611 920.059-598.58 921.17-598.58 921.17-599.27 919.27-600.58 920.52-600.58 920.52-598.77 923.52-601.79 922.87-602.613 922.336-602.88 921.255-602.4 920.4Z" fill="#D8826C" transform="translate(646.17 -898.36)"/><path d="M-623.65 920.85C-623.462 922.414-622.045 923.532-620.48 923.35-618.903 923.317-617.648 922.017-617.67 920.44-617.858 918.876-619.275 917.758-620.84 917.94-622.417 917.973-623.672 919.273-623.65 920.85Z" fill="#E8E9EA" transform="translate(646.17 -898.36)"/><path d="M-619.52 920.53C-619.317 921.694-620.074 922.809-621.23 923.05-622.396 922.949-623.277 921.95-623.23 920.78-623.439 919.615-622.68 918.497-621.52 918.26-620.351 918.356-619.468 919.359-619.52 920.53Z" fill="#5C8696" transform="translate(646.17 -898.36)"/><path d="M-620.06 920.56C-619.918 921.39-620.456 922.184-621.28 922.36-622.118 922.296-622.755 921.58-622.72 920.74-622.837 919.929-622.303 919.166-621.5 919-620.686 919.063-620.058 919.743-620.06 920.56Z" fill="#0D0D0C" transform="translate(646.17 -898.36)"/><path d="M-620.09 919C-620.09 919.25-620.36 919.48-620.74 919.51-621.12 919.54-621.44 919.34-621.46 919.09-621.48 918.84-621.18 918.6-620.8 918.58-620.42 918.56-620.1 918.69-620.09 919Z" fill="#E8E9EA" transform="translate(646.17 -898.36)"/><path d="M-611.67 920.51C-611.492 922.085-610.076 923.22-608.5 923.05-606.916 923.006-605.662 921.695-605.69 920.11-605.868 918.531-607.291 917.394-608.87 917.57-610.455 917.608-611.708 918.924-611.67 920.508-611.67 920.509-611.67 920.509-611.67 920.51Z" fill="#E8E9EA" transform="translate(646.17 -898.36)"/><path d="M-607.76 920.24C-607.545 921.403-608.301 922.523-609.46 922.76-610.631 922.669-611.518 921.663-611.46 920.49-611.669 919.328-610.915 918.211-609.76 917.97-608.591 918.066-607.708 919.069-607.76 920.24Z" fill="#5C8696" transform="translate(646.17 -898.36)"/><path d="M-608.3 920.28C-608.153 921.106-608.689 921.899-609.51 922.07-610.351 922.011-610.99 921.292-610.95 920.45-611.097 919.624-610.561 918.831-609.74 918.66-608.902 918.724-608.265 919.44-608.3 920.28Z" fill="#0D0D0C" transform="translate(646.17 -898.36)"/><path d="M-608.32 918.66C-608.32 918.91-608.6 919.14-608.97 919.17-609.34 919.2-609.67 919.01-609.69 918.75-609.71 918.49-609.42 918.27-609.04 918.24-608.66 918.21-608.34 918.4-608.32 918.66Z" fill="#E8E9EA" transform="translate(646.17 -898.36)"/><path d="M-598.28 1066.65-609.64 1065.36C-609.1 1064.49-608.82 1062.03-608.64 1060.11-608.45 1057.44-608.52 1054.21-608.52 1054.21-608.52 1054.21-601.02 1052.38-601.02 1054.21-600.945 1056.21-600.629 1058.19-600.08 1060.11-599.31 1063.18-598.28 1066.65-598.28 1066.65Z" fill="#22272E" transform="translate(646.17 -898.36)"/><path d="M-598.06 1067.44C-598.06 1067.5-598.06 1067.3-598.06 1067.36-598.06 1067.98-598.25 1067.95-598.52 1068.87L-610.44 1068.87C-610.72 1067.95-610.88 1067.98-610.9 1067.36-610.9 1067.3-610.9 1067.36-610.9 1067.36-610.9 1064.52-608.02 1062.28-604.47 1062.28-600.92 1062.28-598.06 1064.6-598.06 1067.44Z" fill="#22272E" transform="translate(646.17 -898.36)"/><path d="M-608.68 1060.62C-608.49 1057.88-608.56 1054.21-608.56 1054.21-608.56 1054.21-601.06 1052.38-601.06 1054.21-600.934 1056.37-600.619 1058.51-600.12 1060.62Z" fill="#617085" transform="translate(646.17 -898.36)"/><path d="M-598.07 1067.49C-598.07 1067.49-598.26 1068.41-598.53 1068.41L-610.45 1068.41C-610.73 1068.41-610.89 1067.49-610.91 1067.49Z" stroke="#515D6E" stroke-miterlimit="10" fill="#515D6E" transform="translate(646.17 -898.36)"/><path d="M-602.34 1063.17C-603.22 1061.93-605.34 1062.37-606.34 1063.17-606.49 1063.29-606.34 1063.49-606.17 1063.46-605.59 1063.27-604.999 1063.12-604.4 1063-603.71 1063-603.18 1063.39-602.52 1063.44-602.41 1063.44-602.323 1063.34-602.327 1063.23-602.328 1063.21-602.332 1063.19-602.34 1063.17Z" fill="#515D6E" transform="translate(646.17 -898.36)"/><path d="M-602.7 1064.45C-603.7 1063.77-605.63 1063.52-606.5 1064.53-606.575 1064.6-606.577 1064.72-606.503 1064.8-606.456 1064.85-606.386 1064.87-606.32 1064.85-605.717 1064.69-605.095 1064.61-604.47 1064.61-603.86 1064.61-603.37 1065.05-602.77 1064.9-602.637 1064.86-602.559 1064.73-602.596 1064.59-602.612 1064.53-602.649 1064.48-602.7 1064.45Z" fill="#515D6E" transform="translate(646.17 -898.36)"/><path d="M-617.51 1067.31C-617.555 1067.87-617.669 1068.42-617.85 1068.95-617.85 1068.95-635.95 1069.73-637.23 1069.16-637.43 1069.07-637.37 1068.88-637.12 1068.63-637.062 1068.39-636.985 1068.16-636.89 1067.94-636.26 1066.4-634.5 1063.94-629.63 1064.29-628.77 1063.86-628.06 1063.5-627.63 1063.29-626.912 1062.75-626.415 1061.96-626.23 1061.08-625.655 1059.11-625.409 1057.05-625.5 1055L-617.82 1055.1C-617.82 1055.1-617.55 1057.93-617.42 1061.1-617.313 1063.17-617.343 1065.24-617.51 1067.31Z" fill="#22272E" transform="translate(646.17 -898.36)"/><path d="M-626.25 1061.54C-625.53 1057.88-625.4 1055.87-625.52 1055.22L-617.84 1055.43C-617.84 1055.43-617.57 1057.88-617.44 1061.54Z" fill="#617085" transform="translate(646.17 -898.36)"/><path d="M-617.51 1067.31C-617.555 1067.87-617.669 1068.42-617.85 1068.95-617.85 1068.95-635.95 1069.73-637.23 1069.16-637.43 1069.07-637.37 1068.88-637.12 1068.63-637.062 1068.39-636.985 1068.16-636.89 1067.94-633.74 1068-622.38 1068-617.51 1067.31Z" stroke="#515D6E" stroke-miterlimit="10" fill="#515D6E" transform="translate(646.17 -898.36)"/><path d="M-627.73 1064.71C-628.191 1063.84-629.269 1063.51-630.137 1063.97-630.165 1063.99-630.193 1064-630.22 1064.02-630.278 1064.05-630.299 1064.13-630.267 1064.18-630.256 1064.2-630.24 1064.22-630.22 1064.23-629.88 1064.42-629.48 1064.32-629.11 1064.39-628.74 1064.46-628.55 1064.78-628.26 1064.99-627.97 1065.2-627.63 1065-627.73 1064.71Z" fill="#515D6E" transform="translate(646.17 -898.36)"/><path d="M-625.08 1063.61C-625.391 1062.98-626.009 1062.56-626.71 1062.5-627.2 1062.5-628.24 1062.63-628.1 1063.25-628.078 1063.3-628.026 1063.33-627.97 1063.33-627.66 1063.33-627.39 1063.16-627.06 1063.16-626.686 1063.19-626.334 1063.35-626.06 1063.61-625.82 1063.82-625.74 1064.08-625.37 1064.12-625 1064.16-625 1063.76-625.08 1063.61Z" fill="#515D6E" transform="translate(646.17 -898.36)"/><path d="M-626.79 1060.46-616.85 1060.46-614.01 999.46C-613.679 999.507-613.345 999.534-613.01 999.54L-609.46 1059.98-599.55 1059.98C-599.48 1052.35-599.09 994.78-601.7 981.54L-625.7 981.33C-625.5 982-626.94 1036.64-626.79 1060.46Z" fill="#22272E" transform="translate(646.17 -898.36)"/><path d="M-604.26 985.07-601.49 985.02-601.71 981.59-604.47 981.59C-604.38 982.74-604.29 983.9-604.26 985.07Z" fill="#8C4C09" transform="translate(646.17 -898.36)"/><path d="M-607 981.54-619.24 981.44C-619.24 982.74-619.16 984.03-619.13 985.33L-606.77 985.11C-606.984 983.933-607.062 982.735-607 981.54Z" fill="#8C4C09" transform="translate(646.17 -898.36)"/><path d="M-622.18 981.41-625.71 981.41-625.71 985.48-621.84 985.41C-622.155 984.102-622.27 982.753-622.18 981.41Z" fill="#8C4C09" transform="translate(646.17 -898.36)"/><rect x="29.59" y="80.73" width="7.33" height="5.5" fill="#C28C4B"/><path d="M-604.79 953.39C-604.79 953.39-604.79 953.39-604.79 953.39L-604.79 956-604.79 956-606.71 954.72-606.71 954.72-606.23 954.4-605.76 954.08-605.29 953.78-604.79 953.44-602.7 953.44-602.06 953.86-601.35 954.34-600.85 954.66-600.76 954.73-602.76 956.02-602.76 953.48C-602.76 953.48-602.76 953.48-602.76 953.48L-604.76 953.48Z" fill="#777777" transform="translate(646.17 -898.36)"/><path d="M-604.79 953.39-602.79 953.39-602.88 953.61C-602.95 953.81-603.03 954.01-603.11 954.2-603.19 954.39-603.26 954.59-603.33 954.79L-603.66 955.62-603.81 956-603.81 956-603.81 956-604.02 955.45-604.38 954.53C-604.51 954.2-604.64 953.87-604.76 953.53Z" fill="#B30C37" transform="translate(646.17 -898.36)"/><path d="M-605 957.55-605.09 957.67-605.09 957.67-605.19 957.67C-605.19 957.67-605.19 957.67-605.19 957.67L-605.06 957.51-605.06 957.51C-605.06 957.51-605.06 957.51-605.06 957.51L-605.12 957.43-605.22 957.32-605.22 957.32-605.22 957.81-605.22 957.81C-605.22 957.81-605.22 957.81-605.22 957.81L-605.32 957.81-605.32 957.2-605.32 957.2C-605.32 957.2-605.32 957.2-605.32 957.2L-605.21 957.2-604.98 957.46-604.98 957.46-604.98 957.46-604.77 957.22C-604.77 957.22-604.77 957.22-604.77 957.22L-604.69 957.22C-604.69 957.22-604.69 957.22-604.69 957.22L-604.69 957.84-604.81 957.84-604.81 957.35-604.81 957.35C-604.81 957.41-604.92 957.47-604.97 957.54-605.02 957.61-604.97 957.54-604.97 957.54L-604.83 957.71-604.83 957.71-604.91 957.71C-604.929 957.721-604.951 957.721-604.97 957.71-604.986 957.658-604.996 957.604-605 957.55Z" fill="#B30C37" transform="translate(646.17 -898.36)"/><path d="M-605.23 956.47-605.23 957C-605.23 957-605.23 957-605.23 957L-605.31 957-605.31 956.39C-605.31 956.39-605.31 956.39-605.31 956.39L-605.25 956.39-605.25 956.39-604.9 956.84-604.9 956.84C-604.9 956.84-604.9 956.84-604.9 956.84L-604.9 956.39-604.9 956.39C-604.9 956.39-604.9 956.39-604.9 956.39L-604.84 956.39C-604.84 956.39-604.84 956.39-604.84 956.39L-604.84 956.39-604.84 957C-604.84 957-604.84 957-604.84 957L-604.93 957-605.12 956.76-605.3 956.52Z" fill="#B30C37" transform="translate(646.17 -898.36)"/><path d="M-603.46 957.51-603.24 957.8-603.37 957.8C-603.44 957.72-603.5 957.63-603.56 957.55L-603.67 957.55C-603.67 957.55-603.67 957.55-603.67 957.55L-603.67 957.78C-603.67 957.78-603.67 957.78-603.67 957.78L-603.75 957.78-603.75 957.18-603.75 957.18C-603.75 957.18-603.75 957.18-603.75 957.18L-603.54 957.18C-603.487 957.17-603.433 957.17-603.38 957.18-603.295 957.22-603.259 957.321-603.299 957.406-603.305 957.418-603.312 957.43-603.32 957.44-603.347 957.469-603.382 957.49-603.42 957.5L-603.42 957.5ZM-603.68 957.34-603.68 957.43C-603.68 957.43-603.68 957.43-603.68 957.43L-603.54 957.43-603.48 957.43C-603.43 957.43-603.43 957.32-603.48 957.29L-603.48 957.29-603.48 957.29-603.64 957.29C-603.64 957.29-603.64 957.29-603.64 957.29Z" fill="#B30C37" transform="translate(646.17 -898.36)"/><path d="M-602.7 957.15-602.98 957.46-602.65 957.8-602.77 957.8C-602.77 957.8-602.77 957.8-602.77 957.8L-603.05 957.5-603.05 957.5-603.05 957.78-603.17 957.78-603.17 957.15-603.05 957.15-603.05 957.45-603.05 957.45-602.8 957.17-602.68 957.17Z" fill="#B30C37" transform="translate(646.17 -898.36)"/><path d="M-603.86 957.8-604 957.8-604.06 957.67C-604.06 957.67-604.06 957.67-604.06 957.67L-604.36 957.67C-604.36 957.67-604.36 957.67-604.36 957.67-604.36 957.67-604.36 957.78-604.43 957.84-604.5 957.9-604.43 957.84-604.43 957.84L-604.51 957.84-604.51 957.84-604.24 957.23C-604.24 957.23-604.24 957.23-604.24 957.23L-604.18 957.23C-604.18 957.23-604.18 957.23-604.18 957.23-604.18 957.23-604.18 957.35-604.1 957.4L-603.89 957.84ZM-604.1 957.53C-604.137 957.427-604.181 957.327-604.23 957.23-604.23 957.33-604.31 957.43-604.34 957.53Z" fill="#B30C37" transform="translate(646.17 -898.36)"/><path d="M-602.58 957.65-602.58 957.65-602.47 957.65-602.4 957.65C-602.364 957.616-602.363 957.559-602.397 957.523-602.398 957.522-602.399 957.521-602.4 957.52-602.412 957.496-602.434 957.478-602.46 957.47L-602.55 957.47C-602.588 957.449-602.621 957.422-602.65 957.39-602.689 957.333-602.689 957.257-602.65 957.2-602.627 957.16-602.586 957.134-602.54 957.13-602.489 957.11-602.431 957.11-602.38 957.13L-602.29 957.13C-602.29 957.13-602.29 957.13-602.29 957.13L-602.29 957.23-602.29 957.23-602.4 957.23-602.47 957.23C-602.492 957.256-602.492 957.294-602.47 957.32L-602.4 957.32-602.29 957.38C-602.262 957.4-602.241 957.428-602.23 957.46-602.193 957.552-602.239 957.657-602.331 957.694-602.337 957.696-602.344 957.698-602.35 957.7-602.443 957.74-602.547 957.74-602.64 957.7-602.64 957.7-602.64 957.7-602.64 957.7Z" fill="#B30C37" transform="translate(646.17 -898.36)"/><path d="M-604 956.66-604 956.35-603.59 956.35C-603.59 956.35-603.59 956.35-603.59 956.35L-603.59 956.35C-603.59 956.35-603.59 956.35-603.59 956.35L-603.89 956.35C-603.89 956.35-603.89 956.35-603.89 956.35L-603.89 956.49C-603.89 956.49-603.89 956.49-603.89 956.49L-603.67 956.49-603.67 956.55-603.88 956.55C-603.88 956.55-603.88 956.55-603.88 956.55L-603.88 956.74C-603.88 956.74-603.88 956.74-603.88 956.74L-603.6 956.74C-603.6 956.74-603.6 956.74-603.6 956.74L-603.6 956.74C-603.6 956.74-603.6 956.74-603.6 956.74L-603.99 956.74C-603.99 956.74-603.99 956.74-603.99 956.74Z" fill="#B30C37" transform="translate(646.17 -898.36)"/><path d="M-602.54 956.32-602.26 956.32C-602.26 956.32-602.26 956.32-602.26 956.32L-602.26 956.32C-602.26 956.32-602.26 956.32-602.26 956.32L-602.48 956.32C-602.48 956.32-602.48 956.32-602.48 956.32L-602.48 957-602.59 957-602.59 956.46C-602.59 956.46-602.59 956.46-602.59 956.46L-602.8 956.46C-602.8 956.46-602.8 956.46-602.8 956.46L-602.8 956.46C-602.8 956.46-602.8 956.46-602.8 956.46L-602.51 956.46Z" fill="#B30C37" transform="translate(646.17 -898.36)"/><path d="M-613.07 931.53C-612.71 931.66-612.307 931.583-612.02 931.33-611.62 931.008-611.557 930.422-611.88 930.022-611.883 930.018-611.887 930.014-611.89 930.01-612.828 928.295-614.979 927.665-616.695 928.603-616.825 928.674-616.95 928.753-617.07 928.84-619 930.32-618.18 931.9-617.46 931.58-616.46 931.16-615.9 930.26-614.75 930.58-614.18 930.77-613.64 931.34-613.07 931.53Z" fill="#712311" transform="translate(646.17 -898.36)"/><path d="M-612.64 929.1-613.2 929.2C-615.07 929.45-616.65 929.2-616.82 928.68-615.495 927.847-613.773 928.02-612.64 929.1Z" fill="#FFFFFF" transform="translate(646.17 -898.36)"/><path d="M-614.95 930.57C-614.674 930.457-614.385 930.377-614.09 930.33-613.261 930.199-612.414 930.388-611.72 930.86-611.76 931.048-611.866 931.215-612.02 931.33-612.307 931.583-612.71 931.66-613.07 931.53-613.64 931.34-614.18 930.77-614.75 930.6Z" fill="#F15E6B" transform="translate(646.17 -898.36)"/><path d="M-612.64 929.1-613.2 929.2-613.52 929.2C-613.729 928.66-614.275 928.328-614.85 928.39-616.08 928.39-616.28 928.64-616.32 929.04-616.58 928.94-616.77 928.81-616.82 928.65-615.488 927.825-613.766 928.01-612.64 929.1Z" fill="#5766BE" opacity="0.2" transform="translate(646.17 -898.36)"/><path d="M-612.67 931.11C-612.461 931.057-612.335 930.845-612.388 930.636-612.401 930.583-612.426 930.533-612.46 930.49-612.197 930.577-611.947 930.701-611.72 930.86-611.76 931.048-611.866 931.215-612.02 931.33-612.307 931.583-612.71 931.66-613.07 931.53-613.64 931.34-614.18 930.77-614.75 930.6L-614.95 930.6C-614.714 930.508-614.469 930.437-614.22 930.39-613.45 930.59-613.14 931.32-612.67 931.11Z" fill="#F15E6B" opacity="0.5" transform="translate(646.17 -898.36)"/><rect x="2.95" y="53.42" rx="1.75" width="36.65" height="21.64" fill="#22272E"/><path d="M-646.16 973.18C-646.16 973.18-646.16 973.26-646.16 973.3-646.154 974.826-644.916 976.06-643.39 976.06L-606.39 976.06C-604.866 976.06-603.63 974.824-603.63 973.3L-603.63 973.18Z" fill="#22272E" transform="translate(646.17 -898.36)"/><path d="M-622.72 962.68C-622.725 963.875-623.695 964.84-624.89 964.84-626.083 964.84-627.05 963.873-627.05 962.68-627.05 961.485-626.084 960.516-624.89 960.51-623.691 960.51-622.72 961.482-622.72 962.68Z" fill="#74B502" transform="translate(646.17 -898.36)"/><path d="M-641.14 975.63C-641.344 975.043-641.365 974.409-641.2 973.81-641.102 973.127-640.643 972.55-640 972.3-638.29 971.78-639.25 973.47-639.37 974.3-638.99 973.21-637.29 971.18-636.02 971.62-634.49 972.15-634.73 974.76-634.78 975.92-632.31 972.51-631.57 977.03-634.36 977.68-636.54 978.2-640.31 977.85-641.14 975.63Z" fill="#F5AE94" transform="translate(646.17 -898.36)"/></g></g></svg>