<svg viewBox="0 0 539.91 187.7" xmlns="http://www.w3.org/2000/svg" xmlns:xlink="http://www.w3.org/1999/xlink" overflow="hidden"><defs><linearGradient x1="495.52" y1="-17.52" x2="257.58" y2="102.4" gradientUnits="userSpaceOnUse" id="linear-gradient"><stop offset="0.08" stop-color="#165BBF"/><stop offset="0.47" stop-color="#114CA1"/><stop offset="1" stop-color="#093472"/></linearGradient><pattern width="72" height="72" patternUnits="userSpaceOnUse" viewBox="0 0 72 72" id="Grid_.25_inch_Lines_2" overflow="hidden" patternTransform="matrix(0.67 0 0 0.67 850.19 -1691.33)"><rect x="0" y="0" width="72" height="72" fill="none"/><line x1="45" y1="71.75" x2="45" y2="144.25" stroke="#FFFFFF" stroke-width="0.3" fill="none"/><line x1="9" y1="71.75" x2="9" y2="144.25" stroke="#FFFFFF" stroke-width="0.3" fill="none"/><line x1="63" y1="71.75" x2="63" y2="144.25" stroke="#FFFFFF" stroke-width="0.3" fill="none"/><line x1="27" y1="71.75" x2="27" y2="144.25" stroke="#FFFFFF" stroke-width="0.3" fill="none"/><line x1="71.75" y1="9" x2="144.25" y2="9" stroke="#FFFFFF" stroke-width="0.3" fill="none"/><line x1="71.75" y1="45" x2="144.25" y2="45" stroke="#FFFFFF" stroke-width="0.3" fill="none"/><line x1="71.75" y1="27" x2="144.25" y2="27" stroke="#FFFFFF" stroke-width="0.3" fill="none"/><line x1="71.75" y1="63" x2="144.25" y2="63" stroke="#FFFFFF" stroke-width="0.3" fill="none"/><line x1="-0.25" y1="9" x2="72.25" y2="9" stroke="#FFFFFF" stroke-width="0.3" fill="none"/><line x1="-0.25" y1="45" x2="72.25" y2="45" stroke="#FFFFFF" stroke-width="0.3" fill="none"/><line x1="-0.25" y1="27" x2="72.25" y2="27" stroke="#FFFFFF" stroke-width="0.3" fill="none"/><line x1="-0.25" y1="63" x2="72.25" y2="63" stroke="#FFFFFF" stroke-width="0.3" fill="none"/><line x1="45" y1="-0.25" x2="45" y2="72.25" stroke="#FFFFFF" stroke-width="0.3" fill="none"/><line x1="9" y1="-0.25" x2="9" y2="72.25" stroke="#FFFFFF" stroke-width="0.3" fill="none"/><line x1="63" y1="-0.25" x2="63" y2="72.25" stroke="#FFFFFF" stroke-width="0.3" fill="none"/><line x1="27" y1="-0.25" x2="27" y2="72.25" stroke="#FFFFFF" stroke-width="0.3" fill="none"/><line x1="-72.25" y1="9" x2="0.25" y2="9" stroke="#FFFFFF" stroke-width="0.3" fill="none"/><line x1="-72.25" y1="45" x2="0.25" y2="45" stroke="#FFFFFF" stroke-width="0.3" fill="none"/><line x1="-72.25" y1="27" x2="0.25" y2="27" stroke="#FFFFFF" stroke-width="0.3" fill="none"/><line x1="-72.25" y1="63" x2="0.25" y2="63" stroke="#FFFFFF" stroke-width="0.3" fill="none"/><line x1="45" y1="-72.25" x2="45" y2="0.25" stroke="#FFFFFF" stroke-width="0.3" fill="none"/><line x1="9" y1="-72.25" x2="9" y2="0.25" stroke="#FFFFFF" stroke-width="0.3" fill="none"/><line x1="63" y1="-72.25" x2="63" y2="0.25" stroke="#FFFFFF" stroke-width="0.3" fill="none"/><line x1="27" y1="-72.25" x2="27" y2="0.25" stroke="#FFFFFF" stroke-width="0.3" fill="none"/></pattern><linearGradient x1="233.71" y1="47.44" x2="377.47" y2="295.89" gradientUnits="userSpaceOnUse" id="linear-gradient-2"><stop offset="0.07" stop-color="#165BBF" stop-opacity="0"/><stop offset="0.71" stop-color="#093472"/></linearGradient><linearGradient x1="-245.87" y1="1852.01" x2="-144.29" y2="2027.56" xlink:href="#linear-gradient-2" id="linear-gradient-3" gradientTransform="translate(622.95 -1763.41)"></linearGradient><linearGradient x1="-330.1" y1="1829.77" x2="-239.44" y2="1986.45" xlink:href="#linear-gradient-2" id="linear-gradient-4"></linearGradient></defs><g><g id="Layer_1"><rect x="0" y="4.63" rx="7.9" width="539.91" height="183.08" fill="url(#linear-gradient)"/><rect x="0" y="4.63" rx="7.9" width="539.91" height="183.08" fill="url(#Grid_.25_inch_Lines_2)" opacity="0.55"/><path d="M354.4 187.7 275.1 187.7 186.55 34.34 238.02 4.63 246.04 0 248.71 4.63 354.4 187.7Z" fill="url(#linear-gradient-2)"/><path d="M462.35 187.7 406.32 187.7 343.75 79.34 380.12 58.35 385.78 55.08 387.67 58.35 462.35 187.7Z" fill="url(#linear-gradient-3)"/><path d="M-270.58 1884.27-270.58 1923.27C-270.58 1927.63-274.117 1931.17-278.48 1931.17-278.483 1931.17-278.487 1931.17-278.49 1931.17L-299.49 1931.17-362.06 1822.81-325.69 1801.81-320.03 1798.54-318.14 1801.81Z" fill="url(#linear-gradient-4)" transform="translate(810.5 -1743.47)"/></g></g></svg>