<svg viewBox="0 0 71.13 171.8" xmlns="http://www.w3.org/2000/svg" xmlns:xlink="http://www.w3.org/1999/xlink" id="Layer_1" overflow="hidden"><defs></defs><path d="M-769.14 957.61C-768.687 956.802-768.527 955.862-768.69 954.95-769.09 953.83-769.19 953.26-768.57 950.79-768.178 949.445-768.199 948.013-768.63 946.68-768.63 946.68-765.97 946.61-766.77 950.48-767.25 952.85-762.32 947.48-761.04 945.75-761.04 945.75-759.46 945.34-759.9 947.59-760.18 949-759.72 948.99-759.6 949.8-759.1 948.94-758.47 948.25-758.32 949.8-758.08 952.16-761.32 959.35-764.06 959.7-764.885 960.271-765.933 960.413-766.88 960.08-770.08 959-769.14 957.61-769.14 957.61Z" fill="#F5AE94" transform="translate(829.44 -896.94)"/><path d="M-788.83 954.56C-788.83 954.56-786.67 976.92-780.12 978.34-774.12 979.65-760.44 958.21-760.44 958.21L-770.25 957.47-777.35 966.21C-777.35 966.21-777.97 950-784.59 942.49Z" fill="#F4F4F4" transform="translate(829.44 -896.94)"/><path d="M-816.54 1065.51-805.18 1064.23C-805.73 1063.35-806 1060.64-806.18 1058.71-806.37 1056.05-806.3 1052.55-806.3 1052.55-806.3 1052.55-813.8 1050.72-813.8 1052.55-813.803 1054.64-814.12 1056.72-814.74 1058.71-815.51 1061.78-816.54 1065.51-816.54 1065.51Z" fill="#22272E" transform="translate(829.44 -896.94)"/><path d="M-816.76 1066.31C-816.76 1066.31-816.76 1065.91-816.76 1065.97-816.76 1066.59-816.57 1066.29-816.3 1067.21L-804.38 1067.21C-804.1 1066.29-803.94 1066.59-803.92 1065.97-803.92 1065.91-803.92 1066.11-803.92 1066.05-803.92 1063.21-806.8 1061.05-810.35 1061.05-813.9 1061.05-816.76 1063.47-816.76 1066.31Z" fill="#22272E" transform="translate(829.44 -896.94)"/><path d="M-806.14 1059.88C-806.33 1057.13-806.26 1052.55-806.26 1052.55-806.26 1052.55-813.76 1050.72-813.76 1052.55-813.822 1055.02-814.137 1057.48-814.7 1059.88Z" fill="#617085" transform="translate(829.44 -896.94)"/><path d="M-816.75 1065.84C-816.75 1065.84-816.56 1066.75-816.29 1066.75L-804.37 1066.75C-804.09 1066.75-803.93 1065.84-803.91 1065.84Z" stroke="#515D6E" stroke-miterlimit="10" fill="#515D6E" transform="translate(829.44 -896.94)"/><path d="M-812.49 1062C-811.6 1060.76-809.49 1061.19-808.49 1062-808.34 1062.12-808.49 1062.32-808.66 1062.29-809.24 1062.1-809.831 1061.95-810.43 1061.83-811.12 1061.83-811.65 1062.22-812.31 1062.27-812.42 1062.27-812.507 1062.17-812.503 1062.06-812.502 1062.04-812.498 1062.02-812.49 1062Z" fill="#515D6E" transform="translate(829.44 -896.94)"/><path d="M-812.12 1063.31C-811.12 1062.64-809.19 1062.39-808.32 1063.4-808.252 1063.48-808.261 1063.6-808.341 1063.67-808.385 1063.71-808.443 1063.72-808.5 1063.71-809.103 1063.55-809.726 1063.47-810.35 1063.48-810.96 1063.48-811.45 1063.91-812.06 1063.77-812.195 1063.72-812.266 1063.57-812.219 1063.44-812.2 1063.39-812.166 1063.34-812.12 1063.31Z" fill="#515D6E" transform="translate(829.44 -896.94)"/><path d="M-797.31 1066.18C-797.265 1066.74-797.151 1067.29-796.97 1067.82-796.97 1067.82-778.87 1068.59-777.59 1068.03-777.39 1067.94-777.45 1067.75-777.7 1067.5-777.76 1067.26-777.837 1067.03-777.93 1066.8-778.56 1065.26-780.33 1062.86-785.19 1063.16L-787.19 1062.16C-787.908 1061.62-788.405 1060.83-788.59 1059.95-789.165 1057.98-789.411 1055.92-789.32 1053.87L-797 1053.96C-797 1053.96-797.27 1056.79-797.4 1059.96-797.508 1062.03-797.478 1064.11-797.31 1066.18Z" fill="#22272E" transform="translate(829.44 -896.94)"/><path d="M-788.57 1060.8C-789.131 1058.67-789.377 1056.48-789.3 1054.28L-796.98 1054.6C-796.98 1054.6-797.25 1058.05-797.38 1060.8Z" fill="#617085" transform="translate(829.44 -896.94)"/><path d="M-797.31 1066.18C-797.265 1066.74-797.151 1067.29-796.97 1067.82-796.97 1067.82-778.87 1068.59-777.59 1068.03-777.39 1067.94-777.45 1067.75-777.7 1067.5-777.76 1067.26-777.837 1067.03-777.93 1066.8-781.08 1066.82-792.44 1066.84-797.31 1066.18Z" stroke="#515D6E" stroke-miterlimit="10" fill="#515D6E" transform="translate(829.44 -896.94)"/><path d="M-787.09 1063.58C-786.629 1062.71-785.551 1062.38-784.683 1062.84-784.655 1062.86-784.627 1062.87-784.6 1062.89-784.542 1062.92-784.521 1063-784.553 1063.05-784.564 1063.07-784.58 1063.09-784.6 1063.1-784.94 1063.29-785.34 1063.18-785.71 1063.25-786.08 1063.32-786.27 1063.64-786.56 1063.85-786.85 1064.06-787.19 1063.87-787.09 1063.58Z" fill="#515D6E" transform="translate(829.44 -896.94)"/><path d="M-789.74 1062.48C-789.43 1061.85-788.811 1061.43-788.11 1061.37-787.62 1061.37-786.58 1061.5-786.72 1062.12-786.741 1062.17-786.794 1062.2-786.85 1062.2-787.16 1062.2-787.43 1062.02-787.76 1062.03-788.137 1062.05-788.492 1062.21-788.76 1062.48-789 1062.69-789.08 1062.95-789.45 1062.99-789.82 1063.03-789.8 1062.63-789.74 1062.48Z" fill="#515D6E" transform="translate(829.44 -896.94)"/><path d="M-784.61 942.5C-784.61 942.5-801.76 939.29-818.04 942.07-818.04 942.07-814.4 973.15-813.11 979.79-813.11 979.79-800.26 983.01-789.11 979.58-789.11 979.58-784.4 948.5-784.61 942.5Z" fill="#F4F4F4" transform="translate(829.44 -896.94)"/><path d="M-795.75 940.53C-795.717 943.363-797.987 945.687-800.82 945.72-800.846 945.72-800.873 945.72-800.9 945.72L-800.9 945.72C-803.733 945.731-806.039 943.444-806.05 940.61-806.05 940.584-806.05 940.557-806.05 940.53L-806.05 934C-806.078 931.167-803.803 928.848-800.97 928.82-800.947 928.82-800.923 928.82-800.9 928.82L-800.9 928.82C-798.067 928.809-795.761 931.096-795.75 933.93-795.75 933.953-795.75 933.977-795.75 934Z" fill="#D8826C" transform="translate(829.44 -896.94)"/><path d="M-801.68 949.79C-801.68 950.199-801.349 950.53-800.94 950.53-800.537 950.53-800.21 950.203-800.21 949.8-800.21 949.797-800.21 949.793-800.21 949.79-800.205 949.387-800.527 949.056-800.93 949.05-800.933 949.05-800.937 949.05-800.94 949.05-801.349 949.05-801.68 949.381-801.68 949.79Z" fill="#E8E9EA" transform="translate(829.44 -896.94)"/><path d="M-801.68 957.47C-801.68 957.879-801.349 958.21-800.94 958.21-800.537 958.21-800.21 957.883-800.21 957.48-800.21 957.477-800.21 957.473-800.21 957.47-800.205 957.067-800.527 956.736-800.93 956.73-800.933 956.73-800.937 956.73-800.94 956.73-801.349 956.73-801.68 957.061-801.68 957.47Z" fill="#E8E9EA" transform="translate(829.44 -896.94)"/><path d="M-801.63 972.84C-801.63 973.249-801.299 973.58-800.89 973.58-800.481 973.58-800.15 973.249-800.15 972.84-800.15 972.431-800.481 972.1-800.89 972.1-801.299 972.1-801.63 972.431-801.63 972.84Z" fill="#E8E9EA" transform="translate(829.44 -896.94)"/><path d="M-801.68 965.12C-801.68 965.529-801.349 965.86-800.94 965.86-800.537 965.86-800.21 965.533-800.21 965.13-800.21 965.127-800.21 965.123-800.21 965.12-800.21 964.715-800.535 964.385-800.94 964.38-801.349 964.38-801.68 964.711-801.68 965.12Z" fill="#E8E9EA" transform="translate(829.44 -896.94)"/><path d="M-795.75 937.36-791.68 941.64-795.11 950.64-800.9 945.71C-800.9 945.71-796.4 941-795.75 937.36Z" fill="#E8E9EA" transform="translate(829.44 -896.94)"/><path d="M-806 937.36-810.08 941.64-806.65 950.64-800.86 945.71C-800.86 945.71-805.4 941-806 937.36Z" fill="#E8E9EA" transform="translate(829.44 -896.94)"/><path d="M-815.26 1058.05-805.35 1058.05-801.81 997.7C-801.479 997.762-801.146 997.805-800.81 997.83L-798 1059-788 1059C-787.85 1034.26-789.29 980.12-789.08 979.49L-810.33 979.29-813.08 979.29C-813.27 981.12-813.44 981.56-813.59 982.9-815.67 1000.55-815.32 1049.8-815.26 1058.05Z" fill="#22272E" transform="translate(829.44 -896.94)"/><path d="M-813.62 983.22-810.62 983.22C-810.57 982.05-810.47 980.89-810.37 979.72L-813.12 979.72C-813.3 980.72-813.47 981.88-813.62 983.22Z" fill="#8C4C09" transform="translate(829.44 -896.94)"/><path d="M-807.85 980-795.61 979.89C-795.61 981.19-795.69 982.49-795.72 983.79L-808.08 983.57C-807.866 982.393-807.789 981.195-807.85 980Z" fill="#8C4C09" transform="translate(829.44 -896.94)"/><path d="M-792.64 979.88-789.11 979.88-789.11 983.95-792.98 983.88C-792.665 982.572-792.55 981.223-792.64 979.88Z" fill="#8C4C09" transform="translate(829.44 -896.94)"/><rect x="23.88" y="81.41" width="6.41" height="5.5" fill="#C28C4B"/><path d="M-789.58 926.05C-789.58 930.12-793.91 933.43-796.79 934.98-798.441 935.881-800.336 936.231-802.2 935.98-813.68 933.37-812.87 927.91-813.52 923.38-814.018 919.548-813.893 915.662-813.15 911.87-813.022 911.209-812.81 910.567-812.52 909.96-810.74 906.25-806.52 904.82-806.52 904.82-803.948 903.944-801.194 903.737-798.52 904.22-794.75 904.91-791.8 906.86-790.84 910.71-790.56 911.961-790.349 913.226-790.21 914.5-789.88 917.11-789.71 919.74-789.62 922.37-789.62 923.63-789.59 924.84-789.58 926.05Z" fill="#F5AE94" transform="translate(829.44 -896.94)"/><path d="M-801.64 914.65C-801.64 914.65-802.52 913.88-802.49 916.87-802.46 919.86-802.08 922.99-802.08 922.99-802.08 922.99-804.14 921.99-803.37 923.57-802.914 924.376-802.1 924.915-801.18 925.02-800.498 925.161-799.795 924.901-799.37 924.35-799.15 924.1-798 922.77-798.37 922.41-798.57 922.24-799.62 922.75-799.89 922.84-799.93 922.84-800.2 913.89-801.64 914.65Z" fill="#DD876C" transform="translate(829.44 -896.94)"/><path d="M-798.2 912.55C-798.2 912.55-793.01 911.55-791.37 915.33-791.37 915.33-797.18 913.58-798.29 914.45Z" fill="#0D0D0C" transform="translate(829.44 -896.94)"/><path d="M-804.46 913C-804.46 913-809.58 911.63-811.46 915.35-811.46 915.35-805.55 913.97-804.46 914.9Z" fill="#0D0D0C" transform="translate(829.44 -896.94)"/><path d="M-785.83 902.65C-786.55 903.687-787.612 904.438-788.83 904.77-787.722 903.779-787.087 902.366-787.08 900.88-787.092 900.82-787.15 900.782-787.209 900.794-787.216 900.795-787.223 900.797-787.23 900.8-787.42 900.918-787.595 901.059-787.75 901.22-788.746 901.942-790.045 902.093-791.18 901.62-793.06 900.95-794.6 899.62-796.29 898.62-798.103 897.465-800.222 896.883-802.37 896.95-803.54 896.997-804.695 897.234-805.79 897.65-808.48 898.65-811.69 900.54-812.41 903.54-812.508 903.956-812.552 904.383-812.54 904.81-812.54 905.07-812.32 905.87-812.43 906.08-812.456 906.141-812.427 906.211-812.366 906.237-812.339 906.249-812.308 906.25-812.28 906.24-812.235 906.242-812.194 906.213-812.18 906.17-812.176 906.133-812.176 906.097-812.18 906.06-810.92 905.06-808.8 909.06-808.02 909.7-805.02 912.17-800.82 912.52-797.31 911.56-793.103 910.411-789.39 907.913-786.74 904.45-786.358 903.917-786.023 903.352-785.74 902.76-785.59 902.65-785.76 902.56-785.83 902.65Z" fill="#242422" transform="translate(829.44 -896.94)"/><path d="M-790.06 917.53C-790.06 917.53-787.55 911.85-785.48 916.32-783.83 919.88-786.58 923.32-788.8 923.12-791.02 922.92-790.06 917.53-790.06 917.53Z" fill="#F0A98F" transform="translate(829.44 -896.94)"/><path d="M-789.91 918.41C-789.91 918.41-788.05 914.77-787.08 916.08-786.457 916.997-786.11 918.072-786.08 919.18-786.08 919.18-786.77 917.28-788.08 918.53-788.08 918.53-786.28 921.53-789.29 920.88-790.112 920.346-790.382 919.269-789.91 918.41Z" fill="#D8826C" transform="translate(829.44 -896.94)"/><path d="M-809.45 905.53C-809.45 905.53-809.16 910.18-811.09 912.43-813.02 914.68-813.2 919.26-813.2 919.26-813.2 919.26-820.27 910.26-812.2 905-811.256 904.655-810.198 904.859-809.45 905.53Z" fill="#242422" transform="translate(829.44 -896.94)"/><path d="M-793.91 907.36C-791.737 910.517-790.365 914.155-789.91 917.96-789.91 917.96-785.3 911.11-789.7 905.32-789.73 905.32-794.55 903.29-793.91 907.36Z" fill="#242422" transform="translate(829.44 -896.94)"/><path d="M-813 918.39C-813 918.39-815.5 912.71-817.57 917.18-819.22 920.74-816.48 924.18-814.26 923.98-812.04 923.78-813 918.39-813 918.39Z" fill="#F0A98F" transform="translate(829.44 -896.94)"/><path d="M-813.2 919.26C-813.2 919.26-815.06 915.62-816.02 916.93-816.642 917.85-816.989 918.929-817.02 920.04-817.02 920.04-816.33 918.14-815.02 919.39-815.02 919.39-816.83 922.39-813.81 921.74-812.986 921.203-812.719 920.118-813.2 919.26Z" fill="#D8826C" transform="translate(829.44 -896.94)"/><path d="M-805.42 916C-806.436 915.849-807.464 915.796-808.49 915.84-809.131 916.88-809.692 917.966-810.17 919.09-810.526 919.919-810.804 920.779-811 921.66-810.021 922.476-808.773 922.897-807.5 922.84-807 920.48-806.67 917.91-805.42 916Z" fill="#EAECED" opacity="0.4" transform="translate(829.44 -896.94)"/><path d="M-792.33 915.72C-793.355 915.666-794.383 915.71-795.4 915.85-795.938 916.948-796.393 918.084-796.76 919.25-797.034 920.11-797.225 920.994-797.33 921.89-796.277 922.61-794.992 922.906-793.73 922.72-793.46 920.37-793.39 917.77-792.33 915.72Z" fill="#EAECED" opacity="0.4" transform="translate(829.44 -896.94)"/><path d="M-789.77 920.14C-788.77 917.14-789.05 915.86-789.08 915.72L-789.15 915.48-789.38 915.39C-792.396 914.327-795.703 914.452-798.63 915.74-799.13 915.969-799.612 916.236-800.07 916.54L-800.07 916.45-801.81 916.52-801.81 916.44-802.05 916.32C-802.556 916.04-803.08 915.796-803.62 915.59-806.637 914.497-809.956 914.586-812.91 915.84L-813.14 915.95-813.19 916.19C-813.19 916.33-813.43 917.63-812.19 920.55-811.738 921.62-810.85 922.446-809.75 922.82-808.789 923.163-807.767 923.299-806.75 923.22-803.34 922.84-802.75 921.22-802.34 920.12L-802.28 919.94C-802.037 919.316-801.869 918.664-801.78 918-801.285 917.807-800.735 917.807-800.24 918-800.115 918.736-799.893 919.452-799.58 920.13-799.58 920.18-799.58 920.24-799.51 920.3-799.04 921.36-798.33 922.96-794.91 923.12-793.902 923.124-792.905 922.92-791.98 922.52-790.94 922.075-790.137 921.21-789.77 920.14ZM-806.93 922.21C-807.778 922.267-808.628 922.151-809.43 921.87-810.265 921.597-810.943 920.977-811.29 920.17-811.814 919.06-812.129 917.864-812.22 916.64-809.576 915.63-806.658 915.594-803.99 916.54-803.586 916.692-803.192 916.869-802.81 917.07-802.818 917.93-802.984 918.781-803.3 919.58-803.3 919.64-803.35 919.7-803.37 919.77-803.74 920.77-804.15 921.91-806.93 922.21ZM-792.48 921.63C-793.262 921.959-794.102 922.129-794.95 922.13-797.74 922.01-798.23 920.9-798.66 919.92L-798.74 919.74C-799.103 918.962-799.327 918.126-799.4 917.27-799.028 917.045-798.644 916.842-798.25 916.66-795.646 915.552-792.735 915.4-790.03 916.23-790.044 917.456-790.281 918.669-790.73 919.81-791.017 920.645-791.657 921.31-792.48 921.63Z" fill="#5C311E" transform="translate(829.44 -896.94)"/><path d="M-805.25 926.55C-804.728 927.805-804.017 928.972-803.14 930.01-801.6 931.73-799.35 932.75-796.86 929.01-796.23 928.063-795.691 927.058-795.25 926.01-795.25 926.01-796.11 926.34-797.37 926.7-799.37 927.26-802.29 927.89-804.37 926.97L-804.37 926.97C-804.697 926.917-805.003 926.771-805.25 926.55Z" fill="#712311" transform="translate(829.44 -896.94)"/><path d="M-803.14 930C-801.6 931.72-799.35 932.73-796.86 929.05-798.19 928.71-801.34 928.16-803.14 930Z" fill="#D5503B" transform="translate(829.44 -896.94)"/><path d="M-804.33 927.1C-801.08 930.73-798.72 928.82-797.33 926.79-799.35 927.36-802.29 927.93-804.33 927.1Z" fill="#E8E9EA" transform="translate(829.44 -896.94)"/><path d="M-808.73 973.39C-807.844 973.557-806.927 973.441-806.11 973.06-805.18 972.42-804.68 972.19-802.19 972.06-800.833 972.041-799.509 971.639-798.37 970.9-798.37 970.9-797.47 973.14-801.37 973.51-803.74 973.73-797.2 976.51-795.16 977.11-795.16 977.11-794.29 978.35-796.53 978.57-798.77 978.79-797.01 979.68-801.35 979.85-805.69 980.02-810.41 979-810.35 975.98-810.29 972.96-808.73 973.39-808.73 973.39Z" fill="#F5AE94" transform="translate(829.44 -896.94)"/><path d="M5.63 57.76 5.63 57.76 5.63 57.75 5.63 57.76Z" fill="#F0A98F"/><path d="M-815.77 951.54C-816.04 954.94-821.28 968-821.28 968-819.28 968.42-807.76 971.82-807.76 971.82L-808.37 980.02C-809.03 980.02-827.72 977.63-828.9 972.77-832.36 958.46-818.04 942.07-818.04 942.07-815 942.68-815.77 951.54-815.77 951.54Z" fill="#F4F4F4" transform="translate(829.44 -896.94)"/><path d="M-810.21 919.06C-810.022 920.624-808.605 921.742-807.04 921.56-805.464 921.533-804.208 920.236-804.23 918.66-804.413 917.092-805.832 915.968-807.4 916.15-808.979 916.177-810.237 917.48-810.21 919.059-810.21 919.059-810.21 919.06-810.21 919.06Z" fill="#E8E9EA" transform="translate(829.44 -896.94)"/><path d="M-804.47 918.63C-804.261 919.795-805.02 920.913-806.18 921.15-807.349 921.054-808.232 920.051-808.18 918.88-808.389 917.718-807.635 916.601-806.48 916.36-805.31 916.456-804.423 917.457-804.47 918.63Z" fill="#5C8696" transform="translate(829.44 -896.94)"/><path d="M-805 918.66C-804.846 919.489-805.384 920.289-806.21 920.46-807.051 920.401-807.69 919.682-807.65 918.84-807.797 918.014-807.261 917.221-806.44 917.05-805.604 917.109-804.965 917.822-805 918.66Z" fill="#0D0D0C" transform="translate(829.44 -896.94)"/><path d="M-805 917.05C-805 917.3-805.28 917.53-805.66 917.56-806.04 917.59-806.36 917.39-806.37 917.14-806.38 916.89-806.1 916.66-805.72 916.63-805.34 916.6-805 916.79-805 917.05Z" fill="#E8E9EA" transform="translate(829.44 -896.94)"/><path d="M-798.24 918.72C-798.062 920.295-796.646 921.43-795.07 921.26-793.486 921.216-792.232 919.905-792.26 918.32-792.433 916.744-793.85 915.607-795.425 915.779-795.427 915.78-795.429 915.78-795.43 915.78-797.017 915.818-798.274 917.133-798.24 918.72Z" fill="#E8E9EA" transform="translate(829.44 -896.94)"/><path d="M-792.92 918.32C-792.717 919.484-793.474 920.599-794.63 920.84-795.796 920.739-796.677 919.74-796.63 918.57-796.839 917.403-796.081 916.281-794.92 916.04-793.752 916.146-792.873 917.148-792.92 918.32Z" fill="#5C8696" transform="translate(829.44 -896.94)"/><path d="M-793.46 918.35C-793.318 919.177-793.85 919.97-794.67 920.15-795.51 920.086-796.149 919.371-796.12 918.53-796.267 917.701-795.725 916.906-794.9 916.74-794.064 916.799-793.426 917.512-793.46 918.35Z" fill="#0D0D0C" transform="translate(829.44 -896.94)"/><path d="M-793.48 916.73C-793.48 916.99-793.76 917.22-794.14 917.25-794.52 917.28-794.84 917.08-794.85 916.83-794.86 916.58-794.58 916.34-794.2 916.32-793.82 916.3-793.5 916.48-793.48 916.73Z" fill="#E8E9EA" transform="translate(829.44 -896.94)"/><path d="M-791.74 950.53-791.74 950.53-791.74 953.09-791.74 953.09-791.74 953.09-793.66 951.82C-793.66 951.82-793.66 951.82-793.66 951.82L-793.18 951.51-792.7 951.19-792.24 950.88-791.73 950.54-789.65 950.54-789.01 950.96-788.29 951.43-787.8 951.76-787.71 951.82C-787.71 951.82-789.65 953.11-789.71 953.12L-789.71 950.57C-789.71 950.57-789.71 950.57-789.71 950.57L-791.71 950.57Z" fill="#777777" transform="translate(829.44 -896.94)"/><path d="M-791.74 950.53-789.74 950.53-789.83 950.76C-789.9 950.96-789.98 951.15-790.05 951.35-790.12 951.55-790.21 951.74-790.28 951.93L-790.61 952.77-790.75 953.15-790.75 953.15-790.75 953.15-790.96 952.6-791.32 951.67C-791.45 951.34-791.57 951.01-791.7 950.67Z" fill="#B30C37" transform="translate(829.44 -896.94)"/><path d="M-791.93 954.69-792.02 954.82-792.14 954.82-792.01 954.65-792.01 954.65-792.01 954.65-792.08 954.58-792.18 954.47-792.18 954.47-792.18 954.97-792.18 954.97C-792.18 954.97-792.18 954.97-792.18 954.97L-792.27 954.97-792.27 954.97-792.27 954.97-792.27 954.36-792.27 954.36C-792.27 954.36-792.27 954.36-792.27 954.36L-792.16 954.36-791.93 954.61-791.93 954.61-791.72 954.36-791.61 954.36C-791.61 954.36-791.61 954.36-791.61 954.36L-791.61 954.99-791.73 954.99-791.73 954.49-791.73 954.49C-791.73 954.56-791.84 954.62-791.89 954.68L-791.89 954.68-791.75 954.84C-791.75 954.84-791.75 954.84-791.75 954.84L-791.83 954.84C-791.83 954.84-791.83 954.84-791.89 954.84-791.898 954.789-791.912 954.739-791.93 954.69Z" fill="#B30C37" transform="translate(829.44 -896.94)"/><path d="M-792.18 953.61-792.18 954.09C-792.18 954.09-792.18 954.09-792.18 954.09L-792.24 954.09C-792.24 954.09-792.24 954.09-792.24 954.09L-792.24 953.46C-792.24 953.46-792.24 953.46-792.24 953.46L-792.18 953.46C-792.18 953.46-792.18 953.46-792.18 953.46L-791.83 953.91-791.83 953.91-791.83 953.43-791.83 953.43C-791.83 953.43-791.83 953.43-791.83 953.43L-791.77 953.43C-791.77 953.43-791.77 953.43-791.77 953.43L-791.77 953.43-791.77 954.03C-791.77 954.03-791.77 954.03-791.77 954.03L-791.83 954.03C-791.83 954.03-791.83 954.03-791.83 954.03L-792.02 953.79-792.2 953.55Z" fill="#B30C37" transform="translate(829.44 -896.94)"/><path d="M-790.41 954.65-790.19 954.94-790.32 954.94C-790.38 954.85-790.45 954.77-790.51 954.69-790.57 954.61-790.51 954.69-790.51 954.69L-790.6 954.69-790.6 954.93C-790.6 954.93-790.6 954.93-790.6 954.93L-790.68 954.93-790.68 954.32-790.46 954.32C-790.408 954.305-790.352 954.305-790.3 954.32-790.219 954.355-790.181 954.449-790.215 954.53-790.222 954.544-790.23 954.558-790.24 954.57-790.266 954.602-790.301 954.626-790.34 954.64ZM-790.63 954.48-790.63 954.58-790.48 954.58-790.42 954.58C-790.388 954.535-790.388 954.475-790.42 954.43L-790.42 954.43-790.47 954.43C-790.523 954.42-790.577 954.42-790.63 954.43L-790.63 954.43Z" fill="#B30C37" transform="translate(829.44 -896.94)"/><path d="M-789.64 954.3-789.92 954.61-789.59 954.95-789.75 954.95-790.03 954.65-790.03 954.65-790.03 954.96-790.15 954.96-790.15 954.34-790.15 954.34C-790.15 954.34-790.15 954.34-790.15 954.34L-790.06 954.34C-790.06 954.34-790.06 954.34-790.06 954.34L-790.06 954.63-790.06 954.63-789.81 954.34-789.68 954.34Z" fill="#B30C37" transform="translate(829.44 -896.94)"/><path d="M-790.81 955-790.93 955-790.99 954.86-790.99 954.86-790.99 954.86-791.26 954.86C-791.26 954.86-791.26 954.86-791.26 954.86L-791.33 955.02C-791.33 955.02-791.33 955.02-791.33 955.02L-791.41 955.02C-791.41 955.02-791.41 955.02-791.41 955.02L-791.14 954.4C-791.14 954.4-791.14 954.4-791.14 954.4L-791.08 954.4C-791.08 954.4-791.08 954.4-791.08 954.4L-791 954.57-790.79 955.01ZM-791.05 954.73-791.17 954.42C-791.17 954.53-791.25 954.62-791.29 954.73Z" fill="#B30C37" transform="translate(829.44 -896.94)"/><path d="M-789.53 954.8-789.53 954.8C-789.494 954.81-789.456 954.81-789.42 954.8L-789.35 954.8C-789.35 954.8-789.29 954.72-789.35 954.68-789.366 954.655-789.391 954.637-789.42 954.63L-789.51 954.63-789.61 954.56C-789.649 954.503-789.649 954.427-789.61 954.37-789.588 954.327-789.547 954.298-789.5 954.29L-789.34 954.29-789.25 954.29-789.25 954.29-789.25 954.38-789.25 954.38C-789.283 954.372-789.317 954.372-789.35 954.38L-789.43 954.38C-789.455 954.402-789.457 954.44-789.435 954.465-789.434 954.467-789.432 954.468-789.43 954.47L-789.36 954.47-789.25 954.53C-789.219 954.552-789.198 954.584-789.19 954.62-789.153 954.712-789.199 954.817-789.291 954.854-789.297 954.856-789.304 954.858-789.31 954.86-789.401 954.89-789.499 954.89-789.59 954.86-789.59 954.86-789.59 954.86-789.59 954.86Z" fill="#B30C37" transform="translate(829.44 -896.94)"/><path d="M-790.9 953.8-790.9 953.48-790.49 953.48C-790.49 953.48-790.49 953.48-790.49 953.48L-790.49 953.48C-790.49 953.48-790.49 953.48-790.49 953.48L-790.79 953.48C-790.79 953.48-790.79 953.48-790.79 953.48L-790.79 953.63C-790.79 953.63-790.79 953.63-790.79 953.63L-790.56 953.63-790.56 953.69-790.78 953.69C-790.78 953.69-790.78 953.69-790.78 953.69L-790.78 954C-790.78 954-790.78 954-790.78 954L-790.5 954C-790.5 954-790.5 954-790.5 954L-790.5 954C-790.5 954-790.5 954-790.5 954L-790.89 954C-790.89 954-790.89 954-790.89 954Z" fill="#B30C37" transform="translate(829.44 -896.94)"/><path d="M-789.49 953.46-789.19 953.46-789.19 953.52-789.42 953.52C-789.42 953.52-789.42 953.52-789.42 953.52L-789.42 954.06C-789.42 954.06-789.42 954.06-789.42 954.06L-789.49 954.06C-789.49 954.06-789.49 954.06-789.49 954.06L-789.49 953.52C-789.49 953.52-789.49 953.52-789.49 953.52L-789.7 953.52C-789.7 953.52-789.7 953.52-789.7 953.52L-789.7 953.52-789.4 953.52Z" fill="#B30C37" transform="translate(829.44 -896.94)"/></svg>