<svg width="1180.3" height="1213.28" viewBox="0 0 1180.3 1213.28" xmlns="http://www.w3.org/2000/svg" xmlns:xlink="http://www.w3.org/1999/xlink" xml:space="preserve" overflow="visible"><defs></defs><g><g><path d="M1179.85 489.28 1179.85 462.28 643.38 19.16C612.14-6.49 565.25-6.38 534.14 19.42L0 462.06 0.08 489.28 1179.85 489.28Z" fill="#FCCF5C"/><path d="M589.9 1212.63 0 1212.63 0 462.06 1180.07 462.06 1180.07 1212.63 589.9 1212.63" fill="#FCC25C"/></g><g><path d="M852.3 65.86 156.7 65.86C145.67 65.86 136.72 74.81 136.72 85.84L136.72 919.21C136.72 930.24 145.67 939.19 156.7 939.19L1023.38 939.19C1034.41 939.19 1043.36 930.24 1043.36 919.21L1043.36 257.28C1035.9 249.78 912.92 126.93 852.3 65.86Z" fill="#FFFFFF"/><path d="M1015.36 228.85C961.18 174.49 906.81 120.32 852.68 65.91L852.68 236.97C852.68 248 861.62 256.94 872.65 256.94L1043.3 256.94C1034 247.57 1024.68 238.2 1015.36 228.85Z" fill="#E0E0E0"/></g><path d="M1180.3 1213.28 0 462.06 0 1212.2Z" fill="#F9B74B"/><path d="M0.85 1212.2 1180.07 462.06 1180.07 1213.28Z" fill="#F9B74B"/><g><path d="M1180.07 1212.63 0 1212.63 590.42 706.78Z" opacity="0.08"/><path d="M590.32 726.2 0.58 1212.63 1180.07 1212.63Z" fill="#F2A330"/></g></g></svg>