<svg width="111.29" height="309.46" viewBox="0 0 111.29 309.46" xmlns="http://www.w3.org/2000/svg" xmlns:xlink="http://www.w3.org/1999/xlink" xml:space="preserve" overflow="visible"><defs></defs><g><g><path d="M107.43 172.62C107.31 171.99 107.25 171.37 107.21 170.74L100.26 169.65C100.16 170.64 100.07 171.67 100 172.68 98.58 173.61 96.51 175.74 96.45 178.56 96.38 181.28 93 183.8 92.79 184.75 94.98 186.32 96.6 184.08 98.02 181.64 98.66 180.53 99.18 180.34 99.55 180.46 99.53 181.05 99.52 181.44 99.53 181.51 99.5 181.62 99.5 181.72 99.47 181.83 98.92 183.89 98.52 185.97 98.15 188.07 97.96 189.12 97.78 190.1 98.3 191.09 98.4 191.28 98.66 191.29 98.82 191.21 100.22 190.51 100.58 188.89 100.92 187.53 101.13 186.69 101.36 185.89 101.56 185.09 101.48 186.64 101.28 188.2 100.97 189.68 100.69 191.06 100.26 192.74 100.86 194.1 101.45 195.43 102.14 194.83 102.66 193.95 102.66 194.12 102.65 194.29 102.65 194.45 102.67 194.82 103.08 194.98 103.4 194.82 107.63 192.72 108.13 185.92 107.45 181.57 110.55 183.72 107.85 187.36 108.95 190.06 109.02 190.25 109.29 190.39 109.49 190.25 112.43 188.17 111.05 182.48 110.15 179.64 109.46 177.39 107.86 174.93 107.43 172.62Z" fill="#F0A98F"/><path d="M110.86 175.27C112.62 114.94 96.54 89.63 89.93 81.83 88.54 80.19 85.86 80.61 85.14 82.64 82.03 91.42 82.56 109.48 82.56 109.48 90.27 120 94.86 160.32 96.33 175.27L110.86 175.27Z" fill="#F4F4F4"/></g><path d="M28.83 81.8C28.83 81.8-1.76 126.45 3.42 138.54 8.6 150.62 17.92 144.75 17.92 144.75L36.22 102.29C36.21 102.29 32.49 84.44 28.83 81.8Z" fill="#F4F4F4"/><g><g><path d="M28.83 81.8C28.83 81.8 59.42 76.06 88.68 80.93 88.99 80.98 89.2 81.26 89.16 81.57 88.48 87.37 82.51 137.86 80.32 149.17 80.32 149.17 57.09 154.98 36.96 148.78 36.96 148.78 28.44 92.64 28.83 81.8Z" fill="#F4F4F4"/><path d="M67.49 78.24C67.49 83.42 62.65 87.61 58.22 87.61L58.22 87.61C53.8 87.61 48.95 83.42 48.95 78.24L48.95 66.39C48.95 61.22 53.79 57.02 58.22 57.02L58.22 57.02C62.64 57.02 67.49 61.21 67.49 66.39L67.49 78.24Z" fill="#D8826C"/><g><path d="M59.67 94.96C59.67 95.7 59.07 96.29 58.34 96.29 57.6 96.29 57 95.69 57 94.96 57 94.23 57.6 93.63 58.34 93.63 59.07 93.63 59.67 94.22 59.67 94.96Z" fill="#E8E9EA"/><path d="M59.67 108.84C59.67 109.58 59.07 110.18 58.34 110.18 57.6 110.18 57 109.58 57 108.84 57 108.1 57.6 107.51 58.34 107.51 59.07 107.51 59.67 108.11 59.67 108.84Z" fill="#E8E9EA"/><path d="M59.57 136.61C59.57 137.35 58.97 137.94 58.23 137.94 57.49 137.94 56.9 137.34 56.9 136.61 56.9 135.87 57.49 135.28 58.23 135.28 58.97 135.28 59.57 135.87 59.57 136.61Z" fill="#E8E9EA"/><path d="M59.67 122.67C59.67 123.41 59.07 124.01 58.34 124.01 57.6 124.01 57 123.41 57 122.67 57 121.93 57.6 121.33 58.34 121.33 59.07 121.34 59.67 121.93 59.67 122.67Z" fill="#E8E9EA"/></g><g><path d="M48.96 72.51 41.6 80.25 47.8 96.51 58.25 87.6C58.25 87.61 50.12 79.09 48.96 72.51Z" fill="#E8E9EA"/><path d="M67.55 72.51 74.91 80.25 68.71 96.51 58.26 87.6C58.25 87.61 66.38 79.09 67.55 72.51Z" fill="#E8E9EA"/></g></g><g><g><path d="M36.4 52.07C36.34 59.44 44.21 65.41 49.42 68.2 54.64 70.99 59.2 70.08 59.2 70.08 79.93 65.36 78.47 55.51 79.64 47.33 80.21 43.31 80.75 35.8 78.97 26.53 78.73 25.27 78.34 24.13 77.84 23.08 74.63 16.38 67.04 13.78 67.04 13.78 62.51 12.2 57.33 11.85 52.63 12.71 45.83 13.96 40.49 17.48 38.77 24.44 38.22 26.68 37.91 28.99 37.63 31.28 37.04 36 36.73 40.76 36.56 45.51 36.47 47.7 36.42 49.88 36.4 52.07Z" fill="#F5AE94"/></g><path d="M58.19 31.48C58.19 31.48 59.78 30.09 59.72 35.48 59.66 40.88 58.98 46.54 58.98 46.54 58.98 46.54 62.71 44.69 61.31 47.6 60.56 49.17 58.98 49.89 57.35 50.22 55.93 50.5 54.93 49.96 54.08 49 53.68 48.56 51.61 46.16 52.36 45.51 52.72 45.2 54.61 46.13 55.09 46.29 55.09 46.28 55.58 30.11 58.19 31.48Z" fill="#DD876C"/><path d="M62.5 32.68C62.44 31.88 62.96 31.15 63.75 30.99 66.43 30.43 72.39 29.85 75.27 34.8 75.27 34.8 67.89 33.55 64.32 34.13 63.41 34.27 62.58 33.59 62.5 32.68L62.5 32.68Z" fill="#293842"/><path d="M52.53 32.2C52.72 31.42 52.32 30.62 51.58 30.33 49.03 29.34 43.25 27.79 39.59 32.2 39.59 32.2 47.08 32.17 50.5 33.34 51.37 33.62 52.3 33.09 52.53 32.2L52.53 32.2Z" fill="#293842"/><path d="M34.74 14.32C38.54 22.84 58.52 29.66 69.57 23.26 71.15 22.35 74.8 14.84 77.09 16.7 77.12 16.8 77.19 17.04 77.36 17.01 80.34 7.56 67.79 0.6 59.44 0.23 49.12-1.62 33.8 8.68 34.74 14.32" fill="#293842"/><g><g><path d="M37.26 36.68C37.26 36.68 32.73 26.43 28.99 34.5 26.02 40.93 30.97 47.23 34.99 46.79 38.99 46.35 37.26 36.68 37.26 36.68Z" fill="#F0A98F"/><path d="M36.98 38.27C36.98 38.27 33.62 31.69 31.88 34.06 30.13 36.42 30.15 39.67 30.15 39.67 30.15 39.67 31.4 36.24 33.83 38.49 33.83 38.49 30.56 43.85 36.01 42.74 36.02 42.74 38.39 41.23 36.98 38.27Z" fill="#D8826C"/></g></g><path d="M72.29 15.01C72.29 15.01 71.77 23.4 75.26 27.46 78.74 31.53 79.07 39.81 79.07 39.81 79.07 39.81 91.84 23.52 77.32 14.04 77.32 14.05 74.41 12.89 72.29 15.01Z" fill="#293842"/><path d="M44.21 18.3C44.21 18.3 38.31 26.16 37.05 37.47 37.05 37.47 28.73 25.08 36.66 14.63 36.66 14.63 45.37 10.95 44.21 18.3Z" fill="#293842"/><g><g><path d="M78.79 38.23C78.79 38.23 83.32 27.97 87.06 36.04 90.04 42.47 85.08 48.77 81.06 48.33 77.06 47.9 78.79 38.23 78.79 38.23Z" fill="#F0A98F"/><path d="M79.07 39.82C79.07 39.82 82.43 33.24 84.17 35.61 85.92 37.97 85.9 41.22 85.9 41.22 85.9 41.22 84.65 37.8 82.22 40.04 82.22 40.04 85.48 45.4 80.03 44.29 80.03 44.28 77.66 42.78 79.07 39.82Z" fill="#D8826C"/></g></g><g><path d="M39.36 39.46C39.54 42.16 42.1 44.19 45.09 43.99 48.07 43.79 50.34 41.44 50.16 38.74 49.98 36.04 47.42 34.02 44.43 34.22 41.45 34.41 39.18 36.76 39.36 39.46Z" fill="#E8E9EA"/><g><path d="M46.81 38.89C46.97 41.28 45.59 43.32 43.72 43.45 41.86 43.58 40.22 41.74 40.06 39.34 39.9 36.95 41.28 34.91 43.14 34.79 45.01 34.66 46.65 36.5 46.81 38.89Z" fill="#5C8696"/><path d="M45.83 38.95C45.95 40.65 44.97 42.1 43.64 42.19 42.32 42.28 41.15 40.97 41.04 39.27 40.93 37.57 41.91 36.12 43.23 36.03 44.56 35.95 45.72 37.26 45.83 38.95Z" fill="#0D0D0C"/><path d="M45.79 36.03C45.82 36.49 45.29 36.9 44.61 36.95 43.92 37 43.35 36.65 43.31 36.2 43.28 35.74 43.81 35.33 44.49 35.28 45.18 35.23 45.76 35.57 45.79 36.03Z" fill="#E8E9EA"/></g></g><g><path d="M62.31 40.02C62.49 42.75 65.06 44.8 68.04 44.61 71.02 44.41 73.29 42.03 73.11 39.3 72.93 36.56 70.36 34.51 67.38 34.71 64.4 34.91 62.13 37.29 62.31 40.02Z" fill="#E8E9EA"/><g><path d="M69.39 39.54C69.55 41.93 68.17 43.97 66.3 44.1 64.43 44.22 62.79 42.39 62.63 39.99 62.47 37.6 63.85 35.56 65.72 35.43 67.59 35.31 69.23 37.15 69.39 39.54Z" fill="#5C8696"/><path d="M68.42 39.6C68.53 41.3 67.55 42.75 66.23 42.84 64.9 42.93 63.74 41.62 63.62 39.92 63.51 38.22 64.49 36.77 65.81 36.68 67.14 36.6 68.3 37.9 68.42 39.6Z" fill="#0D0D0C"/><path d="M68.37 36.68C68.4 37.14 67.87 37.56 67.19 37.6 66.5 37.65 65.93 37.3 65.9 36.84 65.87 36.38 66.39 35.97 67.08 35.92 67.76 35.88 68.34 36.22 68.37 36.68Z" fill="#E8E9EA"/></g></g></g></g><g><g><g><g><g><path d="M86.52 304.04 66 301.72C66.98 300.14 67.47 295.71 67.72 292.23 68.06 287.41 67.93 281.58 67.93 281.58 67.93 281.58 81.48 278.27 81.48 281.58 81.48 284.89 82.25 288.66 83.19 292.23 84.66 297.77 86.52 304.04 86.52 304.04Z" fill="#22272E"/><path d="M86.91 305.48C86.91 305.58 86.91 305.24 86.9 305.34 86.85 306.46 86.56 306.41 86.06 308.07L64.52 308.07C64.02 306.41 63.73 306.47 63.69 305.34 63.68 305.24 63.68 305.36 63.68 305.26 63.68 300.13 68.88 296.08 75.3 296.08 81.71 296.07 86.91 300.34 86.91 305.48Z" fill="#22272E"/></g><path d="M67.72 293.16C68.06 288.19 67.93 281.57 67.93 281.57 67.93 281.57 81.48 278.26 81.48 281.57 81.48 284.88 82.25 288.19 83.19 293.16L67.72 293.16Z" fill="#617085"/></g><path d="M86.89 305.58C86.84 305.58 86.55 307.24 86.05 307.24L64.52 307.24C64.02 307.24 63.73 305.58 63.69 305.58L86.89 305.58Z" stroke="#515D6E" stroke-miterlimit="10" fill="#515D6E"/></g><path d="M79.19 297.76C77.59 295.53 73.77 296.31 71.97 297.81 71.7 298.04 72 298.4 72.28 298.35 73.4 298.16 74.3 297.57 75.47 297.52 76.72 297.46 77.68 298.22 78.87 298.31 79.13 298.33 79.34 297.98 79.19 297.76Z" fill="#515D6E"/><path d="M78.52 300.07C76.74 298.84 73.22 298.4 71.66 300.22 71.44 300.47 71.64 300.9 72 300.8 73.04 300.51 74.27 300.36 75.33 300.37 76.43 300.38 77.32 301.16 78.41 300.9 78.82 300.8 78.82 300.28 78.52 300.07Z" fill="#515D6E"/></g><g><g><g><path d="M51.77 305.25C51.64 306.48 51.44 307.5 51.17 308.22 51.17 308.22 18.46 309.62 16.16 308.6 15.8 308.44 15.9 308.1 16.35 307.64 16.44 307.29 16.58 306.86 16.77 306.39 17.91 303.61 21.09 299.26 29.89 299.8 31.44 299.01 32.72 298.37 33.46 297.98 34.58 297.39 35.4 295.87 35.99 293.99 37.29 289.91 37.53 284.18 37.31 282.99L51.18 283.17C51.18 283.17 51.66 288.29 51.9 293.99 52.05 297.95 52.1 302.23 51.77 305.25Z" fill="#22272E"/><path d="M35.97 294.82C37.27 288.2 37.51 284.58 37.29 283.4L51.16 283.79C51.16 283.79 51.64 288.2 51.88 294.82L35.97 294.82Z" fill="#617085"/></g><path d="M51.77 305.25C51.64 306.48 51.44 307.5 51.17 308.22 51.17 308.22 18.46 309.62 16.16 308.6 15.8 308.44 15.9 308.1 16.35 307.64 16.44 307.29 16.58 306.86 16.77 306.39 22.45 306.41 42.97 306.44 51.77 305.25Z" stroke="#515D6E" stroke-miterlimit="10" fill="#515D6E"/></g><path d="M33.31 300.54C32.78 298.97 30.25 298.34 28.82 299.3 28.67 299.4 28.65 299.58 28.82 299.68 29.43 300.02 30.14 299.83 30.82 299.96 31.55 300.1 31.82 300.66 32.34 301.04 32.76 301.34 33.49 301.08 33.31 300.54Z" fill="#515D6E"/><path d="M38.09 298.56C37.66 297.51 36.39 296.68 35.14 296.56 34.26 296.47 32.38 296.8 32.63 297.91 32.66 298.01 32.76 298.06 32.86 298.06 33.43 298.1 33.92 297.74 34.51 297.75 35.18 297.76 35.85 298.16 36.3 298.56 36.73 298.95 36.88 299.41 37.55 299.49 38.02 299.54 38.2 298.84 38.09 298.56Z" fill="#515D6E"/></g><g><path d="M35 292.86 52.96 292.86 58.1 182.76C58.68 182.84 59.28 182.88 59.89 182.9L66.29 292.09 84.21 292.09C84.32 278.31 85.04 174.3 80.33 150.38L36.97 149.99C37.34 151.13 34.73 249.83 35 292.86Z" fill="#22272E"/><path d="M75.71 156.66 80.71 156.57 80.32 150.37 75.33 150.33C75.49 152.44 75.65 154.55 75.71 156.66Z" fill="#8C4C09"/><path d="M70.82 150.29 48.7 150.1C48.77 152.45 48.85 154.79 48.9 157.14L71.22 156.75C70.76 154.74 70.79 152.47 70.82 150.29Z" fill="#8C4C09"/><path d="M43.32 150.05 36.96 150 36.96 157.36 43.94 157.24C43.32 155.08 43.26 152.46 43.32 150.05Z" fill="#8C4C09"/><rect x="53.46" y="145.85" width="13.24" height="9.93" fill="#C28C4B"/></g></g><g><path d="M74.75 99.42C74.74 99.43 74.74 99.44 74.74 99.45 74.74 99.5 74.74 99.54 74.74 99.59 74.74 101.07 74.74 102.55 74.74 104.04 74.74 104.05 74.74 104.07 74.74 104.08 74.74 104.08 74.74 104.08 74.73 104.08 74.73 104.08 74.73 104.08 74.73 104.08 74.72 104.07 74.7 104.06 74.69 104.06 73.53 103.29 72.38 102.52 71.22 101.75 71.23 101.74 71.24 101.74 71.24 101.73 71.53 101.54 71.82 101.35 72.1 101.16 72.39 100.97 72.68 100.78 72.96 100.59 73.24 100.41 73.52 100.22 73.79 100.04 74.1 99.84 74.4 99.63 74.71 99.43 74.73 99.42 74.75 99.42 74.77 99.42 75.72 99.42 76.66 99.42 77.61 99.42 77.87 99.42 78.14 99.42 78.4 99.42 78.43 99.42 78.45 99.43 78.47 99.44 78.85 99.7 79.24 99.95 79.63 100.2 80.06 100.48 80.49 100.77 80.92 101.05 81.22 101.25 81.52 101.45 81.82 101.64 81.88 101.68 81.93 101.71 81.99 101.75 81.97 101.78 78.49 104.08 78.45 104.09 78.45 104.07 78.45 104.06 78.45 104.04 78.45 102.52 78.45 101.01 78.45 99.49 78.45 99.47 78.46 99.44 78.44 99.42 78.43 99.4 78.41 99.41 78.39 99.41 77.19 99.41 75.99 99.41 74.78 99.41 74.77 99.41 74.76 99.41 74.74 99.41 74.76 99.41 74.75 99.42 74.75 99.42Z" fill="#777777"/><path d="M74.75 99.42C74.75 99.41 74.76 99.41 74.77 99.41 74.78 99.41 74.79 99.41 74.81 99.41 76.01 99.41 77.21 99.41 78.42 99.41 78.44 99.41 78.45 99.4 78.47 99.42 78.42 99.56 78.36 99.69 78.31 99.83 78.17 100.18 78.04 100.54 77.9 100.89 77.76 101.24 77.63 101.59 77.49 101.95 77.29 102.45 77.1 102.96 76.9 103.46 76.81 103.69 76.72 103.92 76.63 104.15 76.62 104.16 76.62 104.18 76.61 104.19 76.6 104.18 76.59 104.16 76.59 104.15 76.46 103.82 76.33 103.49 76.2 103.16 75.98 102.6 75.77 102.04 75.55 101.48 75.32 100.89 75.09 100.29 74.86 99.7 74.82 99.61 74.78 99.51 74.75 99.42Z" fill="#B30C37"/><path d="M74.41 106.93C74.35 107.01 74.3 107.08 74.24 107.16 74.23 107.18 74.21 107.19 74.19 107.19 74.13 107.19 74.08 107.19 74.02 107.19 74.01 107.17 74.02 107.17 74.03 107.16 74.11 107.06 74.19 106.96 74.27 106.86 74.28 106.85 74.29 106.84 74.29 106.83 74.3 106.82 74.3 106.81 74.29 106.79 74.25 106.74 74.21 106.7 74.17 106.65 74.11 106.59 74.06 106.52 74 106.46 74 106.45 73.99 106.45 73.98 106.45 73.98 106.46 73.98 106.47 73.98 106.49 73.98 106.77 73.98 107.06 73.98 107.34 73.98 107.35 73.98 107.36 73.98 107.36 73.98 107.39 73.98 107.39 73.95 107.39 73.9 107.39 73.84 107.39 73.79 107.39 73.77 107.39 73.77 107.39 73.77 107.37 73.77 107.36 73.77 107.35 73.77 107.35 73.77 106.98 73.77 106.62 73.77 106.25 73.77 106.25 73.77 106.24 73.77 106.24 73.77 106.21 73.77 106.21 73.8 106.21 73.85 106.21 73.9 106.21 73.95 106.21 73.97 106.21 73.99 106.22 74 106.23 74.13 106.38 74.27 106.54 74.41 106.69 74.41 106.69 74.42 106.7 74.42 106.71 74.43 106.7 74.44 106.69 74.45 106.68 74.58 106.53 74.7 106.39 74.82 106.24 74.83 106.22 74.85 106.21 74.87 106.21 74.92 106.21 74.97 106.21 75.02 106.21 75.06 106.21 75.06 106.21 75.06 106.25 75.06 106.48 75.06 106.7 75.06 106.93 75.06 107.07 75.06 107.22 75.06 107.36 75.06 107.37 75.06 107.38 75.06 107.39 75.06 107.4 75.05 107.41 75.04 107.41 74.98 107.41 74.92 107.41 74.86 107.41 74.85 107.41 74.84 107.4 74.84 107.39 74.84 107.38 74.84 107.37 74.84 107.36 74.84 107.07 74.84 106.78 74.84 106.49 74.84 106.48 74.84 106.48 74.84 106.47 74.83 106.46 74.82 106.47 74.82 106.48 74.72 106.59 74.63 106.71 74.53 106.82 74.51 106.84 74.52 106.85 74.53 106.86 74.61 106.96 74.7 107.06 74.78 107.16 74.79 107.17 74.8 107.18 74.8 107.2 74.75 107.2 74.71 107.2 74.66 107.2 74.61 107.21 74.57 107.19 74.54 107.14 74.51 107.07 74.45 107.01 74.41 106.93Z" fill="#B30C37"/><path d="M73.96 104.99C73.96 105 73.96 105.02 73.96 105.03 73.96 105.31 73.96 105.59 73.96 105.86 73.96 105.91 73.96 105.9 73.92 105.9 73.88 105.9 73.85 105.9 73.81 105.9 73.79 105.9 73.79 105.89 73.79 105.88 73.79 105.87 73.79 105.86 73.79 105.86 73.79 105.49 73.79 105.13 73.79 104.76 73.79 104.71 73.78 104.72 73.83 104.72 73.87 104.72 73.9 104.72 73.94 104.72 73.97 104.72 73.98 104.73 74 104.75 74.21 105.02 74.42 105.29 74.63 105.57 74.65 105.59 74.67 105.62 74.69 105.64 74.7 105.62 74.69 105.61 74.69 105.6 74.69 105.33 74.69 105.05 74.69 104.78 74.69 104.77 74.69 104.77 74.69 104.76 74.69 104.72 74.69 104.72 74.73 104.72 74.77 104.72 74.81 104.72 74.84 104.72 74.86 104.72 74.87 104.73 74.87 104.75 74.87 104.76 74.87 104.76 74.87 104.77 74.87 105.14 74.87 105.5 74.87 105.87 74.87 105.92 74.87 105.91 74.83 105.91 74.79 105.91 74.76 105.91 74.72 105.91 74.7 105.91 74.68 105.9 74.66 105.88 74.55 105.73 74.44 105.59 74.32 105.44 74.21 105.3 74.1 105.15 73.99 105.01 73.98 105 73.98 104.99 73.96 104.99Z" fill="#B30C37"/><path d="M77.15 106.87C77.28 107.05 77.42 107.22 77.55 107.4 77.54 107.42 77.53 107.41 77.52 107.41 77.47 107.41 77.41 107.41 77.36 107.41 77.34 107.41 77.33 107.4 77.31 107.39 77.2 107.24 77.08 107.09 76.97 106.94 76.96 106.92 76.95 106.91 76.92 106.91 76.87 106.91 76.82 106.91 76.77 106.9 76.74 106.9 76.74 106.9 76.74 106.93 76.74 107.07 76.74 107.21 76.74 107.36 76.74 107.42 76.75 107.41 76.69 107.41 76.65 107.41 76.61 107.41 76.57 107.41 76.55 107.41 76.54 107.4 76.54 107.39 76.54 107.38 76.54 107.38 76.54 107.37 76.54 107.01 76.54 106.64 76.54 106.28 76.54 106.27 76.54 106.27 76.54 106.26 76.54 106.24 76.54 106.24 76.56 106.23 76.6 106.23 76.64 106.23 76.67 106.22 76.76 106.22 76.84 106.21 76.93 106.21 77.03 106.21 77.13 106.23 77.22 106.27 77.41 106.36 77.44 106.6 77.32 106.73 77.27 106.79 77.21 106.83 77.14 106.85 77.16 106.86 77.16 106.86 77.15 106.87 77.15 106.86 77.15 106.86 77.15 106.87ZM76.75 106.56C76.75 106.61 76.75 106.67 76.75 106.72 76.75 106.74 76.75 106.75 76.77 106.75 76.85 106.76 76.94 106.76 77.02 106.74 77.06 106.73 77.09 106.72 77.13 106.71 77.22 106.66 77.23 106.5 77.18 106.44 77.17 106.43 77.16 106.42 77.15 106.41 77.13 106.39 77.1 106.38 77.07 106.38 76.97 106.36 76.87 106.36 76.77 106.36 76.75 106.36 76.75 106.37 76.75 106.39 76.75 106.45 76.75 106.51 76.75 106.56Z" fill="#B30C37"/><path d="M78.54 106.22C78.37 106.41 78.2 106.59 78.03 106.78 78.23 106.98 78.43 107.19 78.63 107.39 78.62 107.4 78.61 107.4 78.6 107.4 78.53 107.4 78.47 107.4 78.4 107.4 78.37 107.4 78.36 107.39 78.34 107.37 78.17 107.19 78.01 107.01 77.84 106.83 77.84 106.83 77.83 106.82 77.83 106.82 77.82 106.83 77.83 106.84 77.83 106.85 77.83 107.02 77.83 107.18 77.83 107.35 77.83 107.36 77.83 107.37 77.83 107.38 77.83 107.39 77.83 107.4 77.81 107.4 77.75 107.4 77.69 107.4 77.63 107.4 77.62 107.4 77.61 107.39 77.61 107.38 77.61 107.37 77.61 107.36 77.61 107.36 77.61 106.99 77.61 106.62 77.61 106.25 77.61 106.24 77.61 106.24 77.61 106.23 77.61 106.21 77.62 106.2 77.64 106.2 77.69 106.2 77.74 106.2 77.8 106.2 77.83 106.2 77.83 106.2 77.83 106.23 77.83 106.39 77.83 106.55 77.83 106.71 77.83 106.72 77.83 106.74 77.83 106.76 77.84 106.75 77.85 106.74 77.86 106.73 78.01 106.56 78.16 106.39 78.32 106.21 78.33 106.2 78.33 106.19 78.35 106.19 78.4 106.21 78.47 106.21 78.54 106.22 78.53 106.22 78.53 106.22 78.54 106.22Z" fill="#B30C37"/><path d="M76.43 107.4C76.37 107.4 76.31 107.4 76.25 107.4 76.23 107.4 76.22 107.39 76.21 107.37 76.18 107.29 76.14 107.21 76.1 107.13 76.09 107.11 76.08 107.09 76.08 107.07 76.07 107.04 76.06 107.04 76.03 107.04 75.9 107.04 75.77 107.04 75.64 107.04 75.61 107.04 75.57 107.04 75.54 107.04 75.51 107.04 75.5 107.05 75.49 107.07 75.45 107.17 75.41 107.26 75.37 107.36 75.35 107.4 75.36 107.39 75.32 107.39 75.27 107.39 75.22 107.39 75.17 107.39 75.16 107.37 75.17 107.36 75.18 107.35 75.34 106.98 75.51 106.61 75.67 106.24 75.68 106.21 75.7 106.2 75.73 106.2 75.77 106.2 75.81 106.2 75.85 106.2 75.88 106.2 75.89 106.21 75.9 106.23 75.95 106.33 75.99 106.43 76.04 106.53 76.17 106.8 76.29 107.06 76.42 107.33 76.41 107.36 76.42 107.38 76.43 107.4ZM76 106.91C75.99 106.89 75.78 106.37 75.77 106.36 75.72 106.55 75.63 106.72 75.56 106.91 75.71 106.91 75.85 106.91 76 106.91Z" fill="#B30C37"/><path d="M78.75 107.13C78.78 107.15 78.8 107.16 78.82 107.17 78.88 107.2 78.94 107.23 79.01 107.24 79.05 107.24 79.1 107.24 79.14 107.23 79.23 107.2 79.26 107.09 79.21 107 79.18 106.96 79.14 106.93 79.1 106.91 79.05 106.88 78.99 106.86 78.94 106.83 78.87 106.8 78.8 106.75 78.75 106.69 78.67 106.59 78.66 106.45 78.73 106.35 78.78 106.28 78.85 106.24 78.93 106.21 79.03 106.18 79.13 106.19 79.23 106.21 79.28 106.22 79.33 106.24 79.39 106.26 79.4 106.27 79.41 106.27 79.4 106.29 79.38 106.35 79.36 106.4 79.35 106.46 79.33 106.46 79.32 106.45 79.31 106.44 79.25 106.4 79.19 106.38 79.12 106.37 79.07 106.36 79.02 106.37 78.98 106.39 78.91 106.42 78.89 106.48 78.92 106.55 78.94 106.59 78.96 106.61 78.99 106.63 79.03 106.66 79.08 106.67 79.12 106.69 79.19 106.72 79.26 106.75 79.32 106.8 79.37 106.84 79.41 106.89 79.43 106.95 79.49 107.13 79.42 107.32 79.21 107.38 79.03 107.43 78.86 107.41 78.7 107.33 78.67 107.32 78.67 107.32 78.68 107.29 78.7 107.24 78.72 107.19 78.75 107.13Z" fill="#B30C37"/><path d="M76.26 105.33C76.26 105.15 76.26 104.96 76.26 104.78 76.26 104.77 76.26 104.76 76.26 104.75 76.26 104.74 76.26 104.73 76.28 104.73 76.29 104.73 76.3 104.73 76.3 104.73 76.53 104.73 76.77 104.73 77 104.73 77.05 104.73 77.04 104.73 77.04 104.77 77.04 104.79 77.04 104.82 77.04 104.84 77.04 104.88 77.04 104.88 77 104.88 76.95 104.88 76.91 104.88 76.86 104.88 76.73 104.88 76.6 104.88 76.47 104.88 76.44 104.88 76.44 104.88 76.44 104.91 76.44 105 76.44 105.08 76.44 105.17 76.44 105.2 76.44 105.2 76.47 105.2 76.59 105.2 76.71 105.2 76.83 105.2 76.84 105.2 76.85 105.2 76.86 105.2 76.87 105.2 76.88 105.2 76.88 105.22 76.88 105.26 76.88 105.29 76.88 105.33 76.88 105.35 76.87 105.35 76.86 105.35 76.81 105.35 76.76 105.35 76.7 105.35 76.63 105.35 76.56 105.35 76.49 105.35 76.44 105.35 76.45 105.34 76.45 105.39 76.45 105.5 76.45 105.61 76.45 105.73 76.45 105.78 76.45 105.77 76.49 105.77 76.66 105.77 76.83 105.77 77 105.77 77.05 105.77 77.05 105.76 77.05 105.82 77.05 105.85 77.05 105.87 77.05 105.9 77.05 105.92 77.04 105.92 77.03 105.92 77.02 105.92 77.01 105.92 77.01 105.92 76.78 105.92 76.55 105.92 76.32 105.92 76.27 105.92 76.27 105.93 76.27 105.87 76.26 105.69 76.26 105.51 76.26 105.33Z" fill="#B30C37"/><path d="M78.81 104.71C78.97 104.71 79.14 104.71 79.3 104.71 79.31 104.71 79.32 104.71 79.33 104.71 79.34 104.71 79.35 104.72 79.35 104.73 79.35 104.77 79.35 104.8 79.35 104.84 79.35 104.86 79.34 104.86 79.33 104.86 79.27 104.86 79.21 104.86 79.15 104.86 79.08 104.86 79.01 104.86 78.94 104.86 78.9 104.86 78.91 104.86 78.91 104.89 78.91 105.13 78.91 105.37 78.91 105.61 78.91 105.7 78.91 105.78 78.91 105.87 78.91 105.9 78.91 105.9 78.88 105.9 78.84 105.9 78.79 105.9 78.75 105.9 78.73 105.9 78.72 105.89 78.73 105.87 78.73 105.86 78.73 105.85 78.73 105.84 78.73 105.52 78.73 105.21 78.73 104.89 78.73 104.84 78.74 104.85 78.69 104.85 78.57 104.85 78.44 104.85 78.32 104.85 78.29 104.85 78.29 104.85 78.29 104.82 78.29 104.79 78.29 104.76 78.29 104.73 78.29 104.71 78.3 104.71 78.31 104.71 78.32 104.71 78.33 104.71 78.34 104.71 78.48 104.71 78.64 104.71 78.81 104.71Z" fill="#B30C37"/></g><g><path d="M71.56 132.44C71.56 134.19 70.14 135.61 68.39 135.61L8.5 135.61C6.75 135.61 5.33 134.19 5.33 132.44L5.33 99.68C5.33 97.93 6.75 96.51 8.5 96.51L68.38 96.51C70.13 96.51 71.55 97.93 71.55 99.68L71.55 132.44Z" fill="#22272E"/><path d="M0.01 135.18C0.01 135.25 0 135.33 0 135.4 0 138.16 2.24 140.39 4.99 140.39L71.89 140.39C74.65 140.39 76.88 138.15 76.88 135.4 76.88 135.33 76.87 135.26 76.87 135.18L0.01 135.18Z" fill="#22272E"/><path d="M42.35 116.21C42.35 118.37 40.6 120.12 38.44 120.12 36.28 120.12 34.53 118.37 34.53 116.21 34.53 114.05 36.28 112.3 38.44 112.3 40.6 112.3 42.35 114.05 42.35 116.21Z" fill="#74B502"/></g><path d="M9.08 139.61C8.74 138.69 8.67 137.61 8.97 136.32 9.24 135.15 9.86 133.97 11.08 133.59 14.17 132.64 12.43 135.7 12.21 137.24 12.9 135.27 15.97 131.6 18.26 132.39 21.02 133.35 20.59 138.07 20.51 140.17 24.97 134.01 26.3 142.17 21.26 143.35 17.38 144.26 10.58 143.62 9.08 139.61Z" fill="#F5AE94"/><g><path d="M47.88 52.58C47.94 52.77 49.01 55.97 51.05 58.49 53.51 61.53 57.36 63.6 62.5 58.29 63.59 57.17 64.73 55.73 65.93 53.9 65.93 53.9 64.32 54.25 62 54.55 58.35 55.03 52.95 55.42 49.45 53.55L49.44 53.55C48.84 53.48 48.34 52.98 47.88 52.58Z" fill="#712311"/><path d="M51.05 58.51C53.51 61.54 57.36 63.61 62.5 58.29 60.16 57.45 54.62 55.93 51.05 58.51Z" fill="#D5503B"/><path d="M49.44 53.64C54.62 60.05 59.21 57.51 61.99 54.59 58.34 55.07 52.95 55.37 49.44 53.64Z" fill="#E8E9EA"/></g></g></svg>