<svg width="832.52" height="897.1" viewBox="0 0 832.52 897.1" xmlns="http://www.w3.org/2000/svg" xmlns:xlink="http://www.w3.org/1999/xlink" xml:space="preserve" overflow="visible"><defs></defs><g><linearGradient x1="79.0369" y1="4.8848" x2="814.071" y2="819.494" gradientUnits="userSpaceOnUse" id="XMLID_13_"><stop offset="0" stop-color="#FF0000"/><stop offset="0.1941" stop-color="#F80304"/><stop offset="0.4724" stop-color="#E50D0F"/><stop offset="0.7999" stop-color="#C61C20"/><stop offset="1" stop-color="#B0272D"/></linearGradient><path d="M832.52 318.69C821.25 447.08 786.4 615.51 688 739.66 676.29 754.41 663.72 768.5 650.19 781.83 649.33 782.69 648.46 783.55 647.6 784.36 593.11 837.23 523.21 877.84 433.69 897.1 429.13 896.13 424.67 895.07 420.21 893.95 419.15 893.75 418.08 893.45 417.02 893.19 412.71 892.13 408.4 890.96 404.19 889.75 381.99 883.51 361.11 875.91 341.44 867.04 332.57 863.08 324 858.88 315.64 854.42 294.85 843.32 275.54 830.85 257.65 817.06 219.89 788.17 188.31 753.85 161.9 716.19 156.68 708.74 151.61 701.13 146.84 693.43 97.22 614.45 68.22 523.57 51.55 438.11 43.37 396.31 38.14 355.83 34.88 318.69L832.52 318.69Z" opacity="0.3"/><path d="M658 739.66C646.29 754.41 633.72 768.5 620.19 781.83 619.33 782.69 618.47 783.55 617.6 784.36 563.11 837.23 493.21 877.83 403.69 897.09 399.13 896.13 394.67 895.06 390.21 893.95 389.15 893.75 388.08 893.44 387.02 893.19 382.71 892.13 378.4 890.96 374.2 889.74 352 883.51 331.11 875.9 311.45 867.03 302.58 863.08 294.01 858.87 285.65 854.41 264.87 843.31 245.55 830.84 227.66 817.05 189.9 788.16 158.32 753.84 131.91 716.18 126.69 708.73 121.62 701.12 116.86 693.42 67.24 614.45 38.24 523.56 21.56 438.1-10.59 273.82 2.74 129.82 2.74 129.82 276.67 129.82 403.69 0 403.69 0 403.69 0 530.72 129.82 804.64 129.82 804.64 129.82 806.16 146.14 806.97 174.02 809.92 280.87 802.16 557.79 658 739.66Z" id="XMLID_12_" fill="#4FC3F7"/><path d="M403.69 862.11C230.73 821.91 116.53 690.19 64.17 470.49 33.83 343.19 33.77 220.7 35.84 165.06 235.15 157.62 355.07 84.24 403.69 46.85 452.31 84.24 572.22 157.61 771.54 165.06 773.61 220.69 773.55 343.19 743.21 470.49 690.85 690.19 576.65 821.91 403.69 862.11Z" id="XMLID_11_" fill="url(#XMLID_13_)"/><path d="M76.93 483.05C46.59 355.75 46.53 233.26 48.6 177.62 247.91 170.18 367.83 96.8 416.45 59.41 464.07 96.03 580.11 167.12 772.11 177.03 772 172.76 771.87 168.75 771.74 165.05 572.43 157.61 452.51 84.23 403.89 46.84 355.26 84.23 235.35 157.61 36.04 165.05 33.97 220.69 34.03 343.18 64.37 470.48 94.52 596.98 145.17 694.3 215.73 761.78 151.69 694.99 105.26 601.91 76.93 483.05Z" id="XMLID_10_" opacity="0.2"/><path d="M550.14 411.85 550.14 411.85 550.14 411.85 550.14 405.05 550.14 405.05 550.14 322.73C550.14 250.35 491.46 191.67 419.08 191.67L419.08 191.67C346.7 191.67 288.02 250.35 288.02 322.73L288.02 405.05 288.02 405.05 288.02 411.85 246.08 429.32 246.08 687.95 288.02 705.42 550.14 705.42 592.08 687.95 592.08 429.33 550.14 411.85ZM333.45 411.85 333.45 405.05 333.45 322.73C333.45 275.52 371.86 237.1 419.08 237.1 466.29 237.1 504.71 275.51 504.71 322.73L504.71 405.05 504.71 405.05 504.71 411.85 333.45 411.85Z" opacity="0.2"/><g id="XMLID_1_"><g id="XMLID_4_"><rect x="272.65" y="397.51" width="262.12" height="293.58" id="XMLID_9_" fill="#FFFF00"/><path d="M272.65 691.09 230.71 673.61 230.71 414.98 272.65 397.51Z" id="XMLID_8_" fill="#FCEE21"/><path d="M534.77 691.09 576.71 673.61 576.71 414.98 534.77 397.51Z" id="XMLID_7_" fill="#FCEE21"/><path d="M403.71 177.32 403.71 177.32C331.33 177.32 272.65 236 272.65 308.38L272.65 397.5 318.09 397.5 318.09 308.38C318.09 261.17 356.5 222.75 403.72 222.75 450.94 222.75 489.35 261.16 489.35 308.38L489.35 397.5 534.78 397.5 534.78 308.38C534.77 236 476.09 177.32 403.71 177.32Z" id="XMLID_6_" fill="#FFFFFF"/><path d="M438.66 511.82C438.66 492.52 423.01 476.87 403.71 476.87 384.41 476.87 368.76 492.52 368.76 511.82 368.76 524.75 375.8 536.01 386.23 542.06L386.23 586.09C386.23 595.74 394.05 603.56 403.7 603.56 413.35 603.56 421.18 595.74 421.18 586.09L421.18 542.06C431.62 536.01 438.66 524.75 438.66 511.82Z" id="XMLID_5_" fill="#333333"/></g><rect x="272.65" y="390.71" width="45.44" height="6.8" id="XMLID_3_" fill="#EEEEEE"/><rect x="489.34" y="390.71" width="45.44" height="6.8" id="XMLID_2_" fill="#EEEEEE"/></g></g></svg>