<svg width="175" height="130" viewBox="0 0 175 130" xmlns="http://www.w3.org/2000/svg" xmlns:xlink="http://www.w3.org/1999/xlink" xml:space="preserve" overflow="visible"><defs></defs><g id="Mail_Icon_1_"><rect x="0" y="6.06" width="175" height="117.89" fill="#FCD042"/><path d="M172.79 119.36 100.18 59.77C92.8 53.72 82.18 53.72 74.8 59.77L2.21 119.36C-2.15 122.94 0.38 130 6.01 130L168.98 130C174.62 130 177.15 122.94 172.79 119.36Z" fill="#EDB836"/><path d="M2.01 10.47 74.07 75.78C81.69 82.69 93.31 82.69 100.93 75.78L173.05 10.41 2.01 10.47Z" fill="#C48C2B"/><path d="M172.79 10.64 100.18 70.23C92.8 76.28 82.18 76.28 74.8 70.23L2.21 10.64C-2.15 7.06 0.38 0 6.01 0L168.98 0C174.62 0 177.15 7.06 172.79 10.64Z" fill="#FFE14A"/></g></svg>