<svg width="1892.44" height="1212.95" viewBox="0 0 1892.44 1212.95" xmlns="http://www.w3.org/2000/svg" xmlns:xlink="http://www.w3.org/1999/xlink" xml:space="preserve" overflow="visible"><defs></defs><g><path d="M292.98 925.22C265.09 925.22 242.39 902.53 242.39 874.63L242.39 50.59C242.39 22.69 265.08 0 292.98 0L1589.58 0C1617.47 0 1640.17 22.69 1640.17 50.59L1640.17 874.63C1640.17 902.52 1617.48 925.22 1589.58 925.22L292.98 925.22Z" fill="#424242"/><path d="M292.98 922.14C266.78 922.14 245.46 900.82 245.46 874.62L245.46 50.59C245.46 24.39 266.78 3.07 292.98 3.07L1589.58 3.07C1615.78 3.07 1637.1 24.39 1637.1 50.59L1637.1 874.63C1637.1 900.83 1615.78 922.15 1589.58 922.15L292.98 922.15Z" fill="#828282"/><path d="M250.58 50.59 250.58 874.63C250.58 898.05 269.56 917.03 292.98 917.03L1589.58 917.03C1613 917.03 1631.98 898.05 1631.98 874.63L1631.98 50.59C1631.98 27.17 1613 8.19 1589.58 8.19L292.98 8.19C269.56 8.19 250.58 27.17 250.58 50.59Z"/><rect x="285.97" y="48.2" width="1310.61" height="820.14" fill="#FFFFFF"/><g><ellipse cx="941.28" cy="29.17" rx="12.83" ry="12.83" fill="#262626" transform="matrix(0.1602 -0.9871 0.9871 0.1602 761.708 953.623)"/><circle cx="941.28" cy="29.17" r="4.24" fill="#141414"/></g><path d="M1871.62 1212.95 20.82 1212.95C9.32 1212.95 0 1203.63 0 1192.13L0 1177.63 1892.44 1177.63 1892.44 1192.13C1892.44 1203.63 1883.12 1212.95 1871.62 1212.95Z" fill="#A2A7A8"/><path d="M1875.93 1189.66 16.51 1189.66C3.56 1189.66-4.33 1179.59 2.54 1171.84L227.98 917.52C237.25 907.2 253.35 900.95 270.65 900.95L1608.65 900.95C1625.53 900.95 1641.29 906.9 1650.66 916.81L1889.66 1171.59C1896.93 1179.33 1889.08 1189.66 1875.93 1189.66Z" fill="#DDE2E6"/><path d="M1242.52 1170.32 650.45 1170.5C634.24 1170.5 622 1167.57 623.17 1163.97L649.79 1082.21C650.96 1078.6 663.77 1075.66 678.33 1075.66L1210.08 1075.55C1224.64 1075.55 1237.59 1078.48 1238.94 1082.08L1269.49 1163.78C1270.84 1167.38 1258.74 1170.31 1242.52 1170.32Z" fill="#515354"/><path d="M678.2 1076.14C664.71 1076.14 652.86 1078.86 651.78 1082.2L625.35 1163.96C624.27 1167.3 635.6 1170.01 650.6 1170.01L1242.36 1169.83C1257.36 1169.83 1268.56 1167.11 1267.32 1163.77L1236.97 1082.07C1235.73 1078.73 1223.75 1076.02 1210.26 1076.02L678.2 1076.14Z" fill="#808485"/><path d="M1054.89 1180.9C1051.69 1179.94 1048.06 1179.44 1044.36 1179.44L838.22 1179.44C834.53 1179.44 830.9 1179.94 827.7 1180.9L810.12 1190.21 827.66 1199.37C830.86 1200.32 834.5 1200.83 838.19 1200.83L1044.33 1200.83C1048.02 1200.83 1051.65 1200.33 1054.85 1199.37L1072.43 1190.21 1054.89 1180.9Z" fill="#6C6F70"/><g><g><path d="M1714.93 1063.5 173.02 1063.81C163.97 1063.81 158.05 1061.98 159.82 1059.72L273.38 914.92C275.15 912.66 282.8 910.83 290.43 910.83L1590.23 910.79C1597.86 910.79 1605.59 912.62 1607.47 914.87L1727.95 1059.4C1729.82 1061.66 1723.98 1063.5 1714.93 1063.5Z" fill="#616161"/><path d="M273.45 914.96C275.21 912.72 282.82 910.9 290.42 910.9L1590.22 910.86C1597.82 910.86 1605.51 912.68 1607.38 914.92L1727.82 1059.39C1729.67 1061.62 1723.89 1063.43 1714.94 1063.43L173.03 1063.74C173 1063.74 172.97 1063.74 172.94 1063.74 164.04 1063.73 158.22 1061.92 159.95 1059.7L273.45 914.96Z" fill="#7D7F82"/><path d="M273.53 915C275.29 912.78 282.85 910.97 290.42 910.97L1590.22 910.93C1597.79 910.93 1605.44 912.74 1607.31 914.96L1727.7 1059.38C1729.52 1061.58 1723.8 1063.37 1714.94 1063.37L173.03 1063.68C173 1063.68 172.97 1063.68 172.94 1063.68 164.13 1063.67 158.37 1061.88 160.07 1059.69L273.53 915Z" fill="#7E8083"/><path d="M273.61 915.04C275.36 912.84 282.88 911.04 290.42 911.04L1590.22 911C1597.77 911 1605.37 912.81 1607.23 915L1727.57 1059.36C1729.36 1061.53 1723.7 1063.3 1714.94 1063.31L173.02 1063.62C172.99 1063.62 172.96 1063.62 172.93 1063.62 164.21 1063.61 158.51 1061.84 160.18 1059.67L273.61 915.04Z" fill="#7F8184"/><path d="M273.69 915.07C275.43 912.89 282.91 911.09 290.42 911.09L1590.22 911.05C1597.74 911.05 1605.3 912.85 1607.15 915.02L1727.44 1059.32C1729.2 1061.47 1723.6 1063.22 1714.93 1063.22L173.01 1063.53C172.98 1063.53 172.95 1063.53 172.92 1063.53 164.3 1063.52 158.65 1061.78 160.3 1059.63L273.69 915.07Z" fill="#808285"/><path d="M273.77 915.11C275.51 912.95 282.94 911.16 290.42 911.16L1590.22 911.12C1597.71 911.12 1605.24 912.91 1607.07 915.06L1727.32 1059.31C1729.05 1061.43 1723.51 1063.16 1714.94 1063.16L173.03 1063.47C173 1063.47 172.97 1063.47 172.94 1063.47 164.41 1063.46 158.82 1061.74 160.44 1059.62L273.77 915.11Z" fill="#818386"/><path d="M273.84 915.15C275.57 913.01 282.96 911.23 290.41 911.23L1590.2 911.19C1597.66 911.19 1605.15 912.97 1606.98 915.1L1727.18 1059.29C1728.87 1061.39 1723.4 1063.09 1714.92 1063.09L173.01 1063.4C172.98 1063.4 172.95 1063.4 172.92 1063.4 164.48 1063.39 158.96 1061.69 160.54 1059.59L273.84 915.15Z" fill="#828487"/><path d="M273.92 915.19C275.65 913.07 282.99 911.3 290.42 911.3L1590.21 911.26C1597.65 911.26 1605.09 913.03 1606.91 915.14L1727.06 1059.27C1728.72 1061.34 1723.3 1063.02 1714.93 1063.03L173.02 1063.34C172.99 1063.34 172.96 1063.34 172.93 1063.34 164.59 1063.33 159.12 1061.65 160.67 1059.58L273.92 915.19Z" fill="#838588"/><path d="M274 915.22C275.72 913.12 283.02 911.36 290.42 911.36L1590.21 911.32C1597.62 911.32 1605.02 913.08 1606.83 915.18L1726.93 1059.26C1728.56 1061.3 1723.2 1062.97 1714.92 1062.97L173 1063.28C172.97 1063.28 172.94 1063.28 172.92 1063.28 164.67 1063.27 159.26 1061.61 160.78 1059.57L274 915.22Z" fill="#848689"/><path d="M274.08 915.26C275.79 913.18 283.06 911.43 290.42 911.43L1590.21 911.39C1597.59 911.39 1604.95 913.14 1606.75 915.22L1726.81 1059.24C1728.41 1061.26 1723.11 1062.9 1714.93 1062.9L173.01 1063.21C172.98 1063.21 172.95 1063.21 172.93 1063.21 164.78 1063.2 159.42 1061.56 160.91 1059.55L274.08 915.26Z" fill="#85878A"/><path d="M274.16 915.3C275.87 913.24 283.09 911.5 290.42 911.5L1590.21 911.46C1597.56 911.46 1604.88 913.2 1606.68 915.26L1726.69 1059.22C1728.26 1061.21 1723.02 1062.83 1714.93 1062.83L173.01 1063.14C172.98 1063.14 172.95 1063.14 172.93 1063.14 164.87 1063.13 159.58 1061.51 161.04 1059.52L274.16 915.3Z" fill="#86888B"/><path d="M274.24 915.33C275.94 913.29 283.12 911.56 290.42 911.56L1590.21 911.52C1597.54 911.52 1604.81 913.26 1606.6 915.29L1726.56 1059.19C1728.1 1061.16 1722.92 1062.75 1714.93 1062.76L173.02 1063.07C172.99 1063.07 172.97 1063.07 172.94 1063.07 164.97 1063.06 159.74 1061.46 161.17 1059.5L274.24 915.33Z" fill="#87898C"/><path d="M274.32 915.37C276.01 913.35 283.15 911.63 290.42 911.63L1590.21 911.59C1597.51 911.59 1604.74 913.32 1606.52 915.33L1726.43 1059.18C1727.94 1061.12 1722.82 1062.7 1714.92 1062.7L173 1063.01C172.97 1063.01 172.95 1063.01 172.92 1063.01 165.05 1063 159.87 1061.43 161.27 1059.49L274.32 915.37Z" fill="#888A8D"/><path d="M274.39 915.41C276.08 913.41 283.17 911.7 290.42 911.7L1590.21 911.66C1597.48 911.66 1604.67 913.38 1606.44 915.37L1726.31 1059.16C1727.79 1061.07 1722.73 1062.63 1714.93 1062.63L173.01 1062.94C172.98 1062.94 172.96 1062.94 172.93 1062.94 165.15 1062.93 160.03 1061.38 161.4 1059.47L274.39 915.41Z" fill="#898B8E"/><path d="M274.47 915.45C276.15 913.47 283.2 911.77 290.42 911.77L1590.21 911.73C1597.45 911.73 1604.6 913.44 1606.36 915.41L1726.18 1059.14C1727.63 1061.03 1722.63 1062.56 1714.92 1062.56L173 1062.87C172.97 1062.87 172.95 1062.87 172.92 1062.87 165.23 1062.86 160.17 1061.33 161.51 1059.44L274.47 915.45Z" fill="#8A8C8F"/><path d="M274.55 915.48C276.22 913.52 283.23 911.83 290.42 911.83L1590.21 911.79C1597.43 911.79 1604.53 913.49 1606.29 915.45L1726.06 1059.13C1727.48 1060.99 1722.54 1062.5 1714.93 1062.51L173.01 1062.82C172.98 1062.82 172.96 1062.82 172.93 1062.82 165.34 1062.81 160.34 1061.3 161.65 1059.44L274.55 915.48Z" fill="#8B8D8F"/><path d="M274.63 915.52C276.3 913.58 283.26 911.9 290.42 911.9L1590.21 911.86C1597.4 911.86 1604.46 913.55 1606.21 915.49L1725.93 1059.11C1727.32 1060.94 1722.43 1062.44 1714.92 1062.44L173 1062.75C172.98 1062.75 172.95 1062.75 172.92 1062.75 165.42 1062.74 160.48 1061.25 161.76 1059.42L274.63 915.52Z" fill="#8B8E90"/><path d="M274.71 915.56C276.37 913.64 283.29 911.97 290.42 911.97L1590.21 911.93C1597.37 911.93 1604.39 913.61 1606.13 915.53L1725.81 1059.09C1727.17 1060.9 1722.34 1062.37 1714.93 1062.37L173.01 1062.68C172.99 1062.68 172.96 1062.68 172.93 1062.68 165.53 1062.67 160.64 1061.2 161.89 1059.39L274.71 915.56Z" fill="#8C8F91"/><path d="M274.79 915.59C276.45 913.69 283.32 912.03 290.42 912.03L1590.21 911.99C1597.34 911.99 1604.32 913.67 1606.05 915.56L1725.68 1059.07C1727.01 1060.85 1722.24 1062.3 1714.92 1062.3L173 1062.61C172.98 1062.61 172.95 1062.61 172.93 1062.61 165.62 1062.6 160.79 1061.15 162.01 1059.37L274.79 915.59Z" fill="#8D9092"/><path d="M274.87 915.63C276.52 913.75 283.36 912.1 290.42 912.1L1590.21 912.06C1597.32 912.06 1604.25 913.73 1605.98 915.6L1725.56 1059.05C1726.86 1060.81 1722.15 1062.24 1714.93 1062.24L173.01 1062.55C172.99 1062.55 172.96 1062.55 172.94 1062.55 165.72 1062.54 160.96 1061.11 162.14 1059.36L274.87 915.63Z" fill="#8E9193"/><path d="M274.94 915.67C276.58 913.81 283.38 912.17 290.42 912.17L1590.21 912.13C1597.29 912.13 1604.18 913.79 1605.9 915.64L1725.43 1059.03C1726.7 1060.76 1722.05 1062.17 1714.92 1062.17L173 1062.48C172.98 1062.48 172.95 1062.48 172.93 1062.48 165.81 1062.47 161.1 1061.07 162.25 1059.34L274.94 915.67Z" fill="#8F9294"/><path d="M275.02 915.71C276.66 913.87 283.41 912.23 290.42 912.23L1590.21 912.19C1597.26 912.19 1604.11 913.84 1605.82 915.67L1725.31 1059C1726.55 1060.7 1721.96 1062.09 1714.93 1062.09L173.01 1062.4C172.99 1062.4 172.96 1062.4 172.94 1062.4 165.91 1062.39 161.26 1061.01 162.39 1059.3L275.02 915.71Z" fill="#909395"/><path d="M275.1 915.74C276.73 913.92 283.44 912.29 290.42 912.29L1590.21 912.25C1597.23 912.25 1604.04 913.89 1605.74 915.71L1725.18 1058.99C1726.39 1060.67 1721.86 1062.03 1714.93 1062.03L173.01 1062.34C172.99 1062.34 172.96 1062.34 172.94 1062.34 166.01 1062.33 161.41 1060.97 162.51 1059.29L275.1 915.74Z" fill="#919496"/><path d="M275.18 915.78C276.8 913.98 283.47 912.36 290.42 912.36L1590.21 912.32C1597.21 912.32 1603.97 913.95 1605.67 915.75L1725.06 1058.97C1726.24 1060.62 1721.77 1061.97 1714.93 1061.97L173.01 1062.28C172.99 1062.28 172.96 1062.28 172.94 1062.28 166.1 1062.27 161.56 1060.93 162.63 1059.28L275.18 915.78Z" fill="#929597"/><path d="M275.26 915.82C276.88 914.04 283.5 912.43 290.42 912.43L1590.21 912.39C1597.18 912.39 1603.9 914.01 1605.59 915.79L1724.93 1058.95C1726.08 1060.58 1721.67 1061.9 1714.93 1061.9L173.01 1062.21C172.99 1062.21 172.96 1062.21 172.94 1062.21 166.19 1062.2 161.72 1060.88 162.75 1059.25L275.26 915.82Z" fill="#939698"/><path d="M275.34 915.85C276.95 914.09 283.53 912.49 290.42 912.49L1590.21 912.45C1597.15 912.45 1603.83 914.06 1605.51 915.82L1724.81 1058.93C1725.93 1060.53 1721.57 1061.83 1714.93 1061.83L173.01 1062.14C172.99 1062.14 172.96 1062.14 172.94 1062.14 166.29 1062.13 161.87 1060.83 162.87 1059.23L275.34 915.85Z" fill="#949799"/><path d="M275.42 915.89C277.02 914.15 283.56 912.56 290.42 912.56L1590.21 912.52C1597.12 912.52 1603.76 914.13 1605.43 915.86L1724.68 1058.91C1725.76 1060.48 1721.47 1061.76 1714.93 1061.76L173.01 1062.07C172.99 1062.07 172.96 1062.07 172.94 1062.07 166.38 1062.06 162.02 1060.78 163 1059.21L275.42 915.89Z" fill="#95989A"/><path d="M275.49 915.93C277.09 914.21 283.58 912.63 290.42 912.63L1590.21 912.59C1597.1 912.59 1603.69 914.19 1605.36 915.9L1724.56 1058.89C1725.61 1060.44 1721.38 1061.7 1714.93 1061.7L173.01 1062.01C172.99 1062.01 172.97 1062.01 172.94 1062.01 166.47 1062 162.17 1060.75 163.12 1059.2L275.49 915.93Z" fill="#96999B"/><path d="M275.57 915.96C277.16 914.26 283.61 912.69 290.42 912.69L1590.21 912.65C1597.07 912.65 1603.62 914.24 1605.28 915.93L1724.43 1058.86C1725.45 1060.38 1721.28 1061.62 1714.93 1061.62L173.01 1061.93C172.99 1061.93 172.97 1061.93 172.95 1061.93 166.58 1061.92 162.33 1060.69 163.25 1059.16L275.57 915.96Z" fill="#979A9C"/><path d="M275.65 916C277.24 914.32 283.64 912.76 290.42 912.76L1590.21 912.72C1597.04 912.72 1603.55 914.3 1605.2 915.98L1724.31 1058.86C1725.3 1060.36 1721.19 1061.57 1714.93 1061.57L173.01 1061.88C172.99 1061.88 172.97 1061.88 172.95 1061.88 166.67 1061.87 162.49 1060.66 163.37 1059.16L275.65 916Z" fill="#989B9D"/><path d="M275.73 916.04C277.31 914.38 283.68 912.83 290.42 912.83L1590.21 912.79C1597.01 912.79 1603.48 914.36 1605.12 916.02L1724.18 1058.84C1725.14 1060.31 1721.09 1061.5 1714.93 1061.5L173.01 1061.81C172.99 1061.81 172.97 1061.81 172.95 1061.81 166.77 1061.8 162.64 1060.61 163.49 1059.14L275.73 916.04Z" fill="#999C9E"/><path d="M275.81 916.08C277.38 914.44 283.71 912.9 290.42 912.9L1590.21 912.86C1596.99 912.86 1603.41 914.42 1605.04 916.06L1724.05 1058.82C1724.98 1060.26 1720.99 1061.44 1714.92 1061.44L173 1061.75C172.98 1061.75 172.96 1061.75 172.94 1061.75 166.85 1061.74 162.78 1060.57 163.61 1059.13L275.81 916.08Z" fill="#999D9F"/><path d="M275.89 916.11C277.46 914.49 283.74 912.96 290.42 912.96L1590.21 912.92C1596.96 912.92 1603.34 914.47 1604.97 916.09L1723.93 1058.8C1724.83 1060.22 1720.9 1061.37 1714.93 1061.37L173.01 1061.68C172.99 1061.68 172.97 1061.68 172.95 1061.68 166.95 1061.67 162.94 1060.52 163.74 1059.1L275.89 916.11Z" fill="#9A9EA0"/><path d="M275.97 916.15C277.53 914.55 283.77 913.03 290.42 913.03L1590.21 912.99C1596.93 912.99 1603.27 914.53 1604.89 916.13L1723.81 1058.78C1724.68 1060.17 1720.81 1061.3 1714.93 1061.3L173.01 1061.61C172.99 1061.61 172.97 1061.61 172.95 1061.61 167.05 1061.6 163.1 1060.47 163.86 1059.08L275.97 916.15Z" fill="#9B9FA1"/><path d="M276.04 916.19C277.59 914.61 283.79 913.1 290.42 913.1L1590.21 913.06C1596.9 913.06 1603.2 914.6 1604.81 916.17L1723.68 1058.76C1724.52 1060.13 1720.7 1061.23 1714.93 1061.23L173.01 1061.54C172.99 1061.54 172.97 1061.54 172.95 1061.54 167.14 1061.53 163.25 1060.42 163.98 1059.06L276.04 916.19Z" fill="#9CA0A2"/><path d="M276.12 916.22C277.67 914.66 283.82 913.16 290.42 913.16L1590.21 913.12C1596.88 913.12 1603.13 914.65 1604.73 916.2L1723.55 1058.74C1724.36 1060.08 1720.6 1061.17 1714.92 1061.17L173 1061.48C172.98 1061.48 172.96 1061.48 172.94 1061.48 167.23 1061.47 163.39 1060.39 164.09 1059.04L276.12 916.22Z" fill="#9DA1A3"/><path d="M276.2 916.26C277.74 914.72 283.85 913.23 290.42 913.23L1590.21 913.19C1596.85 913.19 1603.06 914.71 1604.66 916.25L1723.43 1058.73C1724.21 1060.04 1720.51 1061.11 1714.93 1061.11L173.01 1061.42C172.99 1061.42 172.97 1061.42 172.95 1061.42 167.33 1061.41 163.55 1060.35 164.22 1059.03L276.2 916.26Z" fill="#9EA2A4"/><path d="M276.28 916.3C277.81 914.78 283.88 913.3 290.42 913.3L1590.21 913.26C1596.82 913.26 1602.99 914.77 1604.58 916.29L1723.31 1058.71C1724.06 1060 1720.42 1061.04 1714.93 1061.04L173.01 1061.35C172.99 1061.35 172.97 1061.35 172.95 1061.35 167.42 1061.34 163.7 1060.3 164.35 1059.01L276.28 916.3Z" fill="#9FA3A5"/><path d="M276.36 916.34C277.89 914.84 283.91 913.36 290.42 913.36L1590.21 913.32C1596.79 913.32 1602.92 914.82 1604.5 916.32L1723.18 1058.68C1723.9 1059.94 1720.32 1060.96 1714.93 1060.96L173.01 1061.27C172.99 1061.27 172.97 1061.27 172.95 1061.27 167.52 1061.26 163.86 1060.24 164.47 1058.98L276.36 916.34Z" fill="#A0A4A6"/><path d="M276.44 916.37C277.96 914.89 283.94 913.42 290.42 913.42L1590.21 913.38C1596.76 913.38 1602.85 914.87 1604.42 916.35L1723.05 1058.66C1723.74 1059.89 1720.22 1060.9 1714.92 1060.9L173 1061.21C172.98 1061.21 172.96 1061.21 172.95 1061.21 167.61 1061.2 164.01 1060.2 164.59 1058.96L276.44 916.37Z" fill="#A1A5A7"/><path d="M276.52 916.41C278.04 914.95 283.98 913.49 290.42 913.49L1590.21 913.45C1596.74 913.45 1602.78 914.93 1604.35 916.39L1722.93 1058.64C1723.59 1059.85 1720.13 1060.83 1714.93 1060.83L173.01 1061.14C172.99 1061.14 172.97 1061.14 172.96 1061.14 167.71 1061.13 164.17 1060.15 164.72 1058.94L276.52 916.41Z" fill="#A2A6A8"/><path d="M276.59 916.45C278.1 915.01 284 913.56 290.42 913.56L1590.21 913.52C1596.71 913.52 1602.71 914.99 1604.27 916.43L1722.81 1058.62C1723.44 1059.8 1720.04 1060.76 1714.93 1060.76L173.01 1061.07C172.99 1061.07 172.97 1061.07 172.96 1061.07 167.81 1061.06 164.32 1060.1 164.84 1058.92L276.59 916.45Z" fill="#A3A7A9"/><path d="M276.67 916.48C278.17 915.06 284.03 913.62 290.42 913.62L1590.21 913.58C1596.68 913.58 1602.64 915.05 1604.19 916.46L1722.68 1058.6C1723.28 1059.76 1719.94 1060.69 1714.93 1060.7L173.01 1061.01C172.99 1061.01 172.97 1061.01 172.96 1061.01 167.9 1061 164.48 1060.07 164.97 1058.9L276.67 916.48Z" fill="#A4A8AA"/><path d="M276.75 916.52C278.25 915.12 284.06 913.69 290.42 913.69L1590.21 913.65C1596.65 913.65 1602.57 915.11 1604.11 916.51L1722.55 1058.59C1723.12 1059.72 1719.83 1060.64 1714.92 1060.64L173 1060.95C172.98 1060.95 172.96 1060.95 172.95 1060.95 167.99 1060.94 164.62 1060.03 165.08 1058.89L276.75 916.52Z" fill="#A5A9AB"/><path d="M276.83 916.56C278.32 915.18 284.09 913.76 290.42 913.76L1590.21 913.72C1596.63 913.72 1602.5 915.17 1604.04 916.55L1722.43 1058.57C1722.97 1059.67 1719.74 1060.57 1714.93 1060.57L173.01 1060.88C173 1060.88 172.98 1060.88 172.96 1060.88 168.09 1060.87 164.78 1059.98 165.21 1058.87L276.83 916.56Z" fill="#A6AAAC"/><path d="M276.91 916.6C278.39 915.24 284.12 913.83 290.42 913.83L1590.21 913.79C1596.6 913.79 1602.43 915.23 1603.96 916.59L1722.31 1058.56C1722.82 1059.64 1719.65 1060.51 1714.93 1060.51L173.01 1060.82C173 1060.82 172.98 1060.82 172.96 1060.82 168.18 1060.81 164.93 1059.94 165.33 1058.86L276.91 916.6Z" fill="#A7ABAD"/><path d="M276.99 916.63C278.47 915.29 284.15 913.89 290.42 913.89L1590.21 913.85C1596.57 913.85 1602.36 915.28 1603.88 916.62L1722.18 1058.53C1722.66 1059.58 1719.55 1060.43 1714.93 1060.44L173.01 1060.75C173 1060.75 172.98 1060.75 172.96 1060.75 168.28 1060.75 165.08 1059.89 165.45 1058.83L276.99 916.63Z" fill="#A8ACAE"/><path d="M277.06 916.67C278.53 915.35 284.17 913.96 290.41 913.96L1590.2 913.92C1596.53 913.92 1602.28 915.34 1603.79 916.66L1722.04 1058.51C1722.48 1059.54 1719.44 1060.37 1714.91 1060.37L172.99 1060.68C172.98 1060.68 172.96 1060.68 172.94 1060.68 168.35 1060.68 165.22 1059.84 165.55 1058.81L277.06 916.67Z" fill="#A8ADAF"/><path d="M277.14 916.71C278.6 915.41 284.2 914.03 290.42 914.03L1590.21 913.99C1596.52 913.99 1602.22 915.4 1603.72 916.7L1721.92 1058.49C1722.33 1059.49 1719.35 1060.3 1714.92 1060.3L173 1060.61C172.99 1060.61 172.97 1060.61 172.95 1060.61 168.45 1060.61 165.38 1059.79 165.69 1058.79L277.14 916.71Z" fill="#A9AEB0"/><path d="M277.22 916.74C278.68 915.46 284.23 914.09 290.42 914.09L1590.21 914.05C1596.49 914.05 1602.15 915.45 1603.65 916.73L1721.8 1058.47C1722.18 1059.44 1719.26 1060.23 1714.92 1060.23L173 1060.54C172.99 1060.54 172.97 1060.54 172.96 1060.54 168.56 1060.54 165.54 1059.74 165.82 1058.77L277.22 916.74Z" fill="#AAAFB1"/><path d="M277.3 916.78C278.75 915.52 284.27 914.16 290.42 914.16L1590.21 914.12C1596.46 914.12 1602.08 915.52 1603.57 916.78L1721.68 1058.46C1722.03 1059.41 1719.17 1060.17 1714.93 1060.18L173.01 1060.49C173 1060.49 172.98 1060.49 172.97 1060.49 168.66 1060.49 165.7 1059.72 165.95 1058.76L277.3 916.78Z" fill="#ABB0B2"/><path d="M277.38 916.82C278.83 915.59 284.3 914.23 290.42 914.23L1590.21 914.19C1596.43 914.19 1602.01 915.58 1603.49 916.82L1721.55 1058.44C1721.87 1059.36 1719.07 1060.11 1714.93 1060.11L173.01 1060.42C173 1060.42 172.98 1060.42 172.97 1060.42 168.76 1060.42 165.85 1059.67 166.07 1058.74L277.38 916.82Z" fill="#ACB1B3"/><path d="M277.46 916.86C278.9 915.65 284.33 914.3 290.42 914.3L1590.21 914.26C1596.41 914.26 1601.94 915.64 1603.41 916.86L1721.42 1058.43C1721.71 1059.33 1718.96 1060.05 1714.92 1060.05L173 1060.36C172.99 1060.36 172.97 1060.36 172.96 1060.36 168.84 1060.36 166 1059.63 166.18 1058.73L277.46 916.86Z" fill="#ADB1B4"/><path d="M277.54 916.89C278.97 915.7 284.36 914.36 290.42 914.36L1590.21 914.32C1596.38 914.32 1601.87 915.69 1603.34 916.89L1721.3 1058.4C1721.56 1059.27 1718.87 1059.97 1714.93 1059.97L173.01 1060.28C173 1060.28 172.98 1060.28 172.97 1060.28 168.94 1060.28 166.16 1059.57 166.32 1058.69L277.54 916.89Z" fill="#AEB2B5"/><path d="M277.61 916.93C279.04 915.76 284.38 914.43 290.41 914.42L1590.2 914.38C1596.34 914.38 1601.79 915.74 1603.25 916.92L1721.17 1058.37C1721.4 1059.21 1718.77 1059.89 1714.92 1059.9L173 1060.21C172.99 1060.21 172.97 1060.21 172.96 1060.21 169.03 1060.21 166.3 1059.52 166.43 1058.67L277.61 916.93Z" fill="#AFB3B6"/><path d="M277.69 916.97C279.11 915.82 284.41 914.49 290.42 914.49L1590.21 914.45C1596.32 914.45 1601.73 915.8 1603.18 916.96L1721.05 1058.36C1721.25 1059.18 1718.68 1059.84 1714.93 1059.84L173.01 1060.15C173 1060.15 172.98 1060.15 172.97 1060.15 169.13 1060.15 166.46 1059.48 166.56 1058.66L277.69 916.97Z" fill="#B0B4B7"/><path d="M277.77 917C279.18 915.87 284.44 914.55 290.42 914.55L1590.21 914.51C1596.3 914.51 1601.66 915.85 1603.1 916.99L1720.92 1058.33C1721.09 1059.12 1718.58 1059.76 1714.92 1059.76L173 1060.07C172.99 1060.07 172.97 1060.07 172.96 1060.07 169.22 1060.07 166.61 1059.42 166.67 1058.63L277.77 917Z" fill="#B1B5B8"/><path d="M277.85 917.04C279.26 915.93 284.47 914.62 290.42 914.62L1590.21 914.58C1596.27 914.58 1601.59 915.92 1603.03 917.04L1720.8 1058.32C1720.94 1059.08 1718.49 1059.7 1714.93 1059.7L173.01 1060.01C173 1060.01 172.98 1060.01 172.97 1060.01 169.32 1060.01 166.77 1059.38 166.8 1058.61L277.85 917.04Z" fill="#B2B6B9"/><path d="M277.93 917.08C279.33 915.99 284.5 914.69 290.42 914.69L1590.21 914.65C1596.24 914.65 1601.52 915.98 1602.95 917.08L1720.68 1058.3C1720.79 1059.04 1718.4 1059.64 1714.93 1059.64L173.01 1059.95C173 1059.95 172.98 1059.95 172.97 1059.95 169.41 1059.95 166.92 1059.35 166.93 1058.6L277.93 917.08Z" fill="#B3B7BA"/><path d="M278.01 917.12C279.4 916.05 284.53 914.76 290.42 914.76L1590.21 914.72C1596.21 914.72 1601.45 916.04 1602.87 917.12L1720.55 1058.29C1720.63 1059 1718.3 1059.58 1714.93 1059.58L173.01 1059.89C173 1059.89 172.98 1059.89 172.98 1059.89 169.52 1059.89 167.08 1059.31 167.06 1058.59L278.01 917.12Z" fill="#B4B8BB"/><path d="M278.09 917.15C279.48 916.1 284.57 914.82 290.42 914.82L1590.21 914.78C1596.19 914.78 1601.38 916.09 1602.79 917.15L1720.42 1058.26C1720.47 1058.95 1718.2 1059.5 1714.92 1059.5L173 1059.81C172.99 1059.81 172.98 1059.81 172.97 1059.81 169.6 1059.81 167.22 1059.25 167.17 1058.56L278.09 917.15Z" fill="#B5B9BC"/><path d="M278.16 917.19C279.54 916.16 284.59 914.89 290.41 914.89L1590.2 914.85C1596.15 914.85 1601.31 916.15 1602.71 917.19L1720.29 1058.24C1720.31 1058.9 1718.09 1059.43 1714.92 1059.43L173 1059.74C172.99 1059.74 172.98 1059.74 172.97 1059.74 169.69 1059.74 167.38 1059.2 167.29 1058.53L278.16 917.19Z" fill="#B6BABD"/><path d="M278.24 917.23C279.62 916.22 284.62 914.96 290.42 914.96L1590.21 914.92C1596.13 914.92 1601.25 916.21 1602.64 917.23L1720.18 1058.23C1720.17 1058.86 1718.01 1059.38 1714.93 1059.38L173.01 1059.69C173 1059.69 172.99 1059.69 172.98 1059.69 169.8 1059.69 167.54 1059.17 167.42 1058.53L278.24 917.23Z" fill="#B6BBBD"/><path d="M278.32 917.26C279.69 916.27 284.65 915.02 290.42 915.02L1590.21 914.98C1596.1 914.98 1601.18 916.26 1602.56 917.26L1720.05 1058.2C1720.01 1058.81 1717.91 1059.3 1714.93 1059.3L173.01 1059.61C173 1059.61 172.99 1059.61 172.98 1059.61 169.89 1059.61 167.69 1059.11 167.54 1058.5L278.32 917.26Z" fill="#B7BCBE"/><path d="M278.4 917.3C279.76 916.33 284.68 915.09 290.42 915.09L1590.21 915.05C1596.08 915.05 1601.11 916.32 1602.48 917.31L1719.92 1058.19C1719.85 1058.77 1717.81 1059.24 1714.92 1059.24L173 1059.55C172.99 1059.55 172.98 1059.55 172.97 1059.55 169.98 1059.55 167.83 1059.07 167.66 1058.48L278.4 917.3Z" fill="#B8BDBF"/><path d="M278.48 917.34C279.84 916.39 284.71 915.16 290.42 915.16L1590.21 915.12C1596.05 915.12 1601.04 916.39 1602.4 917.35L1719.79 1058.18C1719.69 1058.74 1717.71 1059.18 1714.92 1059.18L173 1059.49C172.99 1059.49 172.98 1059.49 172.97 1059.49 170.07 1059.49 167.99 1059.04 167.78 1058.47L278.48 917.34Z" fill="#B9BEC0"/><path d="M278.56 917.38C279.91 916.45 284.74 915.23 290.42 915.23L1590.21 915.19C1596.02 915.19 1600.97 916.45 1602.33 917.39L1719.68 1058.16C1719.55 1058.69 1717.63 1059.12 1714.93 1059.12L173.01 1059.43C173 1059.43 172.99 1059.43 172.98 1059.43 170.17 1059.43 168.15 1059 167.91 1058.46L278.56 917.38Z" fill="#BABFC1"/><path d="M278.64 917.41C279.98 916.5 284.77 915.29 290.42 915.29L1590.21 915.25C1595.99 915.25 1600.9 916.5 1602.25 917.42L1719.55 1058.13C1719.39 1058.63 1717.53 1059.04 1714.93 1059.04L173.01 1059.35C173 1059.35 172.99 1059.35 172.98 1059.35 170.27 1059.35 168.3 1058.94 168.03 1058.43L278.64 917.41Z" fill="#BBC0C2"/><path d="M278.71 917.45C280.05 916.56 284.79 915.36 290.41 915.36L1590.2 915.32C1595.96 915.32 1600.82 916.56 1602.16 917.46L1719.41 1058.11C1719.21 1058.59 1717.42 1058.97 1714.91 1058.97L172.99 1059.28C172.98 1059.28 172.97 1059.28 172.96 1059.28 170.34 1059.28 168.43 1058.89 168.13 1058.4L278.71 917.45Z" fill="#BCC1C3"/><path d="M278.79 917.49C280.12 916.62 284.82 915.43 290.42 915.43L1590.21 915.39C1595.94 915.39 1600.76 916.62 1602.09 917.5L1719.29 1058.1C1719.06 1058.55 1717.33 1058.91 1714.92 1058.91L173 1059.22C172.99 1059.22 172.98 1059.22 172.98 1059.22 170.46 1059.22 168.6 1058.85 168.28 1058.39L278.79 917.49Z" fill="#BDC2C4"/><path d="M278.87 917.52C280.19 916.67 284.85 915.49 290.42 915.49L1590.21 915.45C1595.91 915.45 1600.69 916.67 1602.02 917.53L1719.18 1058.07C1718.92 1058.5 1717.24 1058.84 1714.93 1058.84L173.01 1059.15C173 1059.15 172.99 1059.15 172.99 1059.15 170.56 1059.15 168.77 1058.8 168.41 1058.37L278.87 917.52Z" fill="#BEC3C5"/><path d="M278.95 917.56C280.27 916.73 284.89 915.56 290.42 915.55L1590.21 915.51C1595.88 915.51 1600.62 916.72 1601.94 917.57L1719.05 1058.05C1718.76 1058.45 1717.14 1058.77 1714.93 1058.77L173.01 1059.08C173 1059.08 172.99 1059.08 172.99 1059.08 170.65 1059.08 168.92 1058.75 168.53 1058.34L278.95 917.56Z" fill="#BFC4C6"/><path d="M279.03 917.6C280.34 916.79 284.92 915.62 290.42 915.62L1590.21 915.58C1595.86 915.58 1600.55 916.78 1601.86 917.61L1718.92 1058.04C1718.6 1058.41 1717.04 1058.71 1714.92 1058.71L173 1059.02C173 1059.02 172.98 1059.02 172.98 1059.02 170.74 1059.02 169.06 1058.71 168.64 1058.33L279.03 917.6Z" fill="#C0C5C7"/><path d="M279.11 917.64C280.41 916.85 284.95 915.69 290.42 915.69L1590.21 915.65C1595.83 915.65 1600.48 916.85 1601.78 917.65L1718.79 1058.02C1718.44 1058.37 1716.94 1058.64 1714.92 1058.64L173 1058.95C173 1058.95 172.98 1058.95 172.98 1058.95 170.83 1058.95 169.21 1058.67 168.76 1058.31L279.11 917.64Z" fill="#C1C6C8"/><path d="M279.19 917.67C280.49 916.9 284.98 915.75 290.42 915.75L1590.21 915.71C1595.8 915.71 1600.41 916.9 1601.71 917.68L1718.68 1058C1718.3 1058.32 1716.86 1058.58 1714.93 1058.58L173.01 1058.89C173.01 1058.89 172.99 1058.89 172.99 1058.89 170.93 1058.89 169.37 1058.63 168.89 1058.3L279.19 917.67Z" fill="#C2C7C9"/><path d="M279.26 917.71C280.55 916.96 285 915.82 290.41 915.82L1590.2 915.78C1595.76 915.78 1600.33 916.96 1601.62 917.72L1718.54 1057.97C1718.13 1058.26 1716.75 1058.5 1714.92 1058.5L173 1058.81C173 1058.81 172.98 1058.81 172.98 1058.81 171.02 1058.81 169.52 1058.57 169.01 1058.26L279.26 917.71Z" fill="#C3C8CA"/><path d="M279.34 917.75C280.63 917.02 285.03 915.89 290.42 915.89L1590.21 915.85C1595.75 915.85 1600.27 917.02 1601.55 917.76L1718.42 1057.96C1717.98 1058.23 1716.66 1058.44 1714.92 1058.44L173 1058.75C173 1058.75 172.99 1058.75 172.98 1058.75 171.11 1058.75 169.67 1058.53 169.13 1058.25L279.34 917.75Z" fill="#C4C9CB"/><path d="M279.42 917.78C280.7 917.07 285.06 915.95 290.42 915.95L1590.21 915.91C1595.72 915.91 1600.2 917.07 1601.47 917.8L1718.29 1057.94C1717.82 1058.18 1716.56 1058.37 1714.92 1058.37L173 1058.68C173 1058.68 172.99 1058.68 172.98 1058.68 171.21 1058.68 169.82 1058.48 169.25 1058.23L279.42 917.78Z" fill="#C5CACC"/><path d="M279.5 917.82C280.77 917.13 285.09 916.02 290.42 916.02L1590.21 915.98C1595.69 915.98 1600.13 917.13 1601.39 917.84L1718.17 1057.92C1717.67 1058.14 1716.47 1058.31 1714.92 1058.31L173 1058.62C173 1058.62 172.99 1058.62 172.98 1058.62 171.3 1058.62 169.97 1058.44 169.37 1058.22L279.5 917.82Z" fill="#C5CBCD"/><path d="M279.58 917.86C280.85 917.19 285.12 916.09 290.42 916.09L1590.21 916.05C1595.66 916.05 1600.06 917.19 1601.32 917.88L1718.05 1057.91C1717.52 1058.1 1716.37 1058.25 1714.93 1058.25L173.01 1058.56C173.01 1058.56 173 1058.56 172.99 1058.56 171.4 1058.56 170.14 1058.4 169.5 1058.2L279.58 917.86Z" fill="#C6CCCE"/><path d="M279.66 917.89C280.92 917.24 285.15 916.15 290.42 916.15L1590.21 916.11C1595.64 916.11 1599.99 917.24 1601.24 917.91L1717.92 1057.88C1717.36 1058.04 1716.27 1058.17 1714.93 1058.17L173.01 1058.48C173.01 1058.48 173 1058.48 173 1058.48 171.51 1058.48 170.3 1058.34 169.64 1058.17L279.66 917.89Z" fill="#C7CDCF"/><path d="M279.74 917.93C280.99 917.3 285.19 916.22 290.42 916.22L1590.21 916.18C1595.61 916.18 1599.92 917.31 1601.16 917.95L1717.79 1057.86C1717.2 1058 1716.17 1058.1 1714.92 1058.1L173 1058.41C173 1058.41 172.99 1058.41 172.99 1058.41 171.59 1058.41 170.44 1058.3 169.75 1058.15L279.74 917.93Z" fill="#C8CED0"/><path d="M279.81 917.97C281.06 917.36 285.21 916.29 290.42 916.29L1590.21 916.25C1595.58 916.25 1599.85 917.37 1601.08 917.99L1717.67 1057.85C1717.05 1057.96 1716.08 1058.05 1714.93 1058.05L173.01 1058.36C173.01 1058.36 173 1058.36 173 1058.36 171.69 1058.36 170.6 1058.27 169.88 1058.14L279.81 917.97Z" fill="#C9CFD1"/><path d="M279.89 918.01C281.13 917.42 285.24 916.36 290.42 916.36L1590.21 916.32C1595.55 916.32 1599.78 917.43 1601.01 918.03L1717.55 1057.83C1716.9 1057.92 1715.99 1057.98 1714.93 1057.98L173.01 1058.29C173.01 1058.29 173 1058.29 173 1058.29 171.79 1058.29 170.75 1058.22 170 1058.12L279.89 918.01Z" fill="#CAD0D2"/><path d="M279.97 918.04C281.2 917.47 285.27 916.42 290.42 916.42L1590.21 916.38C1595.52 916.38 1599.71 917.48 1600.93 918.07L1717.42 1057.81C1716.74 1057.87 1715.89 1057.91 1714.93 1057.91L173.01 1058.22C173.01 1058.22 173 1058.22 173 1058.22 171.88 1058.22 170.91 1058.17 170.12 1058.1L279.97 918.04Z" fill="#CBD1D3"/><path d="M173 1058.16C171.98 1058.16 171.06 1058.13 170.25 1058.09L280.05 918.09C281.28 917.54 285.3 916.5 290.42 916.5L1590.21 916.46C1595.5 916.46 1599.64 917.55 1600.85 918.12L1717.29 1057.8C1716.58 1057.83 1715.79 1057.85 1714.92 1057.85L173 1058.16 173 1058.16Z" fill="#CCD2D4"/></g><path d="M270.07 953.17 329.69 953.17C334.91 953.17 339.93 951.98 340.92 950.51L352.21 933.74C353.2 932.27 349.88 931.08 344.8 931.08L286.7 931.08C281.62 931.08 276.59 932.27 275.47 933.74L262.65 950.51C261.54 951.98 264.86 953.17 270.07 953.17Z"/><path d="M290 926.73 362.84 926.73C367.9 926.73 372.77 925.54 373.73 924.07L377.49 918.34C378.45 916.87 375.19 915.68 370.2 915.68L298.32 915.68C293.33 915.68 288.38 916.87 287.26 918.34L282.88 924.07C281.75 925.54 284.94 926.73 290 926.73Z"/><path d="M396.18 926.72 469.02 926.72C474.08 926.72 478.8 925.53 479.58 924.06L482.61 918.33C483.39 916.86 479.97 915.67 474.98 915.68L403.1 915.68C398.11 915.68 393.31 916.87 392.37 918.34L388.72 924.07C387.79 925.53 391.13 926.72 396.18 926.72Z"/><path d="M502.37 926.72 575.21 926.72C580.27 926.72 584.84 925.53 585.43 924.06L587.73 918.33C588.32 916.86 584.75 915.68 579.76 915.68L507.88 915.68C502.89 915.68 498.24 916.87 497.49 918.34L494.56 924.07C493.83 925.53 497.32 926.72 502.37 926.72Z"/><path d="M608.56 926.71 681.4 926.71C686.46 926.71 690.88 925.52 691.28 924.06L692.85 918.33C693.25 916.86 689.54 915.68 684.55 915.68L612.67 915.68C607.68 915.68 603.18 916.87 602.62 918.34L600.42 924.07C599.86 925.52 603.5 926.71 608.56 926.71Z"/><path d="M714.75 926.7 787.59 926.7C792.65 926.7 796.92 925.51 797.14 924.05L797.99 918.32C798.21 916.85 794.34 915.67 789.35 915.67L717.47 915.67C712.48 915.67 708.13 916.86 707.76 918.32L706.29 924.05C705.9 925.52 709.69 926.71 714.75 926.7Z"/><path d="M820.93 926.7 893.77 926.7C898.83 926.7 902.95 925.51 902.98 924.05L903.1 918.33C903.13 916.86 899.11 915.68 894.12 915.68L822.24 915.68C817.25 915.68 813.05 916.87 812.86 918.33L812.11 924.06C811.94 925.51 815.88 926.7 820.93 926.7Z"/><path d="M927.12 926.69 999.96 926.69C1005.02 926.69 1008.99 925.5 1008.83 924.04L1008.22 918.32C1008.06 916.85 1003.9 915.67 998.91 915.67L927.03 915.67C922.04 915.67 917.99 916.86 917.99 918.32L917.97 924.04C917.97 925.51 922.07 926.69 927.12 926.69Z"/><path d="M1033.31 926.69 1106.15 926.69C1111.21 926.69 1115.03 925.5 1114.69 924.04L1113.36 918.32C1113.02 916.85 1108.7 915.67 1103.71 915.67L1031.83 915.67C1026.84 915.67 1022.94 916.86 1023.13 918.32L1023.84 924.04C1024.01 925.5 1028.26 926.69 1033.31 926.69Z"/><path d="M1139.5 926.68 1212.34 926.68C1217.4 926.68 1221.07 925.49 1220.54 924.03L1218.48 918.31C1217.95 916.85 1213.48 915.66 1208.49 915.66L1136.61 915.66C1131.62 915.66 1127.88 916.85 1128.24 918.31L1129.67 924.03C1130.05 925.5 1134.44 926.68 1139.5 926.68Z"/><path d="M1245.69 926.68 1318.53 926.68C1323.59 926.68 1327.11 925.49 1326.39 924.03L1323.6 918.31C1322.89 916.85 1318.26 915.66 1313.28 915.66L1241.4 915.66C1236.41 915.66 1232.82 916.85 1233.37 918.31L1235.53 924.03C1236.08 925.49 1240.63 926.68 1245.69 926.68Z"/><path d="M1351.87 926.67 1424.71 926.67C1429.77 926.67 1433.13 925.48 1432.24 924.02L1428.73 918.3C1427.83 916.84 1423.06 915.65 1418.07 915.65L1346.19 915.65C1341.2 915.65 1337.76 916.84 1338.5 918.3L1341.39 924.02C1342.12 925.49 1346.82 926.67 1351.87 926.67Z"/><path d="M1458.06 926.67 1530.9 926.67C1535.96 926.67 1539.17 925.48 1538.09 924.02L1533.85 918.3C1532.76 916.84 1527.84 915.65 1522.85 915.65L1450.97 915.65C1445.98 915.65 1442.69 916.84 1443.61 918.3L1447.23 924.02C1448.16 925.48 1453.01 926.67 1458.06 926.67Z"/><path d="M1582.67 915.64 1555.76 915.64C1550.77 915.64 1547.63 916.83 1548.74 918.29L1553.08 924.01C1554.19 925.47 1559.19 926.66 1564.25 926.66L1591.52 926.66C1596.58 926.66 1599.71 925.47 1598.52 924.01L1593.87 918.29C1592.67 916.83 1587.66 915.64 1582.67 915.64Z"/><path d="M272.41 1036.86 207.01 1036.87C201.29 1036.87 195.74 1038.06 194.62 1039.53L181.8 1056.3C180.68 1057.77 184.52 1058.96 190.37 1058.95L257.29 1058.94C263.14 1058.94 268.69 1057.75 269.68 1056.28L280.97 1039.51C281.97 1038.05 278.13 1036.86 272.41 1036.86Z"/><path d="M375.55 1036.84 310.15 1036.85C304.43 1036.85 299.01 1038.04 298.05 1039.51L287.06 1056.28C286.1 1057.75 290.06 1058.93 295.92 1058.93L362.84 1058.92C368.69 1058.92 374.11 1057.73 374.94 1056.26L384.41 1039.49C385.24 1038.03 381.27 1036.84 375.55 1036.84Z"/><path d="M478.69 1036.83 413.29 1036.84C407.57 1036.84 402.28 1038.03 401.48 1039.5L392.31 1056.27C391.51 1057.74 395.6 1058.92 401.46 1058.92L468.38 1058.91C474.23 1058.91 479.52 1057.72 480.19 1056.25L487.83 1039.49C488.51 1038.01 484.41 1036.83 478.69 1036.83Z"/><path d="M619.2 1036.8 516.43 1036.82C510.71 1036.82 505.55 1038.01 504.91 1039.48L497.57 1056.24C496.93 1057.71 501.15 1058.89 507.01 1058.89L612.17 1058.87C618.02 1058.87 623.14 1057.68 623.59 1056.21L628.74 1039.45C629.19 1037.99 624.92 1036.8 619.2 1036.8Z"/><path d="M1267.09 1036.69 1172.62 1036.71C1166.9 1036.71 1162.56 1037.9 1162.94 1039.36L1167.22 1056.11C1167.59 1057.58 1172.64 1058.76 1178.5 1058.76L1275.17 1058.74C1281.02 1058.74 1285.32 1057.55 1284.77 1056.09L1278.45 1039.34C1277.9 1037.87 1272.81 1036.69 1267.09 1036.69Z"/><path d="M1134.89 1036.71 656.94 1036.79C651.22 1036.79 646.24 1037.98 645.81 1039.45L640.96 1056.21C640.54 1057.68 644.94 1058.86 650.79 1058.86L1139.89 1058.76C1145.74 1058.76 1150.21 1057.57 1149.86 1056.1L1145.88 1039.35C1145.53 1037.9 1140.61 1036.71 1134.89 1036.71Z"/><path d="M250.15 979.62 360.05 979.61C365.42 979.61 370.52 978.42 371.43 976.95L381.81 960.18C382.72 958.71 379.2 957.52 373.96 957.53L266.79 957.54C261.55 957.54 256.39 958.73 255.27 960.2L242.45 976.97C241.32 978.43 244.77 979.62 250.15 979.62Z"/><path d="M210.29 1032.51 312.6 1032.49C318.29 1032.49 323.66 1031.3 324.59 1029.83L335.22 1013.06C336.15 1011.59 332.4 1010.41 326.84 1010.41L226.93 1010.42C221.37 1010.42 215.96 1011.61 214.84 1013.08L202.02 1029.85C200.9 1031.32 204.6 1032.51 210.29 1032.51Z"/><path d="M230.22 1006.06 370.16 1006.04C375.69 1006.04 380.88 1004.85 381.74 1003.38L391.63 986.61C392.49 985.14 388.82 983.96 383.42 983.96L246.85 983.98C241.45 983.98 236.17 985.17 235.05 986.64L222.23 1003.41C221.11 1004.88 224.69 1006.06 230.22 1006.06Z"/><path d="M356.39 950.51C355.43 951.98 358.88 953.17 364.09 953.16L423.71 953.16C428.93 953.16 433.82 951.97 434.65 950.5L444.12 933.73C444.95 932.26 441.5 931.07 436.42 931.08L378.32 931.08C373.24 931.08 368.34 932.27 367.38 933.74L356.39 950.51Z"/><path d="M397.45 960.18 387.37 976.95C386.49 978.42 390.13 979.61 395.51 979.6L456.96 979.59C462.34 979.59 467.3 978.4 468.05 976.93L476.6 960.17C477.35 958.7 473.71 957.52 468.46 957.52L408.54 957.53C403.29 957.52 398.33 958.71 397.45 960.18Z"/><path d="M481.23 1003.37 489.3 986.6C490.01 985.13 486.2 983.95 480.8 983.95L419.04 983.96C413.64 983.96 408.59 985.15 407.75 986.62L398.16 1003.39C397.32 1004.86 401.13 1006.04 406.66 1006.04L469.94 1006.03C475.47 1006.03 480.53 1004.84 481.23 1003.37Z"/><path d="M363.52 1010.41C357.96 1010.41 352.72 1011.6 351.82 1013.07L341.49 1029.84C340.59 1031.31 344.47 1032.49 350.16 1032.49L415.27 1032.48C420.96 1032.48 426.2 1031.29 426.97 1029.82L435.78 1013.05C436.55 1011.58 432.67 1010.4 427.11 1010.4L363.52 1010.41Z"/><path d="M452.82 1032.47 517.93 1032.46C523.62 1032.46 528.73 1031.27 529.34 1029.8L536.32 1013.03C536.93 1011.56 532.92 1010.38 527.36 1010.38L463.78 1010.39C458.22 1010.39 453.11 1011.58 452.37 1013.05L443.86 1029.82C443.12 1031.28 447.13 1032.47 452.82 1032.47Z"/><path d="M627.62 1010.37 564.04 1010.38C558.48 1010.38 553.5 1011.57 552.92 1013.04L546.24 1029.81C545.66 1031.28 549.8 1032.46 555.49 1032.46L620.6 1032.45C626.29 1032.45 631.27 1031.26 631.72 1029.79L636.87 1013.03C637.32 1011.56 633.18 1010.37 627.62 1010.37Z"/><path d="M658.15 1032.43 723.26 1032.42C728.95 1032.42 733.8 1031.23 734.09 1029.77L737.42 1013.01C737.71 1011.54 733.44 1010.36 727.88 1010.36L664.3 1010.37C658.74 1010.37 653.89 1011.56 653.47 1013.02L648.62 1029.78C648.18 1031.25 652.45 1032.43 658.15 1032.43Z"/><path d="M760.81 1032.42 825.92 1032.41C831.61 1032.41 836.33 1031.22 836.46 1029.76L837.96 1013C838.09 1011.53 833.69 1010.35 828.13 1010.35L764.55 1010.36C758.99 1010.36 754.27 1011.55 754.01 1013.01L750.98 1029.77C750.72 1031.23 755.12 1032.42 760.81 1032.42Z"/><path d="M863.47 1032.4 928.58 1032.39C934.27 1032.39 938.86 1031.2 938.83 1029.74L938.51 1012.98C938.48 1011.52 933.95 1010.33 928.39 1010.33L864.81 1010.34C859.25 1010.34 854.66 1011.53 854.56 1012.99L853.36 1029.75C853.25 1031.21 857.78 1032.4 863.47 1032.4Z"/><path d="M966.14 1032.38 1031.24 1032.37C1036.93 1032.37 1041.4 1031.18 1041.21 1029.71L1039.06 1012.96C1038.87 1011.49 1034.21 1010.31 1028.65 1010.31L965.08 1010.32C959.52 1010.32 955.05 1011.51 955.11 1012.98L955.74 1029.73C955.79 1031.19 960.45 1032.38 966.14 1032.38Z"/><path d="M1128.91 1010.29 1065.34 1010.3C1059.78 1010.3 1055.44 1011.49 1055.66 1012.95L1058.11 1029.7C1058.32 1031.17 1063.11 1032.35 1068.81 1032.35L1133.91 1032.34C1139.6 1032.34 1143.94 1031.15 1143.59 1029.69L1139.61 1012.94C1139.26 1011.48 1134.47 1010.29 1128.91 1010.29Z"/><path d="M1171.47 1032.35 1236.57 1032.34C1242.26 1032.34 1246.47 1031.15 1245.96 1029.69L1240.16 1012.94C1239.65 1011.47 1234.73 1010.29 1229.17 1010.29L1165.6 1010.3C1160.04 1010.3 1155.83 1011.49 1156.21 1012.95L1160.49 1029.7C1160.85 1031.16 1165.77 1032.35 1171.47 1032.35Z"/><path d="M1274.13 1032.33 1339.23 1032.32C1344.92 1032.32 1349 1031.13 1348.33 1029.67L1340.7 1012.92C1340.03 1011.46 1334.98 1010.27 1329.42 1010.27L1265.85 1010.28C1260.29 1010.28 1256.21 1011.47 1256.75 1012.93L1262.85 1029.68C1263.39 1031.14 1268.44 1032.33 1274.13 1032.33Z"/><path d="M1370.23 1036.67 1304.83 1036.68C1299.11 1036.68 1294.94 1037.87 1295.52 1039.33L1302.14 1056.08C1302.72 1057.55 1307.93 1058.73 1313.79 1058.73L1380.71 1058.72C1386.56 1058.72 1390.73 1057.53 1390.02 1056.07L1381.88 1039.32C1381.17 1037.86 1375.95 1036.67 1370.23 1036.67Z"/><path d="M1473.37 1036.65 1407.97 1036.66C1402.25 1036.66 1398.21 1037.85 1398.95 1039.31L1407.39 1056.06C1408.13 1057.52 1413.47 1058.71 1419.33 1058.71L1486.25 1058.7C1492.1 1058.7 1496.14 1057.51 1495.27 1056.05L1485.3 1039.31C1484.44 1037.84 1479.09 1036.65 1473.37 1036.65Z"/><path d="M1679.65 1036.62 1614.25 1036.63C1608.53 1036.63 1604.75 1037.82 1605.81 1039.28L1617.9 1056.02C1618.96 1057.48 1624.56 1058.67 1630.42 1058.67L1697.34 1058.66C1703.19 1058.66 1706.97 1057.47 1705.78 1056.01L1692.16 1039.27C1690.97 1037.8 1685.37 1036.61 1679.65 1036.62Z"/><path d="M1376.79 1032.31 1441.89 1032.3C1447.58 1032.3 1451.53 1031.11 1450.7 1029.65L1441.25 1012.91C1440.42 1011.45 1435.24 1010.26 1429.68 1010.26L1366.11 1010.27C1360.55 1010.27 1356.6 1011.46 1357.3 1012.92L1365.23 1029.67C1365.92 1031.12 1371.1 1032.31 1376.79 1032.31Z"/><path d="M1658.46 1010.22 1466.37 1010.25C1460.81 1010.25 1456.99 1011.44 1457.85 1012.9L1467.6 1029.64C1468.45 1031.1 1473.76 1032.29 1479.46 1032.29L1676.15 1032.26C1681.84 1032.26 1685.5 1031.07 1684.3 1029.61L1670.68 1012.87C1669.49 1011.4 1664.02 1010.22 1658.46 1010.22Z"/><path d="M580.73 1003.36 586.97 986.6C587.52 985.13 583.58 983.95 578.18 983.95L516.42 983.96C511.02 983.96 506.09 985.15 505.42 986.61L497.66 1003.38C496.98 1004.85 500.92 1006.03 506.45 1006.03L569.73 1006.02C575.26 1006.01 580.18 1004.83 580.73 1003.36Z"/><path d="M606.23 1006.01 669.51 1006C675.04 1006 679.84 1004.81 680.22 1003.35L684.63 986.59C685.02 985.12 680.95 983.94 675.55 983.94L613.79 983.95C608.39 983.95 603.59 985.14 603.07 986.6L597.13 1003.36C596.63 1004.82 600.69 1006.01 606.23 1006.01Z"/><path d="M779.72 1003.33 782.31 986.57C782.54 985.1 778.34 983.92 772.94 983.92L711.18 983.93C705.78 983.93 701.11 985.12 700.75 986.58L696.64 1003.34C696.28 1004.81 700.47 1005.99 706.01 1005.99L769.29 1005.98C774.83 1005.99 779.49 1004.8 779.72 1003.33Z"/><path d="M879.21 1003.32 879.97 986.56C880.04 985.09 875.71 983.91 870.32 983.91L808.56 983.92C803.16 983.92 798.62 985.11 798.42 986.57L796.13 1003.33C795.93 1004.8 800.25 1005.98 805.78 1005.98L869.06 1005.97C874.61 1005.97 879.15 1004.78 879.21 1003.32Z"/><path d="M978.71 1003.3 977.64 986.54C977.55 985.08 973.1 983.89 967.7 983.89L905.94 983.9C900.54 983.9 896.13 985.09 896.09 986.55L895.63 1003.31C895.59 1004.77 900.04 1005.96 905.57 1005.96L968.85 1005.95C974.39 1005.96 978.8 1004.77 978.71 1003.3Z"/><path d="M1078.2 1003.29 1075.31 986.54C1075.06 985.08 1070.48 983.89 1065.08 983.89L1003.32 983.9C997.92 983.9 993.64 985.09 993.76 986.55L995.13 1003.31C995.25 1004.77 999.83 1005.96 1005.36 1005.96L1068.64 1005.95C1074.18 1005.94 1078.46 1004.75 1078.2 1003.29Z"/><path d="M1105.15 1005.94 1168.43 1005.93C1173.96 1005.93 1178.11 1004.74 1177.7 1003.28L1172.98 986.53C1172.57 985.07 1167.86 983.88 1162.46 983.88L1100.7 983.89C1095.3 983.89 1091.15 985.08 1091.43 986.54L1094.62 1003.29C1094.9 1004.75 1099.61 1005.94 1105.15 1005.94Z"/><path d="M1277.19 1003.26 1270.65 986.51C1270.08 985.05 1265.24 983.86 1259.84 983.86L1198.08 983.87C1192.68 983.87 1188.66 985.06 1189.1 986.52L1194.12 1003.27C1194.56 1004.73 1199.4 1005.92 1204.93 1005.92L1268.21 1005.91C1273.74 1005.91 1277.77 1004.73 1277.19 1003.26Z"/><path d="M1376.69 1003.25 1368.32 986.5C1367.59 985.04 1362.62 983.85 1357.22 983.85L1295.46 983.86C1290.06 983.86 1286.17 985.05 1286.77 986.51L1293.61 1003.26C1294.21 1004.72 1299.18 1005.91 1304.71 1005.91L1367.99 1005.9C1373.53 1005.9 1377.42 1004.71 1376.69 1003.25Z"/><path d="M1476.18 1003.23 1465.98 986.48C1465.09 985.02 1459.99 983.83 1454.59 983.83L1392.83 983.84C1387.43 983.84 1383.67 985.03 1384.43 986.49L1393.1 1003.24C1393.86 1004.7 1398.96 1005.89 1404.49 1005.89L1467.77 1005.88C1473.31 1005.89 1477.07 1004.7 1476.18 1003.23Z"/><path d="M1482.11 986.49 1492.61 1003.24C1493.53 1004.7 1498.76 1005.89 1504.29 1005.89L1567.57 1005.88C1573.1 1005.88 1576.73 1004.69 1575.68 1003.23L1563.66 986.49C1562.61 985.03 1557.38 983.84 1551.98 983.84L1490.22 983.85C1484.82 983.83 1481.19 985.02 1482.11 986.49Z"/><path d="M492.24 960.17 483.99 976.93C483.27 978.4 487.04 979.58 492.42 979.58L553.87 979.57C559.24 979.57 564.08 978.38 564.67 976.91L571.4 960.15C571.99 958.68 568.22 957.5 562.97 957.5L503.05 957.51C497.79 957.52 492.96 958.71 492.24 960.17Z"/><path d="M661.27 976.92 666.17 960.16C666.6 958.69 662.7 957.51 657.46 957.51L597.54 957.52C592.3 957.52 587.59 958.71 587.03 960.18L580.6 976.94C580.04 978.41 583.94 979.59 589.31 979.59L650.76 979.58C656.14 979.57 660.84 978.38 661.27 976.92Z"/><path d="M681.82 960.15 677.22 976.91C676.82 978.38 680.85 979.56 686.22 979.56L747.67 979.55C753.04 979.55 757.62 978.36 757.89 976.89L760.97 960.13C761.24 958.66 757.21 957.48 751.97 957.48L692.05 957.49C686.79 957.5 682.22 958.69 681.82 960.15Z"/><path d="M783.12 979.56 844.57 979.55C849.94 979.55 854.39 978.36 854.5 976.9L855.75 960.14C855.86 958.67 851.7 957.49 846.46 957.49L786.54 957.5C781.3 957.5 776.85 958.69 776.61 960.16L773.83 976.92C773.59 978.37 777.75 979.56 783.12 979.56Z"/><path d="M871.39 960.14 870.44 976.9C870.36 978.37 874.65 979.55 880.02 979.55L941.47 979.54C946.85 979.54 951.16 978.35 951.11 976.89L950.53 960.14C950.48 958.67 946.19 957.49 940.95 957.49L881.03 957.5C875.79 957.48 871.48 958.67 871.39 960.14Z"/><path d="M966.18 960.13 967.06 976.88C967.14 978.35 971.56 979.53 976.93 979.53L1038.38 979.52C1043.75 979.52 1047.94 978.33 1047.73 976.87L1045.33 960.12C1045.12 958.65 1040.7 957.47 1035.46 957.47L975.54 957.48C970.29 957.47 966.11 958.66 966.18 960.13Z"/><path d="M1144.35 976.86 1140.12 960.11C1139.75 958.64 1135.2 957.46 1129.96 957.46L1070.04 957.47C1064.8 957.47 1060.74 958.66 1060.98 960.12L1063.68 976.87C1063.92 978.34 1068.47 979.52 1073.84 979.52L1135.29 979.51C1140.66 979.52 1144.72 978.33 1144.35 976.86Z"/><path d="M1155.76 960.11 1160.29 976.86C1160.69 978.33 1165.36 979.51 1170.74 979.51L1232.19 979.5C1237.56 979.5 1241.49 978.31 1240.96 976.85L1234.91 960.1C1234.38 958.63 1229.7 957.45 1224.46 957.45L1164.54 957.46C1159.3 957.46 1155.37 958.65 1155.76 960.11Z"/><path d="M1250.55 960.1 1256.9 976.85C1257.46 978.32 1262.26 979.5 1267.64 979.5L1329.09 979.49C1334.46 979.49 1338.26 978.3 1337.57 976.84L1329.69 960.09C1329 958.63 1324.19 957.44 1318.95 957.44L1259.03 957.45C1253.8 957.45 1250 958.64 1250.55 960.1Z"/><path d="M1345.34 960.09 1353.52 976.84C1354.24 978.3 1359.17 979.49 1364.55 979.49L1426 979.48C1431.38 979.48 1435.04 978.29 1434.2 976.83L1424.5 960.09C1423.65 958.63 1418.71 957.44 1413.47 957.44L1353.55 957.45C1348.3 957.44 1344.63 958.63 1345.34 960.09Z"/><path d="M1507.96 957.43 1448.04 957.44C1442.8 957.44 1439.26 958.63 1440.13 960.09L1450.14 976.83C1451.02 978.29 1456.08 979.48 1461.46 979.48L1522.91 979.47C1528.28 979.47 1531.82 978.28 1530.82 976.82L1519.29 960.08C1518.27 958.61 1513.2 957.43 1507.96 957.43Z"/><path d="M1604.07 1005.87 1654.97 1005.86C1660.5 1005.86 1664.02 1004.67 1662.83 1003.21L1643.51 979.46 1640.99 976.36 1627.73 960.07C1626.54 958.61 1621.33 957.42 1616.09 957.42L1542.54 957.43C1537.3 957.43 1533.89 958.62 1534.93 960.08L1546.76 976.82C1547.79 978.28 1552.99 979.47 1558.36 979.47L1568.41 979.47C1571.84 979.47 1575.18 980.23 1575.87 981.16L1592.1 1003.22C1593.18 1004.68 1598.53 1005.87 1604.07 1005.87Z"/><path d="M528.05 931.08 469.95 931.08C464.87 931.08 460.1 932.27 459.3 933.74L450.13 950.51C449.33 951.98 452.91 953.16 458.12 953.16L517.74 953.16C522.96 953.16 527.72 951.97 528.39 950.5L536.03 933.74C536.71 932.27 533.13 931.08 528.05 931.08Z"/><path d="M611.77 953.14C616.99 953.14 621.63 951.95 622.13 950.48L627.95 933.72C628.46 932.25 624.75 931.07 619.67 931.07L561.57 931.07C556.49 931.07 551.85 932.26 551.21 933.73L543.87 950.49C543.23 951.96 546.94 953.14 552.15 953.14L611.77 953.14Z"/><path d="M711.29 931.07 653.19 931.07C648.11 931.07 643.6 932.26 643.12 933.73L637.61 950.49C637.13 951.96 640.96 953.14 646.18 953.14L705.8 953.13C711.02 953.13 715.53 951.94 715.87 950.47L719.86 933.71C720.21 932.25 716.37 931.07 711.29 931.07Z"/><path d="M735.03 933.72 731.34 950.48C731.02 951.95 734.98 953.13 740.2 953.13L799.82 953.13C805.04 953.13 809.42 951.94 809.61 950.48L811.77 933.72C811.96 932.25 807.99 931.07 802.91 931.07L744.81 931.07C739.73 931.07 735.35 932.25 735.03 933.72Z"/><path d="M894.53 931.06 836.43 931.06C831.35 931.06 827.1 932.25 826.93 933.71L825.07 950.47C824.91 951.94 829 953.12 834.22 953.12L893.84 953.12C899.06 953.12 903.31 951.93 903.34 950.47L903.68 933.71C903.71 932.24 899.61 931.06 894.53 931.06Z"/><path d="M986.15 931.05 928.05 931.05C922.97 931.05 918.85 932.24 918.84 933.7L918.8 950.46C918.8 951.93 923.02 953.11 928.24 953.11L987.86 953.11C993.07 953.11 997.2 951.92 997.07 950.46L995.58 933.71C995.46 932.24 991.23 931.05 986.15 931.05Z"/><path d="M1022.27 953.11 1081.89 953.11C1087.1 953.11 1091.1 951.92 1090.81 950.46L1087.5 933.71C1087.21 932.24 1082.86 931.06 1077.77 931.06L1019.67 931.06C1014.59 931.06 1010.6 932.25 1010.75 933.71L1012.54 950.46C1012.7 951.92 1017.06 953.11 1022.27 953.11Z"/><path d="M1169.39 931.04 1111.29 931.04C1106.21 931.04 1102.35 932.23 1102.66 933.69L1106.28 950.44C1106.6 951.91 1111.08 953.09 1116.29 953.09L1175.91 953.09C1181.12 953.09 1184.99 951.9 1184.54 950.44L1179.4 933.69C1178.96 932.23 1174.48 931.04 1169.39 931.04Z"/><path d="M1261.02 931.04 1202.92 931.04C1197.84 931.04 1194.1 932.23 1194.58 933.69L1200.02 950.44C1200.5 951.9 1205.11 953.09 1210.32 953.09L1269.94 953.09C1275.15 953.09 1278.89 951.9 1278.28 950.44L1271.31 933.69C1270.71 932.22 1266.1 931.04 1261.02 931.04Z"/><path d="M1352.64 931.03 1294.54 931.03C1289.46 931.03 1285.85 932.22 1286.49 933.68L1293.76 950.43C1294.4 951.89 1299.14 953.08 1304.35 953.08L1363.97 953.07C1369.18 953.07 1372.79 951.88 1372.02 950.42L1363.23 933.67C1362.46 932.22 1357.72 931.03 1352.64 931.03Z"/><path d="M1378.4 933.68 1387.49 950.43C1388.29 951.89 1393.16 953.08 1398.37 953.08L1457.99 953.07C1463.2 953.07 1466.68 951.88 1465.75 950.42L1455.13 933.68C1454.2 932.22 1449.33 931.03 1444.25 931.03L1386.15 931.03C1381.08 931.03 1377.6 932.22 1378.4 933.68Z"/><path d="M1594.89 931.02 1477.78 931.03C1472.7 931.03 1469.35 932.22 1470.31 933.68L1481.23 950.42C1482.18 951.88 1487.19 953.07 1492.4 953.07L1612.59 953.06C1617.8 953.06 1621.07 951.87 1619.88 950.41L1606.26 933.67C1605.06 932.2 1599.98 931.02 1594.89 931.02Z"/><path d="M1512.65 1056.04C1513.55 1057.5 1519.02 1058.69 1524.88 1058.69L1591.8 1058.68C1597.65 1058.68 1601.56 1057.49 1600.53 1056.03L1594.63 1047.65 1507.5 1047.65 1512.65 1056.04Z"/><path d="M1588.74 1039.28C1587.71 1037.82 1582.23 1036.63 1576.51 1036.63L1511.11 1036.64C1505.39 1036.64 1501.48 1037.83 1502.38 1039.29L1506.56 1046.11 1593.55 1046.11 1588.74 1039.28Z"/></g></g></svg>