<svg width="1300.56" height="865.06" viewBox="0 0 1300.56 865.06" xmlns="http://www.w3.org/2000/svg" xmlns:xlink="http://www.w3.org/1999/xlink" xml:space="preserve" overflow="visible"><defs></defs><g><g><path d="M589.9 865.06 0 865.06 0 114.49 1180.07 114.49 1180.07 865.06 589.9 865.06" fill="#FCC25C"/><g><g><path d="M1180.07 865.06 0 865.06 590.42 359.21Z" opacity="0.08"/><path d="M590.32 378.63 0.58 865.06 1180.07 865.06Z" fill="#F2A330"/></g><g><path d="M1180.07 115.04 1180.3 148.39 684.8 573.76 643.38 610.27C612.13 637.64 565.24 637.53 534.14 609.98L493.51 574.71 0.3 149.39 0 114.66 0.05 114.53 0.08 114.44 1179.85 114.44 1179.91 114.6 1180.07 115.04Z" opacity="0.1"/><path d="M1180.07 115.02 1180.07 149.35 1077.4 232.48 684.8 550.34 643.38 584.55C612.13 610.2 565.24 610.09 534.14 584.28L493.51 551.23 101.69 232.5 0 149.78 0 114.65 0.05 114.52 0.08 114.43 1179.85 114.43 1179.91 114.59 1180.07 115.02Z" fill="#FCCF5C"/></g></g></g><g><g><ellipse cx="1158.85" cy="141.7" rx="141.7" ry="141.7" fill="#F66B2A" transform="matrix(0.7071 -0.7071 0.7071 0.7071 239.22 860.937)"/></g><g><path d="M1185.72 209.25 1158.79 209.25 1158.79 107.75C1148.95 116.95 1137.35 123.76 1124 128.17L1124 103.73C1131.03 101.43 1138.67 97.07 1146.91 90.65 1155.15 84.23 1160.81 76.74 1163.87 68.17L1185.72 68.17 1185.72 209.25Z" fill="#FFFFFF"/></g></g></g></svg>