<svg width="118.4" height="310.5" viewBox="0 0 118.4 310.5" xmlns="http://www.w3.org/2000/svg" xmlns:xlink="http://www.w3.org/1999/xlink" overflow="visible"><defs></defs><g><g><g><g><g><g><path d="M90 305 69.5 302.7C70.5 301.1 71 296.4 71.2 292.9 71.5 288.1 71.4 281.9 71.4 281.9 71.4 281.9 84.9 278.6 84.9 281.9 84.9 285.2 85.7 289.3 86.6 292.9 88.1 298.5 90 305 90 305Z" fill="#22272E"/><path d="M90.4 306.5C90.4 306.6 90.4 306 90.4 306.1 90.4 307.2 90.1 306.9 89.6 308.5L68 308.5C67.5 306.8 67.2 307.2 67.2 306.1 67.2 306 67.2 306.3 67.2 306.2 67.2 301.1 72.4 297.1 78.8 297.1 85.2 297 90.4 301.4 90.4 306.5Z" fill="#22272E"/></g><path d="M71.2 293.6C71.5 288.6 71.4 282 71.4 282 71.4 282 84.9 278.7 84.9 282 84.9 285.3 85.7 288.6 86.6 293.6L71.2 293.6Z" fill="#617085"/></g><path d="M90.4 306C90.4 306 90.1 307.7 89.6 307.7L68 307.7C67.5 307.7 67.2 306 67.2 306L90.4 306Z" stroke="#515D6E" stroke-miterlimit="10" fill="#515D6E"/></g><path d="M82.7 298.8C81.1 296.6 77.3 297.4 75.5 298.9 75.2 299.1 75.5 299.5 75.8 299.4 76.9 299.2 77.8 298.6 79 298.6 80.3 298.5 81.2 299.3 82.4 299.4 82.6 299.3 82.8 299 82.7 298.8Z" fill="#515D6E"/><path d="M82 301.1C80.2 299.9 76.7 299.4 75.1 301.2 74.9 301.4 75.1 301.9 75.4 301.8 76.4 301.5 77.7 301.4 78.7 301.4 79.8 301.4 80.7 302.2 81.8 301.9 82.3 301.8 82.3 301.3 82 301.1Z" fill="#515D6E"/></g><g><g><g><path d="M55.3 306.3C55.2 307.5 55 308.6 54.7 309.3 54.7 309.3 22 310.7 19.7 309.7 19.3 309.5 19.4 309.2 19.9 308.7 20 308.3 20.1 307.9 20.3 307.4 21.4 304.6 24.6 300.3 33.4 300.8 35 300 36.2 299.4 37 299 38.1 298.4 38.9 296.9 39.5 295 40.8 290.9 41 285.2 40.8 284L54.7 284.2C54.7 284.2 55.2 289.3 55.4 295 55.5 299 55.6 303.2 55.3 306.3Z" fill="#22272E"/><path d="M39.5 295.2C40.8 288.6 41 285.3 40.8 284.1L54.7 284.3C54.7 284.3 55.2 288.6 55.4 295.2L39.5 295.2Z" fill="#617085"/></g><path d="M55.3 306.3C55.2 307.5 55 308.6 54.7 309.3 54.7 309.3 22 310.7 19.7 309.7 19.3 309.5 19.4 309.2 19.9 308.7 20 308.3 20.1 307.9 20.3 307.4 25.9 307.4 46.5 307.4 55.3 306.3Z" stroke="#515D6E" stroke-miterlimit="10" fill="#515D6E"/></g><path d="M36.8 301.6C36.3 300 33.7 299.4 32.3 300.4 32.2 300.5 32.1 300.7 32.3 300.8 32.9 301.1 33.6 301 34.3 301.1 35 301.2 35.3 301.8 35.8 302.2 36.2 302.4 37 302.1 36.8 301.6Z" fill="#515D6E"/><path d="M41.6 299.6C41.2 298.6 39.9 297.7 38.7 297.6 37.8 297.5 35.9 297.8 36.2 299 36.2 299.1 36.3 299.1 36.4 299.2 37 299.2 37.5 298.9 38.1 298.9 38.8 298.9 39.4 299.3 39.9 299.7 40.3 300.1 40.5 300.5 41.2 300.6 41.5 300.5 41.7 299.8 41.6 299.6Z" fill="#515D6E"/></g><path d="M32.3 82.8C32.3 82.8 63.3 77 92.7 82 92.7 82 86.1 138.1 83.8 150.1 83.8 150.1 60.6 155.9 40.4 149.7 40.4 149.8 31.9 93.7 32.3 82.8Z" fill="#F4F4F4"/><path d="M71 79.2C71 84.4 67 88.6 61.9 88.6L61.9 88.6C56.8 88.6 52.8 84.4 52.8 79.2L52.8 67.4C52.8 62.2 56.8 58 61.9 58L61.9 58C67 58 71 62.2 71 67.4L71 79.2Z" fill="#D8826C"/><g><path d="M63.2 96C63.2 96.7 62.6 97.3 61.9 97.3 61.2 97.3 60.6 96.7 60.6 96 60.6 95.3 61.2 94.7 61.9 94.7 62.6 94.6 63.2 95.2 63.2 96Z" fill="#E8E9EA"/><path d="M63.2 109.9C63.2 110.6 62.6 111.2 61.9 111.2 61.2 111.2 60.6 110.6 60.6 109.9 60.6 109.2 61.2 108.6 61.9 108.6 62.6 108.5 63.2 109.1 63.2 109.9Z" fill="#E8E9EA"/><path d="M63.1 137.6C63.1 138.3 62.5 138.9 61.8 138.9 61.1 138.9 60.5 138.3 60.5 137.6 60.5 136.9 61.1 136.3 61.8 136.3 62.5 136.3 63.1 136.9 63.1 137.6Z" fill="#E8E9EA"/><path d="M63.2 123.7C63.2 124.4 62.6 125 61.9 125 61.2 125 60.6 124.4 60.6 123.7 60.6 123 61.2 122.4 61.9 122.4 62.6 122.3 63.2 122.9 63.2 123.7Z" fill="#E8E9EA"/></g><g><path d="M52.4 73.5 45 81.2 51.2 97.5 61.7 88.6C61.7 88.6 53.6 80.1 52.4 73.5Z" fill="#E8E9EA"/><path d="M71 73.5 78.4 81.2 72.2 97.5 61.7 88.6C61.7 88.6 69.9 80.1 71 73.5Z" fill="#E8E9EA"/></g><g><path d="M87.7 290.3 69.8 290.3 63.4 181.9C62.8 181.9 62.2 181.9 61.6 181.8L56.5 291.9 38.5 291.9C38.2 247.2 40.8 149.4 40.5 148.3L78.9 147.9 83.9 147.9C84.2 151.2 84.5 152 84.8 154.4 88.4 186.4 87.8 277 87.7 290.3Z" fill="#22272E"/><path d="M84.7 156.4 79.3 156.5C79.2 154.4 79 152.3 78.8 150.2L83.8 150.2C84.1 151.9 84.4 154 84.7 156.4Z" fill="#8C4C09"/><path d="M74.3 150.1 52.2 149.9C52.3 152.2 52.4 154.6 52.4 156.9L74.7 156.5C74.2 154.5 74.3 152.3 74.3 150.1Z" fill="#8C4C09"/><path d="M46.8 149.8 40.4 149.7 40.4 157.1 47.4 157C46.8 154.9 46.7 152.3 46.8 149.8Z" fill="#8C4C09"/><rect x="57.8" y="146.3" width="9.9" height="9.9" fill="#C28C4B"/></g><g><g><path d="M83.1 53.1C83.2 60.5 75.3 66.4 70.1 69.2 64.9 72 60.3 71.1 60.3 71.1 39.6 66.4 41 56.5 39.9 48.3 39.3 44.3 38.8 36.8 40.6 27.5 40.8 26.2 41.2 25.1 41.7 24 44.9 17.3 52.5 14.7 52.5 14.7 57 13.1 62.2 12.8 66.9 13.6 73.7 15 79 18.5 80.8 25.4 81.4 27.6 81.7 29.9 81.9 32.2 82.5 36.9 82.8 41.7 83 46.4 83.1 48.7 83.1 50.9 83.1 53.1Z" fill="#F5AE94"/></g><path d="M61.4 32.5C61.4 32.5 59.8 31.1 59.9 36.5 60 41.9 60.6 47.6 60.6 47.6 60.6 47.6 56.9 45.7 58.3 48.7 59.1 50.3 60.6 51 62.3 51.3 63.7 51.6 64.7 51 65.6 50.1 66 49.7 68.1 47.3 67.3 46.6 66.9 46.3 65.1 47.2 64.6 47.4 64.4 47.3 64 31.1 61.4 32.5Z" fill="#DD876C"/><path d="M67.6 28.7C67.6 28.7 77 26.8 79.9 33.7 79.9 33.7 69.4 30.5 67.4 32.1L67.6 28.7Z" fill="#0D0D0C"/><path d="M56.3 29.5C56.3 29.5 47 27 43.7 33.7 43.7 33.7 54.4 31.2 56.3 32.9L56.3 29.5Z" fill="#0D0D0C"/><g><path d="M45.9 40.5C46.1 43.2 48.6 45.2 51.6 45 54.6 44.8 56.9 42.4 56.7 39.7 56.5 37 54 35 51 35.2 48 35.4 45.7 37.8 45.9 40.5Z" fill="#E8E9EA"/><g><path d="M54.9 39.7C55.1 42.1 53.7 44.1 51.8 44.3 49.9 44.4 48.3 42.6 48.1 40.2 47.9 37.8 49.3 35.8 51.2 35.6 53.1 35.4 54.7 37.3 54.9 39.7Z" fill="#5C8696"/><path d="M53.9 39.7C54 41.4 53 42.9 51.7 42.9 50.4 43 49.2 41.7 49.1 40 49 38.3 50 36.9 51.3 36.8 52.6 36.7 53.8 38 53.9 39.7Z" fill="#0D0D0C"/><path d="M53.9 36.8C53.9 37.3 53.4 37.7 52.7 37.7 52 37.7 51.4 37.4 51.4 36.9 51.4 36.4 51.9 36 52.6 36 53.3 36 53.8 36.4 53.9 36.8Z" fill="#E8E9EA"/></g></g><g><path d="M67.5 39.8C67.7 42.5 70.2 44.6 73.2 44.4 76.2 44.2 78.5 41.8 78.3 39.1 78.1 36.4 75.5 34.3 72.6 34.5 69.6 34.7 67.3 37.1 67.5 39.8Z" fill="#E8E9EA"/><g><path d="M75.7 39.1C75.9 41.5 74.5 43.5 72.6 43.7 70.7 43.8 69.1 42 68.9 39.6 68.7 37.2 70.1 35.2 72 35 73.9 34.9 75.6 36.7 75.7 39.1Z" fill="#5C8696"/><path d="M74.8 39.2C74.9 40.9 73.9 42.3 72.6 42.4 71.3 42.5 70.1 41.2 70 39.5 69.9 37.8 70.9 36.4 72.2 36.3 73.5 36.2 74.7 37.5 74.8 39.2Z" fill="#0D0D0C"/><path d="M74.7 36.3C74.7 36.8 74.2 37.2 73.5 37.2 72.8 37.2 72.2 36.9 72.2 36.4 72.2 35.9 72.7 35.5 73.4 35.5 74.1 35.5 74.7 35.8 74.7 36.3Z" fill="#E8E9EA"/></g></g><path d="M89.9 10.3C88.7 12 86.6 13.7 84.5 14.1 86.3 12.2 88 9.7 87.7 7.1 87.7 7 87.5 6.9 87.4 6.9 87 7.1 86.8 7.4 86.5 7.7 84.9 9.2 82.3 9.1 80.3 8.4 76.9 7.2 74.1 4.8 71.1 3 67.8 1 64-0.2 60.1 0 58 0.1 55.9 0.5 53.9 1.3 49 3.1 43.2 6.5 42 11.9 41.8 12.6 41.8 13.4 41.8 14.2 41.8 14.7 42.2 16.1 42 16.5 41.9 16.7 42.1 16.9 42.3 16.8 42.4 16.8 42.5 16.8 42.5 16.7 42.5 16.6 42.6 16.6 42.6 16.5 44.9 14.6 48.7 21.9 50.1 23.1 55.4 27.6 63.1 28.2 69.5 26.5 76.6 24.6 84.5 19.6 88.6 13.7 89.3 12.7 89.9 11.7 90.4 10.6 90.3 10.3 90 10.2 89.9 10.3Z" fill="#242422"/><g><g><path d="M82.3 37.7C82.3 37.7 86.8 27.4 90.6 35.5 93.6 41.9 88.6 48.2 84.6 47.8 80.5 47.4 82.3 37.7 82.3 37.7Z" fill="#F0A98F"/><path d="M82.6 39.3C82.6 39.3 86 32.7 87.7 35.1 89.4 37.5 89.4 40.7 89.4 40.7 89.4 40.7 88.2 37.3 85.7 39.5 85.7 39.5 89 44.9 83.5 43.8 83.5 43.7 81.2 42.2 82.6 39.3Z" fill="#D8826C"/></g></g><path d="M47.3 16C47.3 16 47.8 24.4 44.3 28.5 40.8 32.6 40.5 40.8 40.5 40.8 40.5 40.8 27.7 24.5 42.3 15 42.2 15.1 45.1 13.9 47.3 16Z" fill="#242422"/><path d="M75.3 19.3C75.3 19.3 81.2 27.2 82.5 38.5 82.5 38.5 90.8 26.1 82.9 15.7 82.9 15.6 74.2 12 75.3 19.3Z" fill="#242422"/><g><g><path d="M40.8 39.2C40.8 39.2 36.3 28.9 32.5 37 29.5 43.4 34.5 49.7 38.5 49.3 42.5 48.9 40.8 39.2 40.8 39.2Z" fill="#F0A98F"/><path d="M40.5 40.8C40.5 40.8 37.1 34.2 35.4 36.6 33.7 39 33.7 42.2 33.7 42.2 33.7 42.2 34.9 38.8 37.4 41 37.4 41 34.1 46.4 39.6 45.2 39.5 45.3 41.9 43.8 40.5 40.8Z" fill="#D8826C"/></g></g><g><g><path d="M54.5 34.4C52.6 34.1 50.7 34 49 34.1 47.9 36 46.8 37.9 46 40 45.4 41.5 44.8 43 44.5 44.6 46.2 46.2 48.5 46.7 50.8 46.7 51.7 42.5 52.3 37.9 54.5 34.4Z" fill="#EAECED" opacity="0.4"/><path d="M78.2 33.9C76.3 33.8 74.4 33.9 72.7 34.1 71.8 36.1 70.9 38.1 70.3 40.2 69.8 41.7 69.4 43.3 69.3 45 71.2 46.4 73.5 46.7 75.8 46.5 76.1 42.3 76.3 37.6 78.2 33.9Z" fill="#EAECED" opacity="0.4"/></g><path d="M82.8 42.4C84.6 37 84.1 34.7 84 34.4L83.9 34 83.5 33.8C83.2 33.7 75.3 30.6 66.8 34.4 65.9 34.8 65 35.3 64.2 35.8L64.2 35.6 61.1 35.7 61.1 35.6 60.7 35.4C59.8 34.9 58.8 34.5 57.9 34.1 49 30.9 41.3 34.5 41 34.6L40.6 34.8 40.5 35.2C40.5 35.4 40.1 37.8 42.3 43.1 43.1 45 44.6 46.4 46.7 47.2 49.3 48.2 51.9 47.9 52.1 47.9 58.3 47.2 59.3 44.3 60.1 42.3 60.1 42.2 60.2 42.1 60.2 42 60.7 40.6 61 39.4 61.1 38.5 61.7 38.3 62.6 38.1 63.9 38.6 64.1 39.6 64.4 40.9 65.1 42.4 65.1 42.5 65.2 42.6 65.2 42.7 66 44.6 67.3 47.5 73.5 47.8 73.6 47.8 76.3 47.9 78.8 46.7 80.7 45.8 82.1 44.4 82.8 42.4ZM51.8 46.2C51.8 46.2 49.5 46.4 47.3 45.6 45.7 45 44.5 43.9 43.9 42.5 42.5 39 42.2 37 42.2 36.1 44 35.4 50.2 33.3 57.1 35.9 57.8 36.2 58.5 36.5 59.2 36.9 59.2 37.7 59.1 39.3 58.3 41.4 58.3 41.5 58.2 41.6 58.2 41.7 57.6 43.5 56.8 45.6 51.8 46.2ZM77.9 45.1C75.8 46.1 73.4 46 73.4 46 68.4 45.8 67.5 43.8 66.7 42 66.7 41.9 66.6 41.8 66.6 41.7 65.7 39.6 65.5 38 65.4 37.2 66.1 36.8 66.8 36.4 67.5 36.1 74.1 33.1 80.5 34.8 82.3 35.3 82.3 36.1 82.3 38.2 81 41.8 80.6 43.3 79.5 44.4 77.9 45.1Z" fill="#5C311E"/></g><g><path d="M52.9 52.3C53 52.5 54.4 56 56.7 58.6 59.5 61.7 63.5 63.5 68.1 56.9 69.1 55.5 70 53.7 71 51.5 71 51.5 69.4 52.1 67.2 52.7 63.6 53.7 58.3 54.9 54.6 53.2L54.6 53.2C53.9 53.1 53.4 52.6 52.9 52.3Z" fill="#712311"/><path d="M56.7 58.5C59.5 61.6 63.5 63.4 68.1 56.8 65.6 56.2 60 55.2 56.7 58.5Z" fill="#D5503B"/><path d="M54.6 53.2C60.5 59.8 64.7 56.3 67.2 52.7 63.6 53.7 58.2 54.7 54.6 53.2Z" fill="#E8E9EA"/></g></g><g><path d="M114.3 181.6C114.2 180.9 114.1 180.3 114.1 179.6L106.7 178.4C106.6 179.5 106.5 180.5 106.4 181.6 104.9 182.6 102.7 184.9 102.6 187.9 102.5 190.8 98.9 193.5 98.7 194.5 101 196.2 102.7 193.8 104.3 191.2 105 190 105.5 189.8 105.9 189.9 105.9 190.5 105.9 190.9 105.9 191 105.9 191.1 105.9 191.2 105.8 191.3 105.2 193.5 104.8 195.7 104.4 197.9 104.2 199 104 200.1 104.6 201.1 104.7 201.3 105 201.3 105.2 201.2 106.7 200.5 107.1 198.7 107.4 197.3 107.6 196.4 107.9 195.6 108.1 194.7 108 196.4 107.8 198 107.5 199.6 107.2 201.1 106.7 202.9 107.4 204.3 108 205.7 108.8 205.1 109.3 204.1 109.3 204.3 109.3 204.5 109.3 204.6 109.3 205 109.8 205.2 110.1 205 114.6 202.8 115.1 195.5 114.4 190.9 117.7 193.2 114.8 197.1 116 199.9 116.1 200.1 116.4 200.2 116.6 200.1 119.7 197.9 118.3 191.8 117.3 188.8 116.4 186.7 114.7 184.1 114.3 181.6Z" fill="#F0A98F"/><path d="M117.9 184.4C120.3 103.9 92.7 82 92.7 82 87 87.8 87.8 114.4 87.8 114.4 96 125.6 100.9 168.5 102.4 184.4L117.9 184.4Z" fill="#F4F4F4"/></g><g><g><path d="M59 128.1 37.6 120C38 119.3 38.3 119.2 38.7 119 40.4 118 43.2 118.2 46.4 119.2 47.5 119.5 48.6 119.9 49.8 120.3 50.9 120.7 52 121.2 53 121.6 56.1 123 58.3 124.7 58.9 126.7 59 127.1 59.2 127.3 59 128.1Z" fill="#BCC1C6"/><path d="M54.4 117C53.4 116.6 52.9 115.5 53 114.7L51 113.9C50.6 114.6 49.5 115.1 48.5 114.8 48.4 114.8 48.4 114.7 48.2 114.6L45 122.9 51.7 125.4 54.9 117.1C54.9 117.1 54.5 117 54.4 117ZM51.4 116C52.2 116.3 52.5 117.1 52.3 117.9 52 118.7 51.2 119 50.4 118.8 49.6 118.5 49.3 117.7 49.5 116.9 49.7 116.1 50.6 115.8 51.4 116Z" fill="#BCC1C6"/></g><path d="M49.4 172.8C49.1 173.5 48.3 173.9 47.6 173.7L15.7 161.6C15 161.3 14.6 160.5 14.9 159.7L31 117.3C31.3 116.6 32.1 116.2 32.8 116.4L64.7 128.5C65.4 128.8 65.8 129.6 65.5 130.4L49.4 172.8Z" fill="#B34001"/></g><g><path d="M54.7 144C51.9 146.7 48.5 146 45 146.4 42.7 146.7 39.3 146.7 38 147.9 32.7 145.5 37.1 150.5 35.9 151.5 34.7 152.6 34.3 154.4 34.8 155.9 34.7 156 34.8 156.1 34.9 156.2 34.9 156.2 35 156.3 35 156.3 35.3 156.9 35.8 157.5 36.5 157.8 36.6 157.9 36.7 157.8 36.8 157.8 40.4 161.2 42.9 165.6 48.2 166.7 50.7 167.2 53.6 166.4 52.8 164 54.1 164.2 55.7 164.5 56.4 163.2 57.1 161.8 55.9 160.6 54.7 159.7 56 159.7 57.5 159.6 57.8 158.5 58.2 157.2 57.6 156.3 56.6 155.6 58.2 155.3 59.7 154.5 58.9 153 58.2 151.8 57 151.7 55.8 151.4 54.1 151 52.4 150.4 50.7 149.9 53.6 149.3 55.9 148.2 55.6 144.4 55.7 143.8 55.1 143.7 54.7 144Z" fill="#F0A98F"/><path d="M43.1 143.8C35 140.6 22.4 135.2 21 131.9 18.9 127.1 36.2 111.2 37.6 104.3 39 97.4 32.3 82.8 32.3 82.8 31.4 84.3 4.5 110.5 0.3 129.9-3.1 145.7 18.4 156.9 35.1 162.7 38.4 156.7 40.8 150.3 43.1 143.8Z" fill="#F4F4F4"/></g></g><g><path d="M76.3 100C76.3 100 76.3 100.1 76.3 100 76.3 100.1 76.3 100.1 76.3 100.2 76.3 101.7 76.3 103.2 76.3 104.6 76.3 104.6 76.3 104.6 76.3 104.6 76.3 104.6 76.3 104.6 76.3 104.6 76.3 104.6 76.3 104.6 76.3 104.6 76.3 104.6 76.3 104.6 76.3 104.6 75.1 103.8 74 103.1 72.8 102.3 72.8 102.3 72.8 102.3 72.8 102.3 73.1 102.1 73.4 101.9 73.7 101.7 74 101.5 74.3 101.3 74.6 101.1 74.9 100.9 75.2 100.7 75.4 100.5 75.7 100.4 76 100.2 76.3 100 76.3 100 76.3 100 76.3 100 77.3 100 78.2 100 79.2 100 79.5 100 79.7 100 80 100 80 100 80 100 80.1 100 80.5 100.3 80.9 100.5 81.3 100.8 81.7 101.1 82.2 101.4 82.6 101.7 82.9 101.9 83.2 102.1 83.5 102.3 83.6 102.3 83.6 102.4 83.7 102.4 83.7 102.4 80.2 104.7 80.2 104.7 80.2 104.7 80.2 104.7 80.2 104.6 80.2 103.1 80.2 101.6 80.2 100.1 80.2 100.1 80.2 100.1 80.2 100 80.2 100 80.2 100 80.2 100 78.7 100 77.5 100 76.3 100 76.3 100 76.3 100 76.3 100 76.3 100 76.3 100 76.3 100Z" fill="#777777"/><path d="M76.3 100C76.3 100 76.3 100 76.3 100 76.3 100 76.3 100 76.3 100 77.6 100 78.8 100 80 100 80 100 80 100 80 100 79.9 100.1 79.9 100.3 79.8 100.4 79.7 100.8 79.5 101.1 79.4 101.5 79.3 101.9 79.1 102.2 79 102.6 78.8 103.1 78.6 103.6 78.4 104.1 78.3 104.3 78.2 104.6 78.1 104.8 78.1 104.8 78.1 104.8 78.1 104.8 78.1 104.8 78.1 104.8 78.1 104.8 78 104.5 77.8 104.1 77.7 103.8 77.5 103.2 77.3 102.7 77.1 102.1 76.9 101.5 76.6 100.9 76.4 100.3 76.4 100.2 76.3 100.1 76.3 100Z" fill="#B30C37"/><path d="M76 107.5C75.9 107.6 75.9 107.7 75.8 107.7 75.8 107.7 75.8 107.7 75.7 107.7 75.6 107.7 75.6 107.7 75.5 107.7 75.5 107.7 75.5 107.7 75.5 107.7 75.6 107.6 75.7 107.5 75.7 107.4 75.7 107.4 75.7 107.4 75.7 107.4 75.7 107.4 75.7 107.4 75.7 107.4 75.7 107.4 75.6 107.3 75.6 107.3 75.5 107.2 75.5 107.2 75.4 107.1 75.4 107.1 75.4 107.1 75.4 107.1 75.4 107.1 75.4 107.1 75.4 107.1 75.4 107.4 75.4 107.7 75.4 108 75.4 108 75.4 108 75.4 108 75.4 108 75.4 108 75.4 108 75.3 108 75.3 108 75.2 108 75.2 108 75.2 108 75.2 108 75.2 108 75.2 108 75.2 108 75.2 107.6 75.2 107.3 75.2 106.9 75.2 106.9 75.2 106.9 75.2 106.9 75.2 106.9 75.2 106.9 75.2 106.9 75.2 106.9 75.3 106.9 75.3 106.9 75.3 106.9 75.3 106.9 75.3 106.9 75.4 107.1 75.6 107.2 75.7 107.4 75.7 107.4 75.7 107.4 75.7 107.4 75.7 107.4 75.7 107.4 75.7 107.4 75.8 107.3 76 107.1 76.1 107 76.1 107 76.1 107 76.2 107 76.2 107 76.3 107 76.3 107 76.3 107 76.3 107 76.3 107 76.3 107.2 76.3 107.5 76.3 107.7 76.3 107.8 76.3 108 76.3 108.1 76.3 108.1 76.3 108.1 76.3 108.1 76.3 108.1 76.3 108.1 76.3 108.1 76.2 108.1 76.2 108.1 76.1 108.1 76.1 108.1 76.1 108.1 76.1 108.1 76.1 108.1 76.1 108.1 76.1 108.1 76.1 107.8 76.1 107.5 76.1 107.2 76.1 107.2 76.1 107.2 76.1 107.2 76.1 107.2 76.1 107.2 76.1 107.2 76 107.3 75.9 107.4 75.8 107.5 75.8 107.5 75.8 107.5 75.8 107.5 75.9 107.6 76 107.7 76 107.8 76 107.8 76 107.8 76 107.8 76 107.8 75.9 107.8 75.9 107.8 75.8 107.8 75.8 107.8 75.8 107.7 76 107.7 76 107.6 76 107.5Z" fill="#B30C37"/><path d="M75.5 105.6C75.5 105.6 75.5 105.6 75.5 105.6 75.5 105.9 75.5 106.2 75.5 106.5 75.5 106.5 75.5 106.5 75.5 106.5 75.5 106.5 75.4 106.5 75.4 106.5 75.4 106.5 75.4 106.5 75.4 106.5 75.4 106.5 75.4 106.5 75.4 106.5 75.4 106.1 75.4 105.8 75.4 105.4 75.4 105.4 75.4 105.4 75.4 105.4 75.4 105.4 75.5 105.4 75.5 105.4 75.5 105.4 75.5 105.4 75.6 105.4 75.8 105.7 76 105.9 76.2 106.2 76.2 106.2 76.2 106.2 76.3 106.3 76.3 106.3 76.3 106.3 76.3 106.3 76.3 106 76.3 105.8 76.3 105.5 76.3 105.5 76.3 105.5 76.3 105.5 76.3 105.5 76.3 105.5 76.3 105.5 76.3 105.5 76.4 105.5 76.4 105.5 76.4 105.5 76.4 105.5 76.4 105.5 76.4 105.5 76.4 105.5 76.4 105.5 76.4 105.9 76.4 106.2 76.4 106.6 76.4 106.6 76.4 106.6 76.4 106.6 76.4 106.6 76.3 106.6 76.3 106.6 76.3 106.6 76.3 106.6 76.2 106.6 76.1 106.5 76 106.3 75.9 106.2 75.8 105.9 75.6 105.8 75.5 105.6 75.5 105.6 75.5 105.6 75.5 105.6Z" fill="#B30C37"/><path d="M78.7 107.5C78.8 107.7 79 107.9 79.1 108 79.1 108 79.1 108 79.1 108 79 108 79 108 78.9 108 78.9 108 78.9 108 78.9 108 78.8 107.8 78.7 107.7 78.6 107.5 78.6 107.5 78.6 107.5 78.6 107.5 78.6 107.5 78.5 107.5 78.5 107.5 78.5 107.5 78.5 107.5 78.5 107.5 78.5 107.6 78.5 107.8 78.5 107.9 78.5 108 78.5 108 78.4 108 78.4 108 78.3 108 78.3 108 78.3 108 78.3 108 78.3 108 78.3 108 78.3 108 78.3 108 78.3 107.6 78.3 107.3 78.3 106.9 78.3 106.9 78.3 106.9 78.3 106.9 78.3 106.9 78.3 106.9 78.3 106.9 78.3 106.9 78.4 106.9 78.4 106.9 78.5 106.9 78.6 106.9 78.7 106.9 78.8 106.9 78.9 106.9 79 107 79.2 107.1 79.2 107.3 79.1 107.5 78.8 107.4 78.8 107.4 78.7 107.5 78.7 107.5 78.7 107.5 78.7 107.5 78.7 107.5 78.7 107.5 78.7 107.5ZM78.3 107.2C78.3 107.3 78.3 107.3 78.3 107.4 78.3 107.4 78.3 107.4 78.3 107.4 78.4 107.4 78.5 107.4 78.6 107.4 78.6 107.4 78.7 107.4 78.7 107.4 78.8 107.4 78.8 107.2 78.7 107.1 78.7 107.1 78.7 107.1 78.7 107.1 78.7 107.1 78.6 107.1 78.6 107.1 78.5 107.1 78.4 107.1 78.3 107.1 78.3 107.1 78.3 107.1 78.3 107.1 78.3 107.1 78.3 107.1 78.3 107.2Z" fill="#B30C37"/><path d="M80.1 106.8C79.9 107 79.8 107.2 79.6 107.4 79.8 107.6 80 107.8 80.2 108 80.2 108 80.2 108 80.2 108 80.1 108 80.1 108 80 108 80 108 80 108 79.9 108 79.7 107.8 79.6 107.6 79.4 107.5 79.4 107.5 79.4 107.5 79.4 107.5 79.4 107.5 79.4 107.5 79.4 107.5 79.4 107.7 79.4 107.8 79.4 108 79.4 108 79.4 108 79.4 108 79.4 108 79.4 108 79.4 108 79.3 108 79.3 108 79.2 108 79.2 108 79.2 108 79.2 108 79.2 108 79.2 108 79.2 108 79.2 107.6 79.2 107.3 79.2 106.9 79.2 106.9 79.2 106.9 79.2 106.9 79.2 106.9 79.2 106.9 79.2 106.9 79.3 106.9 79.3 106.9 79.4 106.9 79.4 106.9 79.4 106.9 79.4 106.9 79.4 107.1 79.4 107.2 79.4 107.4 79.4 107.4 79.4 107.4 79.4 107.4 79.4 107.4 79.4 107.4 79.4 107.4 79.6 107.2 79.7 107.1 79.9 106.9 79.9 106.9 79.9 106.9 79.9 106.9 79.9 106.8 80 106.8 80.1 106.8 80.1 106.8 80.1 106.8 80.1 106.8Z" fill="#B30C37"/><path d="M78 108C77.9 108 77.9 108 77.8 108 77.8 108 77.8 108 77.8 108 77.8 107.9 77.7 107.8 77.7 107.8 77.7 107.8 77.7 107.8 77.7 107.7 77.7 107.7 77.7 107.7 77.6 107.7 77.5 107.7 77.3 107.7 77.2 107.7 77.2 107.7 77.1 107.7 77.1 107.7 77.1 107.7 77.1 107.7 77 107.7 77 107.8 76.9 107.9 76.9 108 76.9 108 76.9 108 76.9 108 76.8 108 76.8 108 76.7 108 76.7 108 76.7 108 76.7 108 76.9 107.6 77 107.3 77.2 106.9 77.2 106.9 77.2 106.9 77.3 106.9 77.3 106.9 77.4 106.9 77.4 106.9 77.4 106.9 77.4 106.9 77.4 106.9 77.4 107 77.5 107.1 77.5 107.2 77.7 107.4 77.8 107.7 78 108 78 108 78 108 78 108ZM77.5 107.5C77.5 107.5 77.3 107 77.3 107 77.3 107.2 77.2 107.4 77.1 107.5 77.3 107.5 77.4 107.5 77.5 107.5Z" fill="#B30C37"/><path d="M80.3 107.7C80.3 107.7 80.3 107.8 80.3 107.7 80.4 107.8 80.5 107.8 80.6 107.8 80.6 107.8 80.7 107.8 80.7 107.8 80.8 107.8 80.8 107.7 80.8 107.6 80.8 107.6 80.7 107.5 80.7 107.5 80.6 107.5 80.6 107.4 80.5 107.4 80.4 107.4 80.4 107.3 80.3 107.3 80.2 107.2 80.2 107.1 80.3 107 80.3 106.9 80.4 106.9 80.5 106.9 80.6 106.9 80.7 106.9 80.8 106.9 80.9 106.9 80.9 106.9 81 107 81 107 81 107 81 107 81 107.1 81 107.1 80.9 107.2 80.9 107.2 80.9 107.2 80.9 107.2 80.8 107.2 80.8 107.1 80.7 107.1 80.7 107.1 80.6 107.1 80.6 107.1 80.5 107.1 80.5 107.2 80.5 107.3 80.5 107.3 80.5 107.4 80.6 107.4 80.6 107.4 80.7 107.4 80.7 107.5 80.8 107.5 80.8 107.6 80.9 107.6 81 107.6 81 107.7 81 107.7 81.1 107.9 81 108.1 80.8 108.1 80.6 108.1 80.5 108.1 80.3 108 80.3 108 80.3 108 80.3 108 80.2 107.8 80.3 107.8 80.3 107.7Z" fill="#B30C37"/><path d="M77.8 105.9C77.8 105.7 77.8 105.5 77.8 105.4 77.8 105.4 77.8 105.4 77.8 105.4 77.8 105.4 77.8 105.4 77.8 105.4 77.8 105.4 77.8 105.4 77.8 105.4 78 105.4 78.3 105.4 78.5 105.4 78.5 105.4 78.5 105.4 78.5 105.4 78.5 105.4 78.5 105.4 78.5 105.5 78.5 105.5 78.5 105.5 78.5 105.5 78.5 105.5 78.4 105.5 78.4 105.5 78.3 105.5 78.1 105.5 78 105.5 78 105.5 78 105.5 78 105.5 78 105.6 78 105.7 78 105.8 78 105.8 78 105.8 78 105.8 78.1 105.8 78.2 105.8 78.4 105.8 78.4 105.8 78.4 105.8 78.4 105.8 78.4 105.8 78.4 105.8 78.4 105.8 78.4 105.8 78.4 105.9 78.4 105.9 78.4 105.9 78.4 105.9 78.4 105.9 78.3 105.9 78.3 105.9 78.2 105.9 78.1 105.9 78.1 105.9 78 105.9 78 105.9 78 105.9 78 105.9 78 106 78 106.1 78 106.2 78 106.2 78 106.2 78 106.2 78.2 106.2 78.3 106.2 78.5 106.2 78.6 106.2 78.5 106.2 78.5 106.2 78.5 106.2 78.5 106.3 78.5 106.3 78.5 106.3 78.5 106.3 78.5 106.3 78.5 106.3 78.5 106.3 78.5 106.3 78.3 106.3 78 106.3 77.8 106.3 77.8 106.3 77.8 106.3 77.8 106.3 77.8 106.3 77.8 106.1 77.8 105.9Z" fill="#B30C37"/><path d="M80.4 105.3C80.6 105.3 80.7 105.3 80.9 105.3 80.9 105.3 80.9 105.3 80.9 105.3 80.9 105.3 80.9 105.3 80.9 105.3 80.9 105.3 80.9 105.4 80.9 105.4 80.9 105.4 80.9 105.4 80.9 105.4 80.8 105.4 80.8 105.4 80.7 105.4 80.6 105.4 80.6 105.4 80.5 105.4 80.5 105.4 80.5 105.4 80.5 105.4 80.5 105.6 80.5 105.9 80.5 106.1 80.5 106.2 80.5 106.3 80.5 106.4 80.5 106.4 80.5 106.4 80.5 106.4 80.5 106.4 80.4 106.4 80.4 106.4 80.4 106.4 80.4 106.4 80.4 106.4 80.4 106.4 80.4 106.4 80.4 106.4 80.4 106.1 80.4 105.8 80.4 105.5 80.4 105.5 80.4 105.5 80.4 105.5 80.3 105.5 80.2 105.5 80 105.5 80 105.5 80 105.5 80 105.5 80 105.5 80 105.4 80 105.4 80 105.4 80 105.4 80 105.4 80 105.4 80 105.4 80 105.4 80 105.3 80.2 105.3 80.4 105.3Z" fill="#B30C37"/></g></g></svg>