<svg width="299.15" height="287.29" viewBox="0 0 299.15 287.29" xmlns="http://www.w3.org/2000/svg" xmlns:xlink="http://www.w3.org/1999/xlink" xml:space="preserve" overflow="visible"><defs></defs><g id="XMLID_1_"><g id="XMLID_65_" opacity="0.3"><path d="M299.15 214.66 299.14 214.63C299.14 214.63 299.11 214.69 299.07 214.77 297.87 216.47 281.34 238.98 246.66 245.07 206.7 252.09 183.86 242.38 183.86 242.38L183.86 242.41C183.6 242.14 183.29 241.8 182.97 241.42 172.04 207.85 152.3 205.62 147.49 206.59 144.54 207.18 142.67 210.36 141.44 214.7L128.77 177.85 193.54 155.55 193.54 155.43C199.61 152.72 204.48 148.01 207.43 141.96 210.76 135.14 211.23 127.42 208.76 120.24 206.47 113.6 202.29 109.76 197.54 105.82L98.18 19.52C91.97 13.42 84.67 10.2 77.05 10.2 74 10.2 70.92 10.73 67.9 11.77 57.82 15.24 50.76 23.84 49 34.78L22.88 168.25C21.65 173.47 21.93 178.91 23.68 183.98 27.63 195.45 38.43 203.16 50.55 203.16 53.24 203.16 55.9 202.78 58.5 202.02L58.53 202.04 119.86 180.92 135.16 225.44C132.72 225.64 130.06 226.09 127.27 226.82 116.45 229.64 110.89 234.47 112.78 240.41 114.13 244.67 116.55 245.45 118.26 245.4 115.3 248.02 114.02 250.73 114.65 253.22 116.03 258.69 123.83 261.47 127 260.6 127 260.6 127.18 260.32 127.57 259.86 126.58 261.91 126.23 263.8 126.42 264.69 127.44 269.53 129.33 271.27 135.04 272.71 137.87 273.42 145.15 273.16 152.25 272.39L157.87 287.28 166.76 284.17 161.79 270.98C162.45 270.85 163.09 270.72 163.68 270.58 171.43 268.81 179.43 265.3 183.72 258.65 194.61 263.98 232.97 270.39 261.16 262.48 281.35 256.81 293.01 249.11 299.15 243.78L299.15 240.52 299.15 214.66 299.15 214.66 299.15 214.66Z" id="XMLID_66_" fill="#222221"/></g><g id="XMLID_2_"><g id="XMLID_50_"><path d="M155.52 245.46 115.12 127.93 106.19 130.95 146.39 247.88Z" id="XMLID_64_" fill="#353168"/><g id="XMLID_51_"><path d="M50.55 192.95C38.43 192.95 27.63 185.24 23.68 173.77 21.93 168.7 21.66 163.26 22.88 158.04L48.99 24.57C50.75 13.63 57.82 5.03 67.89 1.56 70.91 0.53 73.98 0 77.04 0 84.66 0 91.96 3.22 98.17 9.32L197.53 95.62C202.29 99.56 206.47 103.4 208.75 110.04 211.22 117.22 210.75 124.93 207.42 131.76 204.47 137.81 199.59 142.51 193.53 145.23L193.53 145.35 58.53 191.84 58.5 191.81C55.9 192.57 53.24 192.95 50.55 192.95Z" id="XMLID_63_" fill="#F0CC32"/><path d="M195.12 98.39 95.67 12.02C88.27 4.7 78.83 1.68 69.08 5.04 59.91 8.2 54.05 16.04 52.59 25.22L26.46 158.82C25.41 163.23 25.56 167.98 27.14 172.58 31.59 185.51 45.68 192.38 58.61 187.93 58.86 187.84 59.11 187.75 59.36 187.65L59.38 187.67 189.87 142.74 189.87 142.74C189.89 142.73 189.92 142.72 189.94 142.72 202.87 138.27 209.74 124.18 205.29 111.25 203.38 105.71 199.96 102.39 195.12 98.39Z" id="XMLID_62_" fill="#353168"/><path d="M56.09 180.62C47.21 183.68 37.5 178.94 34.44 170.06 33.39 167.01 33.23 163.73 33.97 160.6L59.23 31.17 60.26 26.23C61.58 19.53 65.46 14.46 71.6 12.34 78.13 10.09 84.06 11.75 89.89 17.15L190.99 104.93C193.39 107.08 196.7 110.07 197.98 113.77 201.03 122.61 196.34 132.28 187.53 135.38 187.52 135.37 56.21 180.58 56.09 180.62Z" id="XMLID_60_" fill="#EAB331"/><path d="M182.86 109.69 182.86 109.69 71.62 12.4 43.85 157.53C43.32 159.68 43.37 161.99 44.15 164.24 46.29 170.46 53.07 173.77 59.29 171.63 59.45 171.57 59.61 171.5 59.77 171.44L59.79 171.46 178.46 130.6 178.47 130.55C178.77 130.47 179.07 130.39 179.36 130.29 185.58 128.15 188.88 121.37 186.74 115.15 185.97 112.91 184.59 111.05 182.86 109.69Z" id="XMLID_59_" fill="#F0CC32"/><path d="M60.21 179.16C53.17 181.21 45.69 177.41 43.27 170.4 42.15 167.14 42.32 163.75 43.51 160.78 43.47 159.67 43.59 158.58 43.85 157.53L71.61 12.43 71.58 12.34C65.45 14.46 61.57 19.53 60.25 26.22L59.22 31.16 33.98 160.6C33.23 163.73 33.4 167.01 34.45 170.06 37.51 178.94 47.22 183.67 56.1 180.62 56.11 180.62 57.59 180.11 60.23 179.2L60.21 179.16Z" id="XMLID_57_" fill="#F6E434"/><path d="M117.2 143.27C110.24 145.67 102.66 141.96 100.26 135 97.87 128.04 101.57 120.46 108.53 118.07 115.5 115.68 123.07 119.38 125.47 126.34 127.86 133.29 124.16 140.88 117.2 143.27ZM97.24 43.58C95.23 37.9 89.93 41.13 82.83 43.56 75.72 46.01 69.52 46.77 71.49 52.5 71.62 52.89 71.79 53.26 71.97 53.63L94.96 104.75C96.49 109.2 101.33 111.56 105.77 110.04 110.22 108.51 112.58 103.67 111.05 99.22L97.72 44.65C97.59 44.26 97.42 43.91 97.24 43.58Z" id="XMLID_53_" fill="#353168"/></g></g><g id="XMLID_28_"><path d="M299.15 204.45C299.15 204.45 282.7 228.53 246.66 234.86 206.7 241.88 183.86 232.17 183.86 232.17L182.16 247.59C190.34 253.04 231.42 260.63 261.16 252.28 281.35 246.61 293.01 238.91 299.15 233.58L299.15 204.45Z" id="XMLID_49_" fill="#353168"/><path d="M184.7 233.03C184.7 233.03 182.32 230.94 181.17 228.54 176 217.74 155.75 202.26 140.88 221.76 130.74 235.05 140.89 240.31 134.63 242.78 128.36 245.26 125.99 252.45 126.42 254.48 127.44 259.32 129.33 261.06 135.04 262.5 139.55 263.64 155.29 262.3 163.68 260.38 172.07 258.46 180.76 254.52 184.72 246.74" id="XMLID_43_" fill="#353168"/><path d="M184.82 233.47C184.82 233.47 182.75 232.58 179.33 226.48 173.3 215.73 155.7 203.56 139.5 218.25 134.24 223.02 135.06 228.38 135.2 232.78 135.38 238.23 135.98 243.83 134.86 251.73 135.63 255.63 130.13 258.93 134.35 260.03 138.57 261.13 154.54 260.8 162.91 258.82 171.28 256.83 181.02 252.32 185.31 245.77" id="XMLID_39_" fill="#F2D5B7"/><path d="M112.79 230.2C110.91 224.26 116.46 219.43 127.28 216.61 138.1 213.79 147.07 215.1 148.51 219.08 150.59 224.8 147.3 227.75 147.3 227.75 147.3 227.75 140.89 226.45 132.27 229.16 123.65 231.87 120.19 234.76 120.19 234.76 120.19 234.76 115.03 237.26 112.79 230.2Z" id="XMLID_38_" fill="#353168"/><path d="M160.82 231.98C158.71 229 150.57 222.47 135.79 226.74 121.01 231.01 113.26 237.55 114.65 243.02 116.03 248.49 123.83 251.27 127 250.4 127 250.4 130.78 244.37 143.8 241.07 156.83 237.77 162.1 239.87 162.1 239.87 162.1 239.87 164.91 237.77 160.82 231.98Z" id="XMLID_37_" fill="#353168"/><path d="M115.5 229.23C113.96 224.46 119.18 221.17 129.15 218.56 139.11 215.94 146.69 217.51 147.58 220.79 148.47 224.07 147.1 226.21 147.1 226.21 147.1 226.21 141.28 225.35 133.33 227.8 125.38 230.26 122.13 232.71 122.13 232.71 122.13 232.71 117.33 234.9 115.5 229.23Z" id="XMLID_36_" fill="#F2D5B7"/><path d="M159.57 234.27C158.19 231.66 150.5 226.85 136.87 230.75 123.24 234.66 116.86 238.55 117.96 242.95 119.06 247.35 125.3 249.17 128.22 248.38 128.22 248.38 130.3 242.96 142.32 239.99 156.44 236.5 159.42 238.03 159.42 238.03 159.42 238.03 161.2 237.35 159.57 234.27Z" id="XMLID_35_" fill="#F2D5B7"/><path d="M136.49 255.6C136.49 255.6 142.09 257.2 150.35 255.18 159.64 252.91 166.91 249.49 166.01 244.43 164.82 237.68 156.57 237.51 146.17 239.25 135.77 240.99 127.71 249.71 129.07 255.93 129.8 259.26 133.74 262.71 137.28 262.82" id="XMLID_34_" fill="#353168"/><path d="M184.34 235.73C173.78 197.82 152.5 195.37 147.49 196.39 142.48 197.4 140.55 205.86 139.66 214.92 138.78 223.98 141.06 234.1 147.4 233.62 150.62 233.38 152.85 231.5 154.23 226.13 154.23 226.13 160.17 234.99 167.65 234.04" id="XMLID_33_" fill="#353168"/><path d="M185.29 237.41C185.29 237.41 176.85 217.37 167.65 208.88 157.46 199.48 150.95 198.08 148.42 199.13 145.88 200.17 140.98 218.44 143.11 225.62 145.24 232.8 149.23 231.89 151.24 227.64 153.26 223.39 156.48 213.87 156.68 209.41 156.68 209.41 157.65 214.9 155.09 223.55 155.09 223.55 158.98 232.77 168.26 234.47" id="XMLID_31_" fill="#F2D5B7"/><path d="M141.77 256.34C141.77 256.34 147.03 254.97 150.56 253.79 161.02 250.3 163.67 247.15 163.22 244.24 162.44 239.2 154.74 239.64 145 241.58 134.68 243.63 127.76 249.96 128.8 254.97 129.36 257.66 133.51 261.01 139.22 260.62" id="XMLID_30_" fill="#F2D5B7"/><path d="M299.15 204.45 299.14 204.42C299.14 204.42 286.99 229.62 248.88 236.38 199.99 245.06 184.02 232.82 184.02 232.82L180.3 246.35C188.1 250.4 229.33 258.17 259.7 249.9 279.26 244.57 292.32 235.86 299.14 230.32L299.14 204.45Z" id="XMLID_29_" fill="#F2D5B7"/></g><g id="XMLID_25_"><path d="M15.19 164.03C15.19 164.03 15.16 164.98 15.24 166.63 15.32 168.28 15.48 170.62 15.94 173.37 16.15 174.75 16.49 176.22 16.85 177.76 17.25 179.29 17.75 180.88 18.35 182.48 18.97 184.08 19.71 185.68 20.59 187.23 21.44 188.8 22.48 190.28 23.61 191.68 24.19 192.36 24.75 193.08 25.4 193.7 25.72 194.02 26.02 194.35 26.35 194.65L27.36 195.53C28.71 196.68 30.13 197.72 31.58 198.61 33.05 199.47 34.51 200.27 35.96 200.9 36.67 201.26 37.4 201.5 38.09 201.77 38.79 202.04 39.45 202.33 40.12 202.52 41.45 202.93 42.67 203.35 43.78 203.61 44.89 203.89 45.85 204.17 46.66 204.32 48.27 204.66 49.2 204.88 49.2 204.88 49.2 204.88 48.25 204.89 46.59 204.86 45.75 204.87 44.75 204.77 43.59 204.65 43.01 204.58 42.39 204.55 41.74 204.43 41.09 204.31 40.42 204.18 39.71 204.05 38.99 203.94 38.27 203.72 37.52 203.53 36.77 203.32 35.98 203.12 35.2 202.82 33.62 202.28 31.99 201.59 30.37 200.72 28.77 199.82 27.13 198.83 25.65 197.57L24.53 196.63C24.17 196.3 23.83 195.95 23.48 195.6 22.76 194.93 22.13 194.16 21.48 193.42 20.26 191.87 19.15 190.23 18.26 188.51 17.32 186.82 16.66 185.02 16.07 183.29 15.49 181.55 15.13 179.82 14.84 178.18 14.57 176.54 14.41 174.98 14.37 173.53 14.29 172.09 14.33 170.77 14.4 169.6 14.45 168.43 14.59 167.43 14.7 166.6 14.94 164.95 15.19 164.03 15.19 164.03Z" id="XMLID_27_" fill="#353168"/></g><g id="XMLID_22_"><path d="M3.32 155.18C3.32 155.18 3.03 156.5 2.69 158.82 2.35 161.14 1.97 164.47 1.88 168.45 1.84 170.44 1.89 172.59 2.06 174.85 2.24 177.11 2.58 179.47 3.1 181.86 3.62 184.25 4.41 186.65 5.4 188.99 6.41 191.32 7.7 193.57 9.26 195.61 9.66 196.11 10.05 196.62 10.46 197.11L11.72 198.5C12.69 199.41 13.64 200.39 14.61 201.22 16.54 202.83 18.51 204.46 20.62 205.69 22.69 206.99 24.82 208.04 26.89 208.89 27.94 209.3 28.96 209.68 29.98 209.97 30.98 210.32 31.99 210.54 32.95 210.79 34.88 211.21 36.68 211.52 38.29 211.69 39.9 211.88 41.32 211.96 42.49 212.01 44.83 212.11 46.18 212.13 46.18 212.13 46.18 212.13 45.85 212.17 45.22 212.25 44.59 212.33 43.67 212.46 42.5 212.55 41.32 212.64 39.88 212.76 38.23 212.73 36.57 212.74 34.7 212.62 32.66 212.33 30.63 212.03 28.43 211.57 26.19 210.8 25.06 210.43 23.93 209.97 22.78 209.49 21.66 208.95 20.49 208.43 19.38 207.75 18.82 207.42 18.25 207.11 17.69 206.76 17.15 206.39 16.6 206.02 16.05 205.64 14.92 204.93 13.9 204 12.82 203.15 11.78 202.27 10.86 201.34 9.87 200.43L8.41 198.86C7.95 198.33 7.52 197.78 7.08 197.23 5.4 194.98 4.02 192.52 2.97 189.99 1.9 187.46 1.22 184.84 0.74 182.3 0.26 179.76 0.07 177.26 0.03 174.91-0.02 172.56 0.11 170.34 0.33 168.31 0.75 164.25 1.54 160.94 2.18 158.67 2.81 156.43 3.32 155.18 3.32 155.18Z" id="XMLID_24_" fill="#353168"/></g><g id="XMLID_16_"><path d="M208.18 91.38C208.18 91.38 208.39 91.55 208.79 91.87 209.18 92.2 209.75 92.67 210.44 93.33 211.82 94.63 213.72 96.6 215.65 99.25 216.13 99.92 216.64 100.61 217.11 101.36 217.35 101.74 217.59 102.12 217.84 102.51 218.06 102.91 218.29 103.32 218.52 103.74 219.45 105.39 220.27 107.24 220.95 109.22 221.27 110.22 221.55 111.25 221.81 112.3 221.91 112.84 222 113.37 222.1 113.92L222.24 114.74 222.3 115.57C222.5 117.85 222.4 119.93 222.29 122.19 222.08 124.39 221.8 126.59 221.31 128.72 220.83 130.85 220.16 132.92 219.32 134.83 218.54 136.77 217.49 138.51 216.46 140.11 215.89 140.88 215.37 141.65 214.8 142.34 214.2 143.01 213.66 143.68 213.08 144.27 212.49 144.85 211.93 145.4 211.39 145.92 210.81 146.4 210.26 146.85 209.75 147.27 208.72 148.11 207.72 148.72 206.96 149.27 205.32 150.24 204.38 150.76 204.38 150.76 204.38 150.76 205.2 150.04 206.63 148.84 207.3 148.18 208.16 147.43 209.05 146.49 209.49 146.02 209.96 145.51 210.45 144.98 210.91 144.42 211.39 143.84 211.89 143.23 212.38 142.61 212.83 141.92 213.32 141.24 213.79 140.54 214.23 139.78 214.71 139.03 215.56 137.45 216.4 135.76 217.06 133.93 217.78 132.12 218.25 130.15 218.7 128.16 219.13 126.16 219.36 124.07 219.54 121.99 219.67 119.95 219.81 117.73 219.65 115.78L219.61 115.03 219.5 114.29C219.43 113.79 219.37 113.3 219.3 112.81 219.11 111.84 218.89 110.88 218.64 109.94 218.07 108.09 217.46 106.29 216.69 104.66 216.5 104.25 216.32 103.84 216.13 103.45 215.93 103.06 215.73 102.68 215.53 102.3 215.16 101.53 214.74 100.82 214.34 100.13 213.54 98.76 212.74 97.53 212.02 96.45 211.28 95.38 210.61 94.46 210.04 93.71 209.46 92.97 209.01 92.38 208.69 91.99 208.35 91.59 208.18 91.38 208.18 91.38Z" id="XMLID_21_" fill="#353168"/></g><g id="XMLID_6_"><path d="M217.84 162.62C217.84 162.62 218.09 162.38 218.53 161.92 218.97 161.46 219.59 160.75 220.37 159.86 220.75 159.4 221.17 158.9 221.62 158.34 222.06 157.78 222.53 157.17 223.04 156.52 223.52 155.85 224.03 155.14 224.56 154.39 225.06 153.61 225.62 152.83 226.16 151.97 227.22 150.25 228.29 148.35 229.33 146.3 230.34 144.23 231.28 142 232.11 139.65 232.94 137.3 233.59 134.8 234.1 132.25 234.62 129.7 234.88 127.03 235.01 124.42 235.04 123.06 235.13 121.68 235.06 120.39 235.04 119.73 235.03 119.08 235.01 118.43 234.96 117.77 234.91 117.12 234.86 116.46 234.82 115.81 234.76 115.16 234.66 114.52 234.58 113.88 234.5 113.23 234.43 112.6 234.21 111.34 234.02 110.08 233.74 108.87 233.46 107.65 233.17 106.46 232.82 105.31 232.52 104.14 232.11 103.04 231.74 101.96 230.93 99.82 230.07 97.82 229.14 96.04 228.68 95.15 228.22 94.3 227.74 93.52 227.29 92.72 226.82 91.98 226.36 91.3 225.92 90.6 225.47 89.98 225.05 89.41 224.64 88.83 224.25 88.3 223.87 87.84 223.14 86.9 222.55 86.18 222.12 85.7 221.7 85.21 221.48 84.95 221.48 84.95 221.48 84.95 221.74 85.17 222.22 85.59 222.71 86 223.43 86.61 224.27 87.47 224.71 87.88 225.17 88.36 225.65 88.9 226.15 89.43 226.67 90.01 227.19 90.67 227.73 91.31 228.29 92.02 228.83 92.79 229.41 93.54 229.94 94.38 230.49 95.26 231.07 96.12 231.56 97.09 232.13 98.06 232.64 99.06 233.15 100.1 233.63 101.2 234.57 103.39 235.45 105.77 236.08 108.31 236.42 109.57 236.67 110.88 236.94 112.19 237.14 113.52 237.41 114.86 237.49 116.23 237.55 116.91 237.61 117.6 237.67 118.29 237.7 118.99 237.72 119.68 237.75 120.38 237.83 121.8 237.76 123.14 237.74 124.5 237.57 127.33 237.26 130.09 236.68 132.79 236.13 135.49 235.29 138.07 234.36 140.5 233.43 142.94 232.29 145.19 231.12 147.27 230.55 148.31 229.9 149.28 229.31 150.23 228.7 151.16 228.04 152.03 227.44 152.87 226.82 153.7 226.19 154.47 225.6 155.2 224.98 155.9 224.38 156.57 223.83 157.2 223.25 157.8 222.7 158.36 222.2 158.89 221.67 159.39 221.19 159.84 220.75 160.25 219.86 161.05 219.12 161.64 218.62 162.04 218.11 162.42 217.84 162.62 217.84 162.62Z" id="XMLID_14_" fill="#353168"/></g><path d="M149.43 254.7 157.87 277.08 166.76 273.97 158.35 251.66Z" id="XMLID_4_" fill="#353168"/></g></g></svg>