<svg width="32.26" height="32.26" viewBox="0 0 32.26 32.26" xmlns="http://www.w3.org/2000/svg" xmlns:xlink="http://www.w3.org/1999/xlink" xml:space="preserve" overflow="visible"><defs></defs><path d="M32.22 17.34C32.01 20.12 31.11 22.67 29.7 24.85 26.61 29.66 21.04 32.67 14.92 32.21 8.8 31.75 3.75 27.94 1.41 22.73 0.34 20.36-0.17 17.7 0.04 14.92 0.72 6.03 8.46-0.62 17.34 0.05 26.23 0.72 32.89 8.46 32.22 17.34Z" fill="#407BFF" opacity="0.6"/><path d="M28.17 24.08C25.42 28.35 20.47 31.03 15.04 30.62 9.61 30.21 5.11 26.82 3.04 22.19 6.82 20.06 11.24 18.98 15.89 19.33 20.54 19.67 24.75 21.4 28.17 24.08Z" fill="#FFFFFF"/><ellipse cx="16.49" cy="11.43" rx="6.39" ry="6.39" fill="#FFFFFF" transform="matrix(0.7583 -0.6519 0.6519 0.7583 -3.4675 13.5106)"/></svg>