<svg width="1290.53" height="1213.28" viewBox="0 0 1290.53 1213.28" xmlns="http://www.w3.org/2000/svg" xmlns:xlink="http://www.w3.org/1999/xlink" xml:space="preserve" overflow="visible"><defs></defs><g><g><g><path d="M1179.85 489.28 1179.85 462.28 643.38 19.16C612.14-6.49 565.25-6.38 534.14 19.42L0 462.06 0.08 489.28 1179.85 489.28Z" fill="#FCCF5C"/><path d="M589.9 1212.63 0 1212.63 0 462.06 1180.07 462.06 1180.07 1212.63 589.9 1212.63" fill="#FCC25C"/></g><g><path d="M1023.37 939.19 156.7 939.19C145.67 939.19 136.72 930.24 136.72 919.21L136.72 85.84C136.72 74.81 145.67 65.86 156.7 65.86L1023.38 65.86C1034.41 65.86 1043.36 74.81 1043.36 85.84L1043.36 919.21C1043.35 930.24 1034.41 939.19 1023.37 939.19Z" fill="#FFFFFF"/><g><rect x="199.92" y="135.72" width="697.26" height="16.55" fill="#CCCCCC"/><rect x="199.92" y="593.86" width="697.26" height="16.55" fill="#CCCCCC"/><rect x="199.92" y="410.06" width="697.26" height="16.55" fill="#CCCCCC"/><g><rect x="199.92" y="181.44" width="302.21" height="16.55" fill="#CCCCCC"/><rect x="515.96" y="181.44" width="329.87" height="16.55" fill="#CCCCCC"/></g><g><rect x="567.32" y="639.59" width="329.87" height="16.55" fill="#CCCCCC"/><rect x="199.92" y="639.74" width="329.87" height="16.55" fill="#CCCCCC"/></g><g><rect x="199.92" y="318.61" width="329.87" height="16.55" fill="#CCCCCC"/><rect x="547.57" y="318.61" width="440.48" height="16.55" fill="#CCCCCC"/></g><g><rect x="673.98" y="685.46" width="302.21" height="16.55" fill="#CCCCCC"/><rect x="199.92" y="685.46" width="440.48" height="16.55" fill="#CCCCCC"/></g><g><rect x="642.38" y="227.17" width="329.87" height="16.55" fill="#CCCCCC"/><rect x="199.92" y="227.17" width="418.75" height="16.55" fill="#CCCCCC"/></g><g><rect x="431.03" y="272.89" width="418.75" height="16.55" fill="#CCCCCC"/><rect x="199.92" y="272.89" width="209.38" height="16.55" fill="#CCCCCC"/></g><g><rect x="199.92" y="501.5" width="418.75" height="16.55" fill="#CCCCCC"/><rect x="648.3" y="501.5" width="209.38" height="16.55" fill="#CCCCCC"/></g><g><rect x="199.92" y="547.22" width="329.87" height="16.55" fill="#CCCCCC"/><rect x="559.42" y="548.14" width="209.38" height="16.55" fill="#CCCCCC"/><rect x="796.45" y="547.22" width="209.38" height="16.55" fill="#CCCCCC"/></g><g><rect x="199.92" y="364.33" width="302.21" height="16.55" fill="#CCCCCC"/><rect x="786.57" y="364.33" width="209.38" height="16.55" fill="#CCCCCC"/><rect x="527.82" y="364.33" width="240.98" height="16.55" fill="#CCCCCC"/></g><g><rect x="468.56" y="455.78" width="302.21" height="16.55" fill="#CCCCCC"/><rect x="796.45" y="455.78" width="154.07" height="16.55" fill="#CCCCCC"/><rect x="199.92" y="455.78" width="240.98" height="16.55" fill="#CCCCCC"/></g></g></g><path d="M1180.3 1213.28 0 462.06 0 1212.2Z" fill="#F9B74B"/><path d="M0.85 1212.2 1180.07 462.06 1180.07 1213.28Z" fill="#F9B74B"/><g><path d="M1180.07 1212.63 0 1212.63 590.42 706.78Z" opacity="0.08"/><path d="M590.32 726.2 0.58 1212.63 1180.07 1212.63Z" fill="#F2A330"/></g></g><g><circle cx="1148.85" cy="501.8" r="141.68" fill="#F66B2A"/><g><g><g><path d="M1218.8 537.16 1212.96 528.69C1203.31 514.68 1198.15 498.07 1198.15 481.05L1198.15 479.83C1198.15 456.48 1181.86 436.95 1160.03 431.95L1160.03 413.88C1160.03 407.56 1154.91 402.44 1148.59 402.44 1142.27 402.44 1137.15 407.56 1137.15 413.88L1137.15 432.14C1115.74 437.45 1099.88 456.78 1099.88 479.83L1099.88 479.83C1099.88 496.84 1094.71 513.45 1085.06 527.47L1078.38 537.17C1076.84 539.41 1078.44 542.46 1081.16 542.46L1216.03 542.46C1218.73 542.45 1220.34 539.4 1218.8 537.16Z" fill="#FFFFFF"/><path d="M1126.86 550.53C1126.7 551.6 1126.59 552.69 1126.59 553.8 1126.59 565.7 1136.23 575.34 1148.13 575.34 1160.03 575.34 1169.67 565.7 1169.67 553.8 1169.67 552.68 1169.56 551.6 1169.4 550.53L1126.86 550.53Z" fill="#FFFFFF"/></g></g></g></g></g></svg>