<svg width="127.9" height="309.3" viewBox="0 0 127.9 309.3" xmlns="http://www.w3.org/2000/svg" xmlns:xlink="http://www.w3.org/1999/xlink" overflow="visible"><defs></defs><g><path d="M88.5 81.6C88.5 81.6 119.1 126.3 113.9 138.3 108.7 150.4 99.4 144.5 99.4 144.5L81.1 102C81.1 102.1 84.8 84.2 88.5 81.6Z" fill="#F4F4F4"/><g><g><path d="M88.5 81.6C88.5 81.6 57.5 75.8 28.1 80.8 28.1 80.8 34.7 136.9 37 148.9 37 148.9 60.2 154.7 80.4 148.5 80.4 148.6 88.9 92.4 88.5 81.6Z" fill="#F4F4F4"/><path d="M49 78C49 83.2 54.6 87.4 59.8 87.4L59.8 87.4C64.9 87.4 70.6 83.2 70.6 78L70.6 66.2C70.6 61 65 56.8 59.8 56.8L59.8 56.8C54.6 56.8 49 61 49 66.2L49 78Z" fill="#D8826C"/><g><path d="M57.7 94.8C57.7 95.5 58.3 96.1 59 96.1 59.7 96.1 60.3 95.5 60.3 94.8 60.3 94.1 59.7 93.5 59 93.5 58.3 93.4 57.7 94 57.7 94.8Z" fill="#E8E9EA"/><path d="M57.7 108.6C57.7 109.3 58.3 109.9 59 109.9 59.7 109.9 60.3 109.3 60.3 108.6 60.3 107.9 59.7 107.3 59 107.3 58.3 107.3 57.7 107.9 57.7 108.6Z" fill="#E8E9EA"/><path d="M57.8 136.4C57.8 137.1 58.4 137.7 59.1 137.7 59.8 137.7 60.4 137.1 60.4 136.4 60.4 135.7 59.8 135.1 59.1 135.1 58.4 135.1 57.8 135.7 57.8 136.4Z" fill="#E8E9EA"/><path d="M57.7 122.5C57.7 123.2 58.3 123.8 59 123.8 59.7 123.8 60.3 123.2 60.3 122.5 60.3 121.8 59.7 121.2 59 121.2 58.3 121.1 57.7 121.7 57.7 122.5Z" fill="#E8E9EA"/></g><g><path d="M68.4 72.3 75.8 80 69.6 96.3 59.1 87.4C59.1 87.4 67.2 78.9 68.4 72.3Z" fill="#E8E9EA"/><path d="M49.8 72.3 42.4 80 48.6 96.3 59.1 87.4C59.1 87.4 51 78.9 49.8 72.3Z" fill="#E8E9EA"/></g></g><g><g><path d="M80.9 51.9C81 59.3 73.1 65.2 67.9 68 62.7 70.8 58.1 69.9 58.1 69.9 37.4 65.2 38.8 55.3 37.7 47.2 37.1 43.2 36.6 35.7 38.4 26.4 38.6 25.1 39 24 39.5 23 42.7 16.3 50.3 13.7 50.3 13.7 54.8 12.1 60 11.8 64.7 12.6 71.5 13.8 76.8 17.4 78.6 24.3 79.2 26.5 79.5 28.8 79.7 31.1 80.3 35.8 80.6 40.6 80.8 45.3 80.9 47.5 80.9 49.7 80.9 51.9Z" fill="#F5AE94"/></g><path d="M59.2 31.3C59.2 31.3 57.6 29.9 57.7 35.3 57.8 40.7 58.4 46.4 58.4 46.4 58.4 46.4 54.7 44.5 56.1 47.5 56.9 49.1 58.4 49.8 60.1 50.1 61.5 50.4 62.5 49.8 63.4 48.9 63.8 48.5 65.9 46.1 65.1 45.4 64.7 45.1 62.9 46 62.4 46.2 62.2 46.1 61.8 29.9 59.2 31.3Z" fill="#DD876C"/><path d="M65.4 27.5C65.4 27.5 74.8 25.6 77.7 32.5 77.7 32.5 67.2 29.3 65.2 30.9L65.4 27.5Z" fill="#0D0D0C"/><path d="M54.1 28.3C54.1 28.3 44.8 25.8 41.5 32.5 41.5 32.5 52.2 30 54.1 31.7L54.1 28.3Z" fill="#0D0D0C"/><g><path d="M43.9 39.9C44.1 42.6 46.6 44.6 49.6 44.4 52.6 44.2 54.9 41.8 54.7 39.1 54.5 36.4 52 34.4 49 34.6 46 34.9 43.7 37.2 43.9 39.9Z" fill="#E8E9EA"/><g><path d="M53.5 39.2C53.7 41.6 52.3 43.6 50.4 43.8 48.5 43.9 46.9 42.1 46.7 39.7 46.5 37.3 47.9 35.3 49.8 35.1 51.7 34.9 53.3 36.8 53.5 39.2Z" fill="#5C8696"/><path d="M52.5 39.2C52.6 40.9 51.6 42.4 50.3 42.4 49 42.5 47.8 41.2 47.7 39.5 47.6 37.8 48.6 36.4 49.9 36.3 51.2 36.2 52.4 37.5 52.5 39.2Z" fill="#0D0D0C"/><path d="M52.4 36.3C52.4 36.8 51.9 37.2 51.2 37.2 50.5 37.2 49.9 36.9 49.9 36.4 49.9 35.9 50.4 35.5 51.1 35.5 51.8 35.5 52.4 35.8 52.4 36.3Z" fill="#E8E9EA"/></g></g><g><path d="M65.3 39.9C65.5 42.6 68 44.6 71 44.4 74 44.2 76.3 41.8 76.1 39.1 75.9 36.4 73.4 34.4 70.4 34.6 67.4 34.9 65.1 37.2 65.3 39.9Z" fill="#E8E9EA"/><g><path d="M74.9 39.2C75.1 41.6 73.7 43.6 71.8 43.8 69.9 43.9 68.3 42.1 68.1 39.7 67.9 37.3 69.3 35.3 71.2 35.1 73.1 34.9 74.7 36.8 74.9 39.2Z" fill="#5C8696"/><path d="M73.9 39.2C74 40.9 73 42.4 71.7 42.4 70.4 42.5 69.2 41.2 69.1 39.5 69 37.8 70 36.4 71.3 36.3 72.6 36.2 73.8 37.5 73.9 39.2Z" fill="#0D0D0C"/><path d="M73.9 36.3C73.9 36.8 73.4 37.2 72.7 37.2 72 37.2 71.4 36.9 71.4 36.4 71.4 35.9 71.9 35.5 72.6 35.5 73.2 35.5 73.8 35.8 73.9 36.3Z" fill="#E8E9EA"/></g></g><path d="M87.7 10.3C86.5 12 84.4 13.7 82.3 14.1 84.1 12.2 85.8 9.7 85.5 7.1 85.5 7 85.3 6.9 85.2 6.9 84.8 7.1 84.6 7.4 84.3 7.7 82.7 9.2 80.1 9.1 78.1 8.4 74.7 7.2 71.9 4.8 68.9 3 65.6 1 61.8-0.2 57.9 0 55.8 0.1 53.7 0.5 51.7 1.3 46.8 3.1 41 6.5 39.7 12 39.5 12.7 39.4 13.5 39.5 14.3 39.5 14.8 39.9 16.2 39.7 16.6 39.6 16.8 39.8 17 40 16.9 40.1 16.9 40.2 16.9 40.2 16.8 40.2 16.7 40.3 16.7 40.3 16.6 42.6 14.7 46.4 22 47.8 23.2 53.1 27.7 60.8 28.3 67.2 26.6 74.3 24.7 82.2 19.7 86.3 13.8 87 12.8 87.6 11.8 88.1 10.7 88.1 10.3 87.9 10.2 87.7 10.3Z" fill="#242422"/><g><g><path d="M80.1 36.5C80.1 36.5 84.6 26.2 88.4 34.3 91.4 40.7 86.4 47 82.4 46.6 78.3 46.1 80.1 36.5 80.1 36.5Z" fill="#F0A98F"/><path d="M80.4 38.1C80.4 38.1 83.8 31.5 85.5 33.9 87.3 36.3 87.2 39.5 87.2 39.5 87.2 39.5 85.9 36.1 83.5 38.3 83.5 38.3 86.8 43.7 81.3 42.5 81.3 42.5 78.9 41 80.4 38.1Z" fill="#D8826C"/></g></g><path d="M45.1 14.8C45.1 14.8 45.6 23.2 42.1 27.3 38.6 31.4 38.3 39.7 38.3 39.7 38.3 39.7 25.5 23.3 40 13.8 40 13.8 42.9 12.7 45.1 14.8Z" fill="#242422"/><path d="M73.1 18.1C73.1 18.1 79 26 80.3 37.3 80.3 37.3 88.6 24.9 80.7 14.5 80.7 14.4 72 10.7 73.1 18.1Z" fill="#242422"/><g><g><path d="M38.5 38C38.5 38 34 27.7 30.2 35.8 27.2 42.2 32.2 48.5 36.2 48.1 40.3 47.7 38.5 38 38.5 38Z" fill="#F0A98F"/><path d="M38.3 39.6C38.3 39.6 34.9 33 33.2 35.4 31.5 37.8 31.5 41 31.5 41 31.5 41 32.8 37.6 35.2 39.8 35.2 39.8 31.9 45.2 37.4 44 37.3 44.1 39.7 42.6 38.3 39.6Z" fill="#D8826C"/></g></g><g><g><path d="M51.7 35.4C49.8 35.1 47.9 35 46.2 35.1 45.1 37 44 38.9 43.2 41 42.6 42.5 42 44 41.7 45.7 43.4 47.3 45.7 47.8 48 47.8 48.9 43.6 49.5 38.9 51.7 35.4Z" fill="#EAECED" opacity="0.4"/><path d="M79.1 34.3C77.2 34.2 75.8 33.5 74.1 33.7 73.2 35.7 71.7 38.5 71.1 40.6 70.6 42.1 70.2 43.7 70.1 45.4 72 46.8 74.4 46.2 76.7 46 77.1 41.7 77.2 38 79.1 34.3Z" fill="#EAECED" opacity="0.4"/></g><path d="M80 42.2C81.8 36.8 81.3 34.5 81.2 34.2L81.1 33.8 80.7 33.6C80.4 33.5 72.5 30.4 64 34.2 63.1 34.6 62.2 35.1 61.4 35.6L61.4 35.4 58.3 35.5 58.2 35.4 57.8 35.2C56.9 34.7 55.9 34.3 55 33.9 46.3 30.6 38.5 34.2 38.2 34.3L37.8 34.5 37.7 34.9C37.6 35.1 37.3 37.5 39.5 42.8 40.3 44.7 41.8 46.1 43.9 46.9 46.5 47.9 49.1 47.6 49.3 47.6 55.5 46.9 56.5 44 57.3 42 57.3 41.9 57.4 41.8 57.4 41.7 57.9 40.3 58.2 39.1 58.3 38.2 58.9 38 59.8 37.8 61.1 38.3 61.3 39.3 61.6 40.6 62.3 42.1 62.3 42.2 62.4 42.3 62.4 42.4 63.2 44.3 64.5 47.2 70.7 47.5 70.8 47.5 73.5 47.6 76 46.4 78 45.6 79.4 44.2 80 42.2ZM49 46C49 46 46.7 46.2 44.5 45.4 42.9 44.8 41.7 43.7 41.1 42.3 39.7 38.8 39.4 36.8 39.4 35.9 41.2 35.2 47.4 33.1 54.3 35.7 55 36 55.7 36.3 56.4 36.7 56.4 37.5 56.3 39.1 55.5 41.2 55.5 41.3 55.4 41.4 55.4 41.5 54.8 43.4 54 45.4 49 46ZM75.1 44.9C73 45.9 70.6 45.8 70.6 45.8 65.6 45.6 64.7 43.6 63.9 41.8 63.8 41.7 63.8 41.6 63.8 41.5 62.9 39.4 62.7 37.8 62.6 37 63.3 36.6 64 36.2 64.7 35.9 71.3 32.9 77.7 34.6 79.5 35.1 79.5 35.9 79.5 38 78.2 41.6 77.8 43.1 76.7 44.2 75.1 44.9Z" fill="#5C311E"/></g><g><path d="M52 52.2C52.1 52.4 53.5 55.9 55.8 58.5 58.6 61.6 62.6 63.4 67.2 56.8 68.2 55.4 69.1 53.6 70.1 51.4 70.1 51.4 68.5 52 66.3 52.6 62.7 53.6 57.4 54.8 53.7 53.1L53.7 53.1C53.1 53.1 52.5 52.6 52 52.2Z" fill="#712311"/><path d="M55.8 58.5C58.6 61.6 62.6 63.4 67.2 56.8 64.8 56.1 59.1 55.1 55.8 58.5Z" fill="#D5503B"/><path d="M53.7 53.2C59.6 59.8 63.8 56.3 66.3 52.7 62.7 53.6 57.4 54.7 53.7 53.2Z" fill="#E8E9EA"/></g></g></g><g><g><g><g><g><path d="M30.8 303.8 51.3 301.5C50.3 299.9 49.8 295.5 49.6 292 49.3 287.2 49.4 281.3 49.4 281.3 49.4 281.3 35.8 278 35.8 281.3 35.8 284.6 35 288.4 34.1 292 32.7 297.6 30.8 303.8 30.8 303.8Z" fill="#22272E"/><path d="M30.4 305.3C30.4 305.4 30.4 305.1 30.4 305.2 30.4 306.3 30.7 306.3 31.2 307.9L52.7 307.9C53.2 306.2 53.5 306.3 53.5 305.2 53.5 305.1 53.5 305.2 53.5 305.1 53.5 300 48.3 295.9 41.9 295.9 35.6 295.9 30.4 300.1 30.4 305.3Z" fill="#22272E"/></g><path d="M49.6 293C49.3 288 49.4 281.4 49.4 281.4 49.4 281.4 35.8 278.1 35.8 281.4 35.8 284.7 35 288 34.1 293L49.6 293Z" fill="#617085"/></g><path d="M30.4 305.4C30.4 305.4 30.7 307.1 31.2 307.1L52.7 307.1C53.2 307.1 53.5 305.4 53.5 305.4L30.4 305.4Z" stroke="#515D6E" stroke-miterlimit="10" fill="#515D6E"/></g><path d="M38.2 297.6C39.8 295.4 43.6 296.2 45.4 297.7 45.7 297.9 45.4 298.3 45.1 298.2 44 298 43.1 297.4 41.9 297.4 40.6 297.3 39.7 298.1 38.5 298.2 38.2 298.1 38 297.8 38.2 297.6Z" fill="#515D6E"/><path d="M38.8 299.9C40.6 298.7 44.1 298.2 45.7 300 45.9 300.3 45.7 300.7 45.4 300.6 44.4 300.3 43.1 300.2 42.1 300.2 41 300.2 40.1 301 39 300.7 38.5 300.6 38.5 300.1 38.8 299.9Z" fill="#515D6E"/></g><g><g><g><path d="M65.6 305C65.7 306.2 65.9 307.3 66.2 308 66.2 308 98.9 309.4 101.2 308.4 101.6 308.2 101.5 307.9 101 307.4 100.9 307 100.8 306.6 100.6 306.1 99.5 303.3 96.3 299 87.5 299.5 86 298.7 84.7 298.1 83.9 297.7 82.8 297.1 82 295.6 81.4 293.7 80.1 289.6 79.9 283.9 80.1 282.7L66.2 283C66.2 283 65.7 288.1 65.5 293.8 65.3 297.8 65.2 302 65.6 305Z" fill="#22272E"/><path d="M81.4 294.6C80.1 288 79.9 284.4 80.1 283.2L66.2 283.6C66.2 283.6 65.7 288 65.5 294.6L81.4 294.6Z" fill="#617085"/></g><path d="M65.6 305C65.7 306.2 65.9 307.3 66.2 308 66.2 308 98.9 309.4 101.2 308.4 101.6 308.2 101.5 307.9 101 307.4 100.9 307 100.8 306.6 100.6 306.1 94.9 306.2 74.4 306.2 65.6 305Z" stroke="#515D6E" stroke-miterlimit="10" fill="#515D6E"/></g><path d="M84 300.3C84.5 298.7 87.1 298.1 88.5 299.1 88.6 299.2 88.7 299.4 88.5 299.5 87.9 299.8 87.2 299.7 86.5 299.8 85.8 299.9 85.5 300.5 85 300.9 84.6 301.1 83.9 300.9 84 300.3Z" fill="#515D6E"/><path d="M79.3 298.4C79.7 297.4 81 296.5 82.2 296.4 83.1 296.3 85 296.6 84.7 297.7 84.7 297.8 84.6 297.8 84.5 297.9 83.9 297.9 83.4 297.6 82.8 297.6 82.1 297.6 81.5 298 81 298.4 80.6 298.8 80.4 299.2 79.8 299.3 79.3 299.3 79.1 298.6 79.3 298.4Z" fill="#515D6E"/></g><g><path d="M82.3 292.7 64.3 292.7 59.2 182.6C58.6 182.7 58 182.7 57.4 182.7L51 291.9 33.1 291.9C33 278.1 32.3 174.1 37 150.2L80.4 149.8C80 150.9 82.6 249.6 82.3 292.7Z" fill="#22272E"/><path d="M41.6 156.5 36.6 156.4 37 150.2 42 150.2C41.8 152.2 41.7 154.3 41.6 156.5Z" fill="#8C4C09"/><path d="M46.5 150.1 68.6 149.9C68.5 152.2 68.5 154.6 68.4 156.9L46.1 156.5C46.6 154.5 46.5 152.3 46.5 150.1Z" fill="#8C4C09"/><path d="M74 149.8 80.4 149.7 80.4 157.1 73.4 157C74 154.9 74.1 152.3 74 149.8Z" fill="#8C4C09"/><rect x="50.6" y="145.7" width="13.2" height="9.9" fill="#C28C4B"/></g></g><g><g><g><path d="M53.7 105.2 55.2 104.5 57.3 103.4 60.2 109.1 60.8 110.1 74.5 136.9 71.9 138.2 70.8 138.8 57.1 112 56.6 111Z" fill="#243143"/><path d="M70.8 138.8 71.9 138.2 74.5 136.9 74.9 139.6 75.3 142.6 73.2 140.8 72.8 140.5Z" fill="#F4BE4F"/><path d="M72.8 140.5C72.9 140.5 72.9 140.4 73 140.4 73.6 140.1 74.2 139.8 74.9 139.5L75.4 142.6 73.3 140.8 72.8 140.5Z" fill="#243143"/></g></g><path d="M28.1 81C28.1 81 0.3 113.5 0 126.6-0.3 139.7 38.7 143.9 55.9 139.4L55.2 127.3C55.2 127.3 21.7 122.1 21.7 120.4 21.7 118.7 34.1 104.5 33.4 99.3 32.8 94.2 28.1 81 28.1 81Z" fill="#E8E9EA"/><path d="M72.1 130.9C71.9 130.2 71.6 129.7 71.2 129.2 71.2 129.1 71.2 129.1 71.2 129 71 125.1 69 121.6 64.6 122.1 62.7 122.3 61 123.9 59.7 125.1 57.4 127.2 55.1 129.3 52.9 131.4 49.3 133 50.3 138.1 54.5 139.3 57.4 140.2 60.2 139.9 63 138.8 66.8 137.3 69.9 134.4 74.3 134.9 74.7 134.9 75.2 134.5 75.1 134.1 74.8 132.2 73.6 131.1 72.1 130.9Z" fill="#F0A98F"/></g><g><g><path d="M93 98.9C93 98.9 82.7 95.3 76.1 116.1L107.9 118.5 111 103.6C111 103.6 103 96.8 93 98.9Z" fill="#AB967B"/><g><g><path d="M107.5 116.3 79 116C79.5 114.9 79.8 115 80.2 114.6 82.3 112.9 85.9 112.2 90.2 112 91.6 111.9 93.2 111.9 94.7 111.9 96.2 111.9 97.7 112 99 112.1 103.1 112.4 106.2 113.3 107.1 115 107.4 115.4 107.7 115.2 107.5 116.3Z" fill="#BCC1C6"/><path d="M100.4 106.9C99.1 106.9 98.3 105.9 98.4 105L95.7 104.9C95.2 105.8 93.8 106.7 92.5 106.6 92.3 106.6 92.6 106.5 92 106.5L88.8 116 97.7 116.1 101 106.7C101.1 106.8 100.6 106.9 100.4 106.9ZM96.5 107C97.5 107 98.1 107.8 97.8 108.6 97.5 109.5 96.4 110.2 95.4 110.2 94.4 110.2 93.8 109.4 94.1 108.6 94.4 107.7 95.5 107 96.5 107Z" fill="#BCC1C6"/><path d="M107.5 116.3 79 116C79.5 114.9 79.8 114.9 80.1 114.9L107.1 115.3C107.5 115.2 107.7 115.2 107.5 116.3Z" fill="#A9ACB1"/></g><path d="M98.8 159.7C98.5 160.5 97.7 161.2 96.9 161.2L59.9 162.9C59 162.9 58.6 162.3 58.9 161.4L72.8 114.1C73.1 113.3 73.9 112.5 74.8 112.5L113.8 113.2C114.7 113.2 115 114 114.8 114.7L98.8 159.7Z" fill="#91A851"/></g><path d="M127.9 112.9 101.7 114.6C101.7 114.6 99.3 103.2 93.1 98.8 92.7 98.5 92.2 98.3 91.7 98.2 106.5 97.3 120.2 96.3 122.7 97.9 126.5 100.3 127.9 112.9 127.9 112.9Z" fill="#EDDBC3"/></g><path d="M109.6 132.8C109 132 108.2 131.3 107 130.8 105.9 130.4 104.6 130.2 103.6 131 101.1 133 104.6 133.3 105.9 134 103.9 133.4 99.1 133.9 98.5 136.2 97.7 139 101.8 141.4 103.6 142.5 96 142.6 101.9 148.4 105.8 144.9 108.7 142.3 112.1 136.4 109.6 132.8Z" fill="#F5AE94"/></g></g><g><path d="M75.8 97.5C75.8 97.5 75.8 97.5 75.8 97.5 75.8 97.6 75.8 97.6 75.8 97.7 75.8 99.2 75.8 100.7 75.8 102.1 75.8 102.1 75.8 102.1 75.8 102.1 75.8 102.1 75.8 102.1 75.8 102.1 75.8 102.1 75.8 102.1 75.8 102.1 75.8 102.1 75.8 102.1 75.8 102.1 74.6 101.3 73.5 100.6 72.3 99.8 72.3 99.8 72.3 99.8 72.3 99.8 72.6 99.6 72.9 99.4 73.2 99.2 73.5 99 73.8 98.8 74.1 98.6 74.4 98.4 74.7 98.2 74.9 98 75.2 97.9 75.5 97.7 75.8 97.5 75.8 97.5 75.9 97.5 75.8 97.5 76.8 97.5 77.7 97.5 78.7 97.5 79 97.5 79.2 97.5 79.5 97.5 79.5 97.5 79.5 97.5 79.6 97.5 80 97.8 80.4 98 80.8 98.3 81.2 98.6 81.7 98.9 82.1 99.2 82.4 99.4 82.7 99.6 83 99.8 83.1 99.8 83.1 99.9 83.2 99.9 83.2 99.9 79.7 102.2 79.7 102.2 79.7 102.2 79.7 102.2 79.7 102.1 79.7 100.6 79.7 99.1 79.7 97.6 79.7 97.6 79.7 97.6 79.7 97.5 79.7 97.5 79.7 97.5 79.7 97.5 78.3 97.5 77.1 97.5 75.8 97.5 75.9 97.5 75.9 97.5 75.8 97.5 75.9 97.5 75.9 97.5 75.8 97.5Z" fill="#777777"/><path d="M75.8 97.5C75.9 97.5 75.9 97.5 75.8 97.5 75.9 97.5 75.9 97.5 75.8 97.5 77.1 97.5 78.3 97.5 79.5 97.5 79.5 97.5 79.5 97.5 79.5 97.5 79.4 97.6 79.4 97.8 79.3 97.9 79.2 98.3 79 98.6 78.9 99 78.8 99.4 78.6 99.7 78.5 100.1 78.3 100.6 78.1 101.1 77.9 101.6 77.8 101.8 77.7 102.1 77.6 102.3 77.6 102.3 77.6 102.3 77.6 102.3 77.6 102.3 77.6 102.3 77.6 102.3 77.5 102 77.3 101.6 77.2 101.3 77 100.7 76.8 100.2 76.6 99.6 76.4 99 76.1 98.4 75.9 97.8 75.9 97.7 75.9 97.6 75.8 97.5Z" fill="#B30C37"/><path d="M75.5 105C75.4 105.1 75.4 105.2 75.3 105.2 75.3 105.2 75.3 105.2 75.2 105.2 75.1 105.2 75.1 105.2 75 105.2 75 105.2 75 105.2 75 105.2 75.1 105.1 75.2 105 75.2 104.9 75.2 104.9 75.2 104.9 75.2 104.9 75.2 104.9 75.2 104.9 75.2 104.9 75.2 104.9 75.1 104.8 75.1 104.8 75 104.7 75 104.7 74.9 104.6 74.9 104.6 74.9 104.6 74.9 104.6 74.9 104.6 74.9 104.6 74.9 104.6 74.9 104.9 74.9 105.2 74.9 105.5 74.9 105.5 74.9 105.5 74.9 105.5 74.9 105.5 74.9 105.5 74.9 105.5 74.8 105.5 74.8 105.5 74.7 105.5 74.7 105.5 74.7 105.5 74.7 105.5 74.7 105.5 74.7 105.5 74.7 105.5 74.7 105.1 74.7 104.8 74.7 104.4 74.7 104.4 74.7 104.4 74.7 104.4 74.7 104.4 74.7 104.4 74.7 104.4 74.7 104.4 74.8 104.4 74.8 104.4 74.8 104.4 74.8 104.4 74.8 104.4 74.9 104.6 75.1 104.7 75.2 104.9 75.2 104.9 75.2 104.9 75.2 104.9 75.2 104.9 75.2 104.9 75.2 104.9 75.3 104.8 75.5 104.6 75.6 104.5 75.6 104.5 75.6 104.5 75.7 104.5 75.7 104.5 75.8 104.5 75.8 104.5 75.8 104.5 75.8 104.5 75.8 104.5 75.8 104.7 75.8 105 75.8 105.2 75.8 105.3 75.8 105.5 75.8 105.6 75.8 105.6 75.8 105.6 75.8 105.6 75.8 105.6 75.8 105.6 75.8 105.6 75.7 105.6 75.7 105.6 75.6 105.6 75.6 105.6 75.6 105.6 75.6 105.6 75.6 105.6 75.6 105.6 75.6 105.6 75.6 105.3 75.6 105 75.6 104.7 75.6 104.7 75.6 104.7 75.6 104.7 75.6 104.7 75.6 104.7 75.6 104.7 75.5 104.8 75.4 104.9 75.3 105 75.3 105 75.3 105 75.3 105 75.4 105.1 75.5 105.2 75.5 105.3 75.5 105.3 75.5 105.3 75.5 105.3 75.5 105.3 75.4 105.3 75.4 105.3 75.3 105.3 75.3 105.3 75.3 105.2 75.6 105.1 75.6 105.1 75.5 105Z" fill="#B30C37"/><path d="M75.1 103.1C75.1 103.1 75.1 103.1 75.1 103.1 75.1 103.4 75.1 103.7 75.1 104 75.1 104 75.1 104 75.1 104 75.1 104 75 104 75 104 75 104 75 104 75 104 75 104 75 104 75 104 75 103.6 75 103.3 75 102.9 75 102.9 75 102.9 75 102.9 75 102.9 75.1 102.9 75.1 102.9 75.1 102.9 75.1 102.9 75.2 102.9 75.4 103.2 75.6 103.4 75.8 103.7 75.8 103.7 75.8 103.7 75.9 103.8 75.9 103.8 75.9 103.8 75.9 103.8 75.9 103.5 75.9 103.3 75.9 103 75.9 103 75.9 103 75.9 103 75.9 103 75.9 103 75.9 103 75.9 103 76 103 76 103 76 103 76 103 76 103 76 103 76 103 76 103 76 103.4 76 103.7 76 104.1 76 104.1 76 104.1 76 104.1 76 104.1 75.9 104.1 75.9 104.1 75.9 104.1 75.9 104.1 75.8 104.1 75.7 104 75.6 103.8 75.5 103.7 75.3 103.4 75.2 103.2 75.1 103.1 75.1 103.1 75.1 103.1 75.1 103.1Z" fill="#B30C37"/><path d="M78.2 104.9C78.3 105.1 78.5 105.3 78.6 105.4 78.6 105.4 78.6 105.4 78.6 105.4 78.5 105.4 78.5 105.4 78.4 105.4 78.4 105.4 78.4 105.4 78.4 105.4 78.3 105.2 78.2 105.1 78.1 104.9 78.1 104.9 78.1 104.9 78.1 104.9 78.1 104.9 78 104.9 78 104.9 78 104.9 78 104.9 78 104.9 78 105 78 105.2 78 105.3 78 105.4 78 105.4 77.9 105.4 77.9 105.4 77.8 105.4 77.8 105.4 77.8 105.4 77.8 105.4 77.8 105.4 77.8 105.4 77.8 105.4 77.8 105.4 77.8 105 77.8 104.7 77.8 104.3 77.8 104.3 77.8 104.3 77.8 104.3 77.8 104.3 77.8 104.3 77.8 104.3 77.8 104.3 77.9 104.3 77.9 104.3 78 104.3 78.1 104.3 78.2 104.3 78.3 104.3 78.4 104.3 78.5 104.4 78.7 104.5 78.7 104.7 78.6 104.9 78.4 104.9 78.3 104.9 78.2 104.9 78.3 104.9 78.3 104.9 78.2 104.9 78.3 104.9 78.3 104.9 78.2 104.9ZM77.8 104.6C77.8 104.7 77.8 104.7 77.8 104.8 77.8 104.8 77.8 104.8 77.8 104.8 77.9 104.8 78 104.8 78.1 104.8 78.1 104.8 78.2 104.8 78.2 104.8 78.3 104.8 78.3 104.6 78.2 104.5 78.2 104.5 78.2 104.5 78.2 104.5 78.2 104.5 78.1 104.5 78.1 104.5 78 104.5 77.9 104.5 77.8 104.5 77.8 104.5 77.8 104.5 77.8 104.5 77.8 104.5 77.8 104.6 77.8 104.6Z" fill="#B30C37"/><path d="M79.6 104.3C79.4 104.5 79.3 104.7 79.1 104.9 79.3 105.1 79.5 105.3 79.7 105.5 79.7 105.5 79.7 105.5 79.7 105.5 79.6 105.5 79.6 105.5 79.5 105.5 79.5 105.5 79.5 105.5 79.4 105.5 79.2 105.3 79.1 105.1 78.9 105 78.9 105 78.9 105 78.9 105 78.9 105 78.9 105 78.9 105 78.9 105.2 78.9 105.3 78.9 105.5 78.9 105.5 78.9 105.5 78.9 105.5 78.9 105.5 78.9 105.5 78.9 105.5 78.8 105.5 78.8 105.5 78.7 105.5 78.7 105.5 78.7 105.5 78.7 105.5 78.7 105.5 78.7 105.5 78.7 105.5 78.7 105.1 78.7 104.8 78.7 104.4 78.7 104.4 78.7 104.4 78.7 104.4 78.7 104.4 78.7 104.4 78.7 104.4 78.8 104.4 78.8 104.4 78.9 104.4 78.9 104.4 78.9 104.4 78.9 104.4 78.9 104.6 78.9 104.7 78.9 104.9 78.9 104.9 78.9 104.9 78.9 104.9 78.9 104.9 78.9 104.9 78.9 104.9 79.1 104.7 79.2 104.6 79.4 104.4 79.4 104.4 79.4 104.4 79.4 104.4 79.5 104.3 79.6 104.3 79.6 104.3 79.6 104.3 79.6 104.3 79.6 104.3Z" fill="#B30C37"/><path d="M77.5 105.5C77.4 105.5 77.4 105.5 77.3 105.5 77.3 105.5 77.3 105.5 77.3 105.5 77.3 105.4 77.2 105.3 77.2 105.3 77.2 105.3 77.2 105.3 77.2 105.2 77.2 105.2 77.2 105.2 77.1 105.2 77 105.2 76.8 105.2 76.7 105.2 76.7 105.2 76.6 105.2 76.6 105.2 76.6 105.2 76.6 105.2 76.5 105.2 76.5 105.3 76.4 105.4 76.4 105.5 76.4 105.5 76.4 105.5 76.4 105.5 76.3 105.5 76.3 105.5 76.2 105.5 76.2 105.5 76.2 105.5 76.2 105.5 76.4 105.1 76.5 104.8 76.7 104.4 76.7 104.4 76.7 104.4 76.8 104.4 76.8 104.4 76.9 104.4 76.9 104.4 76.9 104.4 76.9 104.4 76.9 104.4 76.9 104.5 77 104.6 77 104.7 77.3 104.9 77.4 105.2 77.5 105.5 77.5 105.4 77.5 105.4 77.5 105.5ZM77.1 105C77.1 105 76.9 104.5 76.9 104.5 76.9 104.7 76.8 104.9 76.7 105 76.8 105 77 105 77.1 105Z" fill="#B30C37"/><path d="M79.8 105.2C79.9 105.2 79.9 105.2 79.8 105.2 79.9 105.3 80 105.3 80.1 105.3 80.1 105.3 80.2 105.3 80.2 105.3 80.3 105.3 80.3 105.2 80.3 105.1 80.3 105.1 80.2 105 80.2 105 80.1 105 80.1 104.9 80 104.9 79.9 104.9 79.9 104.8 79.8 104.8 79.7 104.7 79.7 104.6 79.8 104.5 79.8 104.4 79.9 104.4 80 104.4 80.1 104.4 80.2 104.4 80.3 104.4 80.4 104.4 80.4 104.4 80.5 104.5 80.5 104.5 80.5 104.5 80.5 104.5 80.5 104.6 80.5 104.6 80.4 104.7 80.4 104.7 80.4 104.7 80.4 104.7 80.3 104.7 80.3 104.6 80.2 104.6 80.2 104.6 80.1 104.6 80.1 104.6 80 104.6 80 104.7 80 104.8 80 104.8 80 104.9 80.1 104.9 80.1 104.9 80.2 104.9 80.2 105 80.3 105 80.3 105.1 80.4 105.1 80.5 105.1 80.5 105.2 80.5 105.2 80.6 105.4 80.5 105.6 80.3 105.6 80.1 105.6 80 105.6 79.8 105.5 79.8 105.5 79.8 105.5 79.8 105.5 79.8 105.3 79.8 105.3 79.8 105.2Z" fill="#B30C37"/><path d="M77.4 103.4C77.4 103.2 77.4 103 77.4 102.9 77.4 102.9 77.4 102.9 77.4 102.9 77.4 102.9 77.4 102.9 77.4 102.9 77.4 102.9 77.4 102.9 77.4 102.9 77.6 102.9 77.9 102.9 78.1 102.9 78.1 102.9 78.1 102.9 78.1 102.9 78.1 102.9 78.1 102.9 78.1 103 78.1 103 78.1 103 78.1 103 78.1 103 78 103 78 103 77.9 103 77.7 103 77.6 103 77.6 103 77.6 103 77.6 103 77.6 103.1 77.6 103.2 77.6 103.3 77.6 103.3 77.6 103.3 77.6 103.3 77.7 103.3 77.8 103.3 78 103.3 78 103.3 78 103.3 78 103.3 78 103.3 78 103.3 78 103.3 78 103.3 78 103.4 78 103.4 78 103.4 78 103.4 78 103.4 77.9 103.4 77.9 103.4 77.8 103.4 77.7 103.4 77.7 103.4 77.6 103.4 77.6 103.4 77.6 103.4 77.6 103.4 77.6 103.5 77.6 103.6 77.6 103.7 77.6 103.7 77.6 103.7 77.6 103.7 77.8 103.7 77.9 103.7 78.1 103.7 78.2 103.7 78.1 103.7 78.1 103.7 78.1 103.7 78.1 103.8 78.1 103.8 78.1 103.8 78.1 103.8 78.1 103.8 78.1 103.8 78.1 103.8 78.1 103.8 77.9 103.8 77.6 103.8 77.4 103.8 77.4 103.8 77.4 103.8 77.4 103.8 77.4 103.8 77.4 103.6 77.4 103.4Z" fill="#B30C37"/><path d="M79.9 102.8C80.1 102.8 80.2 102.8 80.4 102.8 80.4 102.8 80.4 102.8 80.4 102.8 80.4 102.8 80.4 102.8 80.4 102.8 80.4 102.8 80.4 102.9 80.4 102.9 80.4 102.9 80.4 102.9 80.4 102.9 80.3 102.9 80.3 102.9 80.2 102.9 80.1 102.9 80.1 102.9 80 102.9 80 102.9 80 102.9 80 102.9 80 103.1 80 103.4 80 103.6 80 103.7 80 103.8 80 103.9 80 103.9 80 103.9 80 103.9 80 103.9 79.9 103.9 79.9 103.9 79.9 103.9 79.9 103.9 79.9 103.9 79.9 103.9 79.9 103.9 79.9 103.9 79.9 103.6 79.9 103.3 79.9 103 79.9 103 79.9 103 79.9 103 79.8 103 79.7 103 79.5 103 79.5 103 79.5 103 79.5 103 79.5 103 79.5 102.9 79.5 102.9 79.5 102.9 79.5 102.9 79.5 102.9 79.5 102.9 79.5 102.9 79.5 102.9 79.6 102.8 79.7 102.8 79.9 102.8Z" fill="#B30C37"/></g></svg>