<svg viewBox="0 0 709.23 484.84" xmlns="http://www.w3.org/2000/svg" xmlns:xlink="http://www.w3.org/1999/xlink" id="Layer_1" overflow="hidden"><defs></defs><rect x="68.23" y="0" rx="26.57" width="574.38" height="362.77" fill="#4C5A7D"/><path d="M911.26 1268.85 846.64 1359C843.647 1363.17 844.604 1368.98 848.777 1371.98 850.358 1373.11 852.255 1373.72 854.2 1373.72L1545.74 1373.72C1550.36 1373.72 1554.1 1369.98 1554.1 1365.36 1554.1 1363.66 1553.58 1362.01 1552.62 1360.61L1489.35 1268.94C1488.19 1267.26 1486.29 1266.26 1484.25 1266.26L916.3 1266.26C914.3 1266.26 912.423 1267.22 911.26 1268.85Z" fill="#D9E4FF" transform="translate(-844.88 -905.19)"/><path d="M1504 1327.5 896.34 1327.5C892.391 1327.49 889.197 1324.28 889.206 1320.33 889.209 1318.9 889.643 1317.5 890.45 1316.32L919.38 1274.06C920.058 1273.07 921.178 1272.47 922.38 1272.46L1473.1 1272.46C1474.35 1272.47 1475.52 1273.05 1476.27 1274.05L1508.78 1317.82C1510.78 1320.5 1510.22 1324.3 1507.54 1326.3 1506.52 1327.06 1505.28 1327.48 1504 1327.5Z" fill="#B9C8ED" transform="translate(-844.88 -905.19)"/><path d="M959.44 1277.76 957.14 1281.91C957.045 1282.08 956.864 1282.18 956.67 1282.18L934.19 1282.18C933.897 1282.18 933.663 1281.94 933.666 1281.64 933.667 1281.55 933.693 1281.46 933.74 1281.38L936.18 1277.26C936.278 1277.1 936.452 1277 936.64 1277L958.97 1277C959.263 1277 959.497 1277.24 959.492 1277.54 959.491 1277.61 959.473 1277.69 959.44 1277.76Z" fill="#323B52" transform="translate(-844.88 -905.19)"/><path d="M932.63 1283.25 930.29 1287.25C930.141 1287.5 930.219 1287.82 930.464 1287.96 930.547 1288.01 930.643 1288.04 930.74 1288.04L950.53 1288.04C950.715 1288.05 950.888 1287.95 950.98 1287.79L953.36 1283.79C953.509 1283.54 953.426 1283.21 953.174 1283.06 953.094 1283.02 953.003 1282.99 952.91 1282.99L933.08 1282.99C932.895 1282.99 932.726 1283.09 932.63 1283.25Z" fill="#323B52" transform="translate(-844.88 -905.19)"/><path d="M959.72 1283.29 957.72 1287.17C957.576 1287.44 957.682 1287.78 957.956 1287.93 958.037 1287.97 958.128 1287.99 958.22 1287.99L984.65 1287.99C984.865 1287.99 985.06 1287.87 985.15 1287.67L987.03 1283.8C987.163 1283.51 987.039 1283.18 986.753 1283.04 986.68 1283.01 986.601 1282.99 986.52 1282.99L960.22 1282.99C960.01 1282.99 959.817 1283.1 959.72 1283.29Z" fill="#323B52" transform="translate(-844.88 -905.19)"/><path d="M928.9 1289.54 925.59 1295.11C925.419 1295.4 925.515 1295.77 925.805 1295.95 925.901 1296 926.009 1296.03 926.12 1296.03L962.66 1296.03C962.88 1296.03 963.084 1295.91 963.19 1295.72L966.32 1290.16C966.486 1289.86 966.377 1289.48 966.077 1289.32 965.986 1289.27 965.884 1289.24 965.78 1289.24L929.42 1289.24C929.207 1289.24 929.01 1289.36 928.9 1289.54Z" fill="#323B52" transform="translate(-844.88 -905.19)"/><path d="M924.16 1297.53 921.25 1302.43C921.007 1302.84 921.146 1303.38 921.56 1303.62 921.691 1303.7 921.839 1303.74 921.99 1303.74L965.45 1303.74C965.767 1303.74 966.059 1303.57 966.21 1303.29L968.94 1298.39C969.172 1297.97 969.019 1297.44 968.598 1297.21 968.47 1297.14 968.326 1297.1 968.18 1297.1L924.9 1297.1C924.594 1297.1 924.311 1297.26 924.16 1297.53Z" fill="#323B52" transform="translate(-844.88 -905.19)"/><path d="M919.84 1305.74 981 1305.74C981.552 1305.76 981.98 1306.23 981.956 1306.78 981.952 1306.89 981.929 1307 981.89 1307.1L979.38 1312.8C979.221 1313.14 978.88 1313.37 978.5 1313.38L916.5 1313.38C915.948 1313.35 915.522 1312.89 915.548 1312.33 915.555 1312.19 915.593 1312.05 915.66 1311.92L919.05 1306.2C919.224 1305.93 919.518 1305.76 919.84 1305.74Z" fill="#323B52" transform="translate(-844.88 -905.19)"/><path d="M913.52 1315.44 909.52 1322.16C909.211 1322.68 909.379 1323.35 909.895 1323.66 910.066 1323.76 910.261 1323.81 910.46 1323.81L938.9 1323.81C939.316 1323.82 939.702 1323.6 939.9 1323.23L943.48 1316.51C943.762 1315.98 943.559 1315.32 943.028 1315.04 942.859 1314.95 942.67 1314.9 942.48 1314.91L914.48 1314.91C914.088 1314.9 913.723 1315.11 913.52 1315.44Z" fill="#323B52" transform="translate(-844.88 -905.19)"/><path d="M968.34 1277.28 966.34 1281.37C966.202 1281.65 966.314 1281.98 966.591 1282.12 966.671 1282.16 966.76 1282.18 966.85 1282.18L990.67 1282.18C990.901 1282.18 991.109 1282.04 991.2 1281.83L992.85 1277.75C992.971 1277.47 992.839 1277.14 992.555 1277.02 992.484 1276.98 992.407 1276.97 992.33 1276.97L968.85 1276.97C968.634 1276.96 968.434 1277.09 968.34 1277.28Z" fill="#323B52" transform="translate(-844.88 -905.19)"/><path d="M1000 1277.61 998.63 1280.66C998.387 1281.2 998.631 1281.84 999.176 1282.09 999.319 1282.15 999.474 1282.18 999.63 1282.18L1022.12 1282.18C1022.57 1282.17 1022.97 1281.89 1023.12 1281.47L1024.24 1278.47C1024.44 1277.91 1024.16 1277.29 1023.6 1277.09 1023.48 1277.04 1023.36 1277.02 1023.24 1277.02L1001 1277.02C1000.58 1277 1000.19 1277.23 1000 1277.61Z" fill="#323B52" transform="translate(-844.88 -905.19)"/><path d="M992.17 1283.61 990.89 1286.54C990.638 1287.03 990.832 1287.63 991.324 1287.89 991.498 1287.98 991.695 1288.01 991.89 1287.99L1018.66 1287.99C1019.11 1288.01 1019.52 1287.72 1019.66 1287.29L1020.66 1284.37C1020.87 1283.86 1020.63 1283.27 1020.12 1283.06 1019.97 1283 1019.82 1282.98 1019.66 1282.99L993.12 1282.99C992.71 1283 992.34 1283.24 992.17 1283.61Z" fill="#323B52" transform="translate(-844.88 -905.19)"/><path d="M972.94 1289.84 970.54 1294.37C970.247 1294.92 970.457 1295.61 971.008 1295.9 971.172 1295.98 971.354 1296.03 971.54 1296.03L997.21 1296.03C997.648 1296.02 998.038 1295.75 998.21 1295.35L1000.21 1290.83C1000.46 1290.26 1000.21 1289.59 999.639 1289.34 999.503 1289.28 999.358 1289.24 999.21 1289.24L973.94 1289.24C973.521 1289.24 973.136 1289.47 972.94 1289.84Z" fill="#323B52" transform="translate(-844.88 -905.19)"/><path d="M977.94 1297.7 975.73 1302.18C975.465 1302.71 975.682 1303.36 976.217 1303.63 976.376 1303.71 976.552 1303.75 976.73 1303.74L1001.9 1303.74C1002.35 1303.74 1002.74 1303.46 1002.9 1303.04L1004.61 1298.57C1004.83 1298.01 1004.55 1297.39 1003.99 1297.17 1003.87 1297.13 1003.74 1297.1 1003.61 1297.1L978.91 1297.1C978.501 1297.11 978.128 1297.34 977.94 1297.7Z" fill="#323B52" transform="translate(-844.88 -905.19)"/><path d="M991.72 1306.4 989.25 1311.8C988.99 1312.36 989.235 1313.03 989.796 1313.29 989.939 1313.35 990.093 1313.39 990.25 1313.39L1015.18 1313.39C1015.62 1313.37 1016.01 1313.1 1016.18 1312.69L1018.35 1307.29C1018.58 1306.71 1018.3 1306.05 1017.72 1305.82 1017.6 1305.77 1017.48 1305.75 1017.35 1305.74L992.74 1305.74C992.3 1305.74 991.901 1306 991.72 1306.4Z" fill="#323B52" transform="translate(-844.88 -905.19)"/><path d="M950.52 1315.56 947.34 1322.19C947.069 1322.75 947.306 1323.43 947.868 1323.7 948.015 1323.77 948.176 1323.81 948.34 1323.81L973.8 1323.81C974.236 1323.79 974.624 1323.53 974.8 1323.13L977.5 1316.98C977.749 1316.41 977.487 1315.74 976.914 1315.49 976.783 1315.44 976.643 1315.4 976.5 1315.4L951.5 1314.92C951.078 1314.93 950.698 1315.18 950.52 1315.56Z" fill="#323B52" transform="translate(-844.88 -905.19)"/><path d="M987.77 1315.56 984.77 1322.24C984.521 1322.81 984.779 1323.47 985.345 1323.72 985.479 1323.77 985.624 1323.81 985.77 1323.81L1011.77 1323.81C1012.25 1323.81 1012.68 1323.5 1012.83 1323.04L1015.03 1316.36C1015.22 1315.78 1014.9 1315.15 1014.32 1314.96 1014.22 1314.93 1014.13 1314.91 1014.03 1314.91L988.78 1314.91C988.344 1314.91 987.948 1315.16 987.77 1315.56Z" fill="#323B52" transform="translate(-844.88 -905.19)"/><path d="M1027.34 1306.38 1025.12 1312C1024.9 1312.51 1025.14 1313.1 1025.65 1313.31 1025.8 1313.38 1025.96 1313.4 1026.12 1313.39L1052.64 1313.39C1053.11 1313.4 1053.53 1313.09 1053.64 1312.63L1055.12 1307.02C1055.28 1306.49 1054.97 1305.93 1054.44 1305.78 1054.34 1305.75 1054.23 1305.74 1054.12 1305.74L1028.33 1305.74C1027.9 1305.72 1027.5 1305.97 1027.34 1306.38Z" fill="#323B52" transform="translate(-844.88 -905.19)"/><path d="M1023.58 1315.73 1021.58 1322.29C1021.39 1322.91 1021.75 1323.57 1022.37 1323.76 1022.48 1323.79 1022.59 1323.81 1022.7 1323.81L1049.7 1323.81C1050.22 1323.81 1050.69 1323.46 1050.83 1322.96L1052.7 1316.4C1052.88 1315.78 1052.52 1315.13 1051.89 1314.95 1051.79 1314.92 1051.68 1314.91 1051.57 1314.91L1024.7 1314.91C1024.19 1314.91 1023.73 1315.24 1023.58 1315.73Z" fill="#323B52" transform="translate(-844.88 -905.19)"/><path d="M1060.33 1315.8 1058.83 1322.4C1058.69 1323.02 1059.07 1323.64 1059.69 1323.78 1059.78 1323.8 1059.86 1323.81 1059.95 1323.81L1266.63 1323.81C1267.27 1323.81 1267.78 1323.29 1267.78 1322.66 1267.78 1322.57 1267.77 1322.49 1267.75 1322.41L1266.32 1315.81C1266.2 1315.29 1265.74 1314.91 1265.2 1314.91L1061.45 1314.91C1060.92 1314.91 1060.45 1315.28 1060.33 1315.8Z" fill="#323B52" transform="translate(-844.88 -905.19)"/><path d="M1062.33 1306.58 1060.91 1311.98C1060.75 1312.58 1061.1 1313.19 1061.7 1313.35 1061.8 1313.38 1061.9 1313.39 1062 1313.39L1089.07 1313.39C1089.6 1313.39 1090.06 1313.01 1090.17 1312.49L1091.27 1307.09C1091.39 1306.48 1090.99 1305.88 1090.38 1305.76 1090.31 1305.75 1090.23 1305.74 1090.16 1305.74L1063.42 1305.74C1062.91 1305.74 1062.46 1306.08 1062.33 1306.58Z" fill="#323B52" transform="translate(-844.88 -905.19)"/><path d="M1098 1306.3 1096.65 1312.53C1096.57 1312.92 1096.83 1313.3 1097.22 1313.38 1097.26 1313.39 1097.31 1313.39 1097.35 1313.39L1124 1313.39C1124.35 1313.39 1124.64 1313.14 1124.7 1312.8L1125.7 1306.57C1125.76 1306.18 1125.49 1305.81 1125.1 1305.75 1125.06 1305.74 1125.03 1305.74 1124.99 1305.74L1098.7 1305.74C1098.36 1305.74 1098.07 1305.97 1098 1306.3Z" fill="#323B52" transform="translate(-844.88 -905.19)"/><path d="M1133.39 1306.36 1132.57 1312.58C1132.51 1312.97 1132.78 1313.33 1133.17 1313.38 1133.21 1313.39 1133.24 1313.39 1133.28 1313.39L1161.15 1313.39C1161.53 1313.4 1161.84 1313.1 1161.86 1312.73L1162.31 1306.51C1162.34 1306.11 1162.04 1305.77 1161.64 1305.74 1161.63 1305.74 1161.61 1305.74 1161.6 1305.74L1134.1 1305.74C1133.74 1305.74 1133.44 1306 1133.39 1306.36Z" fill="#323B52" transform="translate(-844.88 -905.19)"/><path d="M1169.11 1306.34 1168.57 1312.68C1168.54 1313.04 1168.81 1313.36 1169.18 1313.39 1169.2 1313.39 1169.21 1313.39 1169.23 1313.39L1196.73 1313.39C1197.09 1313.39 1197.39 1313.09 1197.39 1312.73 1197.39 1312.72 1197.39 1312.72 1197.39 1312.71L1197.16 1306.37C1197.15 1306.01 1196.86 1305.73 1196.5 1305.74L1169.76 1305.74C1169.42 1305.74 1169.14 1306 1169.11 1306.34Z" fill="#323B52" transform="translate(-844.88 -905.19)"/><path d="M1204.38 1306.69 1204.95 1312.61C1205 1313.05 1205.37 1313.39 1205.81 1313.39L1232.47 1313.39C1232.94 1313.39 1233.33 1313.01 1233.33 1312.53 1233.33 1312.48 1233.33 1312.44 1233.32 1312.39L1232.47 1306.47C1232.41 1306.04 1232.05 1305.73 1231.62 1305.73L1205.25 1305.73C1204.77 1305.73 1204.38 1306.11 1204.38 1306.6 1204.38 1306.63 1204.38 1306.66 1204.38 1306.69Z" fill="#323B52" transform="translate(-844.88 -905.19)"/><path d="M1240.2 1306.77 1240.89 1312.58C1240.95 1313.04 1241.34 1313.39 1241.8 1313.39L1269.12 1313.39C1269.62 1313.39 1270.03 1312.98 1270.03 1312.48 1270.03 1312.41 1270.02 1312.35 1270.01 1312.28L1268.76 1306.46C1268.67 1306.04 1268.29 1305.74 1267.86 1305.74L1241.11 1305.74C1240.6 1305.74 1240.19 1306.16 1240.19 1306.66 1240.19 1306.7 1240.2 1306.73 1240.2 1306.77Z" fill="#323B52" transform="translate(-844.88 -905.19)"/><path d="M1276.08 1306.63 1277.64 1312.85C1277.72 1313.17 1278.01 1313.39 1278.34 1313.39L1305.27 1313.39C1305.67 1313.39 1305.99 1313.07 1306 1312.68 1306 1312.61 1305.99 1312.54 1305.97 1312.48L1304.25 1306.27C1304.17 1305.96 1303.88 1305.74 1303.56 1305.74L1276.78 1305.74C1276.38 1305.74 1276.06 1306.06 1276.06 1306.46 1276.06 1306.52 1276.07 1306.57 1276.08 1306.63Z" fill="#323B52" transform="translate(-844.88 -905.19)"/><path d="M1311.71 1306.91 1313.45 1312.74C1313.57 1313.13 1313.92 1313.39 1314.33 1313.39L1341.08 1313.39C1341.58 1313.39 1341.99 1312.98 1341.99 1312.48 1341.99 1312.38 1341.97 1312.28 1341.94 1312.18L1339.94 1306.35C1339.81 1305.98 1339.46 1305.74 1339.07 1305.74L1312.6 1305.74C1312.1 1305.73 1311.68 1306.13 1311.67 1306.63 1311.67 1306.73 1311.68 1306.82 1311.71 1306.91Z" fill="#323B52" transform="translate(-844.88 -905.19)"/><path d="M1347.2 1306.85 1349.06 1312.79C1349.17 1313.15 1349.5 1313.39 1349.87 1313.39L1373 1313.39C1373.47 1313.39 1373.85 1313.01 1373.85 1312.54 1373.85 1312.42 1373.83 1312.31 1373.78 1312.2L1371.22 1306.2C1371.08 1305.89 1370.77 1305.69 1370.43 1305.69L1348 1305.69C1347.53 1305.69 1347.14 1306.08 1347.15 1306.56 1347.15 1306.66 1347.16 1306.76 1347.2 1306.85Z" fill="#323B52" transform="translate(-844.88 -905.19)"/><path d="M1378.58 1307.27 1381.16 1312.77C1381.34 1313.16 1381.73 1313.4 1382.16 1313.39L1444.16 1313.39C1444.75 1313.42 1445.25 1312.96 1445.28 1312.37 1445.29 1312.18 1445.25 1312 1445.16 1311.83L1442.32 1306.32C1442.13 1305.95 1441.74 1305.72 1441.32 1305.74L1379.54 1305.74C1378.94 1305.75 1378.47 1306.25 1378.48 1306.84 1378.48 1306.99 1378.52 1307.14 1378.58 1307.27Z" fill="#323B52" transform="translate(-844.88 -905.19)"/><path d="M1449.57 1306.06 1453.31 1313.06C1453.4 1313.23 1453.58 1313.34 1453.78 1313.34L1483.71 1313.34C1484 1313.35 1484.25 1313.12 1484.25 1312.82 1484.26 1312.71 1484.22 1312.6 1484.16 1312.51L1479.37 1305.51C1479.27 1305.36 1479.11 1305.27 1478.93 1305.27L1450 1305.27C1449.7 1305.3 1449.48 1305.56 1449.51 1305.86 1449.52 1305.93 1449.54 1306 1449.57 1306.06Z" fill="#323B52" transform="translate(-844.88 -905.19)"/><path d="M1013 1297.81 1011.34 1302.27C1011.13 1302.83 1011.42 1303.46 1011.98 1303.67 1012.1 1303.71 1012.22 1303.74 1012.34 1303.74L1037.39 1303.74C1037.83 1303.74 1038.23 1303.47 1038.39 1303.06L1040.18 1298.59C1040.41 1298.04 1040.14 1297.41 1039.59 1297.18 1039.46 1297.13 1039.32 1297.1 1039.18 1297.1L1014 1297.1C1013.55 1297.11 1013.16 1297.39 1013 1297.81Z" fill="#323B52" transform="translate(-844.88 -905.19)"/><path d="M1007.36 1290 1005.69 1294.61C1005.48 1295.17 1005.76 1295.79 1006.32 1296 1006.44 1296.05 1006.56 1296.07 1006.69 1296.07L1032.28 1296.07C1032.74 1296.05 1033.14 1295.75 1033.28 1295.31L1034.71 1290.7C1034.89 1290.13 1034.58 1289.51 1034 1289.33 1033.91 1289.3 1033.81 1289.28 1033.71 1289.28L1008.36 1289.28C1007.91 1289.29 1007.51 1289.57 1007.36 1290Z" fill="#323B52" transform="translate(-844.88 -905.19)"/><path d="M1042.4 1290.1 1041.2 1294.57C1041.03 1295.19 1041.4 1295.82 1042.02 1295.99 1042.12 1296.02 1042.22 1296.03 1042.32 1296.03L1066.54 1296.03C1067.06 1296.03 1067.51 1295.69 1067.65 1295.19L1068.92 1290.72C1069.1 1290.1 1068.74 1289.46 1068.13 1289.29 1068.02 1289.26 1067.92 1289.24 1067.81 1289.24L1043.52 1289.24C1043 1289.24 1042.54 1289.59 1042.4 1290.1Z" fill="#323B52" transform="translate(-844.88 -905.19)"/><path d="M1046.89 1297.77 1045.18 1302.35C1044.96 1302.86 1045.2 1303.45 1045.71 1303.66 1045.86 1303.73 1046.02 1303.75 1046.18 1303.74L1073.62 1303.74C1074.1 1303.75 1074.52 1303.43 1074.62 1302.96L1075.76 1298.38C1075.92 1297.85 1075.61 1297.29 1075.08 1297.14 1074.98 1297.11 1074.87 1297.1 1074.76 1297.1L1047.89 1297.1C1047.44 1297.08 1047.04 1297.35 1046.89 1297.77Z" fill="#323B52" transform="translate(-844.88 -905.19)"/><path d="M1082.18 1298 1081.28 1302.31C1081.15 1302.94 1081.55 1303.55 1082.17 1303.68 1082.26 1303.7 1082.34 1303.71 1082.42 1303.71L1108.85 1303.71C1109.4 1303.71 1109.88 1303.32 1109.99 1302.78L1110.89 1298.47C1111.02 1297.84 1110.61 1297.22 1109.97 1297.09 1109.9 1297.08 1109.82 1297.07 1109.75 1297.07L1083.32 1297.07C1082.77 1297.07 1082.29 1297.46 1082.18 1298Z" fill="#323B52" transform="translate(-844.88 -905.19)"/><path d="M1076.36 1290.18 1075.36 1294.52C1075.2 1295.17 1075.6 1295.83 1076.26 1296 1076.35 1296.02 1076.45 1296.03 1076.55 1296.03L1101 1296.03C1101.56 1296.03 1102.06 1295.65 1102.19 1295.1L1103.19 1290.76C1103.35 1290.1 1102.94 1289.43 1102.28 1289.27 1102.19 1289.25 1102.1 1289.24 1102 1289.24L1077.46 1289.24C1076.93 1289.28 1076.49 1289.66 1076.36 1290.18Z" fill="#323B52" transform="translate(-844.88 -905.19)"/><path d="M1111.06 1289.85 1110.06 1295.14C1109.98 1295.55 1110.25 1295.94 1110.66 1296.02 1110.7 1296.03 1110.75 1296.03 1110.8 1296.03L1136 1296.03C1136.36 1296.03 1136.67 1295.78 1136.74 1295.43L1137.81 1290.14C1137.89 1289.73 1137.63 1289.34 1137.23 1289.26 1137.18 1289.25 1137.13 1289.24 1137.08 1289.24L1111.8 1289.24C1111.44 1289.24 1111.13 1289.5 1111.06 1289.85Z" fill="#323B52" transform="translate(-844.88 -905.19)"/><path d="M1117.81 1297.62 1116.9 1303.01C1116.84 1303.35 1117.08 1303.68 1117.42 1303.73 1117.45 1303.74 1117.48 1303.74 1117.51 1303.74L1144.13 1303.74C1144.44 1303.74 1144.7 1303.52 1144.75 1303.22L1145.64 1297.83C1145.7 1297.49 1145.46 1297.16 1145.12 1297.11 1145.09 1297.1 1145.06 1297.1 1145.03 1297.1L1118.42 1297.1C1118.12 1297.1 1117.86 1297.32 1117.81 1297.62Z" fill="#323B52" transform="translate(-844.88 -905.19)"/><path d="M1151 1297.74 1150.28 1302.9C1150.22 1303.3 1150.51 1303.68 1150.91 1303.73 1150.95 1303.74 1150.98 1303.74 1151.01 1303.74L1178.59 1303.74C1178.98 1303.74 1179.3 1303.44 1179.32 1303.05L1179.68 1297.89C1179.71 1297.48 1179.4 1297.13 1178.99 1297.1 1178.98 1297.1 1178.96 1297.1 1178.95 1297.1L1151.7 1297.1C1151.34 1297.11 1151.04 1297.38 1151 1297.74Z" fill="#323B52" transform="translate(-844.88 -905.19)"/><path d="M1145 1289.5 1143.92 1295.67C1143.89 1295.84 1144.01 1296 1144.18 1296.03 1144.19 1296.03 1144.21 1296.03 1144.23 1296.03L1171.82 1296.03C1171.98 1296.03 1172.11 1295.9 1172.13 1295.74L1172.46 1289.57C1172.47 1289.4 1172.34 1289.25 1172.17 1289.24 1172.16 1289.24 1172.16 1289.24 1172.15 1289.24L1145.31 1289.24C1145.16 1289.24 1145.03 1289.35 1145 1289.5Z" fill="#323B52" transform="translate(-844.88 -905.19)"/><path d="M1188 1297.88 1187.76 1302.88C1187.73 1303.33 1188.07 1303.71 1188.52 1303.74 1188.54 1303.74 1188.55 1303.74 1188.57 1303.74L1212 1303.74C1212.45 1303.74 1212.82 1303.37 1212.81 1302.91 1212.81 1302.89 1212.81 1302.88 1212.81 1302.86L1212.45 1297.86C1212.41 1297.43 1212.06 1297.1 1211.63 1297.1L1188.82 1297.1C1188.38 1297.1 1188.02 1297.44 1188 1297.88Z" fill="#323B52" transform="translate(-844.88 -905.19)"/><path d="M1222 1298.34 1222.37 1303.08C1222.4 1303.45 1222.71 1303.74 1223.09 1303.74L1248.39 1303.74C1248.79 1303.74 1249.12 1303.41 1249.11 1303 1249.11 1302.98 1249.11 1302.95 1249.11 1302.93L1248.55 1298.2C1248.5 1297.84 1248.2 1297.57 1247.83 1297.57L1222.71 1297.57C1222.31 1297.57 1221.99 1297.9 1222 1298.3 1222 1298.31 1222 1298.33 1222 1298.34Z" fill="#323B52" transform="translate(-844.88 -905.19)"/><path d="M1256.42 1299.14 1256.9 1302.9C1256.98 1303.37 1257.37 1303.72 1257.85 1303.74L1282.21 1303.74C1282.76 1303.74 1283.21 1303.3 1283.21 1302.74 1283.21 1302.72 1283.21 1302.69 1283.21 1302.66L1282.76 1298.9C1282.69 1298.41 1282.26 1298.04 1281.76 1298.05L1257.37 1298.05C1256.82 1298.08 1256.39 1298.54 1256.42 1299.09 1256.42 1299.11 1256.42 1299.12 1256.42 1299.14Z" fill="#323B52" transform="translate(-844.88 -905.19)"/><path d="M1292.65 1298.89 1293.32 1303.11C1293.37 1303.47 1293.68 1303.74 1294.04 1303.74L1320.1 1303.74C1320.51 1303.74 1320.84 1303.41 1320.84 1303 1320.84 1302.93 1320.83 1302.86 1320.81 1302.8L1319.46 1298.11C1319.37 1297.79 1319.07 1297.57 1318.74 1297.58L1293.37 1298.04C1292.96 1298.05 1292.64 1298.38 1292.64 1298.79 1292.64 1298.82 1292.65 1298.86 1292.65 1298.89Z" fill="#323B52" transform="translate(-844.88 -905.19)"/><path d="M1327.68 1298.62 1328.92 1303.13C1329.02 1303.49 1329.35 1303.74 1329.72 1303.74L1355.72 1303.74C1356.18 1303.74 1356.55 1303.37 1356.56 1302.92 1356.56 1302.81 1356.54 1302.71 1356.5 1302.61L1354.79 1298.11C1354.67 1297.78 1354.36 1297.57 1354.01 1297.57L1328.49 1297.57C1328.03 1297.56 1327.66 1297.93 1327.65 1298.39 1327.65 1298.47 1327.66 1298.55 1327.68 1298.62Z" fill="#323B52" transform="translate(-844.88 -905.19)"/><path d="M1361.66 1298.55 1363.46 1303.27C1363.56 1303.55 1363.83 1303.74 1364.13 1303.74L1387.2 1303.74C1387.6 1303.73 1387.92 1303.4 1387.91 1302.99 1387.91 1302.91 1387.89 1302.82 1387.86 1302.74L1385.75 1298.02C1385.63 1297.76 1385.38 1297.59 1385.09 1297.59L1362.33 1297.59C1361.93 1297.59 1361.61 1297.92 1361.62 1298.32 1361.62 1298.4 1361.63 1298.48 1361.66 1298.55Z" fill="#323B52" transform="translate(-844.88 -905.19)"/><path d="M1389.48 1298.58 1391.48 1303.3C1391.59 1303.57 1391.85 1303.74 1392.14 1303.74L1439.14 1303.74C1439.54 1303.74 1439.87 1303.41 1439.87 1303.01 1439.87 1302.89 1439.84 1302.78 1439.79 1302.68L1437.38 1297.96C1437.25 1297.72 1437 1297.57 1436.73 1297.57L1390.06 1297.57C1389.66 1297.61 1389.38 1297.97 1389.42 1298.36 1389.43 1298.44 1389.45 1298.51 1389.48 1298.58Z" fill="#323B52" transform="translate(-844.88 -905.19)"/><path d="M1445.52 1298.09 1448.24 1303.54C1448.3 1303.66 1448.42 1303.74 1448.56 1303.74L1477.49 1303.74C1477.69 1303.73 1477.85 1303.56 1477.85 1303.36 1477.85 1303.29 1477.83 1303.23 1477.79 1303.17L1474.1 1297.73C1474.03 1297.63 1473.92 1297.57 1473.8 1297.57L1445.8 1297.57C1445.6 1297.59 1445.46 1297.77 1445.48 1297.97 1445.49 1298.01 1445.5 1298.05 1445.52 1298.09Z" fill="#323B52" transform="translate(-844.88 -905.19)"/><path d="M1179.69 1289.56 1179.36 1295.68C1179.35 1295.86 1179.49 1296.02 1179.67 1296.03 1179.68 1296.03 1179.69 1296.03 1179.7 1296.03L1205.87 1296.03C1206.05 1296.03 1206.2 1295.88 1206.2 1295.7L1206.2 1289.58C1206.2 1289.4 1206.05 1289.25 1205.87 1289.24L1180 1289.24C1179.83 1289.25 1179.7 1289.39 1179.69 1289.56Z" fill="#323B52" transform="translate(-844.88 -905.19)"/><path d="M1213.4 1290 1213.4 1295.29C1213.4 1295.7 1213.74 1296.04 1214.15 1296.04L1240.25 1296.04C1240.66 1296.04 1241 1295.7 1240.99 1295.28 1240.99 1295.26 1240.99 1295.24 1240.99 1295.22L1240.49 1289.93C1240.45 1289.55 1240.13 1289.25 1239.74 1289.25L1214.15 1289.25C1213.74 1289.26 1213.41 1289.59 1213.4 1290Z" fill="#323B52" transform="translate(-844.88 -905.19)"/><path d="M1247.43 1289.64 1247.92 1295.7C1247.93 1295.89 1248.09 1296.04 1248.28 1296.03L1275.41 1296.03C1275.61 1296.03 1275.77 1295.88 1275.78 1295.68 1275.78 1295.65 1275.78 1295.63 1275.77 1295.6L1274.62 1289.54C1274.59 1289.37 1274.44 1289.24 1274.26 1289.24L1247.79 1289.24C1247.59 1289.24 1247.43 1289.4 1247.43 1289.6 1247.43 1289.61 1247.43 1289.63 1247.43 1289.64Z" fill="#323B52" transform="translate(-844.88 -905.19)"/><path d="M1281.21 1289.76 1282.21 1295.66C1282.24 1295.88 1282.43 1296.04 1282.65 1296.03L1310.78 1296.03C1311.03 1296.03 1311.23 1295.83 1311.23 1295.58 1311.23 1295.55 1311.23 1295.51 1311.22 1295.48L1309.76 1289.58C1309.71 1289.38 1309.53 1289.24 1309.32 1289.24L1281.65 1289.24C1281.4 1289.24 1281.2 1289.45 1281.2 1289.69 1281.2 1289.72 1281.21 1289.74 1281.21 1289.76Z" fill="#323B52" transform="translate(-844.88 -905.19)"/><path d="M1316.32 1289.88 1317.91 1295.66C1317.96 1295.88 1318.16 1296.04 1318.39 1296.03L1345 1296.03C1345.28 1296.03 1345.5 1295.8 1345.5 1295.53 1345.5 1295.47 1345.49 1295.42 1345.47 1295.37L1343.47 1289.58C1343.4 1289.38 1343.2 1289.24 1342.99 1289.24L1316.83 1289.24C1316.55 1289.22 1316.32 1289.43 1316.3 1289.71 1316.3 1289.77 1316.3 1289.82 1316.32 1289.88Z" fill="#323B52" transform="translate(-844.88 -905.19)"/><path d="M1350.7 1290.22 1352.54 1295.54C1352.65 1295.84 1352.93 1296.03 1353.24 1296.03L1379.73 1296.03C1380.14 1296.03 1380.47 1295.7 1380.47 1295.29 1380.47 1295.2 1380.45 1295.11 1380.42 1295.03L1378.42 1289.71C1378.32 1289.42 1378.05 1289.23 1377.74 1289.23L1351.4 1289.23C1350.99 1289.23 1350.66 1289.56 1350.66 1289.97 1350.66 1290.05 1350.67 1290.14 1350.7 1290.22Z" fill="#323B52" transform="translate(-844.88 -905.19)"/><path d="M1385.62 1290.1 1388.15 1295.68C1388.25 1295.89 1388.46 1296.03 1388.7 1296.03L1435.28 1296.03C1435.62 1296.02 1435.88 1295.75 1435.88 1295.41 1435.88 1295.31 1435.85 1295.22 1435.81 1295.14L1432.81 1289.56C1432.7 1289.36 1432.5 1289.24 1432.28 1289.24L1386.17 1289.24C1385.83 1289.24 1385.56 1289.52 1385.57 1289.86 1385.57 1289.94 1385.59 1290.02 1385.62 1290.1Z" fill="#323B52" transform="translate(-844.88 -905.19)"/><path d="M1441.3 1290 1444.22 1295.71C1444.31 1295.89 1444.5 1296 1444.7 1296L1471.89 1296C1472.18 1296 1472.42 1295.77 1472.43 1295.48 1472.43 1295.36 1472.39 1295.24 1472.32 1295.15L1468.16 1289.43C1468.05 1289.29 1467.89 1289.21 1467.72 1289.21L1441.72 1289.21C1441.42 1289.24 1441.21 1289.51 1441.24 1289.8 1441.25 1289.87 1441.27 1289.94 1441.3 1290Z" fill="#323B52" transform="translate(-844.88 -905.19)"/><path d="M1028.05 1283.73 1027.05 1286.56C1026.86 1287.12 1027.16 1287.74 1027.72 1287.93 1027.83 1287.97 1027.94 1287.99 1028.05 1287.99L1051.24 1287.99C1051.69 1287.98 1052.09 1287.69 1052.24 1287.26L1053.24 1284.43C1053.43 1283.86 1053.13 1283.24 1052.56 1283.05 1052.46 1283.01 1052.35 1282.99 1052.24 1282.99L1029.03 1282.99C1028.58 1283.01 1028.19 1283.31 1028.05 1283.73Z" fill="#323B52" transform="translate(-844.88 -905.19)"/><path d="M1060.47 1283.24 1059.24 1287.57C1059.19 1287.75 1059.29 1287.93 1059.47 1287.98 1059.5 1287.99 1059.53 1287.99 1059.56 1287.99L1085.24 1287.99C1085.39 1287.99 1085.52 1287.89 1085.57 1287.75L1086.76 1283.41C1086.81 1283.23 1086.71 1283.05 1086.53 1283 1086.5 1282.99 1086.47 1282.99 1086.44 1282.99L1060.79 1282.99C1060.64 1282.99 1060.51 1283.09 1060.47 1283.24Z" fill="#323B52" transform="translate(-844.88 -905.19)"/><path d="M1091.47 1283.21 1090.27 1287.63C1090.23 1287.79 1090.33 1287.94 1090.48 1287.98 1090.5 1287.99 1090.53 1287.99 1090.55 1287.99L1116.82 1287.99C1116.96 1287.99 1117.08 1287.89 1117.1 1287.76L1117.95 1283.34C1117.98 1283.18 1117.88 1283.03 1117.73 1283 1117.71 1282.99 1117.69 1282.99 1117.67 1282.99L1091.75 1282.99C1091.62 1282.99 1091.5 1283.08 1091.47 1283.21Z" fill="#323B52" transform="translate(-844.88 -905.19)"/><path d="M1128.09 1283.24 1127.31 1287.64C1127.28 1287.8 1127.38 1287.95 1127.53 1287.98 1127.56 1287.99 1127.58 1287.99 1127.6 1287.99L1153.34 1287.99C1153.49 1287.99 1153.62 1287.87 1153.64 1287.72L1153.99 1283.32C1154.01 1283.16 1153.89 1283.01 1153.72 1282.99 1153.71 1282.99 1153.7 1282.99 1153.69 1282.99L1128.38 1282.99C1128.24 1282.99 1128.11 1283.1 1128.09 1283.24Z" fill="#323B52" transform="translate(-844.88 -905.19)"/><path d="M1162.89 1283.26 1162.4 1287.66C1162.38 1287.82 1162.5 1287.97 1162.67 1287.99 1162.68 1287.99 1162.69 1287.99 1162.7 1287.99L1188.51 1287.99C1188.68 1287.99 1188.81 1287.86 1188.81 1287.69L1188.81 1283.29C1188.8 1283.13 1188.67 1283 1188.51 1282.99L1163.19 1282.99C1163.04 1282.99 1162.91 1283.11 1162.89 1283.26Z" fill="#323B52" transform="translate(-844.88 -905.19)"/><path d="M1197.87 1283.32 1197.87 1287.67C1197.87 1287.85 1198.01 1287.99 1198.19 1287.99 1198.19 1287.99 1198.2 1287.99 1198.2 1287.99L1222.73 1287.99C1222.91 1287.99 1223.06 1287.84 1223.06 1287.66 1223.06 1287.65 1223.06 1287.63 1223.06 1287.62L1222.42 1283.27C1222.4 1283.11 1222.26 1282.99 1222.1 1282.99L1198.2 1282.99C1198.02 1282.99 1197.87 1283.14 1197.87 1283.32Z" fill="#323B52" transform="translate(-844.88 -905.19)"/><path d="M1232.54 1283.36 1233.03 1287.7C1233.05 1287.87 1233.19 1287.99 1233.36 1287.99L1256.21 1287.99C1256.39 1287.99 1256.54 1287.85 1256.54 1287.66 1256.54 1287.65 1256.54 1287.63 1256.54 1287.61L1255.84 1283.27C1255.81 1283.11 1255.67 1282.99 1255.51 1282.99L1232.86 1282.99C1232.68 1282.99 1232.54 1283.13 1232.54 1283.31 1232.54 1283.32 1232.54 1283.34 1232.54 1283.36Z" fill="#323B52" transform="translate(-844.88 -905.19)"/><path d="M1264.12 1283.54 1264.71 1287.54C1264.75 1287.77 1264.95 1287.94 1265.19 1287.94L1290.43 1287.94C1290.69 1287.95 1290.91 1287.74 1290.91 1287.48 1290.91 1287.44 1290.91 1287.4 1290.9 1287.36L1289.9 1283.31C1289.85 1283.09 1289.66 1282.94 1289.44 1282.94L1264.6 1282.94C1264.33 1282.94 1264.11 1283.16 1264.11 1283.43 1264.11 1283.47 1264.11 1283.5 1264.12 1283.54Z" fill="#323B52" transform="translate(-844.88 -905.19)"/><path d="M1297.53 1283.69 1298.41 1287.55C1298.47 1287.81 1298.7 1287.99 1298.96 1287.99L1324.21 1287.99C1324.52 1287.99 1324.77 1287.74 1324.77 1287.43 1324.77 1287.38 1324.77 1287.32 1324.75 1287.27L1323.63 1283.4C1323.56 1283.16 1323.33 1282.99 1323.08 1282.99L1298.08 1282.99C1297.77 1282.99 1297.51 1283.25 1297.51 1283.56 1297.52 1283.61 1297.52 1283.65 1297.53 1283.69Z" fill="#323B52" transform="translate(-844.88 -905.19)"/><path d="M1331.08 1283.7 1331.98 1287.55C1332.04 1287.81 1332.27 1287.99 1332.54 1287.99L1358.54 1287.99C1358.85 1287.99 1359.11 1287.73 1359.11 1287.42 1359.11 1287.35 1359.1 1287.28 1359.07 1287.21L1357.51 1283.35C1357.42 1283.13 1357.21 1282.99 1356.98 1282.99L1331.59 1282.99C1331.28 1283.01 1331.04 1283.29 1331.06 1283.6 1331.07 1283.63 1331.07 1283.67 1331.08 1283.7Z" fill="#323B52" transform="translate(-844.88 -905.19)"/><path d="M1365.47 1283.59 1366.93 1287.69C1366.99 1287.87 1367.16 1287.99 1367.35 1287.99L1391.28 1287.99C1391.53 1287.99 1391.73 1287.79 1391.73 1287.54 1391.73 1287.48 1391.72 1287.43 1391.7 1287.37L1390.04 1283.27C1389.97 1283.1 1389.8 1282.99 1389.62 1282.99L1365.89 1282.99C1365.64 1282.99 1365.44 1283.2 1365.44 1283.44 1365.44 1283.49 1365.45 1283.54 1365.47 1283.59Z" fill="#323B52" transform="translate(-844.88 -905.19)"/><path d="M1399.31 1283.77 1400.95 1287.65C1401.03 1287.86 1401.24 1287.99 1401.46 1287.99L1431.3 1287.99C1431.6 1287.99 1431.85 1287.74 1431.85 1287.44 1431.85 1287.35 1431.83 1287.25 1431.78 1287.17L1429.65 1283.28C1429.55 1283.1 1429.36 1282.99 1429.16 1282.99L1399.83 1282.99C1399.52 1283 1399.26 1283.26 1399.27 1283.57 1399.27 1283.64 1399.28 1283.71 1399.31 1283.77Z" fill="#323B52" transform="translate(-844.88 -905.19)"/><path d="M1438.44 1283.77 1440.34 1287.69C1440.43 1287.88 1440.62 1287.99 1440.83 1287.99L1466.47 1287.99C1466.77 1287.99 1467.01 1287.75 1467.01 1287.45 1467.01 1287.34 1466.98 1287.24 1466.92 1287.15L1464.26 1283.23C1464.16 1283.08 1463.99 1282.99 1463.81 1282.99L1438.92 1282.99C1438.62 1282.99 1438.38 1283.24 1438.38 1283.53 1438.38 1283.62 1438.4 1283.7 1438.44 1283.77Z" fill="#323B52" transform="translate(-844.88 -905.19)"/><path d="M1030.32 1277.65 1029.2 1280.77C1028.97 1281.27 1029.19 1281.87 1029.7 1282.09 1029.85 1282.17 1030.03 1282.2 1030.2 1282.18L1053 1282.18C1053.46 1282.2 1053.88 1281.89 1054 1281.44L1055 1278.31C1055.17 1277.75 1054.85 1277.17 1054.29 1277 1054.2 1276.98 1054.1 1276.96 1054 1276.96L1031.33 1276.96C1030.88 1276.95 1030.48 1277.23 1030.32 1277.65Z" fill="#323B52" transform="translate(-844.88 -905.19)"/><path d="M1061.88 1277.13 1060.67 1281.66C1060.61 1281.89 1060.75 1282.11 1060.98 1282.17 1061.01 1282.18 1061.05 1282.18 1061.08 1282.18L1086.54 1282.18C1086.73 1282.18 1086.9 1282.05 1086.95 1281.86L1087.95 1277.47C1088 1277.24 1087.86 1277.02 1087.63 1276.97 1087.6 1276.96 1087.58 1276.96 1087.55 1276.96L1062.27 1276.82C1062.09 1276.83 1061.93 1276.95 1061.88 1277.13Z" fill="#323B52" transform="translate(-844.88 -905.19)"/><path d="M1093 1277 1091.93 1281.8C1091.9 1281.95 1091.99 1282.1 1092.14 1282.13 1092.17 1282.14 1092.19 1282.14 1092.21 1282.14L1117.79 1282.14C1117.92 1282.14 1118.04 1282.04 1118.06 1281.91L1118.98 1277.03C1119.01 1276.88 1118.91 1276.73 1118.75 1276.7 1118.74 1276.7 1118.72 1276.7 1118.7 1276.7L1093.27 1276.78C1093.14 1276.78 1093.03 1276.87 1093 1277Z" fill="#323B52" transform="translate(-844.88 -905.19)"/><path d="M1124.89 1277 1124 1281.79C1123.97 1281.97 1124.09 1282.14 1124.26 1282.17 1124.28 1282.18 1124.3 1282.18 1124.32 1282.18L1148 1282.18C1148.16 1282.18 1148.31 1282.06 1148.33 1281.9L1148.99 1277.07C1149.01 1276.89 1148.88 1276.72 1148.7 1276.7 1148.69 1276.7 1148.67 1276.7 1148.66 1276.7L1125.27 1276.7C1125.09 1276.67 1124.92 1276.79 1124.89 1276.97 1124.89 1276.98 1124.89 1276.99 1124.89 1277Z" fill="#323B52" transform="translate(-844.88 -905.19)"/><path d="M1157.29 1277.18 1156.78 1281.63C1156.75 1281.9 1156.95 1282.15 1157.23 1282.18 1157.24 1282.18 1157.26 1282.18 1157.27 1282.18L1179.27 1282.18C1179.53 1282.18 1179.75 1281.98 1179.77 1281.72L1180.07 1277.27C1180.09 1276.99 1179.88 1276.76 1179.6 1276.74 1179.59 1276.74 1179.58 1276.74 1179.57 1276.74L1157.82 1276.74C1157.55 1276.72 1157.32 1276.92 1157.29 1277.18Z" fill="#323B52" transform="translate(-844.88 -905.19)"/><path d="M1187.68 1277.26 1187.68 1281.66C1187.68 1281.95 1187.91 1282.18 1188.2 1282.18L1211.52 1282.18C1211.81 1282.18 1212.04 1281.95 1212.04 1281.66 1212.04 1281.65 1212.04 1281.63 1212.04 1281.61L1211.58 1277.08C1211.55 1276.81 1211.33 1276.61 1211.06 1276.61L1188.19 1276.74C1187.91 1276.74 1187.68 1276.97 1187.68 1277.25 1187.68 1277.25 1187.68 1277.26 1187.68 1277.26Z" fill="#323B52" transform="translate(-844.88 -905.19)"/><path d="M1218.49 1277.24 1218.84 1281.64C1218.87 1281.95 1219.12 1282.18 1219.43 1282.18L1242.51 1282.18C1242.84 1282.18 1243.11 1281.9 1243.1 1281.57 1243.1 1281.56 1243.1 1281.54 1243.1 1281.52L1242.55 1277.08C1242.51 1276.78 1242.26 1276.56 1241.96 1276.56L1219.08 1276.56C1218.75 1276.56 1218.49 1276.82 1218.48 1277.14 1218.48 1277.18 1218.48 1277.21 1218.49 1277.24Z" fill="#323B52" transform="translate(-844.88 -905.19)"/><path d="M1248.91 1277.21 1249.46 1281.67C1249.5 1281.96 1249.75 1282.18 1250.04 1282.18L1273.71 1282.18C1274.04 1282.18 1274.3 1281.91 1274.29 1281.58 1274.29 1281.54 1274.29 1281.5 1274.28 1281.46L1273.28 1277.05C1273.21 1276.79 1272.98 1276.6 1272.71 1276.6L1249.53 1276.6C1249.2 1276.58 1248.93 1276.83 1248.91 1277.16 1248.91 1277.18 1248.91 1277.19 1248.91 1277.21Z" fill="#323B52" transform="translate(-844.88 -905.19)"/><path d="M1280.18 1277.32 1281.02 1281.66C1281.08 1281.96 1281.35 1282.18 1281.66 1282.18L1306 1282.18C1306.35 1282.18 1306.64 1281.9 1306.64 1281.54 1306.64 1281.48 1306.64 1281.43 1306.62 1281.37L1305.45 1277.02C1305.37 1276.74 1305.12 1276.55 1304.83 1276.55L1280.83 1276.55C1280.47 1276.54 1280.18 1276.83 1280.17 1277.19 1280.17 1277.23 1280.17 1277.28 1280.18 1277.32Z" fill="#323B52" transform="translate(-844.88 -905.19)"/><path d="M1311.87 1277.32 1312.95 1281.71C1313.02 1281.99 1313.27 1282.18 1313.55 1282.18L1336.69 1282.18C1337.03 1282.19 1337.31 1281.91 1337.32 1281.57 1337.32 1281.5 1337.31 1281.43 1337.29 1281.37L1335.81 1276.85C1335.73 1276.59 1335.48 1276.42 1335.21 1276.43L1312.47 1276.55C1312.13 1276.55 1311.85 1276.83 1311.85 1277.17 1311.85 1277.22 1311.86 1277.27 1311.87 1277.32Z" fill="#323B52" transform="translate(-844.88 -905.19)"/><path d="M1343.56 1277.14 1345.04 1281.79C1345.12 1282.02 1345.33 1282.18 1345.58 1282.18L1368.24 1282.18C1368.55 1282.18 1368.8 1281.93 1368.8 1281.62 1368.8 1281.56 1368.79 1281.5 1368.77 1281.45L1367.25 1276.77C1367.18 1276.54 1366.96 1276.38 1366.72 1276.38L1344.09 1276.38C1343.78 1276.38 1343.53 1276.62 1343.52 1276.93 1343.52 1277 1343.53 1277.07 1343.56 1277.14Z" fill="#323B52" transform="translate(-844.88 -905.19)"/><path d="M1373.86 1277.39 1375.47 1281.71C1375.57 1281.99 1375.84 1282.18 1376.14 1282.18L1397.94 1282.18C1398.33 1282.19 1398.66 1281.88 1398.67 1281.49 1398.67 1281.39 1398.65 1281.28 1398.61 1281.18L1396.94 1276.81C1396.84 1276.53 1396.57 1276.35 1396.27 1276.35L1374.54 1276.35C1374.14 1276.34 1373.8 1276.66 1373.79 1277.06 1373.79 1277.17 1373.81 1277.29 1373.86 1277.39Z" fill="#323B52" transform="translate(-844.88 -905.19)"/><path d="M1405.36 1277.21 1407.36 1281.83C1407.46 1282.04 1407.67 1282.18 1407.9 1282.18L1428.13 1282.18C1428.46 1282.18 1428.72 1281.92 1428.73 1281.6 1428.73 1281.51 1428.71 1281.42 1428.67 1281.34L1426.47 1276.72C1426.37 1276.51 1426.16 1276.38 1425.93 1276.38L1405.93 1276.38C1405.6 1276.37 1405.32 1276.63 1405.31 1276.96 1405.31 1277.05 1405.33 1277.13 1405.36 1277.21Z" fill="#323B52" transform="translate(-844.88 -905.19)"/><path d="M1435.4 1277.27 1437.51 1281.78C1437.63 1282.03 1437.88 1282.18 1438.15 1282.18L1462.24 1282.18C1462.62 1282.18 1462.93 1281.87 1462.93 1281.49 1462.93 1281.35 1462.89 1281.22 1462.81 1281.1L1459.73 1276.55C1459.6 1276.36 1459.38 1276.24 1459.15 1276.24L1436.03 1276.24C1435.64 1276.23 1435.32 1276.54 1435.32 1276.93 1435.32 1277.05 1435.34 1277.16 1435.4 1277.27Z" fill="#323B52" transform="translate(-844.88 -905.19)"/><path d="M1269.87 1367.86 1063.42 1367.86C1061.21 1367.91 1059.38 1366.15 1059.34 1363.95 1059.33 1363.64 1059.36 1363.34 1059.42 1363.04L1065.06 1334.42C1065.42 1332.5 1067.11 1331.13 1069.06 1331.16L1266.23 1331.16C1268.27 1331.15 1269.99 1332.67 1270.23 1334.69L1273.87 1363.31C1274.17 1365.5 1272.65 1367.52 1270.46 1367.82 1270.26 1367.85 1270.07 1367.86 1269.87 1367.86Z" fill="#B9C8ED" transform="translate(-844.88 -905.19)"/><path d="M848.26 1371.59 874.51 1389.71C874.838 1389.92 875.22 1390.03 875.61 1390.03L1529 1390.03C1529.49 1390.03 1529.97 1389.84 1530.33 1389.5L1550.08 1372.5Z" fill="#4F5E82" transform="translate(-844.88 -905.19)"/><rect x="95.48" y="30.33" rx="6.81" width="519.9" height="290.02" fill="#6B80B0"/><path d="M1273.38 1315.5 1275.12 1323.43C1275.16 1323.65 1275.36 1323.81 1275.59 1323.81L1303.43 1323.81C1303.7 1323.81 1303.92 1323.59 1303.92 1323.32 1303.92 1323.29 1303.92 1323.25 1303.91 1323.22L1302.17 1315.29C1302.12 1315.07 1301.93 1314.91 1301.7 1314.91L1273.85 1314.91C1273.58 1314.91 1273.37 1315.12 1273.37 1315.39 1273.37 1315.43 1273.37 1315.46 1273.38 1315.5Z" fill="#323B52" transform="translate(-844.88 -905.19)"/><path d="M1310.24 1315.52 1311.97 1323.41C1312.02 1323.64 1312.22 1323.81 1312.46 1323.81L1340.89 1323.81C1341.17 1323.81 1341.39 1323.59 1341.39 1323.31 1341.39 1323.26 1341.38 1323.22 1341.37 1323.17L1339.26 1315.28C1339.2 1315.06 1339 1314.91 1338.77 1314.91L1310.77 1314.91C1310.49 1314.89 1310.25 1315.09 1310.23 1315.37 1310.22 1315.42 1310.23 1315.47 1310.24 1315.52Z" fill="#323B52" transform="translate(-844.88 -905.19)"/><path d="M1346.6 1315.56 1348.71 1323.42C1348.76 1323.65 1348.97 1323.81 1349.2 1323.81L1377.89 1323.81C1378.18 1323.81 1378.41 1323.57 1378.41 1323.29 1378.4 1323.23 1378.4 1323.18 1378.38 1323.13L1375.81 1315.26C1375.74 1315.05 1375.54 1314.91 1375.32 1314.91L1347.09 1314.91C1346.81 1314.91 1346.58 1315.14 1346.58 1315.42 1346.58 1315.47 1346.59 1315.51 1346.6 1315.56Z" fill="#323B52" transform="translate(-844.88 -905.19)"/><path d="M1385 1320.51 1385.94 1323.51C1386 1323.68 1386.15 1323.8 1386.33 1323.8L1414.19 1323.8C1414.41 1323.8 1414.59 1323.62 1414.59 1323.4 1414.59 1323.35 1414.58 1323.3 1414.56 1323.25L1413.45 1320.25C1413.39 1320.09 1413.24 1319.99 1413.07 1319.99L1385.39 1319.99C1385.17 1319.99 1384.99 1320.16 1384.98 1320.38 1384.98 1320.43 1384.99 1320.47 1385 1320.51Z" fill="#323B52" transform="translate(-844.88 -905.19)"/><path d="M1422 1320.62 1423.25 1323.53C1423.32 1323.7 1423.48 1323.81 1423.66 1323.81L1451.9 1323.81C1452.15 1323.8 1452.35 1323.59 1452.34 1323.33 1452.34 1323.25 1452.32 1323.17 1452.27 1323.1L1450.27 1320.19C1450.19 1320.06 1450.05 1319.99 1449.9 1319.99L1422.41 1319.99C1422.16 1319.99 1421.96 1320.19 1421.96 1320.44 1421.96 1320.5 1421.98 1320.56 1422 1320.62Z" fill="#323B52" transform="translate(-844.88 -905.19)"/><path d="M1458.39 1320.63 1460.39 1323.63C1460.46 1323.75 1460.59 1323.82 1460.73 1323.82L1490.11 1323.82C1490.34 1323.82 1490.53 1323.63 1490.53 1323.4 1490.53 1323.31 1490.5 1323.21 1490.44 1323.14L1488.06 1320.14C1487.98 1320.04 1487.87 1319.98 1487.74 1319.98L1458.74 1319.98C1458.51 1319.98 1458.32 1320.17 1458.32 1320.4 1458.32 1320.48 1458.35 1320.56 1458.39 1320.63Z" fill="#323B52" transform="translate(-844.88 -905.19)"/><path d="M1420.42 1316.19 1421.66 1318.67C1421.73 1318.8 1421.86 1318.88 1422.01 1318.88L1448.37 1318.88C1448.59 1318.88 1448.76 1318.7 1448.76 1318.49 1448.75 1318.4 1448.73 1318.33 1448.68 1318.26L1446.82 1315.78C1446.75 1315.68 1446.63 1315.63 1446.51 1315.63L1420.77 1315.63C1420.55 1315.63 1420.38 1315.81 1420.38 1316.02 1420.38 1316.08 1420.39 1316.14 1420.42 1316.19Z" fill="#323B52" transform="translate(-844.88 -905.19)"/><path d="M1460.26 946.45 1460.26 1218.74C1460.25 1222.5 1457.2 1225.55 1453.44 1225.55L947.17 1225.55C943.409 1225.55 940.36 1222.5 940.36 1218.74L940.36 946.45Z" fill="#FFFFFF" transform="translate(-844.88 -905.19)"/><path d="M957.41 940.61C957.41 942.267 956.067 943.61 954.41 943.61 952.753 943.61 951.41 942.267 951.41 940.61 951.41 938.953 952.753 937.61 954.41 937.61 956.067 937.61 957.41 938.953 957.41 940.61Z" fill="#FFFFFF" transform="translate(-844.88 -905.19)"/><path d="M969.14 940.61C969.14 942.267 967.797 943.61 966.14 943.61 964.483 943.61 963.14 942.267 963.14 940.61 963.14 938.953 964.483 937.61 966.14 937.61 967.797 937.61 969.14 938.953 969.14 940.61Z" fill="#D3DAED" transform="translate(-844.88 -905.19)"/><circle cx="132.47" cy="35.42" r="3.03" fill="#ED4F7A"/><rect x="115.38" y="49.94" width="16.97" height="16.97" fill="#FFFFFF"/><rect x="139.24" y="56.01" width="76.74" height="10.9" fill="#FFFFFF"/><rect x="115.13" y="88.35" width="101.6" height="6.94" fill="#FFFFFF"/><rect x="115.13" y="106.26" width="101.6" height="6.94" fill="#FFFFFF"/><rect x="115.13" y="124.76" width="101.6" height="6.94" fill="#FFFFFF"/><rect x="115.13" y="142.93" width="101.6" height="6.94" fill="#FFFFFF"/><rect x="115.13" y="161.44" width="101.6" height="6.94" fill="#FFFFFF"/><rect x="115.13" y="196.47" width="101.6" height="6.94" fill="#FFFFFF"/><rect x="115.13" y="214.98" width="101.6" height="6.94" fill="#FFFFFF"/><rect x="115.13" y="233.14" width="101.6" height="6.94" fill="#FFFFFF"/><rect x="115.13" y="251.65" width="101.6" height="6.94" fill="#FFFFFF"/></svg>