<svg viewBox="0 0 540.06 1100.58" xmlns="http://www.w3.org/2000/svg" xmlns:xlink="http://www.w3.org/1999/xlink" id="Device" overflow="hidden"><defs></defs><path d="M1214 2050.12 842.32 2050.12C797.4 2049.92 759.45 2011.62 759.64 1966.71L763.64 1030.54C763.833 985.612 800.41 949.347 845.338 949.54 845.346 949.54 845.353 949.54 845.36 949.54L1218.78 951.27C1263.7 951.457 1299.97 988.026 1299.78 1032.95 1299.78 1032.95 1299.78 1032.95 1299.78 1032.95L1295.78 1969.12C1295.59 2014.04 1259.02 2050.31 1214.1 2050.12 1214.07 2050.12 1214.03 2050.12 1214 2050.12Z" fill="#263238" transform="translate(-759.64 -949.54)"/><path d="M1218.2 990.58 1145.8 990.25C1136.09 990.25 1128.18 998.4 1128.14 1008.55L1128.08 1021.68C1128.08 1031.83 1120.13 1040.02 1110.43 1039.98L969.3 1039.33C959.6 1039.33 951.76 1031.02 951.8 1020.87L951.86 1007.73C951.86 997.58 944.06 989.32 934.35 989.27L908.89 989.16 845.52 988.86C814.055 988.733 788.439 1014.13 788.29 1045.59L784.43 1959.36C784.314 1990.81 809.685 2016.4 841.13 2016.57L1213.81 2018.29C1245.27 2018.42 1270.89 1993.02 1271.04 1961.56L1274.9 1047.79C1275.02 1016.34 1249.65 990.745 1218.2 990.58Z" fill="#E0E0E0" transform="translate(-759.64 -949.54)"/><path d="M1218.2 990.58 1145.8 990.25C1136.09 990.25 1128.18 998.4 1128.14 1008.55L1128.08 1021.68C1128.08 1031.83 1120.13 1040.02 1110.43 1039.98L969.3 1039.33C959.6 1039.33 951.76 1031.02 951.8 1020.87L951.86 1007.73C951.86 997.58 944.06 989.32 934.35 989.27L908.89 989.16 845.52 988.86C814.055 988.733 788.439 1014.13 788.29 1045.59L787.8 1163.08 1274.41 1163.08 1274.9 1047.79C1275.02 1016.34 1249.65 990.745 1218.2 990.58Z" fill="#FF725E" transform="translate(-759.64 -949.54)"/><path d="M824.67 1123.57C824.286 1123.57 823.92 1123.4 823.67 1123.11L813.77 1111.35C813.341 1110.84 813.367 1110.09 813.83 1109.61L823.73 1099.4C824.261 1098.92 825.083 1098.95 825.566 1099.49 826.01 1099.97 826.02 1100.71 825.59 1101.21L816.51 1110.58 825.66 1121.43C826.121 1121.98 826.049 1122.8 825.5 1123.26 825.27 1123.46 824.975 1123.57 824.67 1123.57Z" fill="#FFFFFF" transform="translate(-759.64 -949.54)"/><path d="M837.7 1112 815.19 1112C814.472 1112 813.89 1111.42 813.89 1110.7 813.89 1109.98 814.472 1109.4 815.19 1109.4L837.7 1109.4C838.418 1109.4 839 1109.98 839 1110.7 839 1111.42 838.418 1112 837.7 1112Z" fill="#FFFFFF" transform="translate(-759.64 -949.54)"/><path d="M1223.65 1100.4C1223.65 1102.21 1222.19 1103.67 1220.38 1103.67 1218.57 1103.67 1217.11 1102.21 1217.11 1100.4 1217.11 1098.59 1218.57 1097.13 1220.38 1097.13 1222.18 1097.14 1223.64 1098.6 1223.65 1100.4Z" fill="#FFFFFF" transform="translate(-759.64 -949.54)"/><path d="M1223.65 1111.29C1223.65 1113.1 1222.19 1114.56 1220.38 1114.56 1218.57 1114.56 1217.11 1113.1 1217.11 1111.29 1217.11 1109.48 1218.57 1108.02 1220.38 1108.02 1222.18 1108.03 1223.64 1109.49 1223.65 1111.29Z" fill="#FFFFFF" transform="translate(-759.64 -949.54)"/><circle cx="460.74" cy="172.64" r="3.27" fill="#FFFFFF"/><rect x="27.15" y="213.53" width="485.46" height="780.88" fill="#FFFFFF"/></svg>